<svg width="238" height="63" viewBox="0 0 238 63" fill="none" xmlns="http://www.w3.org/2000/svg"><rect x="1" y="19" width="235.5" height="43" rx="11" stroke="#fff" stroke-width="2"/><g filter="url(#filter0_d_1_30)"><path d="M27.366 44.158c-.624.036-.984-.216-1.08-.756a.724.724 0 01.198-.63c.168-.192.402-.294.702-.306a19.916 19.916 0 002.07-.162 15.74 15.74 0 001.674-.342l-.27-.072c-.672-.156-1.11-.42-1.314-.792-.192-.372-.168-.792.072-1.26h-2.304a.815.815 0 01-.54-.18.732.732 0 01-.234-.468.546.546 0 01-.162.018c-.276 0-.516-.09-.72-.27-.204-.18-.306-.426-.306-.738v-.378c0-.924.222-1.572.666-1.944.444-.384 1.206-.576 2.286-.576h3.744v-.738c0-.348.108-.612.324-.792.216-.18.48-.27.792-.27.312 0 .576.09.792.27.216.18.324.444.324.792v.738h3.78c1.068 0 1.824.192 2.268.576.444.372.666 1.02.666 1.944v.378c0 .312-.102.558-.306.738a.989.989 0 01-.864.252.775.775 0 01-.27.468.746.746 0 01-.522.18h-1.89c-.456.6-.972 1.14-1.548 1.62.528.144 1.068.294 1.62.45.552.156 1.104.318 1.656.486a.877.877 0 01.558.45c.12.216.132.462.036.738a.863.863 0 01-.54.54c-.252.096-.51.096-.774 0a43.774 43.774 0 00-2.124-.756 47.399 47.399 0 00-2.214-.702c-.804.408-1.716.738-2.736.99-1.02.252-2.19.42-3.51.504zM33 50.8c-.3 0-.552-.096-.756-.288-.204-.192-.306-.444-.306-.756v-2.628c-.48.36-1.02.726-1.62 1.098-.6.36-1.212.69-1.836.99-.612.312-1.2.576-1.764.792-.3.12-.582.15-.846.09-.252-.048-.444-.204-.576-.468a.927.927 0 01-.054-.774.92.92 0 01.576-.54 19.24 19.24 0 002.304-.972c.84-.408 1.608-.822 2.304-1.242h-4.878a.746.746 0 01-.576-.234.836.836 0 01-.198-.558c0-.216.066-.402.198-.558a.746.746 0 01.576-.234h6.39v-.414c0-.312.102-.564.306-.756.204-.192.456-.288.756-.288.288 0 .534.096.738.288.204.192.306.444.306.756v.414h6.426c.252 0 .444.078.576.234a.794.794 0 01.216.558.794.794 0 01-.216.558c-.132.156-.324.234-.576.234h-4.788c.672.384 1.416.762 2.232 1.134.816.36 1.572.654 2.268.882a.935.935 0 01.594.486c.12.24.126.498.018.774-.132.312-.336.504-.612.576-.264.084-.54.072-.828-.036-.564-.216-1.17-.48-1.818-.792a25.804 25.804 0 01-1.89-1.008c-.6-.372-1.134-.732-1.602-1.08v2.718c0 .312-.102.564-.306.756-.204.192-.45.288-.738.288zm-.036-12.6h5.796v-.378c0-.336-.084-.57-.252-.702-.168-.132-.468-.198-.9-.198h-3.636a.79.79 0 01-.09.162c-.12.156-.264.33-.432.522l-.486.594zm-5.76 0h3.474l.54-.648c.18-.228.348-.438.504-.63h-3.366c-.444 0-.75.066-.918.198-.156.132-.234.366-.234.702v.378zm6.012 2.736c.48-.336.912-.702 1.296-1.098h-2.898c-.156.228-.216.408-.18.54.048.132.234.228.558.288l.612.144c.204.036.408.078.612.126zm22.05 9.594c-.3 0-.564-.102-.792-.306-.216-.204-.324-.474-.324-.81v-4.95h-4.104c-.288 0-.534-.096-.738-.288a1.038 1.038 0 01-.288-.738c0-.288.096-.528.288-.72.204-.204.45-.306.738-.306h4.104v-3.024h-2.304c-.12.312-.252.618-.396.918-.144.288-.282.552-.414.792a1.36 1.36 0 01-.648.594c-.288.12-.582.108-.882-.036a1.048 1.048 0 01-.54-.594c-.084-.276-.06-.54.072-.792.228-.42.462-.912.702-1.476a30.09 30.09 0 00.702-1.71c.216-.588.384-1.098.504-1.53.084-.312.258-.534.522-.666.264-.144.534-.174.81-.09.312.096.534.264.666.504s.15.516.054.828c-.06.192-.126.396-.198.612-.06.216-.126.426-.198.63h1.548v-2.394c0-.336.108-.606.324-.81.228-.204.492-.306.792-.306.312 0 .57.102.774.306.216.204.324.474.324.81v2.394h2.97c.276 0 .51.102.702.306a.928.928 0 01.306.702.985.985 0 01-.306.72.955.955 0 01-.702.288h-2.97v3.024H60c.276 0 .516.102.72.306a.948.948 0 01.306.72A1.016 1.016 0 0160 44.464h-3.636v4.95c0 .336-.108.606-.324.81a1.049 1.049 0 01-.774.306zm-7.776.054c-.288 0-.534-.096-.738-.288a1 1 0 01-.288-.738V41.71l-.396.612-.396.576a1.026 1.026 0 01-.684.414 1.08 1.08 0 01-.792-.162.891.891 0 01-.414-.63 1.023 1.023 0 01.162-.774c.336-.468.684-1.008 1.044-1.62.372-.624.732-1.272 1.08-1.944.348-.672.666-1.32.954-1.944.288-.636.516-1.2.684-1.692.12-.324.306-.54.558-.648.252-.12.522-.132.81-.036.276.096.468.264.576.504.12.24.126.51.018.81-.144.42-.318.864-.522 1.332-.192.468-.402.942-.63 1.422v11.628c0 .3-.102.546-.306.738a1.016 1.016 0 01-.72.288zm26.316-1.638a1.1 1.1 0 01-.846-.126 1.043 1.043 0 01-.504-.666 1.014 1.014 0 01.126-.81c.156-.264.378-.432.666-.504 1.332-.348 2.31-.912 2.934-1.692.636-.78.954-1.77.954-2.97 0-.756-.168-1.434-.504-2.034a3.901 3.901 0 00-1.44-1.458c-.612-.372-1.35-.6-2.214-.684-.216 2.016-.582 3.762-1.098 5.238-.504 1.464-1.104 2.598-1.8 3.402-.684.792-1.404 1.188-2.16 1.188a2.965 2.965 0 01-1.746-.558c-.528-.372-.948-.906-1.26-1.602-.3-.696-.45-1.53-.45-2.502 0-.996.186-1.926.558-2.79a7.04 7.04 0 011.62-2.304 7.592 7.592 0 012.448-1.548c.948-.372 1.986-.558 3.114-.558 1.368 0 2.58.264 3.636.792 1.068.516 1.908 1.242 2.52 2.178.612.924.918 2.004.918 3.24 0 1.74-.468 3.192-1.404 4.356-.924 1.152-2.28 1.956-4.068 2.412zm-5.868-3.33c.216 0 .462-.18.738-.54.288-.372.576-.894.864-1.566.288-.672.552-1.464.792-2.376.24-.924.42-1.944.54-3.06-.936.18-1.722.528-2.358 1.044a4.899 4.899 0 00-1.44 1.818 5.345 5.345 0 00-.504 2.196c0 .816.126 1.434.378 1.854.264.42.594.63.99.63zm18.936 4.914a.966.966 0 01-.684-.27c-.192-.18-.288-.42-.288-.72v-6.552a78.75 78.75 0 01-1.908.216c-.3.036-.558-.018-.774-.162-.204-.144-.324-.36-.36-.648-.036-.288.03-.528.198-.72.168-.204.402-.312.702-.324.096-.012.204-.018.324-.018l.36-.036c.168-.204.36-.456.576-.756.228-.312.468-.636.72-.972-.216-.156-.48-.342-.792-.558a33.168 33.168 0 00-.918-.648 8.698 8.698 0 00-.702-.468.957.957 0 01-.414-.594.958.958 0 01.126-.702.876.876 0 01.576-.432.94.94 0 01.738.126c.108.072.21.144.306.216.12-.192.258-.426.414-.702.168-.276.324-.546.468-.81.156-.264.27-.468.342-.612.12-.24.306-.408.558-.504a.882.882 0 01.738.036c.24.12.396.306.468.558a.893.893 0 01-.09.72 47.346 47.346 0 01-.99 1.566c-.18.288-.336.534-.468.738.156.096.294.192.414.288.132.096.246.174.342.234.264-.384.504-.738.72-1.062.228-.324.408-.588.54-.792.168-.252.372-.408.612-.468.24-.072.486-.042.738.09.228.108.372.3.432.576a.897.897 0 01-.144.774c-.204.3-.474.678-.81 1.134-.324.444-.672.918-1.044 1.422-.372.492-.726.966-1.062 1.422l.864-.072c.288-.036.552-.066.792-.09l-.144-.414c-.084-.252-.078-.48.018-.684a.886.886 0 01.504-.45.898.898 0 01.684.018c.228.096.396.27.504.522.072.18.162.414.27.702.12.288.234.582.342.882.108.288.192.528.252.72.084.264.072.516-.036.756a.94.94 0 01-.558.486.924.924 0 01-.738-.054.808.808 0 01-.432-.522c-.024-.12-.06-.24-.108-.36-.336.048-.732.102-1.188.162v6.822c0 .3-.096.54-.288.72a.989.989 0 01-.702.27zm8.244-.45c-1.02 0-1.806-.102-2.358-.306-.552-.204-.936-.57-1.152-1.098-.216-.528-.324-1.272-.324-2.232 0-.96.108-1.704.324-2.232.216-.528.6-.894 1.152-1.098.552-.204 1.338-.306 2.358-.306s1.806.102 2.358.306c.552.204.93.57 1.134 1.098.216.528.324 1.272.324 2.232 0 .96-.108 1.704-.324 2.232-.204.528-.582.894-1.134 1.098-.552.204-1.338.306-2.358.306zm-2.754-7.92a1.185 1.185 0 01-.774.234.924.924 0 01-.684-.36.957.957 0 01-.18-.666.789.789 0 01.324-.576c.744-.552 1.278-1.176 1.602-1.872.336-.708.546-1.554.63-2.538h-1.926c-.276 0-.498-.09-.666-.27a.932.932 0 01-.234-.63c0-.24.078-.444.234-.612a.791.791 0 01.63-.27h5.4c.912 0 1.56.204 1.944.612.396.408.57 1.038.522 1.89-.012.408-.042.84-.09 1.296-.036.456-.084.858-.144 1.206-.096.648-.264 1.158-.504 1.53-.228.36-.546.618-.954.774-.408.144-.936.228-1.584.252-.312.012-.576-.054-.792-.198-.216-.156-.336-.39-.36-.702-.024-.288.048-.522.216-.702a.939.939 0 01.666-.306c.516-.024.858-.096 1.026-.216.168-.132.288-.384.36-.756a8.52 8.52 0 00.126-.918c.048-.384.078-.714.09-.99.024-.384-.03-.642-.162-.774-.12-.144-.366-.216-.738-.216h-1.188c-.096 1.296-.354 2.418-.774 3.366-.42.936-1.092 1.74-2.016 2.412zm2.754 6.012c.504 0 .882-.042 1.134-.126a.76.76 0 00.522-.504c.084-.252.126-.624.126-1.116 0-.48-.042-.84-.126-1.08-.084-.24-.258-.402-.522-.486-.252-.096-.63-.144-1.134-.144-.504 0-.888.042-1.152.126a.81.81 0 00-.522.486c-.084.24-.126.6-.126 1.08 0 .48.042.846.126 1.098.096.252.27.426.522.522.264.096.648.144 1.152.144zm-11.61.378a.758.758 0 01-.504-.414.812.812 0 01-.018-.648c.096-.24.204-.546.324-.918.132-.372.252-.75.36-1.134.12-.384.21-.714.27-.99.06-.252.186-.432.378-.54a.825.825 0 01.63-.108c.24.048.426.162.558.342.132.18.168.408.108.684a8.757 8.757 0 01-.252 1.008 31.274 31.274 0 01-.666 2.088c-.084.24-.24.426-.468.558a.939.939 0 01-.72.072zm6.696-.792a.96.96 0 01-.684 0c-.228-.084-.384-.258-.468-.522a24.28 24.28 0 00-.252-.792l-.324-1.008c-.096-.336-.174-.606-.234-.81-.06-.264-.024-.486.108-.666a.844.844 0 01.54-.36c.24-.06.456-.03.648.09a.778.778 0 01.378.504l.234.738.324.9c.108.3.192.54.252.72a.98.98 0 010 .738c-.096.216-.27.372-.522.468zm13.77-6.246a1.3 1.3 0 01-.882.216.985.985 0 01-.702-.468.958.958 0 01-.126-.702c.06-.264.234-.486.522-.666.672-.42 1.35-.876 2.034-1.368a37.542 37.542 0 002.016-1.566c.66-.54 1.254-1.068 1.782-1.584.516-.504.99-.84 1.422-1.008.432-.18.876-.192 1.332-.036.468.156.984.48 1.548.972.348.3.756.642 1.224 1.026.468.372.966.762 1.494 1.17a50.18 50.18 0 001.602 1.188c.552.384 1.074.726 1.566 1.026.3.192.486.432.558.72a.94.94 0 01-.144.828c-.18.252-.432.396-.756.432-.324.036-.642-.048-.954-.252a56.446 56.446 0 01-1.494-1.062 68.504 68.504 0 01-3.204-2.574c-.48-.42-.9-.798-1.26-1.134-.288-.276-.54-.414-.756-.414-.216-.012-.468.12-.756.396-.384.36-.828.762-1.332 1.206a47.41 47.41 0 01-1.566 1.314c-.54.444-1.086.87-1.638 1.278-.54.408-1.05.762-1.53 1.062zm1.458 8.352c-.372.18-.708.228-1.008.144a1.031 1.031 0 01-.666-.522c-.156-.3-.162-.588-.018-.864.156-.276.378-.474.666-.594.864-.396 1.524-.87 1.98-1.422.456-.564.762-1.272.918-2.124.168-.852.24-1.914.216-3.186a.93.93 0 01.27-.702.969.969 0 01.738-.306c.312 0 .57.108.774.324.204.204.306.432.306.684.024 1.56-.102 2.886-.378 3.978-.264 1.092-.708 2.004-1.332 2.736-.612.732-1.434 1.35-2.466 1.854zm8.01.252c-.336 0-.6-.09-.792-.27-.18-.18-.27-.426-.27-.738v-7.812c0-.288.102-.528.306-.72.216-.192.468-.288.756-.288.276 0 .522.096.738.288a.923.923 0 01.324.72v7.812c0 .312-.09.558-.27.738-.18.18-.444.27-.792.27zm20.718-.306c-1.608.228-2.964.312-4.068.252-1.104-.048-1.992-.21-2.664-.486-.66-.276-1.14-.642-1.44-1.098-.3-.468-.45-.996-.45-1.584 0-.9.36-1.74 1.08-2.52.732-.78 1.788-1.464 3.168-2.052a1.413 1.413 0 00-.702-.486c-.6-.18-1.194-.114-1.782.198-.576.312-1.14.768-1.692 1.368-.204.216-.474.336-.81.36-.324.012-.588-.09-.792-.306a1.12 1.12 0 01-.27-.792c.024-.3.15-.546.378-.738a10.457 10.457 0 001.548-1.638c.456-.588.84-1.194 1.152-1.818l-1.458.036c-.444 0-.828-.006-1.152-.018-.3 0-.552-.102-.756-.306a1.088 1.088 0 01-.306-.774 1 1 0 01.342-.738c.216-.192.474-.282.774-.27.42.012.924.018 1.512.018l1.872-.036c.06-.228.114-.45.162-.666.048-.216.09-.432.126-.648.048-.3.18-.54.396-.72a.944.944 0 01.774-.234c.3.036.54.168.72.396.18.228.252.492.216.792a3.662 3.662 0 01-.072.486 7.73 7.73 0 01-.126.504c.456-.024.882-.048 1.278-.072.396-.036.75-.078 1.062-.126.3-.036.564.036.792.216.24.168.378.402.414.702a.996.996 0 01-.234.792.961.961 0 01-.702.378c-.444.048-.954.09-1.53.126-.576.036-1.176.066-1.8.09a15.34 15.34 0 01-.864 1.656c.288-.06.564-.078.828-.054.264.012.516.054.756.126.36.096.708.264 1.044.504.348.228.654.552.918.972a30.45 30.45 0 011.872-.468c.672-.144 1.38-.27 2.124-.378a.998.998 0 01.792.198c.24.168.378.402.414.702a.975.975 0 01-.198.792c-.18.228-.42.366-.72.414a24.12 24.12 0 00-1.926.306c-.588.108-1.134.228-1.638.36.06.324.108.678.144 1.062.036.384.054.798.054 1.242 0 .3-.108.558-.324.774a1.027 1.027 0 01-.756.306c-.3 0-.552-.102-.756-.306a1.088 1.088 0 01-.306-.774c0-.612-.036-1.158-.108-1.638-.984.408-1.698.846-2.142 1.314-.432.456-.648.9-.648 1.332 0 .324.192.588.576.792.384.204 1.026.318 1.926.342.9.024 2.13-.066 3.69-.27.288-.036.552.036.792.216.24.168.378.402.414.702.036.288-.036.546-.216.774-.18.228-.414.366-.702.414zm8.676-6.228c-.288 0-.534-.096-.738-.288-.192-.192-.288-.444-.288-.756v-.756c0-.9.198-1.554.594-1.962.408-.408 1.158-.636 2.25-.684l-.018-.054c-.048-.072-.12-.186-.216-.342a10.303 10.303 0 00-.27-.504 3.694 3.694 0 00-.198-.36.856.856 0 01-.09-.666.817.817 0 01.432-.558h-.612c-.3 0-.546-.084-.738-.252-.192-.18-.288-.42-.288-.72-.012-.288.084-.51.288-.666.216-.168.486-.246.81-.234.864.012 1.782 0 2.754-.036.972-.048 1.944-.108 2.916-.18a58.41 58.41 0 002.79-.306c.888-.12 1.674-.252 2.358-.396.348-.072.636-.042.864.09.228.12.372.3.432.54.096.312.06.576-.108.792a1.104 1.104 0 01-.612.414 6.427 6.427 0 00-.468.09l-.486.072.018.018c.252.096.426.27.522.522.096.24.084.498-.036.774-.084.192-.228.48-.432.864-.192.384-.378.75-.558 1.098h.54c.84 0 1.494.078 1.962.234.48.156.816.42 1.008.792.204.372.306.876.306 1.512v.864c0 .312-.102.564-.306.756-.204.192-.45.288-.738.288s-.534-.096-.738-.288c-.204-.192-.306-.444-.306-.756v-.81c0-.348-.084-.582-.252-.702-.168-.132-.498-.198-.99-.198h-9.072c-.492 0-.822.066-.99.198-.168.12-.252.354-.252.702v.81c0 .312-.102.564-.306.756-.204.192-.45.288-.738.288zm.378 6.894c-.384.048-.696-.006-.936-.162-.24-.156-.378-.396-.414-.72-.036-.312.048-.57.252-.774.204-.216.486-.342.846-.378a18.52 18.52 0 002.772-.468c.852-.228 1.644-.51 2.376-.846a10.425 10.425 0 01-1.206-1.494 11.508 11.508 0 01-.918-1.8h-.738c-.24 0-.45-.09-.63-.27a.916.916 0 01-.252-.648.894.894 0 01.882-.9h6.084c.948 0 1.65.186 2.106.558.456.36.672.816.648 1.368-.012.54-.258 1.092-.738 1.656-.24.288-.498.564-.774.828-.264.252-.534.498-.81.738 1.272.624 2.886.996 4.842 1.116.36.012.642.132.846.36.204.216.294.48.27.792-.072.696-.516 1.014-1.332.954-2.652-.144-4.848-.768-6.588-1.872-.876.492-1.86.9-2.952 1.224-1.092.336-2.304.582-3.636.738zm7.038-11.34h1.386c.12-.24.258-.54.414-.9l.45-1.08c.156-.348.264-.606.324-.774a.63.63 0 01.09-.18c.048-.06.096-.114.144-.162-.564.084-1.164.156-1.8.216-.624.06-1.266.12-1.926.18a.74.74 0 01.36.378c.036.072.096.21.18.414.096.192.186.384.27.576.096.192.156.318.18.378.156.372.132.69-.072.954zm-3.942 0h2.286a.79.79 0 00-.09-.162 15.335 15.335 0 00-.18-.396l-.252-.54c-.084-.18-.144-.312-.18-.396a.981.981 0 01-.054-.612.789.789 0 01.342-.504l-1.44.072c-.468.012-.936.03-1.404.054a.85.85 0 01.288.27c.048.072.12.204.216.396l.288.54c.108.168.174.276.198.324.192.348.186.666-.018.954zm3.672 6.876a8.977 8.977 0 001.458-1.332c.216-.24.288-.438.216-.594-.072-.168-.3-.252-.684-.252h-2.754a7.651 7.651 0 001.764 2.178zm20.304 3.42a1.145 1.145 0 01-.81.27 1.06 1.06 0 01-.756-.342 1.083 1.083 0 01-.288-.792c.024-.3.15-.552.378-.756.648-.576 1.14-1.188 1.476-1.836.348-.648.582-1.404.702-2.268.132-.864.198-1.896.198-3.096a64.09 64.09 0 00-1.71.162c-.54.06-1.032.126-1.476.198-.3.048-.57-.006-.81-.162a1.073 1.073 0 01-.45-.684c-.048-.3.006-.57.162-.81.168-.24.402-.384.702-.432.456-.072.996-.138 1.62-.198.636-.06 1.29-.114 1.962-.162v-2.466c0-.3.102-.552.306-.756a.998.998 0 01.756-.324c.3 0 .552.108.756.324.204.204.306.456.306.756v2.34a20.6 20.6 0 011.17-.036h.954c.3.012.552.126.756.342a.968.968 0 01.27.774.976.976 0 01-.36.738 1.058 1.058 0 01-.774.27 28.09 28.09 0 00-2.016 0v.108c0 1.236-.078 2.388-.234 3.456a9.802 9.802 0 01-.864 2.952c-.432.9-1.074 1.71-1.926 2.43zM164.22 49c-.3.06-.57.012-.81-.144a1.073 1.073 0 01-.45-.684c-.12-.564-.222-1.23-.306-1.998a48.948 48.948 0 01-.162-2.484 49.96 49.96 0 010-2.682c.024-.912.072-1.794.144-2.646a20 20 0 01.36-2.358c.06-.3.21-.528.45-.684.252-.156.522-.204.81-.144.288.06.51.216.666.468.156.24.204.51.144.81-.18.852-.312 1.788-.396 2.808a43.7 43.7 0 00-.108 3.078c.012 1.032.054 2.016.126 2.952.084.936.198 1.752.342 2.448.06.288.012.558-.144.81-.156.24-.378.39-.666.45zm24.246.774c-1.092-.024-1.956-.288-2.592-.792-.624-.504-.924-1.194-.9-2.07a2.54 2.54 0 01.432-1.35 2.515 2.515 0 011.116-.864c.468-.204 1.002-.276 1.602-.216.96.084 1.632.414 2.016.99.384.564.498 1.212.342 1.944.42-.204.762-.498 1.026-.882.276-.396.414-.906.414-1.53 0-.468-.138-.888-.414-1.26-.264-.384-.642-.678-1.134-.882-.48-.216-1.038-.306-1.674-.27-.636.036-1.32.228-2.052.576-.732.336-1.482.876-2.25 1.62a1.134 1.134 0 01-.81.306 1.045 1.045 0 01-.792-.378 1.094 1.094 0 01-.27-.774.92.92 0 01.378-.702 57.994 57.994 0 002.232-1.782 90.238 90.238 0 002.124-1.872 56.818 56.818 0 001.8-1.674c.324-.312.432-.57.324-.774-.096-.204-.354-.276-.774-.216a77.83 77.83 0 00-1.404.18c-.516.072-1.002.138-1.458.198a.998.998 0 01-.792-.198c-.24-.18-.378-.42-.414-.72a.947.947 0 01.198-.774c.18-.24.42-.384.72-.432.264-.036.594-.072.99-.108l1.242-.108 1.098-.09c.78-.06 1.416.042 1.908.306s.828.624 1.008 1.08c.18.444.186.93.018 1.458-.156.528-.498 1.026-1.026 1.494-.24.204-.546.468-.918.792-.36.324-.732.654-1.116.99a5.334 5.334 0 011.998-.018 4.22 4.22 0 011.728.684c.516.348.924.81 1.224 1.386.3.564.45 1.23.45 1.998 0 1.092-.24 1.998-.72 2.718-.48.708-1.14 1.224-1.98 1.548-.84.336-1.806.492-2.898.468zm-.324-1.998h.108c.036 0 .078.006.126.018.06 0 .126-.006.198-.018.168-.396.198-.726.09-.99-.108-.264-.324-.42-.648-.468-.288-.036-.528.006-.72.126-.18.108-.282.288-.306.54-.012.48.372.744 1.152.792z" fill="#fff"/></g><g filter="url(#filter1_d_1_30)"><path d="M205.79 33.994a.812.812 0 00-1.141 1.156l4.937 4.936a2 2 0 010 2.828l-4.663 4.663a.815.815 0 001.144 1.16l5.961-5.804a1.999 1.999 0 000-2.866l-6.238-6.073z" fill="#fff"/><path d="M209.939 39.732l-4.936-4.936a.312.312 0 01.438-.444l6.238 6.073a1.5 1.5 0 010 2.15l-5.961 5.803a.314.314 0 01-.442-.447l4.663-4.663a2.499 2.499 0 000-3.536z" stroke="#fff"/></g><path d="M0 8a8 8 0 018-8h156a8 8 0 018 8v12a8 8 0 01-8 8H0V8z" fill="#fff"/><path d="M18.31 10.256c.252.019.527.037.826.056.299.019.565.028.798.028h7.56c.224-.01.397-.019.518-.028-.01.159-.019.35-.028.574v7.84c0 .243.005.513.014.812l.042.672h-1.596c0-.159.005-.355.014-.588.01-.243.014-.49.014-.742v-7.126h-6.538c-.27 0-.565.005-.882.014-.317.01-.565.023-.742.042v-1.554zm-.168 7.672c.205.01.453.023.742.042.29.019.583.028.882.028h7.532v1.456h-7.476c-.28 0-.579.005-.896.014-.317.01-.579.023-.784.042v-1.582zm15.12-8.358c.252.168.541.378.868.63.327.243.658.504.994.784.345.28.672.55.98.812.308.261.555.495.742.7L35.74 13.63c-.177-.187-.41-.41-.7-.672-.29-.27-.602-.546-.938-.826a18.8 18.8 0 00-.98-.812c-.327-.261-.62-.48-.882-.658l1.022-1.092zm-1.442 9.366c.784-.121 1.507-.28 2.17-.476a15.04 15.04 0 001.82-.686c.56-.261 1.064-.527 1.512-.798a12.176 12.176 0 002.058-1.582 14.458 14.458 0 001.666-1.848 10.63 10.63 0 001.134-1.848l.854 1.526a12.397 12.397 0 01-1.246 1.82 15.208 15.208 0 01-1.652 1.75 14.17 14.17 0 01-2.016 1.498c-.467.29-.98.57-1.54.84-.55.27-1.148.513-1.792.728-.635.215-1.311.387-2.03.518l-.938-1.442zm22.428-5.264c0 .905-.06 1.717-.182 2.436a6.436 6.436 0 01-.63 1.918 5.137 5.137 0 01-1.246 1.512c-.532.439-1.209.845-2.03 1.218l-1.19-1.12a9.714 9.714 0 001.708-.812 4.24 4.24 0 001.204-1.092c.317-.439.55-.98.7-1.624.159-.644.238-1.428.238-2.352v-3.542c0-.28-.01-.527-.028-.742a3.847 3.847 0 00-.042-.476h1.582c-.01.103-.028.261-.056.476a8.656 8.656 0 00-.028.742v3.458zm-5.04-4.564c-.01.093-.028.238-.056.434a7.327 7.327 0 00-.028.686v5.068c0 .187.005.373.014.56l.028.49c.01.14.019.243.028.308H47.64c.01-.065.019-.168.028-.308.01-.14.019-.299.028-.476.01-.187.014-.378.014-.574v-5.068c0-.177-.01-.364-.028-.56a5.16 5.16 0 00-.056-.56h1.582zm-4.326 2.618c.065.019.168.037.308.056.15.01.322.023.518.042.205.01.415.014.63.014h9.226a10.622 10.622 0 001.4-.084v1.484a21.965 21.965 0 00-1.386-.042h-9.24c-.215 0-.42.005-.616.014a7.344 7.344 0 00-.84.042v-1.526zm20.328 7.966a4.057 4.057 0 00.098-.882v-8.288c0-.29-.014-.537-.042-.742a4.21 4.21 0 01-.042-.378h1.624c0 .047-.014.173-.042.378a8.355 8.355 0 00-.028.742v7.742c.41-.187.845-.434 1.302-.742.457-.317.905-.686 1.344-1.106.439-.42.826-.877 1.162-1.372l.854 1.204a10.79 10.79 0 01-1.414 1.526c-.532.485-1.092.929-1.68 1.33-.579.401-1.139.737-1.68 1.008a3.06 3.06 0 00-.322.182 8.054 8.054 0 00-.21.168l-.924-.77zm-6.454-.126a5.733 5.733 0 001.512-1.526 7.557 7.557 0 00.91-1.876 5.98 5.98 0 00.238-1.162c.056-.467.093-.961.112-1.484.028-.532.042-1.055.042-1.568.01-.513.014-.97.014-1.372 0-.243-.01-.453-.028-.63a4.066 4.066 0 00-.084-.504h1.624c0 .037-.01.117-.028.238-.01.112-.019.247-.028.406-.01.15-.014.308-.014.476 0 .401-.005.873-.014 1.414a34.52 34.52 0 01-.07 1.652c-.028.57-.07 1.11-.126 1.624a6.747 6.747 0 01-.224 1.288 7.678 7.678 0 01-.952 2.156 7.755 7.755 0 01-1.54 1.764l-1.344-.896zm19.138-6.048c.439.261.91.555 1.414.882.504.317 1.008.653 1.512 1.008.504.345.98.681 1.428 1.008.457.327.85.63 1.176.91l-1.036 1.232c-.317-.29-.7-.611-1.148-.966a35.247 35.247 0 00-1.428-1.092 37.356 37.356 0 00-1.512-1.064 45.17 45.17 0 00-1.372-.924l.966-.994zm6.482-2.478a4.388 4.388 0 00-.378.868c-.14.448-.331.943-.574 1.484a13.955 13.955 0 01-.854 1.652c-.327.55-.695 1.083-1.106 1.596-.644.793-1.437 1.554-2.38 2.282-.933.719-2.063 1.33-3.388 1.834l-1.274-1.12a12.12 12.12 0 002.436-1.022 11.932 11.932 0 001.904-1.302 13.25 13.25 0 001.442-1.442c.345-.41.663-.859.952-1.344.299-.485.555-.97.77-1.456.224-.485.383-.924.476-1.316h-4.998l.532-1.26h4.256c.196 0 .387-.014.574-.042a2.56 2.56 0 00.476-.112l1.134.7zM79.7 8.968c-.14.205-.28.43-.42.672l-.308.574a17.172 17.172 0 01-1.148 1.722 16.667 16.667 0 01-1.582 1.848 14.474 14.474 0 01-1.96 1.638l-1.19-.924a11.538 11.538 0 002.086-1.624 12.922 12.922 0 001.47-1.694c.392-.55.7-1.036.924-1.456a4.78 4.78 0 00.28-.574c.112-.252.196-.48.252-.686l1.596.504zm9.562.602c.252.168.541.378.868.63.327.243.658.504.994.784.345.28.672.55.98.812.308.261.555.495.742.7L91.74 13.63c-.177-.187-.41-.41-.7-.672-.29-.27-.602-.546-.938-.826a18.8 18.8 0 00-.98-.812c-.327-.261-.62-.48-.882-.658l1.022-1.092zm-1.442 9.366c.784-.121 1.507-.28 2.17-.476a15.04 15.04 0 001.82-.686c.56-.261 1.064-.527 1.512-.798a12.176 12.176 0 002.058-1.582 14.458 14.458 0 001.666-1.848 10.63 10.63 0 001.134-1.848l.854 1.526a12.397 12.397 0 01-1.246 1.82 15.208 15.208 0 01-1.652 1.75 14.17 14.17 0 01-2.016 1.498c-.467.29-.98.57-1.54.84-.55.27-1.148.513-1.792.728-.635.215-1.311.387-2.03.518l-.938-1.442zm16.758-.224V10.62c0-.224-.009-.48-.028-.77a6.013 6.013 0 00-.098-.798h1.722c-.019.224-.042.48-.07.77-.019.29-.028.555-.028.798v8.092a15.437 15.437 0 00.056 1.204c.019.215.037.41.056.588h-1.722a9.37 9.37 0 00.084-.868c.019-.345.028-.653.028-.924zm1.176-6.006c.457.13.971.294 1.54.49.569.187 1.143.392 1.722.616.579.215 1.129.43 1.652.644.523.215.966.41 1.33.588l-.63 1.526a15.87 15.87 0 00-1.33-.644 33.913 33.913 0 00-2.996-1.204 42.161 42.161 0 00-1.288-.434v-1.582zm16.31-2.282c-.093.719-.215 1.48-.364 2.282-.14.793-.331 1.582-.574 2.366-.28.952-.597 1.76-.952 2.422-.345.653-.723 1.153-1.134 1.498-.411.345-.845.518-1.302.518-.467 0-.901-.159-1.302-.476-.401-.327-.728-.78-.98-1.358-.252-.588-.378-1.27-.378-2.044 0-.784.159-1.526.476-2.226.327-.7.775-1.32 1.344-1.862a6.306 6.306 0 011.988-1.274 6.432 6.432 0 012.45-.462c.84 0 1.596.135 2.268.406a4.96 4.96 0 011.736 1.134 4.753 4.753 0 011.106 1.68c.252.644.378 1.33.378 2.058 0 .98-.205 1.853-.616 2.618-.401.756-.994 1.377-1.778 1.862-.784.476-1.745.798-2.884.966l-.826-1.316c.243-.028.467-.056.672-.084.205-.037.397-.075.574-.112a5.103 5.103 0 001.274-.476 4.256 4.256 0 001.092-.812 3.65 3.65 0 00.742-1.176c.187-.448.28-.952.28-1.512s-.089-1.078-.266-1.554a3.508 3.508 0 00-.784-1.26 3.538 3.538 0 00-1.274-.826c-.504-.205-1.073-.308-1.708-.308-.765 0-1.447.135-2.044.406a4.788 4.788 0 00-2.464 2.506 3.833 3.833 0 00-.322 1.484c0 .532.065.975.196 1.33.131.345.294.602.49.77.196.168.397.252.602.252.205 0 .415-.103.63-.308.215-.215.429-.55.644-1.008.224-.457.443-1.04.658-1.75.215-.672.392-1.386.532-2.142a21.94 21.94 0 00.322-2.24l1.498.028zm6.636.098h12.6v1.274h-12.6v-1.274zm4.62 3.36h5.502v1.26h-5.502v-1.26zm5.012 0h1.372l-.014.126c0 .075-.005.159-.014.252a.963.963 0 01-.028.238 56.53 56.53 0 01-.28 3.206c-.103.821-.219 1.46-.35 1.918-.131.448-.289.77-.476.966a1.304 1.304 0 01-.588.392 3.044 3.044 0 01-.742.154c-.261.019-.607.023-1.036.014-.429 0-.882-.01-1.358-.028a2.371 2.371 0 00-.14-.658 2.586 2.586 0 00-.322-.644c.495.037.961.065 1.4.084.448.01.77.014.966.014.159 0 .289-.01.392-.028a.689.689 0 00.28-.154c.149-.121.275-.392.378-.812.112-.42.215-1.022.308-1.806s.173-1.787.238-3.01l.014-.224zm-5.418-2.632h1.47a37.892 37.892 0 01-.182 2.282 15.202 15.202 0 01-.392 2.24 9.807 9.807 0 01-.812 2.128 7.256 7.256 0 01-1.386 1.862c-.569.56-1.288 1.055-2.156 1.484a4.504 4.504 0 00-.42-.588 3.307 3.307 0 00-.532-.504c.821-.373 1.493-.812 2.016-1.316a6.29 6.29 0 001.26-1.68 8.13 8.13 0 00.686-1.904c.159-.663.266-1.33.322-2.002a51.22 51.22 0 00.126-2.002zm1.344-3.122h1.358v2.912h-1.358V8.128zm8.414 7.882c.187-.15.364-.299.532-.448a12.892 12.892 0 001.134-1.218c.224-.261.457-.541.7-.84.243-.308.481-.611.714-.91.243-.299.471-.574.686-.826.439-.513.868-.789 1.288-.826.429-.047.887.173 1.372.658.299.29.611.63.938 1.022.327.383.653.77.98 1.162.327.383.635.728.924 1.036.215.243.453.509.714.798l.854.882.938.91c.317.308.639.607.966.896l-1.134 1.302a39.643 39.643 0 01-1.092-1.078 69.502 69.502 0 01-1.106-1.218c-.355-.41-.691-.793-1.008-1.148-.299-.345-.607-.71-.924-1.092a84.88 84.88 0 00-.91-1.106 28.173 28.173 0 00-.77-.91c-.177-.196-.336-.317-.476-.364a.39.39 0 00-.378.028c-.121.065-.257.191-.406.378a56.54 56.54 0 01-.532.686c-.205.261-.42.541-.644.84-.215.29-.425.57-.63.84-.205.27-.392.509-.56.714-.149.205-.299.415-.448.63-.149.215-.285.401-.406.56l-1.316-1.358z" fill="#135097"/><defs><filter id="filter0_d_1_30" x="20.774" y="29.502" width="177.29" height="25.298" filterUnits="userSpaceOnUse" color-interpolation-filters="sRGB"><feFlood flood-opacity="0" result="BackgroundImageFix"/><feColorMatrix in="SourceAlpha" values="0 0 0 0 0 0 0 0 0 0 0 0 0 0 0 0 0 0 127 0" result="hardAlpha"/><feOffset/><feGaussianBlur stdDeviation="2"/><feComposite in2="hardAlpha" operator="out"/><feColorMatrix values="0 0 0 0 0 0 0 0 0 0 0 0 0 0 0 0 0 0 0.25 0"/><feBlend in2="BackgroundImageFix" result="effect1_dropShadow_1_30"/><feBlend in="SourceGraphic" in2="effect1_dropShadow_1_30" result="shape"/></filter><filter id="filter1_d_1_30" x="200.412" y="29.764" width="16.221" height="23.204" filterUnits="userSpaceOnUse" color-interpolation-filters="sRGB"><feFlood flood-opacity="0" result="BackgroundImageFix"/><feColorMatrix in="SourceAlpha" values="0 0 0 0 0 0 0 0 0 0 0 0 0 0 0 0 0 0 127 0" result="hardAlpha"/><feOffset/><feGaussianBlur stdDeviation="2"/><feComposite in2="hardAlpha" operator="out"/><feColorMatrix values="0 0 0 0 0 0 0 0 0 0 0 0 0 0 0 0 0 0 0.25 0"/><feBlend in2="BackgroundImageFix" result="effect1_dropShadow_1_30"/><feBlend in="SourceGraphic" in2="effect1_dropShadow_1_30" result="shape"/></filter></defs></svg>