<svg width="282" height="65" viewBox="0 0 282 65" fill="none" xmlns="http://www.w3.org/2000/svg"><rect x=".5" y="20.5" width="281" height="44" rx="7.5" fill="#fff"/><rect x=".5" y="20.5" width="281" height="44" rx="7.5" stroke="#fff"/><path d="M25.33 51.306c-.276.12-.558.12-.846 0a1.102 1.102 0 01-.63-.576 1.135 1.135 0 01-.018-.864c.108-.3.3-.51.576-.63 1.872-.84 3.45-1.848 4.734-3.024 1.296-1.176 2.238-2.454 2.826-3.834.264-.6.306-1.05.126-1.35-.18-.312-.624-.468-1.332-.468h-6.75c-.3 0-.558-.108-.774-.324a1.117 1.117 0 01-.324-.792c0-.312.108-.576.324-.792.216-.216.474-.324.774-.324h6.84c1.104 0 1.956.204 2.556.612a2.32 2.32 0 011.08 1.674c.108.708-.036 1.542-.432 2.502-.708 1.68-1.806 3.228-3.294 4.644-1.476 1.404-3.288 2.586-5.436 3.546zm11.178-10.872c-.504 0-.936-.174-1.296-.522a1.798 1.798 0 01-.522-1.296c0-.504.174-.93.522-1.278.36-.36.792-.54 1.296-.54.492 0 .912.18 1.26.54.36.348.54.774.54 1.278s-.18.936-.54 1.296a1.717 1.717 0 01-1.26.522zm0-1.044a.733.733 0 00.54-.216.762.762 0 00.234-.558.704.704 0 00-.234-.54.704.704 0 00-.54-.234.762.762 0 00-.558.234.704.704 0 00-.234.54c0 .216.078.402.234.558a.794.794 0 00.558.216zM47.38 49.92c-1.236 0-2.256-.09-3.06-.27-.792-.18-1.41-.48-1.854-.9-.444-.42-.756-.978-.936-1.674-.168-.696-.252-1.56-.252-2.592s.084-1.896.252-2.592c.18-.696.492-1.254.936-1.674.444-.42 1.062-.72 1.854-.9.804-.18 1.824-.27 3.06-.27 1.248 0 2.268.09 3.06.27.792.18 1.41.48 1.854.9.444.42.75.978.918 1.674.18.696.27 1.56.27 2.592s-.09 1.896-.27 2.592c-.168.696-.474 1.254-.918 1.674-.444.42-1.062.72-1.854.9-.792.18-1.812.27-3.06.27zm0-2.196c.852 0 1.53-.042 2.034-.126.516-.096.906-.258 1.17-.486.276-.228.456-.552.54-.972.096-.432.144-.984.144-1.656 0-.672-.048-1.218-.144-1.638-.084-.432-.264-.762-.54-.99-.264-.228-.654-.384-1.17-.468-.504-.096-1.182-.144-2.034-.144-.84 0-1.518.048-2.034.144-.516.084-.912.24-1.188.468-.264.228-.444.558-.54.99-.084.42-.126.966-.126 1.638 0 .672.042 1.224.126 1.656.096.42.276.744.54.972.276.228.672.39 1.188.486.516.084 1.194.126 2.034.126zm13.878 3.168c-.3.084-.588.06-.864-.072a1.114 1.114 0 01-.54-.666c-.084-.288-.06-.57.072-.846.144-.276.36-.456.648-.54.924-.288 1.866-.69 2.826-1.206a23.061 23.061 0 005.31-3.888c.768-.744 1.404-1.488 1.908-2.232.168-.252.402-.408.702-.468.3-.06.576 0 .828.18.264.168.42.402.468.702.06.3.006.576-.162.828-.552.816-1.254 1.644-2.106 2.484a27.61 27.61 0 01-2.808 2.376c-1.02.744-2.07 1.41-3.15 1.998a19.12 19.12 0 01-3.132 1.35zm2.574-9.162a9.217 9.217 0 00-.72-.54 18.17 18.17 0 00-.936-.63 8.125 8.125 0 00-.846-.504 1.048 1.048 0 01-.522-.666c-.084-.3-.048-.582.108-.846.156-.276.384-.45.684-.522.3-.072.582-.036.846.108s.582.342.954.594c.384.24.756.486 1.116.738.36.252.642.468.846.648a.994.994 0 01.342.774c.012.312-.084.582-.288.81a1.03 1.03 0 01-.774.342c-.3 0-.57-.102-.81-.306zm-1.908 3.33a7.16 7.16 0 00-.738-.486 15.423 15.423 0 00-.99-.594 10.4 10.4 0 00-.864-.45 1.037 1.037 0 01-.558-.648c-.096-.3-.078-.582.054-.846.144-.276.36-.456.648-.54.3-.096.582-.078.846.054.288.132.624.306 1.008.522.396.216.78.444 1.152.684.372.228.666.426.882.594.24.192.372.444.396.756.024.3-.066.57-.27.81a1.03 1.03 0 01-.756.396c-.3.024-.57-.06-.81-.252zm8.55-4.752a.725.725 0 01-1.098-.036 22.842 22.842 0 00-.576-.594c-.216-.24-.42-.45-.612-.63a.63.63 0 01-.198-.45.684.684 0 01.198-.522.729.729 0 01.486-.216.804.804 0 01.522.144c.192.132.414.318.666.558.264.228.48.438.648.63a.703.703 0 01.216.558.83.83 0 01-.252.558zm.486-1.638a15.925 15.925 0 00-.594-.558 8.334 8.334 0 00-.666-.576.662.662 0 01-.234-.45.653.653 0 01.162-.522.6.6 0 01.45-.252.849.849 0 01.54.108c.204.12.438.288.702.504.276.204.51.402.702.594a.704.704 0 01.234.54.789.789 0 01-.198.576.723.723 0 01-.54.252.703.703 0 01-.558-.216zm8.118 11.376a.934.934 0 01-.684-.288.995.995 0 01-.288-.702c0-.276.096-.504.288-.684a.934.934 0 01.684-.288h4.068v-3.006H80.68a.934.934 0 01-.684-.288.995.995 0 01-.288-.702c0-.276.096-.504.288-.684a.934.934 0 01.684-.288h6.84c.276 0 .51.096.702.288.192.18.288.408.288.684a.995.995 0 01-.288.702.955.955 0 01-.702.288h-2.43v3.006h4.104c.276 0 .504.096.684.288.192.18.288.408.288.684a.995.995 0 01-.288.702.897.897 0 01-.684.288H79.078zm19.026 1.566c-.288.12-.576.12-.864 0a1.089 1.089 0 01-.63-1.422c.12-.288.318-.492.594-.612 1.992-.876 3.714-1.962 5.166-3.258 1.452-1.296 2.598-2.772 3.438-4.428.204-.384.24-.672.108-.864-.12-.192-.426-.288-.918-.288h-2.394a23.658 23.658 0 01-1.926 2.25 15.146 15.146 0 01-2.214 1.872c-.24.18-.516.246-.828.198a1.123 1.123 0 01-.9-1.296c.06-.312.216-.552.468-.72a13.525 13.525 0 001.962-1.638 17.913 17.913 0 001.728-1.998c.528-.708.942-1.398 1.242-2.07.12-.276.324-.468.612-.576a.994.994 0 01.846.018c.276.12.468.324.576.612.12.288.114.57-.018.846-.048.12-.108.24-.18.36h1.242c1.428 0 2.376.366 2.844 1.098.48.732.42 1.722-.18 2.97a16.117 16.117 0 01-2.412 3.618 19.96 19.96 0 01-3.348 3.078c-1.248.9-2.586 1.65-4.014 2.25zm21.618.162c-.3 0-.558-.108-.774-.324a1.056 1.056 0 01-.324-.774V38.238c0-.312.108-.57.324-.774.216-.216.474-.324.774-.324.312 0 .576.108.792.324.216.204.324.462.324.774v4.338a1.07 1.07 0 01.648-.468 1.06 1.06 0 01.81.072 26.01 26.01 0 012.16 1.278c.744.48 1.386.948 1.926 1.404.24.192.372.45.396.774.036.312-.048.588-.252.828-.192.228-.444.36-.756.396a1.14 1.14 0 01-.828-.252 20.313 20.313 0 00-1.17-.846c-.432-.3-.87-.588-1.314-.864a19.488 19.488 0 00-1.188-.738 1.158 1.158 0 01-.432-.396v6.912c0 .3-.108.558-.324.774-.216.216-.48.324-.792.324zm21.384-.828a1.1 1.1 0 01-.846-.126 1.043 1.043 0 01-.504-.666 1.014 1.014 0 01.126-.81c.156-.264.378-.432.666-.504 1.332-.348 2.31-.912 2.934-1.692.636-.78.954-1.77.954-2.97 0-.756-.168-1.434-.504-2.034a3.901 3.901 0 00-1.44-1.458c-.612-.372-1.35-.6-2.214-.684-.216 2.016-.582 3.762-1.098 5.238-.504 1.464-1.104 2.598-1.8 3.402-.684.792-1.404 1.188-2.16 1.188a2.965 2.965 0 01-1.746-.558c-.528-.372-.948-.906-1.26-1.602-.3-.696-.45-1.53-.45-2.502 0-.996.186-1.926.558-2.79a7.04 7.04 0 011.62-2.304 7.592 7.592 0 012.448-1.548c.948-.372 1.986-.558 3.114-.558 1.368 0 2.58.264 3.636.792 1.068.516 1.908 1.242 2.52 2.178.612.924.918 2.004.918 3.24 0 1.74-.468 3.192-1.404 4.356-.924 1.152-2.28 1.956-4.068 2.412zm-5.868-3.33c.216 0 .462-.18.738-.54.288-.372.576-.894.864-1.566.288-.672.552-1.464.792-2.376.24-.924.42-1.944.54-3.06-.936.18-1.722.528-2.358 1.044a4.899 4.899 0 00-1.44 1.818 5.345 5.345 0 00-.504 2.196c0 .816.126 1.434.378 1.854.264.42.594.63.99.63zm25.866 4.194c-.984 0-1.758-.108-2.322-.324-.552-.204-.948-.558-1.188-1.062-.228-.516-.342-1.218-.342-2.106V40.11c0-.888.114-1.584.342-2.088.24-.516.636-.876 1.188-1.08.564-.216 1.338-.324 2.322-.324s1.752.108 2.304.324c.564.204.96.564 1.188 1.08.24.504.36 1.2.36 2.088v8.208c0 .888-.12 1.59-.36 2.106-.228.504-.624.858-1.188 1.062-.552.216-1.32.324-2.304.324zm-7.65.666c-.288 0-.534-.096-.738-.288-.192-.18-.288-.426-.288-.738v-5.814c-.264.456-.528.894-.792 1.314-.264.408-.51.768-.738 1.08-.18.24-.414.39-.702.45a.966.966 0 01-.792-.216.95.95 0 01-.396-.666.948.948 0 01.216-.756c.24-.3.51-.678.81-1.134.3-.456.6-.942.9-1.458.312-.528.6-1.032.864-1.512.264-.492.474-.912.63-1.26v-.09h-2.232c-.288 0-.516-.09-.684-.27a.94.94 0 01-.252-.666c0-.252.084-.468.252-.648.168-.192.396-.288.684-.288h2.232V36.87c0-.312.096-.558.288-.738.204-.192.45-.288.738-.288.276 0 .51.096.702.288.204.18.306.426.306.738v2.646h1.368c.276 0 .498.096.666.288.168.18.252.396.252.648a.94.94 0 01-.252.666c-.168.18-.39.27-.666.27h-1.368v1.224l.738.828.918.954c.312.3.552.534.72.702.204.192.312.42.324.684a.96.96 0 01-.252.702.897.897 0 01-.684.288.877.877 0 01-.666-.288c-.132-.144-.3-.324-.504-.54-.192-.228-.39-.456-.594-.684v6.192c0 .312-.102.558-.306.738a.955.955 0 01-.702.288zm5.868-7.038h3.564v-2.592h-3.564v2.592zm1.782 4.482c.492 0 .864-.048 1.116-.144a.873.873 0 00.522-.486c.096-.24.144-.576.144-1.008v-1.008h-3.564v1.008c0 .432.042.768.126 1.008.096.228.27.39.522.486.264.096.642.144 1.134.144zm-1.782-8.91h3.564v-.864c0-.432-.048-.762-.144-.99a.81.81 0 00-.522-.486c-.252-.096-.624-.144-1.116-.144-.492 0-.87.048-1.134.144a.81.81 0 00-.522.486c-.084.228-.126.558-.126.99v.864zm15.84 11.412c-.3.12-.588.138-.864.054-.276-.072-.48-.252-.612-.54a.918.918 0 01-.018-.774.981.981 0 01.576-.54c.72-.264 1.314-.558 1.782-.882.48-.336.858-.738 1.134-1.206.276-.468.468-1.038.576-1.71.12-.672.18-1.482.18-2.43 0-.3.096-.534.288-.702a.998.998 0 01.702-.234c.276 0 .51.09.702.27.192.168.282.408.27.72-.024.588-.06 1.134-.108 1.638a6.7 6.7 0 001.35 2.574c.624.72 1.47 1.314 2.538 1.782.276.12.456.306.54.558.084.264.06.534-.072.81a1.037 1.037 0 01-.666.54 1.1 1.1 0 01-.846-.09c-.804-.42-1.5-.9-2.088-1.44a7.419 7.419 0 01-1.44-1.926c-.36.84-.858 1.536-1.494 2.088-.636.54-1.446 1.02-2.43 1.44zm.504-7.884c-.264.12-.54.15-.828.09a.919.919 0 01-.612-.504.938.938 0 01-.054-.738c.096-.252.282-.438.558-.558.84-.36 1.482-.798 1.926-1.314.456-.516.768-1.158.936-1.926.18-.78.276-1.722.288-2.826 0-.3.102-.534.306-.702a.998.998 0 01.702-.234c.276.012.504.102.684.27.192.168.282.408.27.72-.012.324-.03.636-.054.936-.012.288-.036.57-.072.846a5.576 5.576 0 001.35 2.358c.636.66 1.476 1.23 2.52 1.71a.81.81 0 01.468.54.948.948 0 01-.108.756.917.917 0 01-.63.486c-.276.06-.552.03-.828-.09-1.536-.756-2.688-1.806-3.456-3.15a6.03 6.03 0 01-1.314 1.926c-.552.528-1.236.996-2.052 1.404zm-4.734 7.542c-.672 0-1.206-.078-1.602-.234a1.354 1.354 0 01-.81-.792c-.156-.384-.234-.93-.234-1.638 0-.732.078-1.29.234-1.674.156-.384.426-.642.81-.774.396-.144.93-.216 1.602-.216.684 0 1.218.072 1.602.216.384.132.654.39.81.774.156.384.234.942.234 1.674 0 .708-.078 1.254-.234 1.638a1.354 1.354 0 01-.81.792c-.384.156-.918.234-1.602.234zm-2.61-11.232a.813.813 0 01-.594-.252.844.844 0 01-.234-.594c0-.228.078-.42.234-.576a.813.813 0 01.594-.252h4.932c.228 0 .42.084.576.252a.755.755 0 01.252.576.813.813 0 01-.252.594.755.755 0 01-.576.252h-4.932zm.81-2.52a.813.813 0 01-.594-.252.873.873 0 010-1.224.813.813 0 01.594-.252h3.474c.24 0 .438.084.594.252a.873.873 0 010 1.224.775.775 0 01-.594.252h-3.474zm-.018 7.596a.813.813 0 01-.594-.252.813.813 0 01-.252-.594c0-.24.084-.438.252-.594a.813.813 0 01.594-.252h3.51c.24 0 .438.084.594.252a.805.805 0 01.234.594.844.844 0 01-.234.594.775.775 0 01-.594.252h-3.51zm0-2.538a.813.813 0 01-.594-.252.813.813 0 01-.252-.594c0-.24.084-.438.252-.594a.813.813 0 01.594-.252h3.51c.24 0 .438.084.594.252a.805.805 0 01.234.594.844.844 0 01-.234.594.775.775 0 01-.594.252h-3.51zm5.994 5.328c-.264-.072-.45-.216-.558-.432a.892.892 0 01-.036-.702c.06-.18.126-.396.198-.648.072-.264.144-.522.216-.774.084-.264.144-.474.18-.63.06-.276.198-.474.414-.594.216-.12.45-.15.702-.09a.843.843 0 01.576.378c.144.204.186.444.126.72a15.949 15.949 0 01-.396 1.494c-.072.264-.138.48-.198.648a.932.932 0 01-.486.576.924.924 0 01-.738.054zm.09-7.902c-.264-.06-.45-.198-.558-.414a.95.95 0 01-.054-.702c.06-.18.126-.396.198-.648.072-.264.138-.528.198-.792.072-.264.12-.474.144-.63.06-.276.192-.474.396-.594.216-.12.456-.156.72-.108.252.048.45.168.594.36.144.192.186.426.126.702-.036.192-.09.426-.162.702-.06.276-.126.546-.198.81-.06.264-.12.486-.18.666a.944.944 0 01-.468.576c-.228.12-.48.144-.756.072zm6.03-.432a.874.874 0 01-.45-.522.96.96 0 01.09-.702c.108-.216.246-.504.414-.864.18-.36.324-.654.432-.882a.872.872 0 01.504-.486.987.987 0 01.738.036c.24.096.402.258.486.486.096.216.09.45-.018.702-.06.144-.144.336-.252.576-.108.228-.222.462-.342.702-.108.228-.204.42-.288.576a.942.942 0 01-.576.45.99.99 0 01-.738-.072zm.018 7.848a.94.94 0 01-.45-.558.96.96 0 01.09-.702 9.73 9.73 0 00.414-.81c.168-.348.306-.63.414-.846.108-.252.276-.42.504-.504a.93.93 0 01.738.018c.24.096.408.258.504.486.096.216.09.456-.018.72a18.164 18.164 0 01-.594 1.242c-.108.216-.204.402-.288.558a.871.871 0 01-.576.468.99.99 0 01-.738-.072zm-10.314 2.178c.324 0 .534-.06.63-.18.096-.12.144-.39.144-.81 0-.42-.048-.69-.144-.81-.096-.132-.306-.198-.63-.198-.312 0-.522.066-.63.198-.096.12-.144.39-.144.81 0 .42.048.69.144.81.108.12.318.18.63.18zm27.288 1.404c-1.608.228-2.964.312-4.068.252-1.104-.048-1.992-.21-2.664-.486-.66-.276-1.14-.642-1.44-1.098-.3-.468-.45-.996-.45-1.584 0-.9.36-1.74 1.08-2.52.732-.78 1.788-1.464 3.168-2.052a1.413 1.413 0 00-.702-.486c-.6-.18-1.194-.114-1.782.198-.576.312-1.14.768-1.692 1.368-.204.216-.474.336-.81.36-.324.012-.588-.09-.792-.306a1.12 1.12 0 01-.27-.792c.024-.3.15-.546.378-.738a10.457 10.457 0 001.548-1.638c.456-.588.84-1.194 1.152-1.818l-1.458.036c-.444 0-.828-.006-1.152-.018-.3 0-.552-.102-.756-.306a1.088 1.088 0 01-.306-.774 1 1 0 01.342-.738c.216-.192.474-.282.774-.27.42.012.924.018 1.512.018l1.872-.036c.06-.228.114-.45.162-.666.048-.216.09-.432.126-.648.048-.3.18-.54.396-.72a.944.944 0 01.774-.234c.3.036.54.168.72.396.18.228.252.492.216.792a3.662 3.662 0 01-.072.486 7.73 7.73 0 01-.126.504c.456-.024.882-.048 1.278-.072.396-.036.75-.078 1.062-.126.3-.036.564.036.792.216.24.168.378.402.414.702a.996.996 0 01-.234.792.961.961 0 01-.702.378c-.444.048-.954.09-1.53.126-.576.036-1.176.066-1.8.09a15.34 15.34 0 01-.864 1.656c.288-.06.564-.078.828-.054.264.012.516.054.756.126.36.096.708.264 1.044.504.348.228.654.552.918.972a30.45 30.45 0 011.872-.468c.672-.144 1.38-.27 2.124-.378a.998.998 0 01.792.198c.24.168.378.402.414.702a.975.975 0 01-.198.792c-.18.228-.42.366-.72.414a24.12 24.12 0 00-1.926.306c-.588.108-1.134.228-1.638.36.06.324.108.678.144 1.062.036.384.054.798.054 1.242 0 .3-.108.558-.324.774a1.027 1.027 0 01-.756.306c-.3 0-.552-.102-.756-.306a1.088 1.088 0 01-.306-.774c0-.612-.036-1.158-.108-1.638-.984.408-1.698.846-2.142 1.314-.432.456-.648.9-.648 1.332 0 .324.192.588.576.792.384.204 1.026.318 1.926.342.9.024 2.13-.066 3.69-.27.288-.036.552.036.792.216.24.168.378.402.414.702.036.288-.036.546-.216.774-.18.228-.414.366-.702.414zm12.582.45c-.288.084-.57.078-.846-.018a.979.979 0 01-.594-.522 1.145 1.145 0 01-.036-.846.918.918 0 01.558-.594c.912-.348 1.62-.738 2.124-1.17.504-.432.858-.93 1.062-1.494-.408.192-.81.288-1.206.288-.948 0-1.722-.24-2.322-.72-.6-.492-.9-1.212-.9-2.16 0-.948.312-1.692.936-2.232.624-.54 1.41-.81 2.358-.81.084 0 .162.006.234.018.072 0 .15.006.234.018a9.945 9.945 0 01-.09-.63 123.89 123.89 0 01-.036-.684c-1.2.048-2.382.12-3.546.216-1.152.084-2.226.174-3.222.27a1.108 1.108 0 01-.774-.216 1.024 1.024 0 01-.396-.702c-.024-.3.054-.564.234-.792a.904.904 0 01.702-.36c1.02-.084 2.13-.156 3.33-.216 1.2-.072 2.418-.132 3.654-.18v-1.548c0-.3.102-.552.306-.756.204-.204.456-.306.756-.306a1.049 1.049 0 011.08 1.062v1.476c.996-.024 1.95-.042 2.862-.054a237.19 237.19 0 012.52-.054c.3 0 .546.108.738.324.204.216.3.468.288.756a1 1 0 01-.342.738.999.999 0 01-.756.27 78.003 78.003 0 00-5.31 0c.012.42.03.84.054 1.26.036.42.066.822.09 1.206.576.684.864 1.614.864 2.79 0 1.5-.396 2.814-1.188 3.942-.78 1.128-1.92 1.938-3.42 2.43zm1.062-6.21c.348-.012.618-.102.81-.27.204-.18.306-.438.306-.774 0-.096-.012-.204-.036-.324-.012-.12-.03-.24-.054-.36a1.23 1.23 0 00-.99-.45 1.29 1.29 0 00-.864.306c-.228.192-.342.462-.342.81 0 .348.108.618.324.81.228.18.51.264.846.252zm19.062 5.724c-1.092-.024-1.956-.288-2.592-.792-.624-.504-.924-1.194-.9-2.07a2.54 2.54 0 01.432-1.35 2.515 2.515 0 011.116-.864c.468-.204 1.002-.276 1.602-.216.96.084 1.632.414 2.016.99.384.564.498 1.212.342 1.944.42-.204.762-.498 1.026-.882.276-.396.414-.906.414-1.53 0-.468-.138-.888-.414-1.26-.264-.384-.642-.678-1.134-.882-.48-.216-1.038-.306-1.674-.27-.636.036-1.32.228-2.052.576-.732.336-1.482.876-2.25 1.62a1.134 1.134 0 01-.81.306 1.045 1.045 0 01-.792-.378 1.094 1.094 0 01-.27-.774.92.92 0 01.378-.702 57.994 57.994 0 002.232-1.782 90.238 90.238 0 002.124-1.872 56.818 56.818 0 001.8-1.674c.324-.312.432-.57.324-.774-.096-.204-.354-.276-.774-.216a77.83 77.83 0 00-1.404.18c-.516.072-1.002.138-1.458.198a.998.998 0 01-.792-.198c-.24-.18-.378-.42-.414-.72a.947.947 0 01.198-.774c.18-.24.42-.384.72-.432.264-.036.594-.072.99-.108l1.242-.108 1.098-.09c.78-.06 1.416.042 1.908.306s.828.624 1.008 1.08c.18.444.186.93.018 1.458-.156.528-.498 1.026-1.026 1.494-.24.204-.546.468-.918.792-.36.324-.732.654-1.116.99a5.334 5.334 0 011.998-.018 4.22 4.22 0 011.728.684c.516.348.924.81 1.224 1.386.3.564.45 1.23.45 1.998 0 1.092-.24 1.998-.72 2.718-.48.708-1.14 1.224-1.98 1.548-.84.336-1.806.492-2.898.468zm-.324-1.998h.108c.036 0 .078.006.126.018.06 0 .126-.006.198-.018.168-.396.198-.726.09-.99-.108-.264-.324-.42-.648-.468-.288-.036-.528.006-.72.126-.18.108-.282.288-.306.54-.012.48.372.744 1.152.792z" fill="#135097"/><path d="M257.661 41.676l-3.639-3.411a.554.554 0 11.773-.797l4.947 4.974c.583.585.583 1.53 0 2.116l-4.947 4.974a.555.555 0 11-.773-.797l3.639-3.411a2.5 2.5 0 000-3.648z" fill="#135097" stroke="#135097"/><path d="M8 .5h240a7.5 7.5 0 017.5 7.5v14a7.5 7.5 0 01-7.5 7.5H.5V8A7.5 7.5 0 018 .5z" fill="#2A84BF"/><path d="M8 .5h240a7.5 7.5 0 017.5 7.5v14a7.5 7.5 0 01-7.5 7.5H.5V8A7.5 7.5 0 018 .5z" stroke="#fff"/><path d="M18.31 11.256c.252.019.527.037.826.056.299.019.565.028.798.028h7.56c.224-.01.397-.019.518-.028-.01.159-.019.35-.028.574v7.84c0 .243.005.513.014.812l.042.672h-1.596c0-.159.005-.355.014-.588.01-.243.014-.49.014-.742v-7.126h-6.538c-.27 0-.565.005-.882.014-.317.01-.565.023-.742.042v-1.554zm-.168 7.672c.205.01.453.023.742.042.29.019.583.028.882.028h7.532v1.456h-7.476c-.28 0-.579.005-.896.014-.317.01-.579.023-.784.042v-1.582zm15.12-8.358c.252.168.541.378.868.63.327.243.658.504.994.784.345.28.672.55.98.812.308.261.555.495.742.7L35.74 14.63c-.177-.187-.41-.41-.7-.672-.29-.27-.602-.546-.938-.826a18.8 18.8 0 00-.98-.812c-.327-.261-.62-.48-.882-.658l1.022-1.092zm-1.442 9.366c.784-.121 1.507-.28 2.17-.476a15.04 15.04 0 001.82-.686c.56-.261 1.064-.527 1.512-.798a12.176 12.176 0 002.058-1.582 14.458 14.458 0 001.666-1.848 10.63 10.63 0 001.134-1.848l.854 1.526a12.397 12.397 0 01-1.246 1.82 15.208 15.208 0 01-1.652 1.75 14.17 14.17 0 01-2.016 1.498c-.467.29-.98.57-1.54.84-.55.27-1.148.513-1.792.728-.635.215-1.311.387-2.03.518l-.938-1.442zm22.428-5.264c0 .905-.06 1.717-.182 2.436a6.436 6.436 0 01-.63 1.918 5.137 5.137 0 01-1.246 1.512c-.532.439-1.209.845-2.03 1.218l-1.19-1.12a9.714 9.714 0 001.708-.812 4.24 4.24 0 001.204-1.092c.317-.439.55-.98.7-1.624.159-.644.238-1.428.238-2.352v-3.542c0-.28-.01-.527-.028-.742a3.847 3.847 0 00-.042-.476h1.582c-.01.103-.028.261-.056.476a8.657 8.657 0 00-.028.742v3.458zm-5.04-4.564c-.01.093-.028.238-.056.434a7.328 7.328 0 00-.028.686v5.068c0 .187.005.373.014.56l.028.49c.01.14.019.243.028.308H47.64c.01-.065.019-.168.028-.308.01-.14.019-.299.028-.476.01-.187.014-.378.014-.574v-5.068c0-.177-.01-.364-.028-.56a5.16 5.16 0 00-.056-.56h1.582zm-4.326 2.618c.065.019.168.037.308.056.15.01.322.023.518.042.205.01.415.014.63.014h9.226a10.622 10.622 0 001.4-.084v1.484a21.965 21.965 0 00-1.386-.042h-9.24c-.215 0-.42.005-.616.014a7.344 7.344 0 00-.84.042v-1.526zm20.328 7.966a4.057 4.057 0 00.098-.882v-8.288c0-.29-.014-.537-.042-.742a4.207 4.207 0 01-.042-.378h1.624c0 .047-.014.173-.042.378a8.354 8.354 0 00-.028.742v7.742c.41-.187.845-.434 1.302-.742.457-.317.905-.686 1.344-1.106.439-.42.826-.877 1.162-1.372l.854 1.204a10.79 10.79 0 01-1.414 1.526c-.532.485-1.092.929-1.68 1.33-.579.401-1.139.737-1.68 1.008a3.06 3.06 0 00-.322.182 8.054 8.054 0 00-.21.168l-.924-.77zm-6.454-.126a5.733 5.733 0 001.512-1.526 7.557 7.557 0 00.91-1.876 5.98 5.98 0 00.238-1.162c.056-.467.093-.961.112-1.484.028-.532.042-1.055.042-1.568.01-.513.014-.97.014-1.372 0-.243-.01-.453-.028-.63a4.068 4.068 0 00-.084-.504h1.624c0 .037-.01.117-.028.238-.01.112-.019.247-.028.406-.01.15-.014.308-.014.476 0 .401-.005.873-.014 1.414a34.52 34.52 0 01-.07 1.652c-.028.57-.07 1.11-.126 1.624a6.747 6.747 0 01-.224 1.288 7.678 7.678 0 01-.952 2.156 7.755 7.755 0 01-1.54 1.764l-1.344-.896zm19.138-6.048c.439.261.91.555 1.414.882.504.317 1.008.653 1.512 1.008.504.345.98.681 1.428 1.008.457.327.85.63 1.176.91l-1.036 1.232c-.317-.29-.7-.611-1.148-.966a35.247 35.247 0 00-1.428-1.092 37.356 37.356 0 00-1.512-1.064 45.17 45.17 0 00-1.372-.924l.966-.994zm6.482-2.478a4.388 4.388 0 00-.378.868c-.14.448-.331.943-.574 1.484a13.955 13.955 0 01-.854 1.652c-.327.55-.695 1.083-1.106 1.596-.644.793-1.437 1.554-2.38 2.282-.933.719-2.063 1.33-3.388 1.834l-1.274-1.12a12.12 12.12 0 002.436-1.022 11.932 11.932 0 001.904-1.302 13.25 13.25 0 001.442-1.442c.345-.41.663-.859.952-1.344.299-.485.555-.97.77-1.456.224-.485.383-.924.476-1.316h-4.998l.532-1.26h4.256c.196 0 .387-.014.574-.042a2.56 2.56 0 00.476-.112l1.134.7zM79.7 9.968c-.14.205-.28.43-.42.672l-.308.574a17.172 17.172 0 01-1.148 1.722 16.667 16.667 0 01-1.582 1.848 14.474 14.474 0 01-1.96 1.638l-1.19-.924a11.538 11.538 0 002.086-1.624 12.922 12.922 0 001.47-1.694c.392-.55.7-1.036.924-1.456a4.78 4.78 0 00.28-.574c.112-.252.196-.48.252-.686l1.596.504zm9.562.602c.252.168.541.378.868.63.327.243.658.504.994.784.345.28.672.55.98.812.308.261.555.495.742.7L91.74 14.63c-.177-.187-.41-.41-.7-.672-.29-.27-.602-.546-.938-.826a18.8 18.8 0 00-.98-.812c-.327-.261-.62-.48-.882-.658l1.022-1.092zm-1.442 9.366c.784-.121 1.507-.28 2.17-.476a15.04 15.04 0 001.82-.686c.56-.261 1.064-.527 1.512-.798a12.176 12.176 0 002.058-1.582 14.458 14.458 0 001.666-1.848 10.63 10.63 0 001.134-1.848l.854 1.526a12.397 12.397 0 01-1.246 1.82 15.208 15.208 0 01-1.652 1.75 14.17 14.17 0 01-2.016 1.498c-.467.29-.98.57-1.54.84-.55.27-1.148.513-1.792.728-.635.215-1.311.387-2.03.518l-.938-1.442zm16.758-.224V11.62c0-.224-.009-.48-.028-.77a6.012 6.012 0 00-.098-.798h1.722c-.019.224-.042.48-.07.77-.019.29-.028.555-.028.798v8.092a15.437 15.437 0 00.056 1.204c.019.215.037.41.056.588h-1.722a9.37 9.37 0 00.084-.868c.019-.345.028-.653.028-.924zm1.176-6.006c.457.13.971.294 1.54.49.569.187 1.143.392 1.722.616.579.215 1.129.43 1.652.644.523.215.966.41 1.33.588l-.63 1.526a15.87 15.87 0 00-1.33-.644 33.913 33.913 0 00-2.996-1.204 42.161 42.161 0 00-1.288-.434v-1.582zm14.854-3.85c-.056.27-.135.602-.238.994a10.69 10.69 0 01-.42 1.302 10.27 10.27 0 01-.588 1.204c-.224.41-.457.784-.7 1.12a2.24 2.24 0 01.546-.224 4.01 4.01 0 01.644-.14c.224-.037.425-.056.602-.056.56 0 1.031.163 1.414.49.383.317.574.78.574 1.386v.686c0 .27.005.555.014.854.009.299.014.593.014.882.009.29.014.541.014.756h-1.33c.009-.177.019-.383.028-.616.009-.243.014-.495.014-.756.009-.261.014-.513.014-.756v-.644c-.009-.42-.135-.723-.378-.91a1.36 1.36 0 00-.854-.28c-.42 0-.84.098-1.26.294a4.163 4.163 0 00-1.064.714c-.196.196-.401.42-.616.672a50.27 50.27 0 00-.658.826l-1.204-.896a18.2 18.2 0 001.638-1.736 12.55 12.55 0 001.106-1.568c.299-.504.532-.98.7-1.428.149-.383.271-.77.364-1.162a6.59 6.59 0 00.168-1.12l1.456.112zm-5.012 1.414c.373.056.784.098 1.232.126.448.019.84.028 1.176.028.625 0 1.302-.014 2.03-.042a44.122 44.122 0 002.198-.14 22.775 22.775 0 002.114-.28v1.302a50.67 50.67 0 01-3.29.322c-.579.028-1.134.051-1.666.07-.532.01-1.017.014-1.456.014h-.7c-.261-.01-.537-.023-.826-.042-.28-.019-.551-.033-.812-.042V11.27zm10.878 3.64c-.131.047-.285.098-.462.154-.168.056-.336.117-.504.182a110.24 110.24 0 00-2.128.854c-.625.261-1.269.565-1.932.91a9.804 9.804 0 00-1.162.7 3.417 3.417 0 00-.77.728 1.407 1.407 0 00-.266.826c0 .243.056.439.168.588.112.15.266.266.462.35.205.075.448.13.728.168.289.028.611.042.966.042.56 0 1.195-.033 1.904-.098a22.862 22.862 0 001.988-.266l-.042 1.414a43.59 43.59 0 01-1.176.112c-.448.047-.91.08-1.386.098-.467.028-.91.042-1.33.042-.7 0-1.33-.065-1.89-.196-.56-.13-1.003-.355-1.33-.672-.327-.327-.49-.78-.49-1.358 0-.457.103-.868.308-1.232.215-.373.49-.71.826-1.008a8.172 8.172 0 011.148-.826c.42-.252.835-.48 1.246-.686.439-.233.845-.434 1.218-.602.383-.177.737-.336 1.064-.476.336-.14.649-.28.938-.42.243-.103.471-.2.686-.294.215-.103.429-.21.644-.322l.574 1.288zm7.434-5.18a2.183 2.183 0 00-.042.322 6.509 6.509 0 01-.042.392l-.028.364c-.009.243-.023.532-.042.868-.009.327-.023.686-.042 1.078l-.028 1.162v1.106c0 .364.005.77.014 1.218l.028 1.33.028 1.204c.009.364.014.653.014.868 0 .495-.061.882-.182 1.162-.112.28-.271.476-.476.588a1.418 1.418 0 01-.714.168c-.299 0-.625-.065-.98-.196a4.338 4.338 0 01-1.008-.532 3.128 3.128 0 01-.784-.784 1.654 1.654 0 01-.308-.952c0-.43.163-.854.49-1.274.336-.43.775-.821 1.316-1.176a8.493 8.493 0 011.722-.868c.635-.233 1.283-.41 1.946-.532a10.116 10.116 0 011.806-.182c.7 0 1.325.117 1.876.35.551.233.985.57 1.302 1.008.317.439.476.957.476 1.554 0 .55-.112 1.045-.336 1.484a2.91 2.91 0 01-.994 1.12c-.448.308-1.013.546-1.694.714-.317.065-.63.112-.938.14-.299.028-.579.051-.84.07l-.504-1.428c.28.01.565.01.854 0a4.65 4.65 0 00.826-.098 4.532 4.532 0 001.092-.35c.336-.168.602-.387.798-.658a1.66 1.66 0 00.308-1.008c0-.364-.098-.667-.294-.91a1.82 1.82 0 00-.798-.574 3.15 3.15 0 00-1.148-.196 8.42 8.42 0 00-1.806.196c-.597.121-1.185.294-1.764.518a6.349 6.349 0 00-1.176.602 3.67 3.67 0 00-.84.728c-.205.243-.308.476-.308.7 0 .14.047.275.14.406.093.121.205.229.336.322.14.093.285.168.434.224.149.056.285.084.406.084a.43.43 0 00.336-.14c.093-.103.14-.27.14-.504 0-.261-.009-.63-.028-1.106-.009-.476-.019-.999-.028-1.568a107.45 107.45 0 01-.014-1.666v-1.246c.009-.439.014-.859.014-1.26.009-.401.014-.756.014-1.064.009-.308.014-.532.014-.672 0-.103-.005-.224-.014-.364l-.028-.406a2.236 2.236 0 00-.042-.336h1.54zm4.186 1.54c.345.168.728.378 1.148.63.429.243.835.49 1.218.742.392.243.705.457.938.644l-.686 1.12a5.157 5.157 0 00-.672-.518 21.324 21.324 0 00-.882-.574 19.37 19.37 0 00-.91-.546 10.375 10.375 0 00-.77-.434l.616-1.064zm-8.484.882c.401.047.747.08 1.036.098.289.01.565.014.826.014.345 0 .737-.019 1.176-.056a33.77 33.77 0 001.33-.14c.457-.056.901-.126 1.33-.21.439-.093.835-.191 1.19-.294l.028 1.372c-.373.084-.789.163-1.246.238-.448.075-.905.145-1.372.21a39.75 39.75 0 01-1.316.14c-.411.028-.775.042-1.092.042-.42 0-.775-.005-1.064-.014a51.468 51.468 0 01-.784-.056l-.042-1.344zm17.388 4.27h8.33v1.19h-8.33v-1.19zm4.606-4.998h1.19v2.282c0 .15.023.247.07.294.047.037.145.056.294.056h.938c.103 0 .177-.023.224-.07.047-.047.079-.154.098-.322a5.95 5.95 0 00.056-.756c.112.084.271.168.476.252.215.084.406.145.574.182-.037.476-.103.845-.196 1.106-.093.252-.229.43-.406.532-.168.103-.392.154-.672.154h-1.274c-.373 0-.658-.042-.854-.126a.77.77 0 01-.406-.448c-.075-.205-.112-.485-.112-.84v-2.296zm-4.41-1.526h8.05v2.618h-1.176v-1.484h-5.74v1.54h-1.134V9.898zm3.276 5.054h1.302v7.224h-1.302v-7.224zm-1.106-3.514h1.218a8.863 8.863 0 01-.21 1.456c-.093.42-.247.793-.462 1.12a2.778 2.778 0 01-.896.84c-.383.233-.877.434-1.484.602a1.83 1.83 0 00-.28-.49 2.6 2.6 0 00-.378-.462c.523-.121.938-.266 1.246-.434.317-.177.56-.387.728-.63.177-.243.299-.527.364-.854.075-.336.126-.719.154-1.148zm2.8 5.544c.243.476.555.943.938 1.4.383.457.798.873 1.246 1.246.457.364.919.667 1.386.91a4.05 4.05 0 00-.322.294 11.68 11.68 0 00-.322.364 5.84 5.84 0 00-.266.364 8.61 8.61 0 01-1.414-1.092 12.131 12.131 0 01-1.274-1.47 12.396 12.396 0 01-.994-1.624l1.022-.392zm-2.058-.112l1.036.35a9.48 9.48 0 01-1.05 1.806 9.443 9.443 0 01-1.414 1.512 8.207 8.207 0 01-1.638 1.12 4.432 4.432 0 00-.392-.546 3.796 3.796 0 00-.448-.476 7.51 7.51 0 001.568-.924 8.59 8.59 0 001.358-1.316 6.61 6.61 0 00.98-1.526zm-7.756-.518c.551-.15 1.213-.331 1.988-.546.775-.224 1.559-.457 2.352-.7l.168 1.204c-.719.233-1.447.467-2.184.7-.737.224-1.409.43-2.016.616l-.308-1.274zm.21-4.424h4.256v1.232h-4.256v-1.232zm1.624-2.73h1.232V20.72c0 .327-.037.583-.112.77a.897.897 0 01-.406.448c-.187.103-.429.168-.728.196a9.08 9.08 0 01-1.12.056 2.633 2.633 0 00-.126-.616 3.867 3.867 0 00-.224-.616c.28.01.537.014.77.014.233 0 .392-.005.476-.014.084 0 .145-.014.182-.042.037-.037.056-.103.056-.196V9.198zm16.772.812a16.62 16.62 0 00-.154 1.61c-.019.383-.037.859-.056 1.428-.019.56-.037 1.157-.056 1.792a118.135 118.135 0 00-.056 3.5c0 .495.089.887.266 1.176.187.29.443.5.77.63a3.12 3.12 0 001.092.182c.616 0 1.171-.08 1.666-.238a5.02 5.02 0 001.33-.644c.401-.27.761-.579 1.078-.924.317-.345.602-.705.854-1.078l.994 1.218a8.302 8.302 0 01-.882 1.05 7.183 7.183 0 01-1.274 1.022 6.614 6.614 0 01-1.68.77c-.625.196-1.33.294-2.114.294-.709 0-1.33-.107-1.862-.322a2.567 2.567 0 01-1.246-1.036c-.299-.476-.448-1.101-.448-1.876 0-.401.005-.854.014-1.358l.028-1.554c.019-.541.033-1.069.042-1.582a88.745 88.745 0 00.056-2.45c0-.299-.014-.583-.042-.854a4.658 4.658 0 00-.112-.77l1.792.014zm17.108 1.414c-.093.719-.215 1.48-.364 2.282-.14.793-.331 1.582-.574 2.366-.28.952-.597 1.76-.952 2.422-.345.653-.723 1.153-1.134 1.498-.411.345-.845.518-1.302.518-.467 0-.901-.159-1.302-.476-.401-.327-.728-.78-.98-1.358-.252-.588-.378-1.27-.378-2.044 0-.784.159-1.526.476-2.226.327-.7.775-1.32 1.344-1.862a6.306 6.306 0 011.988-1.274 6.432 6.432 0 012.45-.462c.84 0 1.596.135 2.268.406a4.96 4.96 0 011.736 1.134 4.753 4.753 0 011.106 1.68c.252.644.378 1.33.378 2.058 0 .98-.205 1.853-.616 2.618-.401.756-.994 1.377-1.778 1.862-.784.476-1.745.798-2.884.966l-.826-1.316c.243-.028.467-.056.672-.084.205-.037.397-.075.574-.112a5.103 5.103 0 001.274-.476 4.256 4.256 0 001.092-.812 3.65 3.65 0 00.742-1.176c.187-.448.28-.952.28-1.512s-.089-1.078-.266-1.554a3.508 3.508 0 00-.784-1.26 3.538 3.538 0 00-1.274-.826c-.504-.205-1.073-.308-1.708-.308-.765 0-1.447.135-2.044.406a4.788 4.788 0 00-2.464 2.506 3.833 3.833 0 00-.322 1.484c0 .532.065.975.196 1.33.131.345.294.602.49.77.196.168.397.252.602.252.205 0 .415-.103.63-.308.215-.215.429-.55.644-1.008.224-.457.443-1.04.658-1.75.215-.672.392-1.386.532-2.142a21.94 21.94 0 00.322-2.24l1.498.028zm12.866-.98c-.28.448-.625.905-1.036 1.372-.401.467-.854.933-1.358 1.4-.504.457-1.036.896-1.596 1.316-.56.42-1.134.803-1.722 1.148a2.567 2.567 0 00-.238-.35 3.838 3.838 0 00-.308-.378 2.74 2.74 0 00-.308-.336 15.514 15.514 0 002.352-1.582 16.795 16.795 0 002.03-1.946c.607-.681 1.087-1.335 1.442-1.96h1.358c.373.55.798 1.087 1.274 1.61.476.523.98 1.017 1.512 1.484.532.457 1.083.877 1.652 1.26a12.56 12.56 0 001.694.966 4.231 4.231 0 00-.49.56c-.149.215-.285.42-.406.616a20.002 20.002 0 01-1.666-1.078c-.56-.41-1.101-.84-1.624-1.288a18.727 18.727 0 01-1.442-1.4 15.395 15.395 0 01-1.12-1.414zm.098 5.74h4.662v1.204h-4.662v-1.204zm-5.992 4.396h11.956v1.204h-11.956V20.58zm5.348-7.546h1.4v8.19h-1.4v-8.19zm-3.682 2.478h1.302v5.67h-1.302v-5.67zm12.138 2.282h12.362V18.9H198.84v-1.106zm.056-6.202h12.264v1.106h-12.264v-1.106zm.56 2.436h11.186v1.064h-11.186v-1.064zm.7 1.918h9.814v.98h-9.814v-.98zm4.172-1.4h1.302v7.63h-1.302v-7.63zm-1.26-5.376h1.246v2.94h-1.246V9.17zm2.632 0h1.26v2.87h-1.26V9.17zm-1.708 9.086l1.064.49a8.94 8.94 0 01-1.596 1.344 13.03 13.03 0 01-2.016 1.106 14.75 14.75 0 01-2.128.784 3.305 3.305 0 00-.252-.392 5.546 5.546 0 00-.308-.392 2.74 2.74 0 00-.308-.336c.7-.15 1.4-.355 2.1-.616a14.5 14.5 0 001.96-.896c.607-.345 1.101-.71 1.484-1.092zm1.974-.028c.299.29.653.57 1.064.84.42.27.877.523 1.372.756a13.837 13.837 0 003.164.994 6.8 6.8 0 00-.322.35c-.112.14-.219.285-.322.434a7.36 7.36 0 00-.238.406 13.527 13.527 0 01-1.638-.56 12.146 12.146 0 01-1.568-.756c-.495-.29-.961-.602-1.4-.938a8.01 8.01 0 01-1.134-1.106l1.022-.42zm2.968-8.904l1.372.35c-.215.373-.439.747-.672 1.12a18.42 18.42 0 01-.616.966l-1.078-.336c.121-.196.243-.415.364-.658.121-.252.238-.504.35-.756.112-.252.205-.48.28-.686zm-1.862 2.968l1.386.336c-.177.327-.355.644-.532.952a9.09 9.09 0 01-.504.77l-1.106-.322c.131-.252.266-.541.406-.868.149-.327.266-.616.35-.868zm-7.112-2.618l1.134-.392c.233.308.457.653.672 1.036.215.383.373.719.476 1.008l-1.204.434a5.955 5.955 0 00-.434-1.008c-.205-.392-.42-.751-.644-1.078zm1.806 3.08l1.274-.224c.149.215.289.457.42.728.131.27.224.504.28.7l-1.33.252a4.133 4.133 0 00-.252-.7 5.67 5.67 0 00-.392-.756zm15.792-1.89h7.658v1.064h-7.658v-1.064zm.392 1.862h6.958v1.022h-6.958v-1.022zm-.686 1.876h8.162v1.106h-8.162v-1.106zm5.81-5.446l1.316.35-.56.924c-.177.299-.336.55-.476.756l-1.036-.308c.131-.243.266-.527.406-.854.149-.327.266-.616.35-.868zm-4.536.42l1.05-.364c.168.252.327.527.476.826.159.299.275.555.35.77l-1.12.42a4.285 4.285 0 00-.308-.798 6.573 6.573 0 00-.448-.854zm5.768 6.538l1.008.714a14 14 0 01-.98.994c-.345.327-.658.611-.938.854l-.868-.644a15.898 15.898 0 001.246-1.26c.205-.243.383-.462.532-.658zm-6.664.644l.91-.588c.271.261.541.56.812.896.271.327.476.62.616.882l-.952.658a6.597 6.597 0 00-.588-.896 9.245 9.245 0 00-.798-.952zm-.924 3.5a40.61 40.61 0 001.568-.784c.607-.317 1.223-.644 1.848-.98l.336 1.078-1.624.938c-.541.317-1.05.602-1.526.854l-.602-1.106zm4.004-8.666h1.274v9.198c0 .327-.037.579-.112.756a.835.835 0 01-.406.434c-.215.103-.485.163-.812.182-.317.028-.691.042-1.12.042a3.467 3.467 0 00-.14-.616 2.97 2.97 0 00-.224-.588c.271.01.532.014.784.014.261.01.434.01.518 0 .093 0 .154-.019.182-.056.037-.037.056-.093.056-.168v-9.198zm1.204 4.466a8.65 8.65 0 00.854 1.862 6.928 6.928 0 001.26 1.526 6.127 6.127 0 001.652 1.05 3.25 3.25 0 00-.294.308c-.103.121-.205.247-.308.378-.093.14-.173.266-.238.378a6.44 6.44 0 01-1.666-1.274 8.937 8.937 0 01-1.274-1.82 12.369 12.369 0 01-.882-2.198l.896-.21zm-9.24-3.892h4.578v1.232h-4.578v-1.232zm1.848-2.982h1.204v12.978h-1.204V9.184zm-.028 3.766l.77.266a23.53 23.53 0 01-.392 1.722 27.746 27.746 0 01-.532 1.764 15.29 15.29 0 01-.644 1.61c-.224.495-.457.92-.7 1.274a3.838 3.838 0 00-.294-.602 6.142 6.142 0 00-.336-.56 7.9 7.9 0 00.658-1.106c.224-.43.429-.887.616-1.372.187-.495.35-.999.49-1.512.149-.513.271-1.008.364-1.484zm1.162 1.12c.084.093.205.261.364.504.159.233.331.49.518.77.196.28.373.541.532.784.159.233.266.401.322.504l-.7.966a14.439 14.439 0 00-.336-.686c-.14-.28-.294-.565-.462-.854a33.05 33.05 0 00-.462-.84c-.14-.261-.257-.467-.35-.616l.574-.532zm11.004 2.94c.187-.15.364-.299.532-.448a12.892 12.892 0 001.134-1.218c.224-.261.457-.541.7-.84.243-.308.481-.611.714-.91.243-.299.471-.574.686-.826.439-.513.868-.789 1.288-.826.429-.047.887.173 1.372.658.299.29.611.63.938 1.022.327.383.653.77.98 1.162.327.383.635.728.924 1.036.215.243.453.509.714.798l.854.882.938.91c.317.308.639.607.966.896l-1.134 1.302a39.643 39.643 0 01-1.092-1.078 69.502 69.502 0 01-1.106-1.218c-.355-.41-.691-.793-1.008-1.148-.299-.345-.607-.71-.924-1.092a84.88 84.88 0 00-.91-1.106 28.173 28.173 0 00-.77-.91c-.177-.196-.336-.317-.476-.364a.39.39 0 00-.378.028c-.121.065-.257.191-.406.378a56.54 56.54 0 01-.532.686c-.205.261-.42.541-.644.84-.215.29-.425.57-.63.84-.205.27-.392.509-.56.714-.149.205-.299.415-.448.63-.149.215-.285.401-.406.56l-1.316-1.358z" fill="#fff"/></svg>