<?xml version="1.0" encoding="utf-8"?><svg xmlns="http://www.w3.org/2000/svg" xmlns:xlink="http://www.w3.org/1999/xlink"><symbol fill="none" viewBox="0 0 392 92" id="cta-btn_consul" xmlns="http://www.w3.org/2000/svg"><g clip-path="url(#aa)" filter="url(#ab)"><rect width="391" height="62" x=".5" y="29.5" fill="#fff" rx="7.5"/><rect width="391" height="62" x=".5" y="29.5" stroke="#fff" rx="7.5"/><path fill="#135097" d="M39.44 71.408c-.368.16-.744.16-1.128 0a1.47 1.47 0 0 1-.84-.768 1.513 1.513 0 0 1-.024-1.152c.144-.4.4-.68.768-.84 2.496-1.12 4.6-2.464 6.312-4.032 1.728-1.568 2.984-3.272 3.768-5.112.352-.8.408-1.4.168-1.8-.24-.416-.832-.624-1.776-.624h-9c-.4 0-.744-.144-1.032-.432a1.49 1.49 0 0 1-.432-1.056c0-.416.144-.768.432-1.056a1.408 1.408 0 0 1 1.032-.432h9.12c1.472 0 2.608.272 3.408.816.816.528 1.296 1.272 1.44 2.232.144.944-.048 2.056-.576 3.336-.944 2.24-2.408 4.304-4.392 6.192-1.968 1.872-4.384 3.448-7.248 4.728Zm14.904-14.496a2.398 2.398 0 0 1-1.728-.696 2.398 2.398 0 0 1-.696-1.728c0-.672.232-1.24.696-1.704.48-.48 1.056-.72 1.728-.72.656 0 1.216.24 1.68.72.48.464.72 1.032.72 1.704 0 .672-.24 1.248-.72 1.728a2.29 2.29 0 0 1-1.68.696Zm0-1.392a.977.977 0 0 0 .72-.288c.208-.208.312-.456.312-.744a.94.94 0 0 0-.312-.72.94.94 0 0 0-.72-.312c-.288 0-.536.104-.744.312a.94.94 0 0 0-.312.72c0 .288.104.536.312.744.208.192.456.288.744.288ZM68.84 69.56c-1.648 0-3.008-.12-4.08-.36-1.056-.24-1.88-.64-2.472-1.2-.592-.56-1.008-1.304-1.248-2.232-.224-.928-.336-2.08-.336-3.456s.112-2.528.336-3.456c.24-.928.656-1.672 1.248-2.232.592-.56 1.416-.96 2.472-1.2 1.072-.24 2.432-.36 4.08-.36 1.664 0 3.024.12 4.08.36s1.88.64 2.472 1.2c.592.56 1 1.304 1.224 2.232.24.928.36 2.08.36 3.456s-.12 2.528-.36 3.456c-.224.928-.632 1.672-1.224 2.232-.592.56-1.416.96-2.472 1.2s-2.416.36-4.08.36Zm0-2.928c1.136 0 2.04-.056 2.712-.168.688-.128 1.208-.344 1.56-.648.368-.304.608-.736.72-1.296.128-.576.192-1.312.192-2.208 0-.896-.064-1.624-.192-2.184-.112-.576-.352-1.016-.72-1.32-.352-.304-.872-.512-1.56-.624-.672-.128-1.576-.192-2.712-.192-1.12 0-2.024.064-2.712.192-.688.112-1.216.32-1.584.624-.352.304-.592.744-.72 1.32-.112.56-.168 1.288-.168 2.184 0 .896.056 1.632.168 2.208.128.56.368.992.72 1.296.368.304.896.52 1.584.648.688.112 1.592.168 2.712.168Zm18.504 4.224c-.4.112-.784.08-1.152-.096a1.485 1.485 0 0 1-.72-.888c-.112-.384-.08-.76.096-1.128a1.38 1.38 0 0 1 .864-.72 21.484 21.484 0 0 0 3.768-1.608 30.748 30.748 0 0 0 7.08-5.184c1.024-.992 1.872-1.984 2.544-2.976.224-.336.536-.544.936-.624.4-.08.768 0 1.104.24.352.224.56.536.624.936.08.4.008.768-.216 1.104-.736 1.088-1.672 2.192-2.808 3.312a36.814 36.814 0 0 1-3.744 3.168c-1.36.992-2.76 1.88-4.2 2.664-1.44.768-2.832 1.368-4.176 1.8Zm3.432-12.216a12.29 12.29 0 0 0-.96-.72c-.4-.288-.816-.568-1.248-.84a10.833 10.833 0 0 0-1.128-.672 1.397 1.397 0 0 1-.696-.888c-.112-.4-.064-.776.144-1.128.208-.368.512-.6.912-.696.4-.096.776-.048 1.128.144.352.192.776.456 1.272.792.512.32 1.008.648 1.488.984.48.336.856.624 1.128.864.304.272.456.616.456 1.032.016.416-.112.776-.384 1.08a1.373 1.373 0 0 1-1.032.456c-.4 0-.76-.136-1.08-.408Zm-2.544 4.44a9.547 9.547 0 0 0-.984-.648 20.564 20.564 0 0 0-1.32-.792 13.867 13.867 0 0 0-1.152-.6 1.382 1.382 0 0 1-.744-.864c-.128-.4-.104-.776.072-1.128a1.38 1.38 0 0 1 .864-.72c.4-.128.776-.104 1.128.072.384.176.832.408 1.344.696.528.288 1.04.592 1.536.912.496.304.888.568 1.176.792.32.256.496.592.528 1.008.032.4-.088.76-.36 1.08-.256.32-.592.496-1.008.528-.4.032-.76-.08-1.08-.336Zm11.4-6.336a.966.966 0 0 1-.744.312.986.986 0 0 1-.72-.36 30.456 30.456 0 0 0-.768-.792c-.288-.32-.56-.6-.816-.84-.16-.144-.248-.344-.264-.6a.912.912 0 0 1 .264-.696.971.971 0 0 1 .648-.288c.256-.016.488.048.696.192.256.176.552.424.888.744.352.304.64.584.864.84a.937.937 0 0 1 .288.744 1.107 1.107 0 0 1-.336.744Zm.648-2.184a21.233 21.233 0 0 0-.792-.744c-.32-.304-.616-.56-.888-.768a.882.882 0 0 1-.312-.6.871.871 0 0 1 .216-.696c.16-.208.36-.32.6-.336.256-.032.496.016.72.144.272.16.584.384.936.672.368.272.68.536.936.792a.94.94 0 0 1 .312.72c.016.288-.072.544-.264.768-.176.208-.416.32-.72.336a.937.937 0 0 1-.744-.288Zm10.824 15.168c-.352 0-.656-.128-.912-.384a1.327 1.327 0 0 1-.384-.936c0-.368.128-.672.384-.912.256-.256.56-.384.912-.384h5.424v-4.008h-3.288c-.352 0-.656-.128-.912-.384a1.327 1.327 0 0 1-.384-.936c0-.368.128-.672.384-.912.256-.256.56-.384.912-.384h9.12c.368 0 .68.128.936.384.256.24.384.544.384.912 0 .352-.128.664-.384.936a1.274 1.274 0 0 1-.936.384h-3.24v4.008h5.472c.368 0 .672.128.912.384.256.24.384.544.384.912 0 .352-.128.664-.384.936-.24.256-.544.384-.912.384h-13.488Zm25.368 2.088c-.384.16-.768.16-1.152 0-.368-.144-.64-.4-.816-.768a1.47 1.47 0 0 1 .768-1.944c2.656-1.168 4.952-2.616 6.888-4.344 1.936-1.728 3.464-3.696 4.584-5.904.272-.512.32-.896.144-1.152-.16-.256-.568-.384-1.224-.384h-3.192a31.544 31.544 0 0 1-2.568 3 20.194 20.194 0 0 1-2.952 2.496 1.41 1.41 0 0 1-1.104.264 1.497 1.497 0 0 1-1.2-1.728c.08-.416.288-.736.624-.96a18.034 18.034 0 0 0 2.616-2.184 23.884 23.884 0 0 0 2.304-2.664c.704-.944 1.256-1.864 1.656-2.76.16-.368.432-.624.816-.768.384-.16.76-.152 1.128.024.368.16.624.432.768.816.16.384.152.76-.024 1.128-.064.16-.144.32-.24.48h1.656c1.904 0 3.168.488 3.792 1.464.64.976.56 2.296-.24 3.96-.816 1.696-1.888 3.304-3.216 4.824a26.614 26.614 0 0 1-4.464 4.104 26.999 26.999 0 0 1-5.352 3Zm28.824.216c-.4 0-.744-.144-1.032-.432a1.408 1.408 0 0 1-.432-1.032V53.984c0-.416.144-.76.432-1.032a1.408 1.408 0 0 1 1.032-.432c.416 0 .768.144 1.056.432.288.272.432.616.432 1.032v5.784c.208-.32.496-.528.864-.624.368-.112.728-.08 1.08.096a34.68 34.68 0 0 1 2.88 1.704c.992.64 1.848 1.264 2.568 1.872.32.256.496.6.528 1.032.048.416-.064.784-.336 1.104a1.49 1.49 0 0 1-1.008.528 1.52 1.52 0 0 1-1.104-.336 27.085 27.085 0 0 0-1.56-1.128c-.576-.4-1.16-.784-1.752-1.152a25.984 25.984 0 0 0-1.584-.984 1.544 1.544 0 0 1-.576-.528v9.216c0 .4-.144.744-.432 1.032-.288.288-.64.432-1.056.432Zm28.512-1.104c-.4.096-.776.04-1.128-.168a1.39 1.39 0 0 1-.672-.888 1.352 1.352 0 0 1 .168-1.08 1.39 1.39 0 0 1 .888-.672c1.776-.464 3.08-1.216 3.912-2.256.848-1.04 1.272-2.36 1.272-3.96 0-1.008-.224-1.912-.672-2.712-.448-.8-1.088-1.448-1.92-1.944-.816-.496-1.8-.8-2.952-.912-.288 2.688-.776 5.016-1.464 6.984-.672 1.952-1.472 3.464-2.4 4.536-.912 1.056-1.872 1.584-2.88 1.584a3.953 3.953 0 0 1-2.328-.744c-.704-.496-1.264-1.208-1.68-2.136-.4-.928-.6-2.04-.6-3.336 0-1.328.248-2.568.744-3.72a9.386 9.386 0 0 1 2.16-3.072 10.123 10.123 0 0 1 3.264-2.064c1.264-.496 2.648-.744 4.152-.744 1.824 0 3.44.352 4.848 1.056 1.424.688 2.544 1.656 3.36 2.904.816 1.232 1.224 2.672 1.224 4.32 0 2.32-.624 4.256-1.872 5.808-1.232 1.536-3.04 2.608-5.424 3.216Zm-7.824-4.44c.288 0 .616-.24.984-.72.384-.496.768-1.192 1.152-2.088.384-.896.736-1.952 1.056-3.168.32-1.232.56-2.592.72-4.08-1.248.24-2.296.704-3.144 1.392a6.531 6.531 0 0 0-1.92 2.424 7.126 7.126 0 0 0-.672 2.928c0 1.088.168 1.912.504 2.472.352.56.792.84 1.32.84Zm34.488 5.592c-1.312 0-2.344-.144-3.096-.432-.736-.272-1.264-.744-1.584-1.416-.304-.688-.456-1.624-.456-2.808V56.48c0-1.184.152-2.112.456-2.784.32-.688.848-1.168 1.584-1.44.752-.288 1.784-.432 3.096-.432s2.336.144 3.072.432c.752.272 1.28.752 1.584 1.44.32.672.48 1.6.48 2.784v10.944c0 1.184-.16 2.12-.48 2.808-.304.672-.832 1.144-1.584 1.416-.736.288-1.76.432-3.072.432Zm-10.2.888c-.384 0-.712-.128-.984-.384-.256-.24-.384-.568-.384-.984v-7.752a56.286 56.286 0 0 1-1.056 1.752c-.352.544-.68 1.024-.984 1.44-.24.32-.552.52-.936.6a1.287 1.287 0 0 1-1.056-.288 1.267 1.267 0 0 1-.528-.888c-.048-.384.048-.72.288-1.008.32-.4.68-.904 1.08-1.512s.8-1.256 1.2-1.944c.416-.704.8-1.376 1.152-2.016.352-.656.632-1.216.84-1.68v-.12h-2.976c-.384 0-.688-.12-.912-.36a1.252 1.252 0 0 1-.336-.888c0-.336.112-.624.336-.864.224-.256.528-.384.912-.384h2.976V52.16c0-.416.128-.744.384-.984.272-.256.6-.384.984-.384.368 0 .68.128.936.384.272.24.408.568.408.984v3.528h1.824c.368 0 .664.128.888.384.224.24.336.528.336.864 0 .352-.112.648-.336.888-.224.24-.52.36-.888.36h-1.824v1.632l.984 1.104 1.224 1.272c.416.4.736.712.96.936.272.256.416.56.432.912a1.28 1.28 0 0 1-.336.936c-.24.256-.544.384-.912.384-.352 0-.648-.128-.888-.384-.176-.192-.4-.432-.672-.72-.256-.304-.52-.608-.792-.912V71.6c0 .416-.136.744-.408.984a1.274 1.274 0 0 1-.936.384Zm7.824-9.384h4.752v-3.456h-4.752v3.456Zm2.376 5.976c.656 0 1.152-.064 1.488-.192.336-.128.568-.344.696-.648.128-.32.192-.768.192-1.344v-1.344h-4.752v1.344c0 .576.056 1.024.168 1.344.128.304.36.52.696.648.352.128.856.192 1.512.192Zm-2.376-11.88h4.752v-1.152c0-.576-.064-1.016-.192-1.32a1.08 1.08 0 0 0-.696-.648c-.336-.128-.832-.192-1.488-.192s-1.16.064-1.512.192a1.08 1.08 0 0 0-.696.648c-.112.304-.168.744-.168 1.32v1.152Zm21.12 15.216c-.4.16-.784.184-1.152.072-.368-.096-.64-.336-.816-.72a1.224 1.224 0 0 1-.024-1.032c.16-.352.416-.592.768-.72.96-.352 1.752-.744 2.376-1.176a5.153 5.153 0 0 0 1.512-1.608c.368-.624.624-1.384.768-2.28.16-.896.24-1.976.24-3.24 0-.4.128-.712.384-.936a1.33 1.33 0 0 1 .936-.312c.368 0 .68.12.936.36.256.224.376.544.36.96-.032.784-.08 1.512-.144 2.184.368 1.312.968 2.456 1.8 3.432.832.96 1.96 1.752 3.384 2.376.368.16.608.408.72.744.112.352.08.712-.096 1.08a1.383 1.383 0 0 1-.888.72c-.384.112-.76.072-1.128-.12-1.072-.56-2-1.2-2.784-1.92a9.891 9.891 0 0 1-1.92-2.568c-.48 1.12-1.144 2.048-1.992 2.784-.848.72-1.928 1.36-3.24 1.92Zm.672-10.512c-.352.16-.72.2-1.104.12a1.225 1.225 0 0 1-.816-.672c-.16-.336-.184-.664-.072-.984.128-.336.376-.584.744-.744 1.12-.48 1.976-1.064 2.568-1.752.608-.688 1.024-1.544 1.248-2.568.24-1.04.368-2.296.384-3.768 0-.4.136-.712.408-.936a1.33 1.33 0 0 1 .936-.312c.368.016.672.136.912.36.256.224.376.544.36.96-.016.432-.04.848-.072 1.248-.016.384-.048.76-.096 1.128a7.435 7.435 0 0 0 1.8 3.144c.848.88 1.968 1.64 3.36 2.28.32.144.528.384.624.72.096.336.048.672-.144 1.008-.192.352-.472.568-.84.648-.368.08-.736.04-1.104-.12-2.048-1.008-3.584-2.408-4.608-4.2a8.04 8.04 0 0 1-1.752 2.568c-.736.704-1.648 1.328-2.736 1.872Zm-6.312 10.056c-.896 0-1.608-.104-2.136-.312a1.806 1.806 0 0 1-1.08-1.056c-.208-.512-.312-1.24-.312-2.184 0-.976.104-1.72.312-2.232a1.727 1.727 0 0 1 1.08-1.032c.528-.192 1.24-.288 2.136-.288.912 0 1.624.096 2.136.288.512.176.872.52 1.08 1.032.208.512.312 1.256.312 2.232 0 .944-.104 1.672-.312 2.184a1.806 1.806 0 0 1-1.08 1.056c-.512.208-1.224.312-2.136.312Zm-3.48-14.976c-.304 0-.568-.112-.792-.336a1.126 1.126 0 0 1-.312-.792c0-.304.104-.56.312-.768.224-.224.488-.336.792-.336h6.576c.304 0 .56.112.768.336.224.208.336.464.336.768s-.112.568-.336.792a1.007 1.007 0 0 1-.768.336h-6.576Zm1.08-3.36c-.304 0-.568-.112-.792-.336a1.164 1.164 0 0 1-.336-.816c0-.32.112-.592.336-.816.224-.224.488-.336.792-.336h4.632c.32 0 .584.112.792.336.224.224.336.496.336.816 0 .304-.112.576-.336.816a1.034 1.034 0 0 1-.792.336h-4.632Zm-.024 10.128c-.304 0-.568-.112-.792-.336a1.083 1.083 0 0 1-.336-.792c0-.32.112-.584.336-.792.224-.224.488-.336.792-.336h4.68c.32 0 .584.112.792.336.208.208.312.472.312.792 0 .304-.104.568-.312.792a1.034 1.034 0 0 1-.792.336h-4.68Zm0-3.384c-.304 0-.568-.112-.792-.336a1.083 1.083 0 0 1-.336-.792c0-.32.112-.584.336-.792.224-.224.488-.336.792-.336h4.68c.32 0 .584.112.792.336.208.208.312.472.312.792 0 .304-.104.568-.312.792a1.034 1.034 0 0 1-.792.336h-4.68Zm7.992 7.104c-.352-.096-.6-.288-.744-.576a1.19 1.19 0 0 1-.048-.936c.08-.24.168-.528.264-.864.096-.352.192-.696.288-1.032.112-.352.192-.632.24-.84.08-.368.264-.632.552-.792.288-.16.6-.2.936-.12.336.064.592.232.768.504.192.272.248.592.168.96a21.265 21.265 0 0 1-.528 1.992c-.096.352-.184.64-.264.864a1.243 1.243 0 0 1-.648.768c-.304.16-.632.184-.984.072Zm.12-10.536c-.352-.08-.6-.264-.744-.552a1.266 1.266 0 0 1-.072-.936c.08-.24.168-.528.264-.864.096-.352.184-.704.264-1.056.096-.352.16-.632.192-.84.08-.368.256-.632.528-.792.288-.16.608-.208.96-.144.336.064.6.224.792.48.192.256.248.568.168.936-.048.256-.12.568-.216.936-.08.368-.168.728-.264 1.08-.08.352-.16.648-.24.888-.112.352-.32.608-.624.768-.304.16-.64.192-1.008.096Zm8.04-.576a1.166 1.166 0 0 1-.6-.696c-.08-.32-.04-.632.12-.936.144-.288.328-.672.552-1.152.24-.48.432-.872.576-1.176.144-.32.368-.536.672-.648.32-.112.648-.096.984.048.32.128.536.344.648.648.128.288.12.6-.024.936-.08.192-.192.448-.336.768-.144.304-.296.616-.456.936-.144.304-.272.56-.384.768a1.256 1.256 0 0 1-.768.6 1.32 1.32 0 0 1-.984-.096Zm.024 10.464a1.254 1.254 0 0 1-.6-.744c-.08-.32-.04-.632.12-.936.16-.272.344-.632.552-1.08.224-.464.408-.84.552-1.128.144-.336.368-.56.672-.672.32-.128.648-.12.984.024.32.128.544.344.672.648.128.288.12.608-.024.96a24.219 24.219 0 0 1-.792 1.656c-.144.288-.272.536-.384.744-.16.32-.416.528-.768.624a1.32 1.32 0 0 1-.984-.096Zm-13.752 2.904c.432 0 .712-.08.84-.24.128-.16.192-.52.192-1.08s-.064-.92-.192-1.08c-.128-.176-.408-.264-.84-.264-.416 0-.696.088-.84.264-.128.16-.192.52-.192 1.08s.064.92.192 1.08c.144.16.424.24.84.24Zm36.384 1.872c-2.144.304-3.952.416-5.424.336-1.472-.064-2.656-.28-3.552-.648-.88-.368-1.52-.856-1.92-1.464a3.83 3.83 0 0 1-.6-2.112c0-1.2.48-2.32 1.44-3.36.976-1.04 2.384-1.952 4.224-2.736a1.884 1.884 0 0 0-.936-.648c-.8-.24-1.592-.152-2.376.264-.768.416-1.52 1.024-2.256 1.824-.272.288-.632.448-1.08.48-.432.016-.784-.12-1.056-.408a1.493 1.493 0 0 1-.36-1.056c.032-.4.2-.728.504-.984.784-.672 1.472-1.4 2.064-2.184a14.642 14.642 0 0 0 1.536-2.424l-1.944.048a42.27 42.27 0 0 1-1.536-.024c-.4 0-.736-.136-1.008-.408a1.45 1.45 0 0 1-.408-1.032c.016-.4.168-.728.456-.984a1.41 1.41 0 0 1 1.032-.36c.56.016 1.232.024 2.016.024l2.496-.048c.08-.304.152-.6.216-.888.064-.288.12-.576.168-.864.064-.4.24-.72.528-.96.288-.256.632-.36 1.032-.312.4.048.72.224.96.528.24.304.336.656.288 1.056a4.883 4.883 0 0 1-.096.648c-.048.224-.104.448-.168.672.608-.032 1.176-.064 1.704-.096.528-.048 1-.104 1.416-.168.4-.048.752.048 1.056.288.32.224.504.536.552.936.048.4-.056.752-.312 1.056-.24.304-.552.472-.936.504-.592.064-1.272.12-2.04.168-.768.048-1.568.088-2.4.12-.352.784-.736 1.52-1.152 2.208.384-.08.752-.104 1.104-.072a4.15 4.15 0 0 1 1.008.168c.48.128.944.352 1.392.672.464.304.872.736 1.224 1.296a40.599 40.599 0 0 1 2.496-.624c.896-.192 1.84-.36 2.832-.504a1.33 1.33 0 0 1 1.056.264c.32.224.504.536.552.936a1.3 1.3 0 0 1-.264 1.056c-.24.304-.56.488-.96.552a32.16 32.16 0 0 0-2.568.408c-.784.144-1.512.304-2.184.48.08.432.144.904.192 1.416.048.512.072 1.064.072 1.656 0 .4-.144.744-.432 1.032a1.37 1.37 0 0 1-1.008.408c-.4 0-.736-.136-1.008-.408a1.45 1.45 0 0 1-.408-1.032c0-.816-.048-1.544-.144-2.184-1.312.544-2.264 1.128-2.856 1.752-.576.608-.864 1.2-.864 1.776 0 .432.256.784.768 1.056s1.368.424 2.568.456c1.2.032 2.84-.088 4.92-.36a1.41 1.41 0 0 1 1.056.288c.32.224.504.536.552.936.048.384-.048.728-.288 1.032-.24.304-.552.488-.936.552Zm16.776.6a1.81 1.81 0 0 1-1.128-.024 1.305 1.305 0 0 1-.792-.696 1.527 1.527 0 0 1-.048-1.128c.128-.384.376-.648.744-.792 1.216-.464 2.16-.984 2.832-1.56.672-.576 1.144-1.24 1.416-1.992-.544.256-1.08.384-1.608.384-1.264 0-2.296-.32-3.096-.96-.8-.656-1.2-1.616-1.2-2.88 0-1.264.416-2.256 1.248-2.976.832-.72 1.88-1.08 3.144-1.08a1.9 1.9 0 0 1 .312.024c.096 0 .2.008.312.024a13.26 13.26 0 0 1-.12-.84l-.048-.912c-1.6.064-3.176.16-4.728.288a185.73 185.73 0 0 0-4.296.36 1.478 1.478 0 0 1-1.032-.288 1.366 1.366 0 0 1-.528-.936c-.032-.4.072-.752.312-1.056.24-.304.552-.464.936-.48 1.36-.112 2.84-.208 4.44-.288 1.6-.096 3.224-.176 4.872-.24v-2.064c0-.4.136-.736.408-1.008a1.37 1.37 0 0 1 1.008-.408c.416 0 .76.136 1.032.408.272.272.408.608.408 1.008v1.968c1.328-.032 2.6-.056 3.816-.072 1.216-.032 2.336-.056 3.36-.072.4 0 .728.144.984.432.272.288.4.624.384 1.008-.016.4-.168.728-.456.984-.272.256-.608.376-1.008.36-2.048-.08-4.408-.08-7.08 0 .016.56.04 1.12.072 1.68.048.56.088 1.096.12 1.608.768.912 1.152 2.152 1.152 3.72 0 2-.528 3.752-1.584 5.256-1.04 1.504-2.56 2.584-4.56 3.24Zm1.416-8.28c.464-.016.824-.136 1.08-.36.272-.24.408-.584.408-1.032 0-.128-.016-.272-.048-.432-.016-.16-.04-.32-.072-.48-.336-.4-.776-.6-1.32-.6a1.72 1.72 0 0 0-1.152.408c-.304.256-.456.616-.456 1.08 0 .464.144.824.432 1.08.304.24.68.352 1.128.336Zm25.416 7.632c-1.456-.032-2.608-.384-3.456-1.056-.832-.672-1.232-1.592-1.2-2.76.032-.688.224-1.288.576-1.8a3.353 3.353 0 0 1 1.488-1.152c.624-.272 1.336-.368 2.136-.288 1.28.112 2.176.552 2.688 1.32.512.752.664 1.616.456 2.592a3.475 3.475 0 0 0 1.368-1.176c.368-.528.552-1.208.552-2.04 0-.624-.184-1.184-.552-1.68-.352-.512-.856-.904-1.512-1.176-.64-.288-1.384-.408-2.232-.36-.848.048-1.76.304-2.736.768-.976.448-1.976 1.168-3 2.16-.288.272-.648.408-1.08.408a1.394 1.394 0 0 1-1.056-.504 1.46 1.46 0 0 1-.36-1.032c.032-.4.2-.712.504-.936a77.325 77.325 0 0 0 2.976-2.376c.992-.848 1.936-1.68 2.832-2.496a75.757 75.757 0 0 0 2.4-2.232c.432-.416.576-.76.432-1.032-.128-.272-.472-.368-1.032-.288-.544.064-1.168.144-1.872.24-.688.096-1.336.184-1.944.264a1.33 1.33 0 0 1-1.056-.264c-.32-.24-.504-.56-.552-.96a1.262 1.262 0 0 1 .264-1.032c.24-.32.56-.512.96-.576.352-.048.792-.096 1.32-.144a664.45 664.45 0 0 1 1.656-.144l1.464-.12c1.04-.08 1.888.056 2.544.408.656.352 1.104.832 1.344 1.44.24.592.248 1.24.024 1.944-.208.704-.664 1.368-1.368 1.992-.32.272-.728.624-1.224 1.056-.48.432-.976.872-1.488 1.32a7.112 7.112 0 0 1 2.664-.024 5.626 5.626 0 0 1 2.304.912 4.935 4.935 0 0 1 1.632 1.848c.4.752.6 1.64.6 2.664 0 1.456-.32 2.664-.96 3.624-.64.944-1.52 1.632-2.64 2.064-1.12.448-2.408.656-3.864.624Zm-.432-2.664h.144c.048 0 .104.008.168.024.08 0 .168-.008.264-.024.224-.528.264-.968.12-1.32-.144-.352-.432-.56-.864-.624-.384-.048-.704.008-.96.168-.24.144-.376.384-.408.72-.016.64.496.992 1.536 1.056Z"/><path fill="#135097" stroke="#135097" d="m349.286 58.676-5.371-5.035a.906.906 0 1 1 1.263-1.3l7.064 7.101c.583.585.583 1.53 0 2.116l-7.064 7.102a.907.907 0 1 1-1.263-1.301l5.371-5.035a2.5 2.5 0 0 0 0-3.648Z"/><path fill="#2A84BF" d="M8 .5h304a7.5 7.5 0 0 1 7.5 7.5v23a7.5 7.5 0 0 1-7.5 7.5H.5V8A7.5 7.5 0 0 1 8 .5Z"/><path stroke="#fff" d="M8 .5h304a7.5 7.5 0 0 1 7.5 7.5v23a7.5 7.5 0 0 1-7.5 7.5H.5V8A7.5 7.5 0 0 1 8 .5Z"/><path fill="#fff" d="M18.97 14.472c.63.072 1.476.108 2.07.108h8.964c.468 0 1.098-.018 1.44-.036-.018.414-.054 1.044-.054 1.512v9.306c0 .648.054 1.512.072 1.908H29.41c.018-.378.036-1.044.036-1.692v-9.18h-8.388c-.702 0-1.638.036-2.088.072v-1.998Zm-.234 9.864c.54.054 1.332.108 2.106.108h9.684v1.854h-9.63c-.72 0-1.62.036-2.16.09v-2.052Zm19.458-10.728c1.26.846 3.582 2.718 4.608 3.762l-1.44 1.458c-.918-.972-3.168-2.916-4.5-3.816l1.332-1.404ZM36.34 25.632a18.73 18.73 0 0 0 7.056-2.502c2.916-1.782 5.166-4.482 6.246-6.804l1.098 1.98c-1.278 2.322-3.51 4.788-6.3 6.516-1.818 1.116-4.104 2.178-6.912 2.682l-1.188-1.872Zm28.836-6.75c0 4.644-1.062 7.218-5.274 9.09l-1.512-1.44c3.366-1.224 4.95-2.772 4.95-7.56v-4.554c0-.702-.054-1.296-.108-1.548h2.052c-.036.252-.108.846-.108 1.548v4.464Zm-6.498-5.886c-.036.252-.09.792-.09 1.44v6.534c0 .72.054 1.494.072 1.746h-1.998c.036-.252.09-1.008.09-1.746v-6.534c0-.432-.036-.972-.09-1.44h2.016Zm-5.544 3.384c.216.036 1.044.144 1.854.144h11.88c.864 0 1.44-.054 1.8-.108v1.89a28.902 28.902 0 0 0-1.8-.054h-11.88c-.828 0-1.566.054-1.854.072V16.38Zm26.118 10.242a5.29 5.29 0 0 0 .144-1.152V14.814c0-.738-.108-1.332-.126-1.422h2.106c-.018.09-.108.702-.108 1.44v9.954c1.584-.702 3.6-2.25 4.914-4.158l1.08 1.566c-1.53 2.034-4.068 3.924-6.12 4.95-.342.18-.54.342-.684.468l-1.206-.99Zm-8.28-.162c1.548-1.098 2.574-2.718 3.096-4.374.522-1.602.54-5.112.54-7.2 0-.612-.054-1.044-.144-1.458h2.088c-.018.162-.108.81-.108 1.44 0 2.052-.054 5.886-.54 7.704a10.265 10.265 0 0 1-3.204 5.022l-1.728-1.134Zm24.606-7.776c2.268 1.314 5.382 3.474 7.11 4.878l-1.35 1.602c-1.62-1.512-4.842-3.852-7.02-5.202l1.26-1.278Zm8.334-3.186a6.16 6.16 0 0 0-.504 1.098c-.54 1.764-1.656 4.104-3.258 6.084-1.656 2.052-3.996 4.014-7.416 5.292l-1.638-1.422c3.528-1.08 5.85-2.988 7.452-4.86 1.314-1.548 2.43-3.744 2.808-5.292h-6.408l.684-1.62h5.454c.522 0 1.008-.072 1.35-.18l1.476.9ZM97.9 12.816c-.378.54-.756 1.242-.954 1.602-1.134 2.07-3.276 4.806-6.03 6.696l-1.512-1.17c3.114-1.944 4.878-4.536 5.742-6.156.234-.36.558-1.08.684-1.62l2.07.648Zm12.294.792c1.26.846 3.582 2.718 4.608 3.762l-1.44 1.458c-.918-.972-3.168-2.916-4.5-3.816l1.332-1.404Zm-1.854 12.024a18.73 18.73 0 0 0 7.056-2.502c2.916-1.782 5.166-4.482 6.246-6.804l1.098 1.98c-1.278 2.322-3.51 4.788-6.3 6.516-1.818 1.116-4.104 2.178-6.912 2.682l-1.188-1.872Zm21.528-.27V14.94c0-.558-.036-1.404-.144-1.998h2.214a17.99 17.99 0 0 0-.144 1.998c0 2.448.018 9.36.018 10.422 0 .54.054 1.638.126 2.304h-2.214c.108-.648.144-1.62.144-2.304Zm1.512-7.722c2.394.684 6.138 2.07 8.028 3.006l-.792 1.944c-2.052-1.08-5.274-2.304-7.236-2.934V17.64Zm19.098-4.95c-.144.684-.36 1.692-.846 2.952-.414.99-1.026 2.124-1.638 2.97.594-.324 1.602-.522 2.304-.522 1.44 0 2.538.846 2.538 2.412 0 .936.054 2.97.072 4.086h-1.728c.072-.9.09-2.628.072-3.564 0-1.098-.72-1.53-1.584-1.53-1.08 0-2.214.576-2.97 1.278-.54.522-1.044 1.17-1.656 1.926l-1.53-1.134c2.484-2.34 3.762-4.356 4.428-6.084.378-.99.612-2.07.666-2.952l1.872.162Zm-6.426 1.818c.936.126 2.232.198 3.096.198 2.394 0 5.58-.144 8.154-.594l-.018 1.656c-2.52.378-5.994.522-8.244.522-.756 0-1.998-.036-2.988-.108v-1.674Zm13.968 4.68c-.504.144-1.296.45-1.836.648-1.224.486-2.898 1.152-4.626 2.034-1.71.9-2.808 1.782-2.808 2.916 0 1.224 1.152 1.458 2.97 1.458 1.458 0 3.42-.18 5.004-.468l-.054 1.836a46.098 46.098 0 0 1-5.004.306c-2.682 0-4.752-.612-4.752-2.862 0-2.322 2.376-3.726 4.536-4.824 1.674-.882 2.988-1.386 4.14-1.908.612-.27 1.134-.504 1.71-.81l.72 1.674Zm9.558-6.66a13.61 13.61 0 0 0-.126 1.386 110.692 110.692 0 0 0-.144 5.4c0 1.908.09 4.86.09 5.94 0 1.908-.684 2.466-1.764 2.466-1.548 0-3.942-1.422-3.942-3.168 0-1.656 2.178-3.384 4.536-4.248 1.602-.612 3.402-.918 4.806-.918 2.7 0 4.716 1.422 4.716 3.726 0 2.16-1.26 3.636-3.906 4.284-.81.18-1.602.216-2.286.252l-.648-1.818c.738 0 1.512 0 2.16-.126 1.53-.288 2.844-1.08 2.844-2.592 0-1.404-1.26-2.178-2.898-2.178-1.566 0-3.096.342-4.572.936-1.692.648-2.988 1.746-2.988 2.61 0 .702 1.08 1.314 1.674 1.314.378 0 .63-.216.63-.828 0-.99-.108-3.492-.108-5.58 0-2.052.054-4.68.054-5.454 0-.36-.054-1.098-.108-1.404h1.98Zm5.4 1.98c1.314.666 3.33 1.872 4.248 2.574l-.882 1.458c-.882-.792-3.042-2.088-4.176-2.664l.81-1.368Zm-10.908 1.116c1.026.126 1.728.144 2.376.144 1.818 0 4.644-.36 6.462-.9l.054 1.764c-1.944.45-4.86.81-6.462.81-1.098 0-1.782-.018-2.394-.09l-.036-1.728Zm22.356 5.508h10.692v1.53h-10.692v-1.53Zm5.922-6.444h1.53v2.952c0 .396.072.45.468.45h1.206c.36 0 .432-.18.468-1.494.306.252.936.468 1.368.576-.162 1.818-.576 2.286-1.656 2.286h-1.62c-1.458 0-1.764-.432-1.764-1.818v-2.952Zm-5.688-1.962h10.368v3.366h-1.53v-1.89h-7.362v1.962h-1.476v-3.438Zm4.212 6.516h1.674v9.27h-1.674v-9.27Zm-1.404-4.518h1.548c-.162 2.772-.81 4.32-3.906 5.148-.144-.36-.54-.936-.846-1.206 2.628-.63 3.078-1.746 3.204-3.942Zm3.6 7.128c.936 1.818 2.772 3.636 4.572 4.554-.36.306-.882.9-1.152 1.332-1.872-1.134-3.69-3.24-4.734-5.4l1.314-.486Zm-2.646-.144 1.332.45c-1.098 2.43-3.06 4.572-5.274 5.688-.252-.396-.738-.99-1.098-1.296 2.106-.918 4.068-2.808 5.04-4.842Zm-9.99-.684c1.422-.36 3.546-.99 5.58-1.602l.234 1.548a262.758 262.758 0 0 1-5.4 1.692l-.414-1.638Zm.27-5.67h5.49v1.566h-5.49v-1.566Zm2.106-3.528h1.566V26.64c0 .864-.162 1.314-.666 1.566-.468.27-1.206.324-2.358.324a6.506 6.506 0 0 0-.468-1.584c.738.036 1.404.036 1.62.018.216 0 .306-.072.306-.324V11.826Zm21.546 1.044c-.09.666-.162 1.422-.198 2.07-.072 1.998-.216 6.156-.216 8.64 0 1.908 1.17 2.556 2.754 2.556 3.15 0 5.022-1.782 6.318-3.69l1.296 1.548c-1.206 1.728-3.636 4.05-7.65 4.05-2.754 0-4.59-1.17-4.59-4.176 0-2.556.18-7.182.18-8.928 0-.738-.054-1.476-.18-2.088l2.286.018Zm21.996 1.836c-.234 1.854-.594 3.96-1.188 5.958-1.098 3.672-2.574 5.724-4.374 5.724-1.782 0-3.402-1.998-3.402-5.004 0-4.014 3.528-7.488 8.046-7.488 4.32 0 7.056 3.024 7.056 6.804 0 3.78-2.412 6.372-6.804 6.984l-1.062-1.674c.63-.072 1.152-.162 1.602-.252 2.304-.54 4.374-2.232 4.374-5.13 0-2.862-1.89-5.076-5.202-5.076-3.906 0-6.21 3.186-6.21 5.67 0 2.07.9 3.024 1.656 3.024.81 0 1.656-1.188 2.502-3.96.522-1.71.918-3.762 1.098-5.634l1.908.054Zm16.56-1.26c-1.458 2.268-4.32 4.95-7.362 6.714-.216-.396-.702-1.008-1.08-1.368 3.132-1.692 6.102-4.626 7.488-7.038h1.746c1.908 2.844 4.986 5.472 7.866 6.822-.414.432-.828 1.008-1.152 1.512-2.808-1.602-5.904-4.302-7.506-6.642Zm.126 7.38h5.994v1.53h-5.994v-1.53Zm-7.704 5.652h15.372v1.548h-15.372v-1.548Zm6.858-9.72h1.8v10.53h-1.8v-10.53Zm-4.716 3.204h1.674v7.29h-1.674v-7.29Zm15.606 2.916h15.894V24.3H251.08v-1.422Zm.054-7.974h15.768v1.422h-15.768v-1.422Zm.738 3.15h14.364v1.368h-14.364v-1.368Zm.9 2.448h12.6v1.278h-12.6v-1.278Zm5.346-1.782h1.692v9.81h-1.692v-9.81Zm-1.62-6.93h1.602v3.798h-1.602V11.79Zm3.384 0h1.62v3.708h-1.62V11.79Zm-2.178 11.7 1.35.612c-1.692 1.872-4.662 3.42-7.38 4.158-.234-.414-.738-1.08-1.098-1.422 2.682-.576 5.616-1.872 7.128-3.348Zm2.538-.054c1.494 1.53 4.428 2.808 7.2 3.33-.396.36-.9 1.062-1.152 1.53-2.79-.738-5.688-2.34-7.38-4.302l1.332-.558Zm3.798-11.448 1.764.45c-.54.99-1.17 1.998-1.656 2.7l-1.386-.45c.45-.738 1.008-1.89 1.278-2.7Zm-2.394 3.834 1.782.432c-.468.828-.936 1.638-1.314 2.214l-1.44-.414c.342-.648.774-1.584.972-2.232Zm-9.126-3.366 1.458-.504c.576.792 1.206 1.89 1.458 2.61l-1.53.576c-.234-.72-.846-1.854-1.386-2.682Zm2.322 3.96 1.638-.288c.36.558.738 1.314.9 1.836l-1.71.324a8.781 8.781 0 0 0-.828-1.872Zm20.286-2.448h9.846v1.368h-9.846v-1.368Zm.504 2.394h8.946v1.314h-8.946v-1.314Zm-.864 2.43h10.494v1.422h-10.494v-1.422Zm7.452-7.002 1.692.432c-.468.81-.954 1.638-1.332 2.178l-1.332-.396c.342-.63.774-1.584.972-2.214Zm-5.832.522 1.35-.45c.432.63.882 1.494 1.062 2.052l-1.422.522c-.162-.558-.576-1.458-.99-2.124Zm7.416 8.406 1.296.918a25.264 25.264 0 0 1-2.466 2.394l-1.098-.846c.702-.63 1.71-1.692 2.268-2.466Zm-8.55.828 1.17-.756c.684.684 1.476 1.638 1.836 2.286l-1.224.864c-.342-.666-1.116-1.656-1.782-2.394Zm-1.188 4.5c1.116-.522 2.772-1.386 4.374-2.25l.45 1.368c-1.368.81-2.862 1.656-4.05 2.322l-.774-1.44Zm5.13-11.142h1.638V26.73c0 .846-.144 1.278-.666 1.53-.522.27-1.368.288-2.484.288-.054-.432-.252-1.116-.468-1.53.72.018 1.458.018 1.692.018.234 0 .288-.09.288-.306V14.904Zm1.548 5.742c.828 2.556 2.502 4.752 4.86 5.706-.36.324-.846.936-1.098 1.368-2.376-1.242-4.014-3.78-4.896-6.804l1.134-.27Zm-11.88-5.004h5.904v1.584h-5.904v-1.584Zm2.394-3.834h1.548v16.704h-1.548V11.808Zm-.036 4.86.99.324c-.54 2.862-1.656 6.372-2.934 8.19-.162-.45-.54-1.098-.792-1.476 1.17-1.602 2.268-4.608 2.736-7.038Zm1.494 1.422c.396.504 1.908 2.79 2.232 3.312l-.918 1.242c-.396-.972-1.584-3.078-2.052-3.852l.738-.702Zm14.13 3.798c.486-.378.9-.756 1.404-1.278.9-.936 2.358-2.898 3.438-4.176 1.152-1.314 2.178-1.476 3.42-.234 1.152 1.134 2.556 2.952 3.672 4.158 1.116 1.224 2.79 2.988 4.446 4.464l-1.458 1.692c-1.332-1.26-2.916-3.06-4.104-4.428-1.152-1.332-2.52-3.06-3.348-3.996-.72-.774-1.062-.666-1.638.054-.792.99-2.178 2.88-3.024 3.96a47.55 47.55 0 0 0-1.098 1.53l-1.71-1.746Z"/></g><defs><clipPath id="aa"><path fill="#fff" d="M0 0h392v92H0z"/></clipPath><filter id="ab" width="480" height="194" x="-44" y="-34" color-interpolation-filters="sRGB" filterUnits="userSpaceOnUse"><feFlood flood-opacity="0" result="BackgroundImageFix"/><feColorMatrix in="SourceAlpha" result="hardAlpha" values="0 0 0 0 0 0 0 0 0 0 0 0 0 0 0 0 0 0 127 0"/><feOffset dy="24"/><feGaussianBlur stdDeviation="22"/><feComposite in2="hardAlpha" operator="out"/><feColorMatrix values="0 0 0 0 0 0 0 0 0 0 0 0 0 0 0 0 0 0 0.05 0"/><feBlend in2="BackgroundImageFix" result="effect1_dropShadow_2082_4404"/><feColorMatrix in="SourceAlpha" result="hardAlpha" values="0 0 0 0 0 0 0 0 0 0 0 0 0 0 0 0 0 0 127 0"/><feOffset/><feGaussianBlur stdDeviation="17"/><feComposite in2="hardAlpha" operator="out"/><feColorMatrix values="0 0 0 0 0 0 0 0 0 0 0 0 0 0 0 0 0 0 0.05 0"/><feBlend in2="effect1_dropShadow_2082_4404" result="effect2_dropShadow_2082_4404"/><feBlend in="SourceGraphic" in2="effect2_dropShadow_2082_4404" result="shape"/></filter></defs></symbol><symbol fill="none" viewBox="0 0 152 51" id="header-btn1" xmlns="http://www.w3.org/2000/svg"><path d="M.5 8A7.5 7.5 0 0 1 8 .5h136a7.5 7.5 0 0 1 7.5 7.5v14.5H.5V8Z" fill="#135097"/><path d="M.5 8A7.5 7.5 0 0 1 8 .5h136a7.5 7.5 0 0 1 7.5 7.5v14.5H.5V8Z" stroke="#fff"/><path d="M5.872 8.48c.456.048 1.068.084 1.488.084h6.048c.348 0 .84-.024 1.044-.036-.012.288-.036.756-.036 1.116v6.216c0 .42.036 1.044.06 1.416h-1.74c.012-.36.024-.792.024-1.236v-5.928h-5.4c-.504 0-1.152.024-1.488.048V8.48Zm-.144 6.516c.408.036.948.072 1.488.072h6.492v1.584H7.264c-.468 0-1.14.024-1.536.072v-1.728ZM18.892 7.88c.828.564 2.388 1.812 3.096 2.544l-1.224 1.248c-.624-.672-2.136-1.98-3.012-2.58l1.14-1.212Zm-1.512 7.992c1.884-.264 3.432-.876 4.596-1.56 2.052-1.224 3.612-3.048 4.38-4.668l.924 1.68c-.9 1.632-2.496 3.288-4.428 4.452-1.224.732-2.772 1.392-4.452 1.68l-1.02-1.584Zm19.596-4.164c0 2.964-.72 4.776-3.624 6.06l-1.284-1.212c2.328-.804 3.336-1.848 3.336-4.8V8.564c0-.48-.024-.876-.072-1.104h1.716c-.024.24-.072.624-.072 1.104v3.144Zm-4.344-4.152c-.024.228-.072.612-.072 1.092v4.284c0 .54.036 1.032.06 1.26h-1.68c.024-.228.06-.72.06-1.26V8.636c0-.336-.024-.708-.072-1.08h1.704Zm-3.948 2.16c.216.036.708.12 1.296.12h7.872c.636 0 .996-.036 1.332-.084v1.596c-.264-.036-.696-.036-1.32-.036H29.98c-.6 0-1.02.024-1.296.036V9.716Zm17.34 7.02c.06-.228.096-.552.096-.876V8.864c0-.54-.084-1.008-.084-1.032h1.776c0 .024-.084.504-.084 1.044v6.264c.984-.42 2.16-1.368 2.976-2.532l.912 1.332c-.996 1.296-2.712 2.592-4.068 3.276-.252.132-.396.264-.516.348l-1.008-.828Zm-5.556-.168c1.068-.744 1.716-1.848 2.04-2.88.348-1.02.36-3.3.36-4.74 0-.492-.048-.804-.12-1.104h1.764c0 .048-.084.588-.084 1.08 0 1.428-.036 3.96-.348 5.172a7.111 7.111 0 0 1-2.148 3.444l-1.464-.972Zm17.364-9.192a12.686 12.686 0 0 1-.588 2.016c-.252.588-.6 1.272-.936 1.752.324-.144.96-.228 1.368-.228.996 0 1.752.588 1.752 1.704 0 .648.036 1.956.048 2.712h-1.44c.048-.564.072-1.584.06-2.232 0-.768-.48-1.02-.984-1.02-.66 0-1.416.396-1.872.828-.36.36-.696.792-1.104 1.32l-1.284-.96c1.536-1.416 2.46-2.712 2.964-4.032.24-.648.396-1.38.432-1.992l1.584.132Zm-4.524 1.116c.612.084 1.5.132 2.112.132 1.584 0 3.756-.084 5.496-.396l-.012 1.392c-1.692.24-4.104.348-5.568.348a25.82 25.82 0 0 1-2.028-.084V8.492Zm9.504 3.408a22.96 22.96 0 0 0-1.428.504c-.78.3-1.86.732-2.988 1.308-1.092.564-1.68 1.08-1.68 1.74 0 .66.576.84 1.74.84 1.02 0 2.364-.132 3.42-.348l-.048 1.548c-.804.108-2.268.216-3.408.216-1.872 0-3.276-.468-3.276-2.016 0-1.668 1.716-2.652 3.156-3.372 1.104-.576 1.86-.864 2.58-1.2.468-.204.888-.396 1.344-.624l.588 1.404Zm6.42-4.644a8.485 8.485 0 0 0-.108 1.044c-.06.948-.096 2.244-.096 3.36 0 1.308.072 3.384.072 4.08 0 1.476-.528 1.884-1.32 1.884-1.164 0-2.82-1.008-2.82-2.28 0-1.164 1.5-2.388 3.168-2.976 1.068-.384 2.28-.576 3.192-.576 1.848 0 3.312.96 3.312 2.616 0 1.428-.744 2.496-2.652 2.964-.552.12-1.092.156-1.584.204l-.54-1.56c.528 0 1.056 0 1.464-.084.972-.168 1.752-.66 1.752-1.524 0-.828-.72-1.296-1.764-1.296-1.02 0-2.076.216-3.012.588-1.08.408-1.848 1.056-1.848 1.572 0 .384.564.708.876.708.216 0 .372-.096.372-.516 0-.624-.06-2.292-.06-3.744 0-1.368.012-2.856.012-3.408 0-.24-.036-.84-.072-1.056h1.656Zm3.42 1.308c.912.444 2.304 1.224 2.952 1.68l-.732 1.224c-.576-.48-2.136-1.38-2.88-1.74l.66-1.164Zm-7.368.66c.708.084 1.224.084 1.656.084 1.248 0 3.12-.228 4.356-.588l.036 1.488c-1.356.312-3.288.528-4.344.528-.792 0-1.26-.012-1.668-.06l-.036-1.452Zm14.988 3.816h7.188v1.284h-7.188V13.04Zm3.852-4.176h1.284v1.74c0 .288.036.324.252.324h.588c.204 0 .252-.12.276-.912.252.192.78.384 1.128.468-.132 1.248-.456 1.584-1.248 1.584h-.96c-1.104 0-1.32-.372-1.32-1.452V8.864Zm-3.744-1.5h7.044v2.4h-1.272V8.588h-4.548v1.236H80.38v-2.46Zm2.736 4.488h1.416v6.216h-1.416v-6.216Zm-.924-2.976H83.5c-.108 1.836-.492 2.904-2.676 3.468a3.28 3.28 0 0 0-.696-1.02c1.764-.396 1.992-1.092 2.064-2.448Zm2.7 4.788c.6 1.116 1.764 2.244 2.916 2.832a6.69 6.69 0 0 0-.972 1.116c-1.2-.756-2.352-2.136-3.036-3.54l1.092-.408Zm-2.088-.12 1.116.372c-.732 1.608-2.004 3.036-3.48 3.792-.204-.324-.612-.828-.912-1.092 1.38-.588 2.652-1.788 3.276-3.072Zm-6.564-.696c.96-.216 2.388-.6 3.744-.984l.192 1.296a159.99 159.99 0 0 1-3.612 1.068l-.324-1.38Zm.192-3.756h3.672v1.32h-3.672v-1.32Zm1.272-2.268h1.32v9.732c0 .672-.12 1.044-.492 1.26-.36.228-.876.276-1.656.276-.036-.36-.204-.948-.372-1.344.432.024.852.024.996.012.144 0 .204-.036.204-.204V6.824Zm14.748.66a19.144 19.144 0 0 0-.156 1.608c-.06 1.296-.144 3.972-.144 5.46 0 1.212.72 1.608 1.656 1.608 1.98 0 3.228-1.14 4.104-2.448l1.092 1.332c-.78 1.152-2.484 2.748-5.22 2.748-1.968 0-3.228-.864-3.228-2.916 0-1.608.108-4.752.108-5.784 0-.576-.048-1.152-.144-1.62l1.932.012Zm14.64 1.296c-.168 1.224-.408 2.628-.828 4.044-.72 2.424-1.752 3.912-3.06 3.912-1.344 0-2.448-1.476-2.448-3.504 0-2.76 2.412-5.136 5.52-5.136 2.964 0 4.848 2.064 4.848 4.692 0 2.52-1.548 4.308-4.572 4.776l-.912-1.416c.468-.06.804-.12 1.128-.192 1.524-.372 2.724-1.464 2.724-3.228 0-1.884-1.176-3.228-3.252-3.228-2.544 0-3.936 2.076-3.936 3.588 0 1.212.48 1.8.936 1.8.516 0 .972-.768 1.476-2.388.348-1.128.612-2.508.732-3.768l1.644.048Zm10.848-.6c-.984 1.464-2.832 3.144-4.824 4.272a5.873 5.873 0 0 0-.924-1.164c2.088-1.08 4.032-2.988 4.932-4.536h1.5c1.296 1.92 3.264 3.552 5.196 4.392-.36.372-.696.852-.972 1.284-1.86-1.032-3.876-2.76-4.908-4.248Zm.072 4.584h4.032v1.284h-4.032v-1.284Zm-5.136 3.696h10.26v1.296h-10.26V16.46Zm4.416-6.276h1.536v6.972h-1.536v-6.972Zm-3.108 2.076h1.416v4.86h-1.416v-4.86Zm10.488 1.896h10.704v1.176h-10.704v-1.176Zm.024-5.388h10.632v1.188h-10.632V8.768Zm.492 2.148h9.684v1.128h-9.684v-1.128Zm.6 1.656h8.52v1.044h-8.52v-1.044Zm3.48-1.08h1.428v6.588h-1.428v-6.588ZM128.224 6.8h1.344v2.532h-1.344V6.8Zm2.22 0h1.368v2.448h-1.368V6.8Zm-1.44 7.884 1.128.504c-1.14 1.248-3.06 2.268-4.908 2.748a6.17 6.17 0 0 0-.924-1.2c1.812-.348 3.72-1.14 4.704-2.052Zm1.98-.036c.972.948 2.844 1.692 4.716 2.004-.324.3-.756.9-.972 1.296-1.896-.48-3.732-1.5-4.86-2.856l1.116-.444Zm2.22-7.752 1.512.36c-.384.66-.792 1.308-1.104 1.752l-1.164-.36c.276-.492.588-1.224.756-1.752Zm-1.584 2.58 1.524.348a27.172 27.172 0 0 1-.888 1.488l-1.224-.348a9.124 9.124 0 0 0 .588-1.488Zm-6.06-2.196 1.236-.42c.348.516.744 1.236.912 1.704l-1.308.468c-.132-.468-.516-1.2-.84-1.752Zm1.524 2.688 1.392-.216c.204.336.432.804.528 1.128l-1.464.252c-.072-.312-.276-.816-.456-1.164Zm13.68-1.824h6.588v1.14h-6.588v-1.14Zm.324 1.608h6.012v1.08h-6.012v-1.08Zm-.552 1.596h7.032v1.176h-7.032v-1.176Zm4.848-4.56 1.428.348c-.324.54-.648 1.068-.888 1.416l-1.128-.324c.216-.42.468-1.02.588-1.44Zm-3.852.42 1.128-.372c.276.408.576.96.684 1.332l-1.2.432c-.096-.372-.36-.96-.612-1.392Zm4.896 5.544 1.08.768a18.465 18.465 0 0 1-1.644 1.524l-.924-.708a10.967 10.967 0 0 0 1.488-1.584Zm-5.664.684.984-.648c.432.444.96 1.056 1.2 1.476l-1.032.72c-.216-.432-.72-1.08-1.152-1.548Zm-.696 2.712c.72-.324 1.776-.864 2.808-1.392l.372 1.164c-.84.492-1.788 1.02-2.556 1.44l-.624-1.212Zm3.3-7.236h1.38v7.74c0 .648-.108.996-.492 1.212-.396.216-.972.24-1.728.24a4.305 4.305 0 0 0-.372-1.272c.408.012.876.012 1.02.012.144 0 .192-.06.192-.192v-7.74Zm1.308 3.84c.528 1.608 1.584 2.988 3.12 3.612a5.515 5.515 0 0 0-.912 1.164c-1.56-.864-2.58-2.544-3.144-4.56l.936-.216Zm-8.148-3.456h3.972v1.332h-3.972V9.296Zm1.464-2.484h1.308V18.08h-1.308V6.812Zm-.024 3.396.804.276c-.348 1.896-1.032 4.212-1.884 5.448-.12-.384-.432-.936-.636-1.272.768-1.044 1.44-2.928 1.716-4.452Zm1.272.876c.264.324 1.248 1.836 1.452 2.172l-.744 1.032c-.264-.696-.984-2.064-1.308-2.628l.6-.576ZM.5 23.5h151V43a7.5 7.5 0 0 1-7.5 7.5H8A7.5 7.5 0 0 1 .5 43V23.5Z" fill="#fff"/><path d="M.5 23.5h151V43a7.5 7.5 0 0 1-7.5 7.5H8A7.5 7.5 0 0 1 .5 43V23.5Z" stroke="#fff"/><path d="M29.552 31.072c-.048.32-.096.72-.112 1.136-.032.816-.048 3.088-.048 4.432 0 1.76.256 4.656.256 5.92 0 1.376-1.04 2.432-3.136 2.432-2.56 0-3.904-.976-3.904-2.672 0-1.616 1.488-2.752 3.936-2.752 3.52 0 6.144 1.728 7.472 2.848l-1.152 1.792c-1.52-1.44-3.84-2.992-6.576-2.992-1.12 0-1.744.432-1.744.992 0 .608.56.976 1.664.976.848 0 1.424-.24 1.424-1.168 0-.96-.176-3.824-.176-5.376 0-1.536.016-3.568.016-4.48 0-.288-.032-.784-.096-1.088h2.176Zm-6.64 1.488c1.136.192 2.976.352 3.952.352 2.176 0 4.272-.112 6.608-.48l-.016 1.824c-1.632.224-4.176.416-6.576.416-1.024 0-2.88-.144-3.936-.272l-.032-1.84Zm-.096 3.456c1.056.192 3.008.304 3.856.304 2.96 0 5.024-.192 6.992-.448l-.016 1.888c-2.208.256-3.952.352-6.992.352-.944 0-2.752-.08-3.808-.208l-.032-1.888Zm23.152-4.672c-.032.256-.096 1.12-.112 1.376-.032 1.04 0 4.304.016 5.6l-1.984-.688c0-.992-.016-4.048-.064-4.912-.064-.64-.112-1.184-.16-1.376h2.304Zm-9.04 1.984c2.4 0 6.608-.128 8.608-.128 1.648 0 4.064-.016 4.96 0l-.032 1.904a107.144 107.144 0 0 0-4.976-.096c-2.912 0-6.096.128-8.496.256l-.064-1.936Zm8.672 4.736c0 2.608-.96 3.904-2.8 3.904-1.248 0-2.768-.976-2.768-2.928 0-1.808 1.456-2.992 3.2-2.992 2.112 0 3.216 1.552 3.216 3.552 0 2.096-1.232 4.736-5.136 5.824l-1.696-1.696c2.72-.576 4.848-1.664 4.848-4.464 0-1.024-.56-1.536-1.28-1.536-.608 0-1.232.432-1.232 1.28 0 .72.608 1.2 1.232 1.2.768 0 1.424-.656.928-2.544l1.488.4Zm2.448-7.2c.384.576.832 1.312 1.12 1.888l-1.36.56c-.32-.64-.672-1.312-1.088-1.904l1.328-.544Zm2.144-.464c.384.592.832 1.296 1.12 1.872l-1.328.576c-.336-.656-.704-1.328-1.136-1.888l1.344-.56Zm8.048 3.776c.928.096 1.84.144 2.816.144 1.952 0 3.952-.16 5.616-.512v1.984c-1.68.256-3.696.384-5.616.4-.944 0-1.856-.032-2.8-.096l-.016-1.92Zm6.096-2.688c-.048.304-.08.688-.096 1.024a54.228 54.228 0 0 0-.064 2.784c0 2.944.256 5.024.256 6.544 0 1.68-.832 2.896-3.136 2.896-2.224 0-3.6-.912-3.6-2.592 0-1.632 1.376-2.752 3.568-2.752 3.008 0 4.944 1.504 6.192 2.656l-1.088 1.68c-1.84-1.712-3.456-2.784-5.264-2.784-.912 0-1.536.368-1.536.976 0 .656.64.944 1.504.944.976 0 1.312-.512 1.312-1.456 0-1.104-.208-3.792-.208-6.096 0-1.216-.016-2.288-.032-2.768a8.62 8.62 0 0 0-.096-1.056h2.288Zm-7.808.16c-.128.32-.32 1.152-.384 1.44-.24 1.072-.768 4.592-.768 6.192 0 .304.016.72.064 1.04.224-.56.496-1.104.72-1.648l.992.784c-.448 1.328-.976 2.944-1.152 3.824-.048.224-.096.576-.08.736 0 .176 0 .448.016.672l-1.808.128c-.32-1.104-.64-2.944-.64-5.104 0-2.416.48-5.44.672-6.672.064-.448.128-1.072.144-1.568l2.224.176Zm15.232-1.232 1.888.544c-.88 1.776-2.304 3.504-3.648 4.56-.352-.352-1.12-.96-1.568-1.248 1.344-.896 2.624-2.368 3.328-3.856Zm-.128 1.68h11.024v1.696H71.168l.464-1.696Zm-2.864 3.728h14.464v1.712H68.768v-1.712Zm.272 3.76h13.968v1.712H69.04v-1.712Zm4.736-6.88h1.616v7.776h-1.616v-7.776Zm-2.832 0h1.696v7.792h-1.696v-7.792Zm5.616 0h1.6v7.792h-1.6v-7.792Zm2.816 0h1.76v7.792h-1.76v-7.792Zm-6.08 9.488 1.776-.208c.208.976.4 2.24.416 3.024l-1.888.272c0-.784-.112-2.096-.304-3.088Zm3.184.032 1.808-.304c.4.944.8 2.208.944 2.992l-1.92.384c-.112-.784-.464-2.08-.832-3.072Zm3.184-.08 1.84-.576c.72.976 1.632 2.336 2.032 3.232l-1.952.656c-.352-.88-1.2-2.288-1.92-3.312Zm-9.248-.512 1.872.448c-.368 1.232-1.056 2.544-1.824 3.376l-1.856-.736c.736-.672 1.44-1.92 1.808-3.088Zm16.608-11.136H88.8v14.912h-1.776V30.496Zm-2.416 5.248h6.56v1.792h-6.56v-1.792Zm2.08.96 1.056.512c-.512 2.144-1.504 4.928-2.56 6.464-.176-.592-.592-1.44-.88-1.984.96-1.184 1.936-3.408 2.384-4.992Zm2.08.928c.464.416 2.016 2.272 2.368 2.72l-1.184 1.504c-.416-.912-1.488-2.688-2.064-3.472l.88-.752Zm-4.192-5.904 1.344-.352c.416 1.168.736 2.688.816 3.696l-1.44.384c-.032-1.008-.336-2.56-.72-3.728Zm5.28-.432 1.616.352c-.416 1.296-.896 2.816-1.296 3.76l-1.2-.336c.32-1.024.704-2.64.88-3.776Zm6.048-.896h1.808v15.024h-1.808V30.4ZM91.12 40.416l8.224-1.472.288 1.776-8.208 1.488-.304-1.792Zm.912-7.824.944-1.312c.896.544 2.032 1.344 2.56 1.936l-1.008 1.456c-.48-.624-1.6-1.504-2.496-2.08Zm-.72 4.032.896-1.376c.928.496 2.128 1.264 2.704 1.856l-.96 1.52c-.544-.592-1.712-1.456-2.64-2Zm17.024-1.552h5.728V36.8h-5.728v-1.728Zm.016 3.776h5.728v1.744h-5.728v-1.744Zm-.016 3.792h5.744v1.728h-5.744V42.64Zm-.912-11.36h7.552v13.936h-1.936V33.088h-3.776v12.224h-1.84V31.28Zm-6.72 2.432h6.16v1.824h-6.16v-1.824Zm2.32-3.296h1.84V45.44h-1.84V30.416Zm-.112 4.528 1.152.4c-.528 2.608-1.584 5.68-2.848 7.344-.176-.544-.624-1.328-.912-1.808 1.152-1.392 2.176-3.888 2.608-5.936Zm1.808 1.408c.464.448 2.032 2.384 2.384 2.816l-1.088 1.552c-.464-.944-1.6-2.688-2.176-3.488l.88-.88Zm21.216-1.456 1.184-1.264c1.376.784 3.36 1.984 4.336 2.8l-1.264 1.44c-.896-.832-2.832-2.112-4.256-2.976Zm1.104 2.304h.96v2.432c0 1.072.688 3.104 3.616 4.192-.352.448-.864 1.184-1.12 1.648-2.016-.768-3.168-2.56-3.472-3.536-.32.976-1.6 2.704-3.808 3.536-.208-.432-.72-1.2-1.056-1.568 3.072-1.088 3.888-3.184 3.888-4.272V37.2h.992Zm-.864-6.784h1.888c-.16 3.824-.672 6.256-4.544 7.584-.176-.464-.656-1.152-1.056-1.52 3.344-1.024 3.6-2.88 3.712-6.064Zm-2.352.944 1.568.32c-.16 1.072-.576 2.256-1.264 2.976l-1.504-.64c.592-.576 1.04-1.648 1.2-2.656Zm-.176 6.96 1.664.336c-.208 1.216-.704 2.512-1.488 3.296l-1.584-.816c.688-.592 1.184-1.728 1.408-2.816Zm5.824-7.056 1.856.576c-.544.944-1.12 1.936-1.568 2.592l-1.424-.528c.416-.72.896-1.84 1.136-2.64Zm.096 6.928 1.888.592c-.56.992-1.184 2.064-1.68 2.752l-1.488-.544c.448-.752.992-1.936 1.28-2.8Zm-12.336-2.864h4.832v1.44h-4.832v-1.44Zm.048-4.416h4.736v1.456h-4.736v-1.456Zm-.048 6.592h4.832v1.456h-4.832v-1.456Zm-.768-4.432h6.128v1.52h-6.128v-1.52Zm1.6 6.656h4.016v4.864h-4.016v-1.52h2.384v-1.824h-2.384v-1.52Zm-.864 0h1.616v5.504H117.2v-5.504Z" fill="#135097"/></symbol><symbol fill="none" viewBox="0 0 144 51" id="header-btn2" xmlns="http://www.w3.org/2000/svg"><path d="M.5 8A7.5 7.5 0 0 1 8 .5h128a7.5 7.5 0 0 1 7.5 7.5v14.5H.5V8Z" fill="#fff"/><path d="M.5 8A7.5 7.5 0 0 1 8 .5h128a7.5 7.5 0 0 1 7.5 7.5v14.5H.5V8Z" stroke="#fff"/><path d="M19.872 8.48c.456.048 1.068.084 1.488.084h6.048c.348 0 .84-.024 1.044-.036-.012.288-.036.756-.036 1.116v6.216c0 .42.036 1.044.06 1.416h-1.74c.012-.36.024-.792.024-1.236v-5.928h-5.4c-.504 0-1.152.024-1.488.048V8.48Zm-.144 6.516c.408.036.948.072 1.488.072h6.492v1.584h-6.444c-.468 0-1.14.024-1.536.072v-1.728ZM32.892 7.88c.828.564 2.388 1.812 3.096 2.544l-1.224 1.248c-.624-.672-2.136-1.98-3.012-2.58l1.14-1.212Zm-1.512 7.992c1.884-.264 3.432-.876 4.596-1.56 2.052-1.224 3.612-3.048 4.38-4.668l.924 1.68c-.9 1.632-2.496 3.288-4.428 4.452-1.224.732-2.772 1.392-4.452 1.68l-1.02-1.584Zm19.596-4.164c0 2.964-.72 4.776-3.624 6.06l-1.284-1.212c2.328-.804 3.336-1.848 3.336-4.8V8.564c0-.48-.024-.876-.072-1.104h1.716c-.024.24-.072.624-.072 1.104v3.144Zm-4.344-4.152c-.024.228-.072.612-.072 1.092v4.284c0 .54.036 1.032.06 1.26h-1.68c.024-.228.06-.72.06-1.26V8.636c0-.336-.024-.708-.072-1.08h1.704Zm-3.948 2.16c.216.036.708.12 1.296.12h7.872c.636 0 .996-.036 1.332-.084v1.596c-.264-.036-.696-.036-1.32-.036H43.98c-.6 0-1.02.024-1.296.036V9.716Zm17.34 7.02c.06-.228.096-.552.096-.876V8.864c0-.54-.084-1.008-.084-1.032h1.776c0 .024-.084.504-.084 1.044v6.264c.984-.42 2.16-1.368 2.976-2.532l.912 1.332c-.996 1.296-2.712 2.592-4.068 3.276-.252.132-.396.264-.516.348l-1.008-.828Zm-5.556-.168c1.068-.744 1.716-1.848 2.04-2.88.348-1.02.36-3.3.36-4.74 0-.492-.048-.804-.12-1.104h1.764c0 .048-.084.588-.084 1.08 0 1.428-.036 3.96-.348 5.172a7.111 7.111 0 0 1-2.148 3.444l-1.464-.972Zm16.668-5.184c1.476.852 3.696 2.388 4.812 3.276l-1.152 1.368c-1.044-.984-3.324-2.664-4.728-3.552l1.068-1.092Zm5.652-2.04c-.144.228-.3.564-.408.864a13.072 13.072 0 0 1-2.172 3.972c-1.128 1.404-2.664 2.748-4.956 3.612l-1.392-1.2c2.508-.78 3.936-2.04 4.968-3.24.804-.948 1.548-2.328 1.776-3.264h-4.056l.552-1.356h3.42c.372 0 .768-.06 1.044-.144l1.224.756Zm-3.972-1.848c-.288.42-.6.972-.744 1.224-.804 1.452-2.34 3.288-4.068 4.476L66.72 12.2c2.1-1.296 3.204-2.94 3.816-3.984.18-.288.432-.84.54-1.26l1.74.54Zm8.076.384c.828.564 2.388 1.812 3.096 2.544l-1.224 1.248c-.624-.672-2.136-1.98-3.012-2.58l1.14-1.212Zm-1.512 7.992c1.884-.264 3.432-.876 4.596-1.56 2.052-1.224 3.612-3.048 4.38-4.668l.924 1.68c-.9 1.632-2.496 3.288-4.428 4.452-1.224.732-2.772 1.392-4.452 1.68l-1.02-1.584Zm14.376-.012v-6.9c0-.432-.036-1.02-.12-1.452h1.872c-.048.432-.108.948-.108 1.452 0 1.32.012 6.012.012 6.9 0 .336.048 1.176.108 1.668h-1.884c.084-.468.12-1.2.12-1.668Zm1.296-5.244c1.596.444 4.188 1.392 5.364 1.968l-.672 1.668c-1.368-.708-3.384-1.476-4.692-1.908v-1.728Zm14.04-1.836c-.168 1.224-.408 2.628-.828 4.044-.72 2.424-1.752 3.912-3.06 3.912-1.344 0-2.448-1.476-2.448-3.504 0-2.76 2.412-5.136 5.52-5.136 2.964 0 4.848 2.064 4.848 4.692 0 2.52-1.548 4.308-4.572 4.776l-.912-1.416c.468-.06.804-.12 1.128-.192 1.524-.372 2.724-1.464 2.724-3.228 0-1.884-1.176-3.228-3.252-3.228-2.544 0-3.936 2.076-3.936 3.588 0 1.212.48 1.8.936 1.8.516 0 .972-.768 1.476-2.388.348-1.128.612-2.508.732-3.768l1.644.048Zm5.46-.048h10.884v1.38h-10.884v-1.38Zm4.008 2.94h4.596v1.368h-4.596v-1.368Zm4.068 0h1.488s-.012.432-.048.624c-.216 3.288-.468 4.644-.948 5.172-.36.384-.744.504-1.296.564-.456.036-1.26.024-2.064 0-.024-.42-.24-1.02-.516-1.416.828.072 1.68.072 2.028.072.264 0 .432-.012.588-.144.36-.312.588-1.68.756-4.644l.012-.228Zm-4.608-2.124h1.62c-.18 3.216-.504 6.72-4.272 8.616-.216-.384-.648-.912-1.032-1.212 3.492-1.62 3.564-4.668 3.684-7.404Zm1.164-2.796h1.488v2.52h-1.488v-2.52ZM.5 23.5h143V43a7.5 7.5 0 0 1-7.5 7.5H8A7.5 7.5 0 0 1 .5 43V23.5Z" fill="#135097"/><path d="M.5 23.5h143V43a7.5 7.5 0 0 1-7.5 7.5H8A7.5 7.5 0 0 1 .5 43V23.5Z" stroke="#fff"/><path d="M23.024 30.432h1.92v2.128h-1.92v-2.128Zm-.048 8.72h1.936v6.272h-1.936v-6.272Zm-5.84-7.664h13.76v2.464H29.04v-.88H18.912v.88h-1.776v-2.464Zm-.112 2.768h13.984v1.504H17.024v-1.504Zm-.304 6h14.576v1.584H16.72v-1.584Zm5.536-7.28 1.792.528a81.463 81.463 0 0 1-3.296 4.24l-1.824-.496c1.008-1.12 2.368-2.896 3.328-4.272Zm-2.032 4.352 1.056-1.136c2.816.496 6.848 1.536 9.04 2.384l-1.136 1.344c-2-.848-6-1.984-8.96-2.592Zm2.272 3.84 1.424.624c-1.472 1.616-3.952 2.896-6.4 3.488-.256-.448-.8-1.184-1.184-1.552 2.384-.416 4.896-1.376 6.16-2.56Zm2.88-.048c1.344 1.168 3.92 2.128 6.352 2.528-.416.4-.96 1.136-1.216 1.616-2.448-.592-4.992-1.888-6.512-3.536l1.376-.608Zm1.04-5.968h2.016c-1.024 2.896-3.216 4.224-10.384 4.72-.064-.448-.368-1.104-.624-1.488 6.64-.336 8.208-1.296 8.992-3.232Zm14.976-4.528h1.936v14.8h-1.936v-14.8Zm-2.72.672 1.84.384c-.448 2.16-1.216 4.4-2.064 5.808-.384-.288-1.216-.72-1.68-.928.864-1.264 1.536-3.296 1.904-5.264Zm.608 2.224h7.408v1.872h-7.872l.464-1.872Zm-2.224 4.64h10.4v1.888h-10.4V38.16Zm-1.184-7.68 1.808.56c-1.024 2.72-2.656 5.6-4.368 7.44-.176-.464-.704-1.52-1.024-1.984 1.424-1.456 2.784-3.728 3.584-6.016Zm-1.584 4.416 1.824-1.824v12.352h-1.824V34.896Zm23.168-1.856c-.224 1.632-.544 3.504-1.104 5.392-.96 3.232-2.336 5.216-4.08 5.216-1.792 0-3.264-1.968-3.264-4.672 0-3.68 3.216-6.848 7.36-6.848 3.952 0 6.464 2.752 6.464 6.256 0 3.36-2.064 5.744-6.096 6.368l-1.216-1.888a16.04 16.04 0 0 0 1.504-.256c2.032-.496 3.632-1.952 3.632-4.304 0-2.512-1.568-4.304-4.336-4.304-3.392 0-5.248 2.768-5.248 4.784 0 1.616.64 2.4 1.248 2.4.688 0 1.296-1.024 1.968-3.184.464-1.504.816-3.344.976-5.024l2.192.064Zm14.912 10h5.52v1.696h-5.52V43.04Zm-.896-4.416h7.344v6.736H76.96v-5.04h-3.728v5.104h-1.76v-6.8Zm-.56-7.456h7.328v1.76h-7.328v-1.76Zm6.432 0h1.792s-.016.464-.032.688c-.08 3.344-.192 4.736-.592 5.248-.336.416-.688.544-1.2.608-.432.064-1.168.064-1.952.064-.048-.56-.256-1.296-.56-1.776.672.064 1.328.064 1.632.064.224 0 .384-.032.512-.176.24-.272.336-1.424.4-4.448v-.272Zm-4.144.72h1.888c-.24 2.704-.864 4.96-3.696 6.304-.224-.448-.736-1.12-1.136-1.44 2.4-1.04 2.768-2.8 2.944-4.864Zm-6.32-1.456 1.664.624c-.656 1.216-1.392 2.64-2.016 3.536l-1.28-.56c.576-.944 1.264-2.48 1.632-3.6Zm1.84 1.888 1.552.704c-1.152 1.84-2.72 4.064-3.936 5.456l-1.104-.624c1.184-1.456 2.656-3.808 3.488-5.536Zm-4.304 1.904.912-1.312c.848.736 1.84 1.744 2.256 2.48l-.992 1.488c-.384-.768-1.36-1.888-2.176-2.656Zm3.824 1.92 1.264-.528c.624 1.072 1.232 2.48 1.424 3.408l-1.36.608c-.176-.928-.72-2.384-1.328-3.488Zm-3.84 1.328c1.472-.048 3.632-.128 5.744-.224l-.016 1.52c-1.968.144-4.016.272-5.568.384l-.16-1.68Zm4.192 2.656 1.344-.432c.4.912.816 2.112.992 2.912l-1.408.496c-.16-.8-.576-2.032-.928-2.976Zm-3.504-.304 1.584.272c-.16 1.536-.512 3.136-.976 4.16-.336-.208-1.056-.544-1.456-.704.464-.944.72-2.368.848-3.728Zm1.792-1.504h1.68v7.136h-1.68V38.32Zm21.056-5.984c-1.248 2.048-3.696 4.256-6.384 5.68-.24-.48-.784-1.2-1.2-1.6 2.848-1.36 5.344-3.92 6.448-6.048h2.08c1.648 2.704 4.192 4.816 6.816 5.824-.496.512-.928 1.168-1.28 1.76-2.56-1.296-5.184-3.536-6.48-5.616Zm1.776 3.936h2v9.168h-2v-9.168Zm-5.52.08h1.968v1.984c0 2.272-.32 5.136-3.472 7.104-.336-.416-1.088-1.056-1.6-1.36 2.816-1.68 3.104-3.936 3.104-5.792v-1.936Zm16.864-1.664h5.92v1.6h-5.92v-1.6Zm-3.936 8.864h13.824v1.568H97.12v-1.568Zm.928-12.544h4.48v1.552h-4.48v-1.552Zm3.872 0h.32l.336-.08 1.248.624c-1.184 3.136-3.712 5.424-6.4 6.72-.256-.4-.768-1.056-1.152-1.392 2.384-1.008 4.768-3.184 5.648-5.552v-.32Zm3.648-.544c1.104 2.608 3.344 4.928 6.128 5.984-.448.384-1.008 1.104-1.296 1.6-2.944-1.344-5.136-3.904-6.464-7.072l1.632-.512Zm-8.288 3.424 1.024-1.056c.72.4 1.6 1.024 2.016 1.504l-1.072 1.168c-.416-.48-1.28-1.168-1.968-1.616Zm10.752-3.328 1.44 1.024c-.88.752-1.92 1.536-2.72 2.048l-1.152-.896c.768-.544 1.824-1.472 2.432-2.176Zm1.808 1.872 1.408.992c-.912.8-2.016 1.632-2.864 2.16l-1.152-.896c.832-.576 1.952-1.52 2.608-2.256Zm-8.64 6.304v1.408h5.472v-1.408H101.2ZM99.328 37.2h9.328v4.464h-9.328V37.2Zm.928 4.672 1.76-.448c.416.576.768 1.392.912 1.936l-1.84.528c-.112-.544-.464-1.392-.832-2.016Zm5.712-.464 1.856.4c-.4.784-.768 1.504-1.088 2.016l-1.68-.384c.32-.56.72-1.424.912-2.032Zm20.048-3.792 1.504.912c-.672.736-1.376 1.504-1.952 2.016l-1.2-.8c.528-.56 1.248-1.472 1.648-2.128Zm-7.12 1.04 1.248-.816c.656.592 1.36 1.424 1.664 2.032l-1.344.896c-.256-.608-.944-1.488-1.568-2.112Zm.688-7.696h6.608v5.616h-1.776v-4.048h-4.832V30.96Zm.352 2.416h5.488v1.472h-5.488v-1.472Zm-1.12 2.288h8.576v1.632h-8.576v-1.632Zm3.296.832h1.776v7.136c0 .784-.096 1.248-.608 1.52-.48.272-1.12.288-2 .288-.048-.48-.256-1.168-.464-1.648.448.016.928.016 1.088.016.16 0 .208-.048.208-.224v-7.088Zm-3.76 6.32c.816-.464 2.016-1.216 3.2-1.984l.576 1.44a58.605 58.605 0 0 1-2.896 2.08l-.88-1.536Zm5.488-5.184c.512 1.904 1.728 4.288 3.92 5.408-.384.336-.96 1.088-1.232 1.568-2.096-1.344-3.248-4.096-3.744-5.952l1.056-1.024ZM113.6 34.4h4.736V36H113.6v-1.6Zm-.768 2.768h5.84V38.8h-5.84v-1.632Zm.16 2.528 1.216-.304c.272.896.496 2.016.576 2.784l-1.296.336c-.032-.768-.256-1.92-.496-2.816Zm-.336 3.664c1.52-.224 3.792-.64 5.952-1.024l.144 1.584c-2 .416-4.112.864-5.728 1.184l-.368-1.744Zm4.768-4.096 1.376.336c-.288.912-.544 1.92-.784 2.592l-1.152-.32c.208-.72.448-1.84.56-2.608Zm-2.4-4.224h1.648v8.624l-1.648.288V35.04Zm-.08-4.624h1.008v.352h.544v.496c-.624 1.216-1.6 2.864-3.184 4.304-.256-.384-.8-.992-1.152-1.248 1.344-1.152 2.288-2.656 2.784-3.904Zm.24 0h1.344c.928.8 2.112 1.952 2.688 2.768l-1.232 1.472c-.512-.816-1.6-2.16-2.464-2.88h-.336v-1.36Z" fill="#fff"/></symbol><symbol fill="none" viewBox="0 0 260 108" id="header-logo" xmlns="http://www.w3.org/2000/svg"><path d="M15.44 24.38c-2.48.413-4.493.587-6.04.52-1.533-.08-2.68-.44-3.44-1.08a3.537 3.537 0 0 1-1.18-1.78c-.2-.72-.3-1.607-.3-2.66v-8.12c0-.347.12-.64.36-.88s.527-.36.86-.36c.347 0 .64.12.88.36s.36.533.36.88v4.42a68.523 68.523 0 0 0 3.38-.92c1.173-.36 2.227-.72 3.16-1.08.333-.133.653-.127.96.02.307.133.52.367.64.7.12.32.113.64-.02.96-.133.307-.36.513-.68.62-1.133.413-2.36.8-3.68 1.16-1.32.36-2.573.673-3.76.94v1.3c0 .787.06 1.353.18 1.7.12.333.307.6.56.8.307.227.74.393 1.3.5.573.093 1.347.107 2.32.04.987-.067 2.24-.227 3.76-.48a1.08 1.08 0 0 1 .92.22c.267.2.427.473.48.82.067.333-.007.633-.22.9a1.28 1.28 0 0 1-.8.5Zm2.2-9.96a.806.806 0 0 1-.62.26.923.923 0 0 1-.62-.28 18.58 18.58 0 0 0-.62-.68c-.253-.267-.48-.5-.68-.7a.7.7 0 0 1-.22-.5.76.76 0 0 1 .22-.58.81.81 0 0 1 .54-.24.838.838 0 0 1 .58.18c.213.133.46.333.74.6.293.253.533.487.72.7.16.173.233.38.22.62 0 .24-.087.447-.26.62Zm.52-1.82c-.173-.187-.4-.4-.68-.64-.267-.24-.513-.453-.74-.64a.775.775 0 0 1-.24-.5.726.726 0 0 1 .18-.58c.133-.16.3-.253.5-.28a.943.943 0 0 1 .6.12c.227.133.487.32.78.56.307.24.567.46.78.66.173.173.26.38.26.62a.85.85 0 0 1-.22.62.872.872 0 0 1-.6.3.78.78 0 0 1-.62-.24Zm6.86 12.28a1.327 1.327 0 0 1-.96-.08 1.238 1.238 0 0 1-.6-.74 1.28 1.28 0 0 1 .08-.94c.16-.307.4-.507.72-.6a17.906 17.906 0 0 0 3.14-1.34 25.627 25.627 0 0 0 5.9-4.32c.853-.827 1.56-1.653 2.12-2.48a1.18 1.18 0 0 1 .78-.52c.333-.067.64 0 .92.2.293.187.467.447.52.78.067.333.007.64-.18.92-.613.907-1.393 1.827-2.34 2.76-.947.92-1.987 1.8-3.12 2.64a31.468 31.468 0 0 1-3.5 2.22c-1.2.64-2.36 1.14-3.48 1.5Zm2.86-10.18c-.187-.16-.453-.36-.8-.6-.333-.24-.68-.473-1.04-.7a9.018 9.018 0 0 0-.94-.56 1.164 1.164 0 0 1-.58-.74 1.161 1.161 0 0 1 .12-.94c.173-.307.427-.5.76-.58.333-.08.647-.04.94.12.293.16.647.38 1.06.66.427.267.84.54 1.24.82.4.28.713.52.94.72.253.227.38.513.38.86a1.23 1.23 0 0 1-.32.9c-.24.253-.527.38-.86.38-.333 0-.633-.113-.9-.34Zm-2.12 3.7a7.948 7.948 0 0 0-.82-.54 17.106 17.106 0 0 0-1.1-.66c-.373-.213-.693-.38-.96-.5a1.152 1.152 0 0 1-.62-.72 1.205 1.205 0 0 1 .06-.94c.16-.307.4-.507.72-.6.333-.107.647-.087.94.06.32.147.693.34 1.12.58.44.24.867.493 1.28.76.413.253.74.473.98.66.267.213.413.493.44.84.027.333-.073.633-.3.9a1.143 1.143 0 0 1-.84.44 1.236 1.236 0 0 1-.9-.28Zm9.5-5.28a.806.806 0 0 1-1.22-.04 25.274 25.274 0 0 0-.64-.66c-.24-.267-.467-.5-.68-.7a.7.7 0 0 1-.22-.5.76.76 0 0 1 .22-.58.81.81 0 0 1 .54-.24.893.893 0 0 1 .58.16c.213.147.46.353.74.62.293.253.533.487.72.7a.78.78 0 0 1 .24.62.923.923 0 0 1-.28.62Zm.54-1.82a17.67 17.67 0 0 0-.66-.62 9.26 9.26 0 0 0-.74-.64.735.735 0 0 1-.26-.5.726.726 0 0 1 .18-.58.668.668 0 0 1 .5-.28.943.943 0 0 1 .6.12c.227.133.487.32.78.56.307.227.567.447.78.66.173.16.26.36.26.6a.876.876 0 0 1-.22.64.804.804 0 0 1-.6.28.78.78 0 0 1-.62-.24Zm14.38 15.16c-.333 0-.62-.12-.86-.36s-.36-.527-.36-.86v-5.76c-.96.573-2 1.12-3.12 1.64-1.107.52-2.173.947-3.2 1.28-.32.107-.633.08-.94-.08a1.16 1.16 0 0 1-.58-.72 1.28 1.28 0 0 1 .08-.94c.16-.307.4-.507.72-.6.68-.213 1.413-.487 2.2-.82a40.934 40.934 0 0 0 2.34-1.08c.773-.4 1.473-.793 2.1-1.18.64-.387 1.14-.733 1.5-1.04.267-.227.353-.427.26-.6-.08-.187-.28-.28-.6-.28h-4.76c-.333 0-.62-.113-.86-.34a1.141 1.141 0 0 1-.34-.84c0-.333.113-.613.34-.84.24-.227.527-.34.86-.34h5.08c.8 0 1.44.153 1.92.46.48.307.8.7.96 1.18.173.48.18.987.02 1.52-.147.533-.467 1.027-.96 1.48l-.28.24-.3.26v7.4c0 .333-.12.62-.36.86s-.527.36-.86.36Zm1.56-14.68a76.441 76.441 0 0 1-1.66-.2 70.42 70.42 0 0 1-1.78-.3 42.316 42.316 0 0 1-1.6-.32 1.18 1.18 0 0 1-.76-.54 1.165 1.165 0 0 1-.14-.92c.067-.333.24-.58.52-.74.293-.173.607-.227.94-.16.467.107.973.213 1.52.32.56.093 1.113.18 1.66.26.547.08 1.047.147 1.5.2.347.04.627.187.84.44.213.24.307.533.28.88a1.126 1.126 0 0 1-.44.82c-.253.213-.547.3-.88.26Zm5.42 10.42c-.307-.16-.693-.353-1.16-.58-.467-.24-.94-.473-1.42-.7a16 16 0 0 0-1.28-.58 1.23 1.23 0 0 1-.66-.66 1.21 1.21 0 0 1 .02-.94c.133-.307.353-.52.66-.64.32-.133.633-.133.94 0 .373.147.813.333 1.32.56.507.227 1.007.46 1.5.7.493.227.907.44 1.24.64.293.173.487.42.58.74.107.307.08.613-.08.92-.147.293-.387.5-.72.62-.32.107-.633.08-.94-.08Zm6.54 2.4a1.205 1.205 0 0 1-1.64-.58 1.213 1.213 0 0 1-.06-.94c.12-.32.327-.553.62-.7 1.907-.92 3.6-2.027 5.08-3.32 1.493-1.307 2.707-2.72 3.64-4.24.587-.96.267-1.44-.96-1.44h-5.46c-.333 0-.62-.12-.86-.36a1.24 1.24 0 0 1-.36-.88c0-.347.12-.64.36-.88s.527-.36.86-.36h5.54c1.2 0 2.12.22 2.76.66.64.427.987 1.013 1.04 1.76.067.747-.18 1.607-.74 2.58a12.285 12.285 0 0 1-1.06 1.6c.613.507 1.24 1.067 1.88 1.68.653.6 1.26 1.187 1.82 1.76.573.56 1.053 1.04 1.44 1.44.227.24.34.533.34.88s-.127.64-.38.88c-.24.24-.533.36-.88.36a1.27 1.27 0 0 1-.88-.38c-.36-.373-.813-.84-1.36-1.4a71.391 71.391 0 0 0-1.74-1.76 32.624 32.624 0 0 0-1.78-1.66 27.464 27.464 0 0 1-3.4 2.98 23.384 23.384 0 0 1-3.82 2.32Zm28.44.34c-.333.08-.647.033-.94-.14a1.158 1.158 0 0 1-.56-.74c-.08-.32-.033-.62.14-.9.173-.293.42-.48.74-.56 1.48-.387 2.567-1.013 3.26-1.88.707-.867 1.06-1.967 1.06-3.3 0-.84-.187-1.593-.56-2.26a4.334 4.334 0 0 0-1.6-1.62c-.68-.413-1.5-.667-2.46-.76-.24 2.24-.647 4.18-1.22 5.82-.56 1.627-1.227 2.887-2 3.78-.76.88-1.56 1.32-2.4 1.32a3.295 3.295 0 0 1-1.94-.62c-.587-.413-1.053-1.007-1.4-1.78-.333-.773-.5-1.7-.5-2.78 0-1.107.207-2.14.62-3.1a7.823 7.823 0 0 1 1.8-2.56 8.435 8.435 0 0 1 2.72-1.72c1.053-.413 2.207-.62 3.46-.62 1.52 0 2.867.293 4.04.88 1.187.573 2.12 1.38 2.8 2.42.68 1.027 1.02 2.227 1.02 3.6 0 1.933-.52 3.547-1.56 4.84-1.027 1.28-2.533 2.173-4.52 2.68Zm-6.52-3.7c.24 0 .513-.2.82-.6.32-.413.64-.993.96-1.74.32-.747.613-1.627.88-2.64.267-1.027.467-2.16.6-3.4-1.04.2-1.913.587-2.62 1.16a5.442 5.442 0 0 0-1.6 2.02 5.938 5.938 0 0 0-.56 2.44c0 .907.14 1.593.42 2.06.293.467.66.7 1.1.7Zm24.42 5.56a1.21 1.21 0 0 1-.86-.34c-.227-.213-.34-.493-.34-.84v-5.9a25.816 25.816 0 0 1-1.86 2.06c-.693.68-1.413 1.32-2.16 1.92a17.624 17.624 0 0 1-2.22 1.5c-.307.173-.62.233-.94.18-.307-.053-.56-.227-.76-.52a1.165 1.165 0 0 1-.18-.86c.067-.32.253-.567.56-.74.56-.32 1.147-.7 1.76-1.14.627-.453 1.24-.94 1.84-1.46a33.968 33.968 0 0 0 1.74-1.58 18.044 18.044 0 0 0 1.42-1.54h-5.86c-.333 0-.6-.107-.8-.32-.2-.213-.3-.467-.3-.76 0-.307.1-.567.3-.78.2-.213.467-.32.8-.32h6.66v-2.34h-5.44c-.333 0-.6-.107-.8-.32-.2-.227-.3-.487-.3-.78 0-.307.1-.56.3-.76.2-.213.467-.32.8-.32h5.44V9.22c0-.36.113-.647.34-.86.24-.213.527-.32.86-.32.32 0 .593.107.82.32.24.213.36.5.36.86v1.62h5.4c.333 0 .593.107.78.32.2.2.3.453.3.76 0 .293-.1.553-.3.78-.187.213-.447.32-.78.32h-5.4v2.34h6.66c.333 0 .593.107.78.32.2.213.3.473.3.78 0 .293-.1.547-.3.76-.187.213-.447.32-.78.32H112a24.52 24.52 0 0 0 2.02 2.1 29.97 29.97 0 0 0 2.36 1.98c.827.6 1.607 1.12 2.34 1.56.307.173.493.427.56.76.067.32.013.62-.16.9-.187.333-.46.533-.82.6a1.4 1.4 0 0 1-1.04-.22c-.667-.44-1.36-.947-2.08-1.52-.72-.587-1.42-1.22-2.1-1.9-.68-.693-1.3-1.4-1.86-2.12v5.94c0 .347-.12.627-.36.84-.227.227-.5.34-.82.34Zm19.96-.12c-.32 0-.6-.107-.84-.32-.227-.213-.34-.493-.34-.84V20.3a24.54 24.54 0 0 1-2.82 2.84 29.82 29.82 0 0 1-3.26 2.42 1.5 1.5 0 0 1-.96.2 1.046 1.046 0 0 1-.8-.5 1.057 1.057 0 0 1-.16-.84c.08-.307.293-.56.64-.76.68-.4 1.38-.86 2.1-1.38.72-.52 1.413-1.073 2.08-1.66.68-.6 1.28-1.187 1.8-1.76H122c-.293 0-.547-.107-.76-.32-.2-.213-.3-.467-.3-.76s.1-.54.3-.74c.213-.213.467-.32.76-.32h3.34a6.269 6.269 0 0 1-.18-.24 9.13 9.13 0 0 0-.38-.66c-.16-.293-.333-.587-.52-.88a9.602 9.602 0 0 0-.44-.72 1.04 1.04 0 0 1-.12-.84.98.98 0 0 1 .5-.64c.173-.093.347-.153.52-.18h-1.8c-.293 0-.547-.107-.76-.32-.2-.213-.3-.467-.3-.76s.1-.54.3-.74c.213-.213.467-.32.76-.32h5.9V9.24c0-.347.113-.627.34-.84.24-.213.52-.32.84-.32.32 0 .593.107.82.32.227.213.34.493.34.84v1.18h5.9c.293 0 .54.107.74.32.213.2.32.447.32.74s-.107.547-.32.76a.975.975 0 0 1-.74.32h-1.78l.12.04c.053 0 .1.013.14.04a1.1 1.1 0 0 1 .58.64c.107.28.08.553-.08.82-.093.187-.233.433-.42.74l-.56.92c-.187.293-.34.54-.46.74a.815.815 0 0 1-.1.12.362.362 0 0 1-.1.1h3.56c.293 0 .54.107.74.32.213.2.32.447.32.74s-.107.547-.32.76a.975.975 0 0 1-.74.32h-5.48c.547.56 1.153 1.127 1.82 1.7.667.56 1.36 1.087 2.08 1.58.733.493 1.44.927 2.12 1.3.307.173.507.42.6.74.093.32.047.633-.14.94a1.178 1.178 0 0 1-.84.56c-.36.067-.707 0-1.04-.2-.667-.4-1.36-.867-2.08-1.4a25.553 25.553 0 0 1-2.06-1.78 21.896 21.896 0 0 1-1.78-1.96v5.18c0 .347-.113.627-.34.84-.227.213-.5.32-.82.32Zm-4.96-14.12c.333.04.6.207.8.5.107.147.253.367.44.66l.56.88c.187.293.327.52.42.68.147.253.2.513.16.78-.027.253-.14.473-.34.66h1.74v-4.16h-3.78Zm6.12 4.16h1.54a1.245 1.245 0 0 1-.28-.6.927.927 0 0 1 .16-.64c.12-.173.267-.413.44-.72.187-.307.367-.613.54-.92l.42-.72c.16-.307.4-.493.72-.56h-3.54v4.16Zm23.24 9.18c-1.787.253-3.293.347-4.52.28-1.227-.053-2.213-.233-2.96-.54-.733-.307-1.267-.713-1.6-1.22a3.194 3.194 0 0 1-.5-1.76c0-1 .4-1.933 1.2-2.8.813-.867 1.987-1.627 3.52-2.28a1.566 1.566 0 0 0-.78-.54c-.667-.2-1.327-.127-1.98.22-.64.347-1.267.853-1.88 1.52-.227.24-.527.373-.9.4-.36.013-.653-.1-.88-.34a1.247 1.247 0 0 1-.3-.88c.027-.333.167-.607.42-.82a11.62 11.62 0 0 0 1.72-1.82c.507-.653.933-1.327 1.28-2.02a536.8 536.8 0 0 0-1.62.04c-.493 0-.92-.007-1.28-.02-.333 0-.613-.113-.84-.34a1.208 1.208 0 0 1-.34-.86 1.11 1.11 0 0 1 .38-.82c.24-.213.527-.313.86-.3.467.013 1.027.02 1.68.02l2.08-.04c.067-.253.127-.5.18-.74.053-.24.1-.48.14-.72.053-.333.2-.6.44-.8.24-.213.527-.3.86-.26.333.04.6.187.8.44.2.253.28.547.24.88-.013.173-.04.353-.08.54-.04.187-.087.373-.14.56.507-.027.98-.053 1.42-.08.44-.04.833-.087 1.18-.14.333-.04.627.04.88.24.267.187.42.447.46.78.04.333-.047.627-.26.88-.2.253-.46.393-.78.42-.493.053-1.06.1-1.7.14-.64.04-1.307.073-2 .1a16.926 16.926 0 0 1-.96 1.84c.32-.067.627-.087.92-.06.293.013.573.06.84.14.4.107.787.293 1.16.56.387.253.727.613 1.02 1.08.653-.187 1.347-.36 2.08-.52.747-.16 1.533-.3 2.36-.42.32-.053.613.02.88.22.267.187.42.447.46.78.053.333-.02.627-.22.88a1.23 1.23 0 0 1-.8.46 26.8 26.8 0 0 0-2.14.34c-.653.12-1.26.253-1.82.4.067.36.12.753.16 1.18.04.427.06.887.06 1.38 0 .333-.12.62-.36.86-.227.227-.507.34-.84.34-.333 0-.613-.113-.84-.34a1.208 1.208 0 0 1-.34-.86c0-.68-.04-1.287-.12-1.82-1.093.453-1.887.94-2.38 1.46-.48.507-.72 1-.72 1.48 0 .36.213.653.64.88.427.227 1.14.353 2.14.38 1 .027 2.367-.073 4.1-.3.32-.04.613.04.88.24.267.187.42.447.46.78.04.32-.04.607-.24.86-.2.253-.46.407-.78.46Zm19.36.38c-.427 0-.767-.12-1.02-.36a1.269 1.269 0 0 1-.38-.88 1.23 1.23 0 0 1 1.22-1.3c.507-.027.9-.073 1.18-.14.28-.08.493-.24.64-.48.147-.253.26-.633.34-1.14.107-.773.193-1.627.26-2.56.067-.947.113-1.907.14-2.88.04-.973.06-1.907.06-2.8 0-.453-.047-.8-.14-1.04a.841.841 0 0 0-.52-.5c-.253-.093-.627-.14-1.12-.14h-.68c-.04 1.973-.153 3.687-.34 5.14-.173 1.44-.447 2.693-.82 3.76a9.467 9.467 0 0 1-1.52 2.78c-.627.787-1.407 1.52-2.34 2.2-.32.227-.66.327-1.02.3-.36-.013-.653-.173-.88-.48a1.082 1.082 0 0 1-.2-.9c.067-.333.247-.593.54-.78.853-.533 1.553-1.14 2.1-1.82.547-.693.973-1.507 1.28-2.44.307-.933.527-2.033.66-3.3s.207-2.753.22-4.46h-2.7c-.347 0-.627-.107-.84-.32a1.17 1.17 0 0 1-.3-.8c0-.32.1-.587.3-.8.213-.227.493-.34.84-.34h5.9c.973 0 1.74.12 2.3.36.573.24.987.64 1.24 1.2.253.547.38 1.28.38 2.2a167.634 167.634 0 0 1-.1 4.5 44.732 44.732 0 0 1-.34 4.22c-.133 1.027-.36 1.833-.68 2.42a2.69 2.69 0 0 1-1.36 1.22c-.587.24-1.353.36-2.3.36Zm-7.58-3.7c-1.027 0-1.793-.2-2.3-.6-.493-.4-.74-1.127-.74-2.18v-2.54l-.68.16c-.213.04-.413.08-.6.12-.373.08-.7.04-.98-.12a1.112 1.112 0 0 1-.52-.76c-.067-.36-.013-.667.16-.92.173-.267.453-.433.84-.5.253-.053.527-.107.82-.16.307-.067.627-.133.96-.2v-4.64c0-.4.113-.7.34-.9.227-.2.507-.3.84-.3.347 0 .627.1.84.3.227.2.34.5.34.9v4.12l1.68-.38a63.55 63.55 0 0 1 1.46-.34c.333-.08.62-.033.86.14.253.173.407.413.46.72.067.32.013.607-.16.86-.16.253-.413.42-.76.5l-1.64.42c-.613.147-1.247.293-1.9.44v2.68c0 .293.067.493.2.6.133.093.373.14.72.14.333 0 .56-.08.68-.24.133-.173.26-.507.38-1a.973.973 0 0 1 .52-.66c.28-.133.587-.16.92-.08.347.093.58.273.7.54.133.253.167.56.1.92-.16.733-.38 1.32-.66 1.76a2.36 2.36 0 0 1-1.12.92c-.453.187-1.04.28-1.76.28Zm23.08 3.36a1.256 1.256 0 0 1-.4-.84c-.013-.333.1-.62.34-.86 1.013-1.027 1.807-2.32 2.38-3.88.587-1.56.88-3.26.88-5.1 0-1.04-.167-1.793-.5-2.26-.333-.467-.827-.7-1.48-.7-.533 0-1.027.22-1.48.66-.453.427-.793 1.067-1.02 1.92-.227.853-.287 1.927-.18 3.22.027.307-.06.587-.26.84a1.01 1.01 0 0 1-.74.4c-.32.027-.6-.053-.84-.24a1.185 1.185 0 0 1-.42-.74 22.828 22.828 0 0 1-.18-2.28 52.234 52.234 0 0 1-.02-2.5 54.668 54.668 0 0 1 .28-4.1c.04-.32.187-.58.44-.78.253-.2.54-.28.86-.24.333.04.593.18.78.42.2.24.273.533.22.88-.027.24-.067.547-.12.92-.04.373-.073.727-.1 1.06.307-.52.72-.953 1.24-1.3.52-.36 1.06-.54 1.62-.54 1.427 0 2.493.467 3.2 1.4.707.92 1.06 2.24 1.06 3.96 0 1.373-.147 2.713-.44 4.02a15.122 15.122 0 0 1-1.28 3.64 11.634 11.634 0 0 1-2.12 2.98c-.227.24-.513.36-.86.36a1.139 1.139 0 0 1-.86-.32Zm24.68.28c-1.027 0-1.847-.113-2.46-.34-.613-.227-1.06-.607-1.34-1.14-.267-.547-.4-1.273-.4-2.18v-2.8c-.52.72-1.053 1.353-1.6 1.9-.253.253-.56.393-.92.42a1.07 1.07 0 0 1-.88-.36 1.06 1.06 0 0 1-.3-.8c.013-.32.133-.58.36-.78.707-.653 1.367-1.46 1.98-2.42.613-.973 1.14-2 1.58-3.08.453-1.093.793-2.14 1.02-3.14h-2.84c-.32 0-.573-.1-.76-.3-.187-.2-.28-.447-.28-.74s.093-.54.28-.74c.187-.2.44-.3.76-.3h10.14c.32 0 .573.1.76.3.187.2.28.447.28.74s-.093.54-.28.74c-.187.2-.44.3-.76.3h-4.9c-.173.8-.413 1.627-.72 2.48-.293.84-.633 1.673-1.02 2.5.307-.107.647-.18 1.02-.22.387-.04.813-.06 1.28-.06 1.027 0 1.84.113 2.44.34.613.227 1.053.607 1.32 1.14.28.533.42 1.26.42 2.18v2.7c0 .907-.14 1.633-.42 2.18-.267.533-.707.913-1.32 1.14-.6.227-1.413.34-2.44.34Zm-11.12.44c-.4 0-.707-.107-.92-.32-.213-.2-.34-.473-.38-.82-.027-.32.047-.607.22-.86s.427-.4.76-.44c.4-.053.653-.133.76-.24.107-.107.16-.333.16-.68v-3.46c-.227.093-.44.18-.64.26-.2.067-.373.133-.52.2-.36.133-.713.14-1.06.02a1.085 1.085 0 0 1-.66-.74c-.107-.347-.08-.667.08-.96.16-.293.427-.493.8-.6.267-.08.573-.173.92-.28.347-.12.707-.247 1.08-.38v-3.28h-1.78c-.333 0-.6-.107-.8-.32-.2-.227-.3-.487-.3-.78 0-.307.1-.567.3-.78.2-.213.467-.32.8-.32h1.78v-2.6c0-.347.113-.62.34-.82.227-.213.5-.32.82-.32.32 0 .587.107.8.32.227.2.34.473.34.82v2.6h1.2c.333 0 .6.107.8.32.2.213.3.473.3.78 0 .293-.1.553-.3.78-.2.213-.467.32-.8.32h-1.2v2.44l.5-.18c.16-.067.3-.127.42-.18a.89.89 0 0 1 .78.04c.267.133.447.333.54.6.107.253.107.52 0 .8-.093.267-.3.473-.62.62-.173.08-.407.18-.7.3-.28.107-.587.233-.92.38v4.9c0 .973-.227 1.693-.68 2.16-.453.467-1.193.7-2.22.7Zm11.12-2.56c.707 0 1.187-.113 1.44-.34.267-.24.4-.687.4-1.34v-2.46c0-.627-.133-1.053-.4-1.28-.253-.24-.733-.36-1.44-.36s-1.193.113-1.46.34c-.267.227-.4.66-.4 1.3v2.46c0 .627.133 1.067.4 1.32.267.24.753.36 1.46.36Zm19.62 2.14a1.123 1.123 0 0 1-.9.18 1.155 1.155 0 0 1-.78-.46 34.214 34.214 0 0 0-1.54-2.04c-.56-.707-1.12-1.38-1.68-2.02a29.924 29.924 0 0 0-1.52-1.66c-.787-.773-1.313-1.5-1.58-2.18a2.589 2.589 0 0 1 .02-2.02c.28-.68.833-1.407 1.66-2.18.28-.253.613-.573 1-.96.4-.387.82-.8 1.26-1.24.44-.44.867-.88 1.28-1.32.413-.44.787-.833 1.12-1.18.227-.24.507-.36.84-.36.347-.013.64.093.88.32.24.213.36.493.36.84.013.333-.093.62-.32.86a55.82 55.82 0 0 1-1.56 1.62c-.56.56-1.107 1.1-1.64 1.62a65.05 65.05 0 0 1-1.38 1.28c-.52.48-.867.893-1.04 1.24-.16.333-.16.667 0 1 .173.333.493.747.96 1.24.453.467.967 1.027 1.54 1.68a69.366 69.366 0 0 1 1.76 2.04c.587.707 1.1 1.38 1.54 2.02.2.253.267.547.2.88a1.14 1.14 0 0 1-.48.8Zm10.74-.02c-.573 0-1.1-.14-1.58-.42a3.214 3.214 0 0 1-1.12-1.12c-.267-.48-.4-1-.4-1.56 0-.587.14-1.113.42-1.58.28-.48.653-.86 1.12-1.14.48-.28 1-.42 1.56-.42.573 0 1.093.14 1.56.42.48.28.86.66 1.14 1.14.28.467.42.993.42 1.58 0 .573-.14 1.093-.42 1.56-.28.467-.653.84-1.12 1.12-.467.28-.993.42-1.58.42Zm0-1.4c.48 0 .887-.167 1.22-.5.333-.347.5-.753.5-1.22 0-.467-.167-.867-.5-1.2a1.66 1.66 0 0 0-1.22-.5c-.467 0-.867.167-1.2.5-.333.333-.5.733-.5 1.2 0 .453.16.853.48 1.2.333.347.74.52 1.22.52Z" fill="url(#da)"/><path d="M189.988 75.28c0 2.176-.656 3.792-1.968 4.848-1.28 1.088-3.296 1.632-6.048 1.632h-8.696a1 1 0 0 1-1-1v-1.6a1 1 0 0 1 1-1h9.176c1.152 0 2.016-.224 2.592-.672.576-.448.864-1.024.864-1.728v-1.536c0-.736-.288-1.312-.864-1.728-.576-.448-1.44-.672-2.592-.672h-7.016a1 1 0 0 1-1-1v-5.03c0-.366-.204-.697-.506-.904a5.372 5.372 0 0 1-1.846-2.186c-.512-1.088-.768-2.496-.768-4.224v-1.2c0-2.688.656-4.64 1.968-5.856 1.344-1.216 3.408-1.824 6.192-1.824h8.792a1 1 0 0 1 1 1v7.88c0 2.4-.656 4.288-1.968 5.664-1.312 1.344-3.056 2.016-5.232 2.016h-2.552a1 1 0 0 0-1 1v.064a1 1 0 0 0 1 1h2.456c2.752 0 4.768.544 6.048 1.632 1.312 1.056 1.968 2.672 1.968 4.848v.576Zm-7.92-12.72c.992 0 1.744-.32 2.256-.96.512-.64.8-1.312.864-2.016V54.2a1 1 0 0 0-1-1h-5.192c-1.184 0-2.08.272-2.688.816-.608.544-.912 1.312-.912 2.304v3.12c0 .992.304 1.76.912 2.304.608.544 1.504.816 2.688.816h3.072ZM139.071 73.6a1 1 0 0 1-1-1V47.608c0-1.05-1.412-1.39-1.89-.455l-2.507 4.902a1 1 0 0 1-.891.545h-2.827a.999.999 0 0 1-.853-.479l-3.434-5.627c-.527-.863-1.854-.49-1.854.52V72.6a1 1 0 0 1-1 1h-1.84a1 1 0 0 1-1-1V41a1 1 0 0 1 1-1h5.189a1 1 0 0 1 .867.502l3.434 5.98a1 1 0 0 0 1.763-.053l2.927-5.875a1 1 0 0 1 .895-.554h5.005a1 1 0 0 1 1 1v31.6a1 1 0 0 1-1 1h-1.984ZM104.791 75.712c-.384 1.44-.784 2.592-1.2 3.456-.416.896-1.008 1.584-1.776 2.064-.736.512-1.728.768-2.975.768-.5 0-1.133-.053-1.9-.16a.979.979 0 0 1-.837-.975v-1.504c0-.608.54-1.073 1.146-1.021.47.04.92.06 1.35.06.897 0 1.536-.72 1.92-2.16l.679-2.332c.058-.2.052-.414-.016-.61L93.353 50.93a1 1 0 0 1 .944-1.33h2.249a1 1 0 0 1 .962.73l4.319 15.376c.279.994 1.698.965 1.936-.04l3.63-15.297a1 1 0 0 1 .973-.769h2.084a1 1 0 0 1 .966 1.258l-6.625 24.854ZM84.055 72.125a.97.97 0 0 1-.074.068c-1.1.919-1.687 1.407-2.888 1.407H77.78c-2.432 0-4.208-.48-5.328-1.44-1.088-.992-1.632-2.672-1.632-5.04v-.96c0-4.96 2.336-7.44 7.008-7.44h3.992a1 1 0 0 0 1-1v-1.4c0-.992-.304-1.76-.912-2.304-.608-.544-1.504-.816-2.688-.816h-5.48a1 1 0 0 1-1-1v-1.6a1 1 0 0 1 1-1h5c2.784 0 4.832.608 6.144 1.824 1.343 1.215 2.015 3.166 2.016 5.851v.006c0 .11.111 10.994 0 11.52-.105.492-2.527 2.995-2.846 3.324ZM80.613 70c.96 0 1.568-.224 1.824-.672.256-.448.384-1.024.384-1.728v-4.28a1 1 0 0 0-1-1h-4.04c-.832 0-1.52.272-2.064.816-.544.544-.816 1.232-.816 2.064v2.4c0 .832.192 1.44.576 1.824.384.384.992.576 1.824.576h3.312ZM161.63 72.125a1.058 1.058 0 0 1-.074.068c-1.1.919-1.687 1.407-2.889 1.407h-3.312c-2.432 0-4.208-.48-5.328-1.44-1.088-.992-1.632-2.672-1.632-5.04v-.96c0-4.96 2.336-7.44 7.008-7.44h3.992a1 1 0 0 0 1-1v-1.4c0-.992-.304-1.76-.912-2.304-.608-.544-1.504-.816-2.688-.816h-5.48a1 1 0 0 1-1-1v-1.6a1 1 0 0 1 1-1h5c2.784 0 4.832.608 6.144 1.824 1.343 1.215 2.015 3.166 2.016 5.851v.006c.001.11.111 10.994 0 11.52-.105.492-2.526 2.995-2.845 3.324ZM158.187 70c.96 0 1.568-.224 1.824-.672.256-.448.384-1.024.384-1.728v-4.28a1 1 0 0 0-1-1h-4.04c-.832 0-1.52.272-2.064.816-.544.544-.816 1.232-.816 2.064v2.4c0 .832.192 1.44.576 1.824.384.384.992.576 1.824.576h3.312ZM209.63 72.125a1.058 1.058 0 0 1-.074.068c-1.1.919-1.687 1.407-2.889 1.407h-3.312c-2.432 0-4.208-.48-5.328-1.44-1.088-.992-1.632-2.672-1.632-5.04v-.96c0-4.96 2.336-7.44 7.008-7.44h3.992a1 1 0 0 0 1-1v-1.4c0-.992-.304-1.76-.912-2.304-.608-.544-1.504-.816-2.688-.816h-5.48a1 1 0 0 1-1-1v-1.6a1 1 0 0 1 1-1h5c2.784 0 4.832.608 6.144 1.824 1.343 1.215 2.015 3.166 2.016 5.851v.006c.001.11.111 10.994 0 11.52-.105.492-2.526 2.995-2.845 3.324ZM206.187 70c.96 0 1.568-.224 1.824-.672.256-.448.384-1.024.384-1.728v-4.28a1 1 0 0 0-1-1h-4.04c-.832 0-1.52.272-2.064.816-.544.544-.816 1.232-.816 2.064v2.4c0 .832.192 1.44.576 1.824.384.384.992.576 1.824.576h3.312ZM65.043 66.016c0 2.752-.64 4.704-1.92 5.856-1.248 1.152-3.328 1.728-6.24 1.728h-8.408a1 1 0 0 1-1-1V41a1 1 0 0 1 1-1h7.832c2.88 0 5.056.592 6.528 1.776 1.472 1.152 2.208 3.056 2.208 5.712v18.528Zm-4.176-18.96c0-1.056-.32-1.888-.96-2.496-.64-.64-1.488-.96-2.544-.96h-4.712a1 1 0 0 0-1 1V69a1 1 0 0 0 1 1h4.664c1.216 0 2.112-.272 2.688-.816.576-.576.864-1.472.864-2.688v-19.44Z" fill="#332D2D"/><path d="M22.295 103.648a.807.807 0 0 1-.572-.234.807.807 0 0 1-.234-.572c0-.225.078-.412.234-.559a.807.807 0 0 1 .572-.234h4.537c.529 0 .927-.039 1.196-.117a.784.784 0 0 0 .533-.533c.095-.269.143-.68.143-1.235 0-.563-.048-.975-.143-1.235a.75.75 0 0 0-.533-.52c-.26-.087-.654-.13-1.183-.13h-4.407a.763.763 0 0 1-.559-.234.778.778 0 0 1-.234-.572c0-.225.078-.412.234-.559a.763.763 0 0 1 .559-.234h4.407c.676 0 1.235.052 1.677.156.45.104.806.286 1.066.546.26.26.442.615.546 1.066.113.45.169 1.023.169 1.716 0 .693-.056 1.265-.169 1.716-.104.451-.286.806-.546 1.066-.26.26-.615.442-1.066.546-.45.104-1.014.156-1.69.156h-4.537Zm13.611.845a.785.785 0 0 1-.624-.026.795.795 0 0 1-.416-.455.751.751 0 0 1 .026-.611.79.79 0 0 1 .455-.429 17.382 17.382 0 0 0 2.093-.897c.71-.355 1.387-.741 2.028-1.157.65-.425 1.24-.858 1.768-1.3.537-.45.975-.884 1.313-1.3a.825.825 0 0 1 .546-.299.716.716 0 0 1 .585.182c.173.139.273.32.299.546a.735.735 0 0 1-.182.585c-.355.433-.828.897-1.417 1.391-.59.485-1.248.966-1.976 1.443-.728.477-1.478.919-2.249 1.326-.771.407-1.521.741-2.249 1.001Zm1.118-5.122c-.33-.277-.698-.563-1.105-.858-.407-.303-.776-.55-1.105-.741a.8.8 0 0 1-.364-.494.8.8 0 0 1 .585-.975c.217-.06.42-.03.611.091.234.147.498.33.793.546.303.208.594.416.871.624.286.208.52.386.702.533.173.139.273.32.299.546a.717.717 0 0 1-.156.585.838.838 0 0 1-.546.312.758.758 0 0 1-.585-.169Zm13.715 6.175a.785.785 0 0 1-.611.013.748.748 0 0 1-.455-.403.827.827 0 0 1-.026-.611.748.748 0 0 1 .416-.455c.98-.459 1.703-1.079 2.171-1.859.468-.78.715-1.785.741-3.016h-1.976c.009.347.013.676.013.988 0 .312-.009.594-.026.845a.76.76 0 0 1-.26.559.824.824 0 0 1-.585.195.746.746 0 0 1-.533-.273.853.853 0 0 1-.195-.585c.017-.234.026-.498.026-.793 0-.303-.004-.615-.013-.936h-2.665a.786.786 0 0 1-.559-.221.742.742 0 0 1-.221-.546c0-.217.074-.399.221-.546a.763.763 0 0 1 .559-.234h2.613c-.017-.303-.039-.59-.065-.858a7.21 7.21 0 0 0-.078-.728.77.77 0 0 1 .13-.585.766.766 0 0 1 .52-.325.726.726 0 0 1 .598.13.72.72 0 0 1 .312.52c.035.243.065.524.091.845.026.312.048.646.065 1.001h2.015a40.749 40.749 0 0 0-.039-1.079 12.518 12.518 0 0 0-.052-.923.78.78 0 0 1 .182-.585.775.775 0 0 1 .546-.286.756.756 0 0 1 .585.195c.173.139.264.32.273.546.026.269.043.594.052.975.017.373.03.758.039 1.157h2.47c.217 0 .399.078.546.234.156.147.234.33.234.546a.721.721 0 0 1-.234.546.742.742 0 0 1-.546.221h-2.47c-.026 1.543-.36 2.847-1.001 3.913-.641 1.057-1.577 1.863-2.808 2.418Zm17.589-2.236c-.754.286-1.413.412-1.976.377-.563-.035-1.005-.238-1.326-.611-.312-.381-.468-.94-.468-1.677v-4.134c0-.225.078-.416.234-.572a.807.807 0 0 1 .572-.234c.225 0 .412.078.559.234a.778.778 0 0 1 .234.572v3.887c0 .823.498 1.053 1.495.689.39-.147.815-.321 1.274-.52.468-.199.884-.386 1.248-.559a.792.792 0 0 1 .611-.039.749.749 0 0 1 .468.39.75.75 0 0 1 .052.611.705.705 0 0 1-.39.468c-.399.191-.828.39-1.287.598-.46.199-.893.373-1.3.52Zm-8.515.832a.827.827 0 0 1-.611.026.797.797 0 0 1-.481-1.027.748.748 0 0 1 .416-.455c.702-.329 1.257-.728 1.664-1.196a4.298 4.298 0 0 0 .871-1.612c.173-.607.26-1.257.26-1.95 0-.225.078-.416.234-.572a.763.763 0 0 1 .559-.234c.225 0 .412.078.559.234a.778.778 0 0 1 .234.572c-.009 1.49-.334 2.765-.975 3.822s-1.551 1.855-2.73 2.392Zm15.223 1.183a.824.824 0 0 1-.611.052.752.752 0 0 1-.481-.364.729.729 0 0 1-.078-.598.805.805 0 0 1 .377-.494c.893-.485 1.616-1.088 2.171-1.807.563-.719.914-1.499 1.053-2.34H73.71a.786.786 0 0 1-.559-.221.786.786 0 0 1-.221-.559c0-.217.074-.399.221-.546a.763.763 0 0 1 .559-.234h8.606c.217 0 .399.078.546.234.156.147.234.33.234.546a.763.763 0 0 1-.234.559.742.742 0 0 1-.546.221H79.04a6.789 6.789 0 0 1-.676 2.184 7.566 7.566 0 0 1-1.365 1.924 7.407 7.407 0 0 1-1.963 1.443Zm.182-8.346a.742.742 0 0 1-.546-.221.786.786 0 0 1-.221-.559c0-.217.074-.399.221-.546a.721.721 0 0 1 .546-.234h5.707c.217 0 .399.078.546.234.156.147.234.33.234.546a.763.763 0 0 1-.234.559.742.742 0 0 1-.546.221h-5.707Zm16.315 8.931a.674.674 0 0 1-.494-.208.653.653 0 0 1-.195-.481v-3.679a20.174 20.174 0 0 1-2.47 1.833.716.716 0 0 1-.975-.247.713.713 0 0 1-.078-.533.68.68 0 0 1 .325-.429 14.093 14.093 0 0 0 1.768-1.222c.59-.468 1.131-.958 1.625-1.469.503-.52.919-1.023 1.248-1.508a.675.675 0 0 1 .442-.299.692.692 0 0 1 .533.117.68.68 0 0 1 .299.455.654.654 0 0 1-.117.52c-.156.225-.338.464-.546.715a8.83 8.83 0 0 1-.676.754v4.992c0 .191-.07.351-.208.481a.632.632 0 0 1-.481.208Zm9.373-1.417a.785.785 0 0 1-.624-.026.796.796 0 0 1-.416-.455.751.751 0 0 1 .026-.611.79.79 0 0 1 .455-.429 17.402 17.402 0 0 0 2.093-.897 20.741 20.741 0 0 0 2.028-1.157c.65-.425 1.239-.858 1.768-1.3.537-.45.975-.884 1.313-1.3a.824.824 0 0 1 .546-.299.717.717 0 0 1 .585.182.79.79 0 0 1 .299.546.736.736 0 0 1-.182.585c-.355.433-.828.897-1.417 1.391-.589.485-1.248.966-1.976 1.443-.728.477-1.478.919-2.249 1.326-.771.407-1.521.741-2.249 1.001Zm1.118-5.122a19.113 19.113 0 0 0-1.105-.858c-.407-.303-.776-.55-1.105-.741a.8.8 0 0 1-.364-.494.8.8 0 0 1 .585-.975c.217-.06.42-.03.611.091.234.147.498.33.793.546.303.208.594.416.871.624.286.208.52.386.702.533a.79.79 0 0 1 .299.546.715.715 0 0 1-.156.585.84.84 0 0 1-.546.312.757.757 0 0 1-.585-.169Zm11.713 6.084a.785.785 0 0 1-.611.013.746.746 0 0 1-.442-.429.799.799 0 0 1 .416-1.053c1.43-.624 2.669-1.404 3.718-2.34a10.695 10.695 0 0 0 2.496-3.211c.277-.555.078-.832-.598-.832H117a16.078 16.078 0 0 1-1.404 1.625c-.511.52-1.04.975-1.586 1.365a.802.802 0 0 1-.611.143.764.764 0 0 1-.507-.338.779.779 0 0 1 .195-1.118c.485-.338.958-.732 1.417-1.183.459-.46.875-.94 1.248-1.443a7.97 7.97 0 0 0 .897-1.495.794.794 0 0 1 .442-.429.82.82 0 0 1 .624.013.749.749 0 0 1 .416.455.718.718 0 0 1-.013.611 1.611 1.611 0 0 1-.065.117.876.876 0 0 0-.065.13h.884c1.04 0 1.729.269 2.067.806.338.529.29 1.244-.143 2.145a11.856 11.856 0 0 1-1.729 2.613 14.608 14.608 0 0 1-5.33 3.835Zm9.204-9.646a12.025 12.025 0 0 0-.429-.403 6.019 6.019 0 0 0-.481-.416.5.5 0 0 1-.156-.325.493.493 0 0 1 .117-.39.448.448 0 0 1 .325-.169.613.613 0 0 1 .39.078c.147.087.316.208.507.364.199.147.368.286.507.416a.549.549 0 0 1 .169.403.55.55 0 0 1-.143.403.565.565 0 0 1-.39.195.546.546 0 0 1-.416-.156Zm-.338 1.183a.55.55 0 0 1-.403.169.579.579 0 0 1-.403-.195 7.766 7.766 0 0 0-.403-.429 26.363 26.363 0 0 0-.442-.455.49.49 0 0 1-.143-.325.493.493 0 0 1 .143-.377.457.457 0 0 1 .351-.156.58.58 0 0 1 .377.104c.139.095.299.225.481.39.191.165.347.32.468.468a.527.527 0 0 1 .143.403.578.578 0 0 1-.169.403Zm8.788 7.969a.793.793 0 0 1-.611-.091.753.753 0 0 1-.364-.481.73.73 0 0 1 .091-.585.753.753 0 0 1 .481-.364c.962-.251 1.668-.659 2.119-1.222.459-.563.689-1.278.689-2.145a2.95 2.95 0 0 0-.364-1.469 2.818 2.818 0 0 0-1.04-1.053c-.442-.269-.975-.433-1.599-.494-.156 1.456-.42 2.717-.793 3.783-.364 1.057-.797 1.876-1.3 2.457-.494.572-1.014.858-1.56.858-.459 0-.88-.134-1.261-.403-.381-.269-.685-.654-.91-1.157-.217-.503-.325-1.105-.325-1.807 0-.719.134-1.391.403-2.015a5.074 5.074 0 0 1 1.17-1.664 5.487 5.487 0 0 1 1.768-1.118 6.104 6.104 0 0 1 2.249-.403c.988 0 1.863.19 2.626.572.771.373 1.378.897 1.82 1.573.442.667.663 1.447.663 2.34 0 1.257-.338 2.305-1.014 3.146-.667.832-1.647 1.413-2.938 1.742Zm-4.238-2.405c.156 0 .334-.13.533-.39.208-.269.416-.646.624-1.131.208-.485.399-1.057.572-1.716.173-.667.303-1.404.39-2.21-.676.13-1.244.381-1.703.754a3.541 3.541 0 0 0-1.04 1.313 3.864 3.864 0 0 0-.364 1.586c0 .589.091 1.036.273 1.339.191.303.429.455.715.455Zm16.861 3.64a.94.94 0 0 1-.572-.182c-.165-.113-.26-.286-.286-.52a.784.784 0 0 1 .13-.52c.113-.165.282-.256.507-.273.355-.043.589-.108.702-.195.113-.087.169-.264.169-.533v-.78h-3.653l.052.026c.017 0 .03.009.039.026.087.061.204.156.351.286.156.121.308.247.455.377.156.121.269.217.338.286a.731.731 0 0 1 .273.546.736.736 0 0 1-.221.585.766.766 0 0 1-.546.247.718.718 0 0 1-.572-.208 4.006 4.006 0 0 0-.325-.312 16.43 16.43 0 0 1-.442-.377 9.235 9.235 0 0 0-.351-.299.657.657 0 0 1-.247-.494c0-.208.069-.39.208-.546.043-.043.1-.091.169-.143h-2.691a.61.61 0 0 1-.468-.195.672.672 0 0 1-.169-.455.625.625 0 0 1 .637-.637h7.163v-.52h-3.471c-.667 0-1.192-.065-1.573-.195-.373-.13-.637-.351-.793-.663-.147-.321-.221-.763-.221-1.326v-.234c0-.546.074-.98.221-1.3.156-.32.42-.546.793-.676.381-.139.906-.208 1.573-.208h1.092v-.546h-4.641a.555.555 0 0 1-.429-.169.638.638 0 0 1-.156-.429.59.59 0 0 1 .156-.416.535.535 0 0 1 .429-.182h4.641V94.6c0-.225.074-.407.221-.546a.75.75 0 0 1 .533-.208.75.75 0 0 1 .533.208c.147.139.221.32.221.546v.442h4.55c.182 0 .325.06.429.182a.59.59 0 0 1 .156.416.638.638 0 0 1-.156.429.555.555 0 0 1-.429.169h-4.55v.546h1.079c.667 0 1.187.07 1.56.208.381.13.646.355.793.676.156.32.234.754.234 1.3v.234c0 .615-.091 1.083-.273 1.404-.182.321-.516.542-1.001.663v.637h2.236c.199 0 .351.065.455.195a.625.625 0 0 1 .169.442.672.672 0 0 1-.169.455c-.104.13-.256.195-.455.195h-2.236v1.04c0 .659-.169 1.148-.507 1.469-.329.329-.884.494-1.664.494Zm-2.847-5.941h1.118v-.65h-2.093c.017.295.091.477.221.546.139.069.39.104.754.104Zm2.626 0h1.118c.364 0 .611-.035.741-.104.139-.069.217-.251.234-.546h-2.093v.65Zm-3.601-1.69h2.093v-.65h-1.118c-.364 0-.615.035-.754.104-.13.07-.204.251-.221.546Zm3.601 0h2.093c-.017-.295-.095-.477-.234-.546-.13-.07-.377-.104-.741-.104h-1.118v.65Zm15.587 7.449c-.251 0-.455-.074-.611-.221a.806.806 0 0 1-.247-.546.744.744 0 0 1 .156-.572.807.807 0 0 1 .546-.286c.355-.043.572-.108.65-.195.087-.095.13-.264.13-.507v-4.186h-1.43c-.763 0-1.313-.134-1.651-.403-.329-.277-.494-.776-.494-1.495v-1.248c0-.72.165-1.226.494-1.521.338-.295.888-.442 1.651-.442h.793c.771 0 1.322.147 1.651.442.329.295.494.802.494 1.521v7.735c0 .685-.169 1.174-.507 1.469-.338.303-.88.455-1.625.455Zm-8.112.091a.748.748 0 0 1-.533-.208.676.676 0 0 1-.221-.533v-9.009c0-.72.165-1.226.494-1.521.338-.295.888-.442 1.651-.442h.741c.771 0 1.322.147 1.651.442.329.295.494.802.494 1.521v1.248c0 .72-.165 1.218-.494 1.495-.329.269-.88.403-1.651.403h-1.378v5.863a.676.676 0 0 1-.221.533.748.748 0 0 1-.533.208Zm7.462-7.852h1.274v-.741h-2.119c.009.303.069.503.182.598.113.095.334.143.663.143Zm-6.708 0h1.222c.338 0 .559-.048.663-.143.113-.095.173-.295.182-.598h-2.067v.741Zm5.863-1.885h2.119c-.009-.303-.069-.498-.182-.585-.104-.095-.325-.143-.663-.143h-.429c-.329 0-.55.048-.663.143-.113.087-.173.282-.182.585Zm-5.863 0h2.067c-.009-.303-.069-.498-.182-.585-.104-.095-.325-.143-.663-.143h-.377c-.329 0-.55.048-.663.143-.113.087-.173.282-.182.585Zm13.546 9.737a.748.748 0 0 1-.533-.208c-.139-.13-.208-.308-.208-.533V94.743c0-.225.069-.403.208-.533a.75.75 0 0 1 .533-.208c.208 0 .381.07.52.208.139.13.208.308.208.533v1.352c.009 0 .022-.009.039-.026a.717.717 0 0 1 .455-.13c.165.009.29.074.377.195.052.06.121.156.208.286.095.121.191.247.286.377.095.121.165.221.208.299a.575.575 0 0 1 .143-.312.396.396 0 0 1 .325-.143h1.781v-.481h-2.457a.487.487 0 0 1-.377-.156.55.55 0 0 1-.13-.364.55.55 0 0 1 .13-.364.47.47 0 0 1 .377-.169h2.457v-.455c0-.225.074-.403.221-.533a.777.777 0 0 1 .533-.195c.208 0 .381.065.52.195.147.13.221.308.221.533v.455h2.652c.156 0 .277.056.364.169a.55.55 0 0 1 .13.364.55.55 0 0 1-.13.364.448.448 0 0 1-.364.156h-2.652v.481h1.885c.147 0 .26.052.338.156a.57.57 0 0 1 .117.351.57.57 0 0 1-.117.351.397.397 0 0 1-.338.156h-1.885v.52h3.016c.165 0 .29.052.377.156.087.104.13.23.13.377a.55.55 0 0 1-.13.364c-.087.104-.212.156-.377.156h-7.345c-.165 0-.29-.052-.377-.156a.55.55 0 0 1-.13-.364c0-.147.043-.273.13-.377.087-.104.212-.156.377-.156h2.834v-.52h-1.781a.492.492 0 0 1-.195-.039c-.052-.035-.1-.07-.143-.104a.585.585 0 0 1-.26.507.633.633 0 0 1-.468.104.57.57 0 0 1-.403-.247 15.058 15.058 0 0 0-.26-.39c-.113-.173-.217-.33-.312-.468v8.346c0 .225-.069.403-.208.533a.705.705 0 0 1-.52.208Zm3.146.091a.748.748 0 0 1-.533-.208.717.717 0 0 1-.221-.546v-3.952c0-.451.056-.806.169-1.066.121-.269.325-.46.611-.572.295-.121.702-.182 1.222-.182h2.002c.52 0 .923.06 1.209.182.286.113.485.303.598.572.121.26.182.615.182 1.066v2.86c0 .65-.165 1.109-.494 1.378-.329.277-.81.416-1.443.416a.782.782 0 0 1-.533-.182.632.632 0 0 1-.234-.455.76.76 0 0 1 .13-.52.64.64 0 0 1 .468-.26c.243-.035.403-.074.481-.117.087-.052.13-.182.13-.39v-.325h-3.003v1.547a.732.732 0 0 1-.741.754Zm-5.46-5.928a.527.527 0 0 1-.39-.273.745.745 0 0 1-.065-.494c.052-.208.104-.464.156-.767.052-.312.1-.624.143-.936.043-.312.074-.576.091-.793.017-.225.1-.39.247-.494.156-.104.338-.139.546-.104a.615.615 0 0 1 .416.247.67.67 0 0 1 .13.494 38.89 38.89 0 0 1-.104.884c-.043.33-.091.65-.143.962a11.75 11.75 0 0 1-.156.793.594.594 0 0 1-.312.416c-.156.087-.342.108-.559.065Zm6.201 2.626h3.003v-.572h-3.003v.572Zm0-1.573h3.003c-.009-.251-.065-.407-.169-.468-.095-.069-.303-.104-.624-.104h-1.417c-.321 0-.533.035-.637.104-.095.061-.147.217-.156.468Zm13.624 4.797a.716.716 0 0 1-.507-.208.677.677 0 0 1-.208-.52v-8.827c0-.572.065-1.014.195-1.326.139-.32.386-.546.741-.676s.871-.195 1.547-.195c.676 0 1.192.056 1.547.169.364.113.611.312.741.598.139.286.208.685.208 1.196 0 .572-.069 1.018-.208 1.339-.139.32-.364.546-.676.676-.303.121-.711.186-1.222.195-.225 0-.403-.065-.533-.195a.85.85 0 0 1-.221-.533.627.627 0 0 1 .182-.494.768.768 0 0 1 .533-.221c.286-.017.472-.065.559-.143.087-.087.13-.243.13-.468 0-.33-.065-.542-.195-.637-.13-.095-.412-.143-.845-.143-.425 0-.706.056-.845.169-.13.104-.195.334-.195.689v2.327h2.002c.693 0 1.17.16 1.43.481.26.312.325.789.195 1.43-.191.945-.485 1.768-.884 2.47.191.217.39.429.598.637.208.199.433.39.676.572a.592.592 0 0 1 .247.481.695.695 0 0 1-.156.52.693.693 0 0 1-.52.26.771.771 0 0 1-.559-.169 8.733 8.733 0 0 1-.598-.52 7.67 7.67 0 0 1-.52-.546c-.139.156-.282.312-.429.468-.139.147-.286.295-.442.442a.842.842 0 0 1-.52.234.608.608 0 0 1-.52-.169.68.68 0 0 1-.247.455.68.68 0 0 1-.481.182Zm-3.965.026a.698.698 0 0 1-.494-.195.677.677 0 0 1-.208-.52v-1.677h-1.573a.648.648 0 0 1-.455-.182.648.648 0 0 1 0-.897.624.624 0 0 1 .455-.195h1.573v-.884h-1.742a.648.648 0 0 1-.455-.182.648.648 0 0 1 0-.897.624.624 0 0 1 .455-.195h.689a27.676 27.676 0 0 0-.299-.78.552.552 0 0 1 .013-.481.64.64 0 0 1 .364-.325h-.975a.647.647 0 0 1-.455-.182.647.647 0 0 1 0-.897.624.624 0 0 1 .455-.195h1.95v-.819h-1.391a.602.602 0 0 1-.442-.182.632.632 0 0 1 0-.884.602.602 0 0 1 .442-.182h1.391v-.689c0-.217.069-.39.208-.52a.698.698 0 0 1 .494-.195c.199 0 .368.065.507.195s.208.303.208.52v.689h1.339c.173 0 .321.06.442.182a.632.632 0 0 1 0 .884.602.602 0 0 1-.442.182h-1.339v.819h1.807c.173 0 .321.065.442.195.13.121.195.269.195.442a.624.624 0 0 1-.195.455.602.602 0 0 1-.442.182h-.858c.156.06.269.169.338.325a.497.497 0 0 1 .013.455c-.017.06-.061.173-.13.338-.061.156-.126.312-.195.468h.611c.173 0 .321.065.442.195.13.121.195.269.195.442a.624.624 0 0 1-.195.455.603.603 0 0 1-.442.182h-1.586v.884h1.43c.173 0 .321.065.442.195.13.121.195.269.195.442a.624.624 0 0 1-.195.455.603.603 0 0 1-.442.182h-1.43v1.677c0 .217-.069.39-.208.52a.715.715 0 0 1-.507.195Zm-.39-5.824h.741c.043-.113.091-.251.143-.416.061-.165.113-.32.156-.468.052-.147.087-.243.104-.286a.55.55 0 0 1 .143-.26.687.687 0 0 1 .234-.156h-2.34c.173.07.299.19.377.364.035.078.078.2.13.364l.182.494c.061.156.104.277.13.364Zm5.083 4.121a9.996 9.996 0 0 0 1.066-1.157c-.425-.745-.75-1.595-.975-2.548-.052-.208-.026-.386.078-.533h-.169v4.238Zm1.872-2.522c.069-.173.134-.351.195-.533a3.2 3.2 0 0 0 .156-.559c.061-.251.056-.416-.013-.494-.061-.087-.225-.13-.494-.13h-.468a.604.604 0 0 1 .117.26c.13.511.299.997.507 1.456Zm5.616 2.86a.77.77 0 0 1-.598.117.8.8 0 0 1-.507-.364.84.84 0 0 1-.104-.611.756.756 0 0 1 .364-.494 17.914 17.914 0 0 0 2.275-1.651 18.696 18.696 0 0 0 1.95-1.95 13.466 13.466 0 0 0-.949-.611c-.303-.19-.594-.355-.871-.494a.797.797 0 0 1-.416-.455.792.792 0 0 1 .039-.611.747.747 0 0 1 .455-.403.819.819 0 0 1 .624.039c.312.147.646.334 1.001.559.364.217.732.455 1.105.715.277-.399.533-.802.767-1.209.243-.407.459-.819.65-1.235a.795.795 0 0 1 .455-.416.751.751 0 0 1 .611.026.749.749 0 0 1 .416.455.752.752 0 0 1-.026.611 17.13 17.13 0 0 1-1.612 2.691c.364.295.706.581 1.027.858.321.277.589.533.806.767a.8.8 0 0 1 .208.585.742.742 0 0 1-.247.559.775.775 0 0 1-.585.221.76.76 0 0 1-.559-.26 15.373 15.373 0 0 0-.741-.715 14.03 14.03 0 0 0-.91-.754 21.616 21.616 0 0 1-2.171 2.197 18.983 18.983 0 0 1-2.457 1.833Zm13.702.546a.824.824 0 0 1-.611.052.753.753 0 0 1-.481-.364.727.727 0 0 1-.078-.598.805.805 0 0 1 .377-.494c.893-.485 1.616-1.088 2.171-1.807.563-.719.914-1.499 1.053-2.34h-3.77a.74.74 0 0 1-.546-.221.787.787 0 0 1-.221-.559c0-.217.074-.399.221-.546a.72.72 0 0 1 .546-.234h8.619a.72.72 0 0 1 .546.234c.147.147.221.33.221.546a.787.787 0 0 1-.221.559.74.74 0 0 1-.546.221h-3.289a6.569 6.569 0 0 1-.663 2.184 7.58 7.58 0 0 1-1.365 1.924 7.407 7.407 0 0 1-1.963 1.443Zm.182-8.346a.785.785 0 0 1-.559-.221.787.787 0 0 1-.221-.559c0-.217.074-.399.221-.546a.762.762 0 0 1 .559-.234h5.538c.225 0 .412.078.559.234.147.147.221.33.221.546a.787.787 0 0 1-.221.559.758.758 0 0 1-.559.221h-5.538Zm8.307 1.04a.507.507 0 0 1-.416.13.521.521 0 0 1-.377-.221 9.213 9.213 0 0 0-.351-.481c-.147-.19-.282-.355-.403-.494a.484.484 0 0 1-.104-.351.485.485 0 0 1 .182-.351.458.458 0 0 1 .351-.13c.139.009.26.06.364.156.121.113.264.264.429.455.173.182.316.347.429.494.095.13.13.273.104.429a.526.526 0 0 1-.208.364Zm1.248-1.079a.59.59 0 0 1-.416.156.493.493 0 0 1-.377-.195 25.03 25.03 0 0 0-.39-.442 14.656 14.656 0 0 0-.429-.481.49.49 0 0 1-.143-.325.52.52 0 0 1 .169-.377.462.462 0 0 1 .338-.143.544.544 0 0 1 .377.117c.13.095.286.23.468.403.182.173.334.334.455.481a.598.598 0 0 1-.052.806Zm6.799 8.97a.674.674 0 0 1-.494-.208.653.653 0 0 1-.195-.481v-3.679a20.197 20.197 0 0 1-2.47 1.833.716.716 0 0 1-.975-.247.716.716 0 0 1-.078-.533.68.68 0 0 1 .325-.429 14.115 14.115 0 0 0 1.768-1.222 16.706 16.706 0 0 0 1.625-1.469 11.4 11.4 0 0 0 1.248-1.508.676.676 0 0 1 .442-.299.692.692 0 0 1 .533.117.68.68 0 0 1 .299.455.651.651 0 0 1-.117.52c-.156.225-.338.464-.546.715a8.83 8.83 0 0 1-.676.754v4.992a.632.632 0 0 1-.208.481.632.632 0 0 1-.481.208Zm10.127-.364a.756.756 0 0 1-.585.169.78.78 0 0 1-.533-.299.756.756 0 0 1-.169-.585.79.79 0 0 1 .299-.546 6.335 6.335 0 0 0 1.469-1.612 6.05 6.05 0 0 0 .806-2.041c.156-.737.165-1.5.026-2.288a.794.794 0 0 1 .13-.598.72.72 0 0 1 .507-.325.753.753 0 0 1 .598.117.73.73 0 0 1 .325.52.72.72 0 0 1 .026.195l.026.208c.78-.043 1.365-.108 1.755-.195.399-.095.663-.2.793-.312.139-.121.208-.243.208-.364 0-.182-.056-.32-.169-.416-.113-.104-.355-.156-.728-.156h-6.877a.807.807 0 0 1-.572-.234.763.763 0 0 1-.234-.559c0-.225.078-.412.234-.559a.807.807 0 0 1 .572-.234h6.877c1.716 0 2.574.698 2.574 2.093 0 .52-.152.953-.455 1.3-.295.338-.767.598-1.417.78-.641.182-1.486.303-2.535.364a7.74 7.74 0 0 1-.884 3.133 7.474 7.474 0 0 1-2.067 2.444Z" fill="#343436"/><defs><linearGradient id="da" x1="49" y1="16" x2="175.5" y2="16" gradientUnits="userSpaceOnUse"><stop stop-color="#C31F1F"/><stop offset="1" stop-color="#132097"/></linearGradient></defs></symbol><symbol fill="none" viewBox="0 0 207 43" id="logo-mark" xmlns="http://www.w3.org/2000/svg"><path d="M46.481 42C33.351 29.322-4.55 5.38.452 1.945 14.461-7.672 29.622 20.386 46.482 42z" fill="#135097"/><path d="M36.878 39.8c9.816-9.477 44.989-21.016 40.773-23.91-13.23-9.082-28.17 7.753-40.773 23.91z" fill="#c93a3a"/><g fill="#332d2d"><path d="M189.508 37.367c0 1.626-.49 2.834-1.47 3.623-.957.813-2.464 1.22-4.52 1.22h-6.247a1 1 0 0 1-1-1v-.69a1 1 0 0 1 1-1h6.605c.861 0 1.507-.168 1.937-.503.431-.335.646-.765.646-1.292v-1.148c0-.55-.215-.98-.646-1.29-.43-.336-1.076-.503-1.937-.503h-4.991a1 1 0 0 1-1-1v-3.357c0-.366-.206-.695-.5-.912a4.011 4.011 0 0 1-1.257-1.547c-.383-.813-.574-1.865-.574-3.157v-.897c0-2.009.49-3.468 1.47-4.376 1.005-.91 2.547-1.363 4.628-1.363h6.318a1 1 0 0 1 1 1v5.636c0 1.794-.49 3.205-1.471 4.233-.98 1.005-2.283 1.507-3.91 1.507h-1.883a.771.771 0 0 0 0 1.542h1.812c2.056 0 3.563.407 4.52 1.22.98.79 1.47 1.997 1.47 3.623zm-5.919-9.507c.742 0 1.304-.239 1.686-.717.383-.478.598-.98.646-1.507v-3.771a1 1 0 0 0-1-1h-3.628c-.884 0-1.554.203-2.008.61-.455.406-.682.98-.682 1.722v2.332c0 .74.227 1.315.682 1.722.454.406 1.124.61 2.008.61zM151.708 36.111a1 1 0 0 1-1-1V17.735c0-1.05-1.412-1.39-1.891-.456l-1.325 2.593a1 1 0 0 1-.891.545h-1.816a1 1 0 0 1-.854-.48l-2.024-3.317c-.526-.862-1.854-.489-1.854.521v17.97a1 1 0 0 1-1 1h-.869a1 1 0 0 1-1-1V12a1 1 0 0 1 1-1h3.479a1 1 0 0 1 .867.502l2.259 3.933a1 1 0 0 0 1.762-.052l1.908-3.829a.999.999 0 0 1 .895-.554h3.331a1 1 0 0 1 1 1v23.111a1 1 0 0 1-1 1zM125.836 37.69c-.287 1.076-.586 1.937-.897 2.582-.311.67-.753 1.184-1.327 1.543-.55.383-1.292.574-2.224.574-.327 0-.729-.03-1.207-.091a.97.97 0 0 1-.838-.971v-.619c0-.609.539-1.071 1.146-1.033.248.016.487.023.719.023.67 0 1.148-.538 1.435-1.614l.485-1.665a1 1 0 0 0-.017-.61l-5.706-16.304a1 1 0 0 1 .944-1.33h1.133c.448 0 .841.298.963.73l2.912 10.368c.279.993 1.697.964 1.935-.04l2.442-10.29a1 1 0 0 1 .973-.769h1.029a1 1 0 0 1 .966 1.258zM110.346 35a.837.837 0 0 1-.073.068c-.815.681-1.254 1.043-2.149 1.043h-2.475c-1.818 0-3.145-.359-3.982-1.076-.813-.741-1.22-1.997-1.22-3.767v-.717c0-3.707 1.746-5.56 5.238-5.56h2.731a1 1 0 0 0 1-1v-.794c0-.742-.228-1.316-.682-1.722-.454-.407-1.124-.61-2.009-.61h-3.843a1 1 0 0 1-1-1v-.69a1 1 0 0 1 1-1h3.484c2.081 0 3.612.454 4.592 1.363 1.004.908 1.506 2.365 1.507 4.371v.006c.001.11.083 8.217 0 8.609-.077.365-1.85 2.2-2.119 2.476zm-2.581-1.58c.718 0 1.172-.167 1.364-.502.191-.334.287-.765.287-1.291v-2.946a1 1 0 0 0-1-1h-2.767c-.622 0-1.136.203-1.543.61-.406.406-.609.92-.609 1.542v1.794c0 .622.143 1.076.43 1.363s.741.43 1.363.43zM168.322 35a.837.837 0 0 1-.073.068c-.816.681-1.254 1.043-2.149 1.043h-2.475c-1.818 0-3.145-.359-3.982-1.076-.813-.741-1.22-1.997-1.22-3.767v-.717c0-3.707 1.746-5.56 5.238-5.56h2.731a1 1 0 0 0 1-1v-.794c0-.742-.228-1.316-.682-1.722-.454-.407-1.124-.61-2.009-.61h-3.843a1 1 0 0 1-1-1v-.69a1 1 0 0 1 1-1h3.484c2.081 0 3.612.454 4.592 1.363 1.004.908 1.506 2.365 1.507 4.371v.006c.001.11.083 8.217 0 8.609-.078.365-1.85 2.2-2.119 2.476zm-2.581-1.58c.718 0 1.172-.167 1.364-.502.191-.334.287-.765.287-1.291v-2.946a1 1 0 0 0-1-1h-2.767c-.622 0-1.136.203-1.543.61-.406.406-.61.92-.61 1.542v1.794c0 .622.144 1.076.431 1.363s.741.43 1.363.43zM204.196 35a1.01 1.01 0 0 1-.073.068c-.816.681-1.255 1.043-2.15 1.043h-2.475c-1.817 0-3.145-.359-3.982-1.076-.813-.741-1.219-1.997-1.219-3.767v-.717c0-3.707 1.745-5.56 5.237-5.56h2.731a1 1 0 0 0 1-1v-.794c0-.742-.227-1.316-.682-1.722-.454-.407-1.124-.61-2.009-.61h-3.842a1 1 0 0 1-1-1v-.69a1 1 0 0 1 1-1h3.484c2.08 0 3.611.454 4.591 1.363 1.004.908 1.506 2.365 1.507 4.371v.006c.001.11.083 8.217 0 8.609-.077.365-1.85 2.2-2.118 2.476zm-2.581-1.58c.717 0 1.172-.167 1.363-.502.191-.334.287-.765.287-1.291v-2.946a1 1 0 0 0-1-1h-2.767c-.622 0-1.136.203-1.542.61-.407.406-.61.92-.61 1.542v1.794c0 .622.143 1.076.43 1.363s.742.43 1.363.43zM96.13 30.443c0 2.057-.479 3.516-1.435 4.377-.933.86-2.487 1.291-4.664 1.291H84a1 1 0 0 1-1-1V12a1 1 0 0 1 1-1h5.6c2.153 0 3.78.442 4.88 1.327 1.1.861 1.65 2.284 1.65 4.27zm-3.121-14.17c0-.789-.24-1.41-.718-1.865-.478-.478-1.112-.717-1.901-.717H87.12a1 1 0 0 0-1 1v17.73a1 1 0 0 0 1 1h3.233c.909 0 1.578-.203 2.009-.61.43-.43.646-1.1.646-2.009z"/></g></symbol><symbol fill="none" viewBox="0 0 334 63" id="logo-white" xmlns="http://www.w3.org/2000/svg"><path d="M75.234 62.422C53.982 43.579-7.366 7.995.732 2.89c22.674-14.293 47.214 27.408 74.502 59.53Z" fill="#fff"/><path d="M59.691 59.153c15.888-14.086 72.818-31.236 65.995-35.537-21.415-13.498-45.595 11.523-65.995 35.537ZM306.738 55.536c0 2.417-.794 4.212-2.381 5.385-1.548 1.208-3.987 1.812-7.316 1.812h-10.11c-.894 0-1.619-.665-1.619-1.486v-1.026c0-.82.725-1.486 1.619-1.486h10.691c1.393 0 2.439-.25 3.135-.747.697-.497 1.046-1.137 1.046-1.92v-1.705c0-.818-.349-1.457-1.046-1.92-.696-.497-1.742-.746-3.135-.746h-8.078c-.894 0-1.619-.665-1.619-1.486v-4.99c0-.543-.334-1.032-.81-1.355a6.102 6.102 0 0 1-2.035-2.3c-.619-1.208-.929-2.772-.929-4.69v-1.334c0-2.986.794-5.154 2.381-6.504 1.625-1.351 4.122-2.026 7.49-2.026h10.226c.894 0 1.619.665 1.619 1.486v8.377c0 2.666-.794 4.763-2.381 6.291-1.587 1.493-3.696 2.24-6.329 2.24h-3.048c-.689 0-1.248.513-1.248 1.146 0 .633.559 1.146 1.248 1.146h2.932c3.329 0 5.768.605 7.316 1.813 1.587 1.173 2.381 2.968 2.381 5.385v.64Zm-9.581-14.129c1.2 0 2.11-.355 2.729-1.066.62-.711.968-1.458 1.046-2.24v-5.604c0-.821-.725-1.487-1.619-1.487h-5.872c-1.432 0-2.516.302-3.251.907-.736.604-1.104 1.457-1.104 2.559v3.465c0 1.102.368 1.955 1.104 2.56.735.604 1.819.906 3.251.906h3.716ZM245.554 53.67c-.894 0-1.619-.666-1.619-1.486V26.358c0-1.561-2.285-2.067-3.059-.677l-2.146 3.854c-.277.497-.834.81-1.441.81h-2.94c-.565 0-1.088-.27-1.382-.713l-3.277-4.93c-.851-1.282-3-.727-3 .774v26.708c0 .82-.724 1.486-1.618 1.486h-1.408c-.894 0-1.619-.666-1.619-1.486v-34.35c0-.82.725-1.485 1.619-1.485h5.631c.58 0 1.115.284 1.404.746l3.656 5.845c.643 1.029 2.276.984 2.852-.078l3.088-5.69c.274-.505.835-.823 1.449-.823h5.392c.894 0 1.619.665 1.619 1.486v34.349c0 .82-.725 1.486-1.619 1.486h-1.582ZM203.678 56.016c-.465 1.6-.949 2.879-1.452 3.838-.503.996-1.219 1.76-2.148 2.293-.891.569-2.091.853-3.6.853-.529 0-1.18-.045-1.954-.135-.785-.092-1.356-.717-1.356-1.444v-.92c0-.904.873-1.591 1.856-1.534.4.023.788.034 1.163.034 1.084 0 1.858-.8 2.323-2.399l.784-2.475a1.374 1.374 0 0 0-.026-.907l-9.237-24.231c-.368-.966.413-1.977 1.528-1.977h1.834c.725 0 1.362.443 1.558 1.084l4.714 15.41c.452 1.477 2.747 1.434 3.133-.059l3.952-15.292c.173-.67.825-1.143 1.575-1.143h1.665c1.064 0 1.838.925 1.564 1.869l-7.876 27.135ZM178.607 52.018a1.475 1.475 0 0 1-.119.1c-1.32 1.014-2.03 1.552-3.478 1.552h-4.007c-2.942 0-5.09-.534-6.445-1.6-1.316-1.102-1.974-2.968-1.974-5.598v-1.066c0-5.51 2.826-8.264 8.477-8.264h4.42c.894 0 1.619-.666 1.619-1.486v-1.18c0-1.102-.368-1.955-1.103-2.56-.736-.604-1.82-.906-3.252-.906h-6.22c-.894 0-1.618-.665-1.618-1.486v-1.026c0-.82.724-1.486 1.618-1.486h5.64c3.367 0 5.845.675 7.432 2.026 1.624 1.35 2.437 3.515 2.439 6.497v.009c.001.163.134 12.212 0 12.794-.126.542-2.994 3.27-3.429 3.68Zm-4.178-2.347c1.161 0 1.897-.249 2.207-.746.309-.498.464-1.138.464-1.92v-4.378c0-.821-.725-1.487-1.619-1.487h-4.478c-1.006 0-1.838.303-2.496.907-.659.604-.988 1.368-.988 2.292v2.666c0 .924.233 1.6.697 2.026.465.427 1.2.64 2.207.64h4.006ZM272.446 52.018a1.46 1.46 0 0 1-.118.1c-1.32 1.014-2.031 1.552-3.479 1.552h-4.006c-2.942 0-5.09-.534-6.445-1.6-1.316-1.102-1.974-2.968-1.974-5.598v-1.066c0-5.51 2.825-8.264 8.477-8.264h4.42c.894 0 1.619-.666 1.619-1.486v-1.18c0-1.102-.368-1.955-1.103-2.56-.736-.604-1.82-.906-3.252-.906h-6.22c-.894 0-1.619-.665-1.619-1.486v-1.026c0-.82.725-1.486 1.619-1.486h5.639c3.368 0 5.845.675 7.433 2.026 1.624 1.35 2.437 3.515 2.438 6.497v.009c.002.163.135 12.212 0 12.794-.125.542-2.994 3.27-3.429 3.68Zm-4.177-2.347c1.161 0 1.897-.249 2.206-.746.31-.498.465-1.138.465-1.92v-4.378c0-.821-.725-1.487-1.619-1.487h-4.478c-1.006 0-1.839.303-2.497.907-.658.604-.987 1.368-.987 2.292v2.666c0 .924.232 1.6.697 2.026.464.427 1.2.64 2.206.64h4.007ZM330.511 52.018a1.46 1.46 0 0 1-.118.1c-1.321 1.014-2.031 1.552-3.479 1.552h-4.006c-2.942 0-5.091-.534-6.446-1.6-1.316-1.102-1.974-2.968-1.974-5.598v-1.066c0-5.51 2.826-8.264 8.478-8.264h4.42c.894 0 1.618-.666 1.618-1.486v-1.18c0-1.102-.367-1.955-1.103-2.56-.735-.604-1.819-.906-3.251-.906h-6.221c-.894 0-1.618-.665-1.618-1.486v-1.026c0-.82.724-1.486 1.618-1.486h5.64c3.368 0 5.845.675 7.432 2.026 1.625 1.35 2.437 3.515 2.439 6.497v.009c.002.163.134 12.212 0 12.794-.125.542-2.994 3.27-3.429 3.68Zm-4.178-2.347c1.162 0 1.897-.249 2.207-.746.309-.498.464-1.138.464-1.92v-4.378c0-.821-.724-1.487-1.618-1.487h-4.478c-1.007 0-1.839.303-2.497.907-.658.604-.987 1.368-.987 2.292v2.666c0 .924.232 1.6.696 2.026.465.427 1.2.64 2.207.64h4.006ZM155.595 45.246c0 3.057-.774 5.225-2.322 6.505-1.51 1.279-4.026 1.919-7.549 1.919h-9.762c-.894 0-1.618-.666-1.618-1.486v-34.35c0-.82.724-1.485 1.618-1.485h9.066c3.483 0 6.116.657 7.896 1.972 1.781 1.28 2.671 3.395 2.671 6.345v20.58Zm-5.051-21.06c0-1.173-.387-2.097-1.162-2.772-.774-.711-1.8-1.067-3.077-1.067h-5.291c-.894 0-1.619.666-1.619 1.486v26.352c0 .82.725 1.486 1.619 1.486h5.233c1.471 0 2.555-.302 3.251-.906.697-.64 1.046-1.635 1.046-2.986V24.186Z" fill="#fff"/></symbol></svg>