<svg width="318" height="92" viewBox="0 0 318 92" fill="none" xmlns="http://www.w3.org/2000/svg">
<g clip-path="url(#clip0_2082_4409)">
<g filter="url(#filter0_dd_2082_4409)">
<rect x="1" y="30" width="315.5" height="61" rx="11" stroke="white" stroke-width="2"/>
<g filter="url(#filter1_d_2082_4409)">
<path d="M36.488 64.544C35.656 64.592 35.176 64.256 35.048 63.536C35 63.216 35.088 62.936 35.312 62.696C35.536 62.44 35.848 62.304 36.248 62.288C37.272 62.256 38.192 62.184 39.008 62.072C39.84 61.944 40.584 61.792 41.24 61.616L40.88 61.52C39.984 61.312 39.4 60.96 39.128 60.464C38.872 59.968 38.904 59.408 39.224 58.784H36.152C35.864 58.784 35.624 58.704 35.432 58.544C35.256 58.384 35.152 58.176 35.12 57.92C35.072 57.936 35 57.944 34.904 57.944C34.536 57.944 34.216 57.824 33.944 57.584C33.672 57.344 33.536 57.016 33.536 56.6V56.096C33.536 54.864 33.832 54 34.424 53.504C35.016 52.992 36.032 52.736 37.472 52.736H42.464V51.752C42.464 51.288 42.608 50.936 42.896 50.696C43.184 50.456 43.536 50.336 43.952 50.336C44.368 50.336 44.72 50.456 45.008 50.696C45.296 50.936 45.44 51.288 45.44 51.752V52.736H50.48C51.904 52.736 52.912 52.992 53.504 53.504C54.096 54 54.392 54.864 54.392 56.096V56.6C54.392 57.016 54.256 57.344 53.984 57.584C53.728 57.824 53.416 57.944 53.048 57.944C52.952 57.944 52.88 57.936 52.832 57.92C52.784 58.176 52.664 58.384 52.472 58.544C52.296 58.704 52.064 58.784 51.776 58.784H49.256C48.648 59.584 47.96 60.304 47.192 60.944C47.896 61.136 48.616 61.336 49.352 61.544C50.088 61.752 50.824 61.968 51.56 62.192C51.896 62.288 52.144 62.488 52.304 62.792C52.464 63.08 52.48 63.408 52.352 63.776C52.224 64.128 51.984 64.368 51.632 64.496C51.296 64.624 50.952 64.624 50.6 64.496C49.688 64.144 48.744 63.808 47.768 63.488C46.792 63.152 45.808 62.84 44.816 62.552C43.744 63.096 42.528 63.536 41.168 63.872C39.808 64.208 38.248 64.432 36.488 64.544ZM44 73.4C43.6 73.4 43.264 73.272 42.992 73.016C42.72 72.76 42.584 72.424 42.584 72.008V68.504C41.944 68.984 41.224 69.472 40.424 69.968C39.624 70.448 38.808 70.888 37.976 71.288C37.16 71.704 36.376 72.056 35.624 72.344C35.224 72.504 34.848 72.544 34.496 72.464C34.16 72.4 33.904 72.192 33.728 71.84C33.552 71.488 33.528 71.144 33.656 70.808C33.8 70.456 34.056 70.216 34.424 70.088C35.368 69.768 36.392 69.336 37.496 68.792C38.616 68.248 39.64 67.696 40.568 67.136H34.064C33.744 67.136 33.488 67.032 33.296 66.824C33.12 66.616 33.032 66.368 33.032 66.08C33.032 65.792 33.12 65.544 33.296 65.336C33.488 65.128 33.744 65.024 34.064 65.024H42.584V64.472C42.584 64.056 42.72 63.72 42.992 63.464C43.264 63.208 43.6 63.08 44 63.08C44.384 63.08 44.712 63.208 44.984 63.464C45.256 63.72 45.392 64.056 45.392 64.472V65.024H53.96C54.296 65.024 54.552 65.128 54.728 65.336C54.92 65.544 55.016 65.792 55.016 66.08C55.016 66.368 54.92 66.616 54.728 66.824C54.552 67.032 54.296 67.136 53.96 67.136H47.576C48.472 67.648 49.464 68.152 50.552 68.648C51.64 69.128 52.648 69.52 53.576 69.824C53.944 69.936 54.208 70.152 54.368 70.472C54.528 70.792 54.536 71.136 54.392 71.504C54.216 71.92 53.944 72.176 53.576 72.272C53.224 72.384 52.856 72.368 52.472 72.224C51.72 71.936 50.912 71.584 50.048 71.168C49.184 70.752 48.344 70.304 47.528 69.824C46.728 69.328 46.016 68.848 45.392 68.384V72.008C45.392 72.424 45.256 72.76 44.984 73.016C44.712 73.272 44.384 73.4 44 73.4ZM43.952 56.6H51.68V56.096C51.68 55.648 51.568 55.336 51.344 55.16C51.12 54.984 50.72 54.896 50.144 54.896H45.296C45.28 54.944 45.24 55.016 45.176 55.112C45.016 55.32 44.824 55.552 44.6 55.808C44.392 56.064 44.176 56.328 43.952 56.6ZM36.272 56.6H40.904C41.144 56.312 41.384 56.024 41.624 55.736C41.864 55.432 42.088 55.152 42.296 54.896H37.808C37.216 54.896 36.808 54.984 36.584 55.16C36.376 55.336 36.272 55.648 36.272 56.096V56.6ZM44.288 60.248C44.928 59.8 45.504 59.312 46.016 58.784H42.152C41.944 59.088 41.864 59.328 41.912 59.504C41.976 59.68 42.224 59.808 42.656 59.888C42.928 59.952 43.2 60.016 43.472 60.08C43.744 60.128 44.016 60.184 44.288 60.248ZM73.688 73.04C73.288 73.04 72.936 72.904 72.632 72.632C72.344 72.36 72.2 72 72.2 71.552V64.952H66.728C66.344 64.952 66.016 64.824 65.744 64.568C65.488 64.296 65.36 63.968 65.36 63.584C65.36 63.2 65.488 62.88 65.744 62.624C66.016 62.352 66.344 62.216 66.728 62.216H72.2V58.184H69.128C68.968 58.6 68.792 59.008 68.6 59.408C68.408 59.792 68.224 60.144 68.048 60.464C67.856 60.816 67.568 61.08 67.184 61.256C66.8 61.416 66.408 61.4 66.008 61.208C65.656 61.032 65.416 60.768 65.288 60.416C65.176 60.048 65.208 59.696 65.384 59.36C65.688 58.8 66 58.144 66.32 57.392C66.656 56.64 66.968 55.88 67.256 55.112C67.544 54.328 67.768 53.648 67.928 53.072C68.04 52.656 68.272 52.36 68.624 52.184C68.976 51.992 69.336 51.952 69.704 52.064C70.12 52.192 70.416 52.416 70.592 52.736C70.768 53.056 70.792 53.424 70.664 53.84C70.584 54.096 70.496 54.368 70.4 54.656C70.32 54.944 70.232 55.224 70.136 55.496H72.2V52.304C72.2 51.856 72.344 51.496 72.632 51.224C72.936 50.952 73.288 50.816 73.688 50.816C74.104 50.816 74.448 50.952 74.72 51.224C75.008 51.496 75.152 51.856 75.152 52.304V55.496H79.112C79.48 55.496 79.792 55.632 80.048 55.904C80.32 56.16 80.456 56.472 80.456 56.84C80.456 57.208 80.32 57.528 80.048 57.8C79.792 58.056 79.48 58.184 79.112 58.184H75.152V62.216H80C80.368 62.216 80.688 62.352 80.96 62.624C81.232 62.88 81.368 63.2 81.368 63.584C81.368 63.968 81.232 64.296 80.96 64.568C80.688 64.824 80.368 64.952 80 64.952H75.152V71.552C75.152 72 75.008 72.36 74.72 72.632C74.448 72.904 74.104 73.04 73.688 73.04ZM63.32 73.112C62.936 73.112 62.608 72.984 62.336 72.728C62.08 72.472 61.952 72.144 61.952 71.744V61.28C61.776 61.552 61.6 61.824 61.424 62.096C61.248 62.352 61.072 62.608 60.896 62.864C60.672 63.168 60.368 63.352 59.984 63.416C59.6 63.48 59.248 63.408 58.928 63.2C58.624 63.008 58.44 62.728 58.376 62.36C58.312 61.976 58.384 61.632 58.592 61.328C59.04 60.704 59.504 59.984 59.984 59.168C60.48 58.336 60.96 57.472 61.424 56.576C61.888 55.68 62.312 54.816 62.696 53.984C63.08 53.136 63.384 52.384 63.608 51.728C63.768 51.296 64.016 51.008 64.352 50.864C64.688 50.704 65.048 50.688 65.432 50.816C65.8 50.944 66.056 51.168 66.2 51.488C66.36 51.808 66.368 52.168 66.224 52.568C66.032 53.128 65.8 53.72 65.528 54.344C65.272 54.968 64.992 55.6 64.688 56.24V71.744C64.688 72.144 64.552 72.472 64.28 72.728C64.008 72.984 63.688 73.112 63.32 73.112ZM98.408 70.928C98.008 71.024 97.632 70.968 97.28 70.76C96.928 70.552 96.704 70.256 96.608 69.872C96.512 69.488 96.568 69.128 96.776 68.792C96.984 68.44 97.28 68.216 97.664 68.12C99.44 67.656 100.744 66.904 101.576 65.864C102.424 64.824 102.848 63.504 102.848 61.904C102.848 60.896 102.624 59.992 102.176 59.192C101.728 58.392 101.088 57.744 100.256 57.248C99.44 56.752 98.456 56.448 97.304 56.336C97.016 59.024 96.528 61.352 95.84 63.32C95.168 65.272 94.368 66.784 93.44 67.856C92.528 68.912 91.568 69.44 90.56 69.44C89.712 69.44 88.936 69.192 88.232 68.696C87.528 68.2 86.968 67.488 86.552 66.56C86.152 65.632 85.952 64.52 85.952 63.224C85.952 61.896 86.2 60.656 86.696 59.504C87.208 58.336 87.928 57.312 88.856 56.432C89.784 55.552 90.872 54.864 92.12 54.368C93.384 53.872 94.768 53.624 96.272 53.624C98.096 53.624 99.712 53.976 101.12 54.68C102.544 55.368 103.664 56.336 104.48 57.584C105.296 58.816 105.704 60.256 105.704 61.904C105.704 64.224 105.08 66.16 103.832 67.712C102.6 69.248 100.792 70.32 98.408 70.928ZM90.584 66.488C90.872 66.488 91.2 66.248 91.568 65.768C91.952 65.272 92.336 64.576 92.72 63.68C93.104 62.784 93.456 61.728 93.776 60.512C94.096 59.28 94.336 57.92 94.496 56.432C93.248 56.672 92.2 57.136 91.352 57.824C90.504 58.496 89.864 59.304 89.432 60.248C89 61.176 88.776 62.152 88.76 63.176C88.76 64.264 88.928 65.088 89.264 65.648C89.616 66.208 90.056 66.488 90.584 66.488ZM115.832 73.04C115.48 73.04 115.176 72.92 114.92 72.68C114.664 72.44 114.536 72.12 114.536 71.72V62.984C114.04 63.048 113.568 63.104 113.12 63.152C112.688 63.2 112.312 63.24 111.992 63.272C111.592 63.32 111.248 63.248 110.96 63.056C110.688 62.864 110.528 62.576 110.48 62.192C110.432 61.808 110.52 61.488 110.744 61.232C110.968 60.96 111.28 60.816 111.68 60.8C111.808 60.784 111.952 60.776 112.112 60.776C112.272 60.76 112.432 60.744 112.592 60.728C112.816 60.456 113.072 60.12 113.36 59.72C113.664 59.304 113.984 58.872 114.32 58.424C114.032 58.216 113.68 57.968 113.264 57.68C112.848 57.376 112.44 57.088 112.04 56.816C111.64 56.528 111.328 56.32 111.104 56.192C110.816 56 110.632 55.736 110.552 55.4C110.488 55.064 110.544 54.752 110.72 54.464C110.896 54.16 111.152 53.968 111.488 53.888C111.84 53.808 112.168 53.864 112.472 54.056C112.616 54.152 112.752 54.248 112.88 54.344C113.04 54.088 113.224 53.776 113.432 53.408C113.656 53.04 113.864 52.68 114.056 52.328C114.264 51.976 114.416 51.704 114.512 51.512C114.672 51.192 114.92 50.968 115.256 50.84C115.592 50.712 115.92 50.728 116.24 50.888C116.56 51.048 116.768 51.296 116.864 51.632C116.96 51.968 116.92 52.288 116.744 52.592C116.6 52.832 116.408 53.144 116.168 53.528C115.928 53.912 115.68 54.296 115.424 54.68C115.184 55.064 114.976 55.392 114.8 55.664C115.008 55.792 115.192 55.92 115.352 56.048C115.528 56.176 115.68 56.28 115.808 56.36C116.16 55.848 116.48 55.376 116.768 54.944C117.072 54.512 117.312 54.16 117.488 53.888C117.712 53.552 117.984 53.344 118.304 53.264C118.624 53.168 118.952 53.208 119.288 53.384C119.592 53.528 119.784 53.784 119.864 54.152C119.96 54.52 119.896 54.864 119.672 55.184C119.4 55.584 119.04 56.088 118.592 56.696C118.16 57.288 117.696 57.92 117.2 58.592C116.704 59.248 116.232 59.88 115.784 60.488C116.184 60.456 116.568 60.424 116.936 60.392C117.32 60.344 117.672 60.304 117.992 60.272L117.8 59.72C117.688 59.384 117.696 59.08 117.824 58.808C117.968 58.52 118.192 58.32 118.496 58.208C118.816 58.096 119.12 58.104 119.408 58.232C119.712 58.36 119.936 58.592 120.08 58.928C120.176 59.168 120.296 59.48 120.44 59.864C120.6 60.248 120.752 60.64 120.896 61.04C121.04 61.424 121.152 61.744 121.232 62C121.344 62.352 121.328 62.688 121.184 63.008C121.04 63.312 120.792 63.528 120.44 63.656C120.088 63.768 119.76 63.744 119.456 63.584C119.152 63.424 118.96 63.192 118.88 62.888C118.848 62.728 118.8 62.568 118.736 62.408C118.288 62.472 117.76 62.544 117.152 62.624V71.72C117.152 72.12 117.024 72.44 116.768 72.68C116.512 72.92 116.2 73.04 115.832 73.04ZM126.824 72.44C125.464 72.44 124.416 72.304 123.68 72.032C122.944 71.76 122.432 71.272 122.144 70.568C121.856 69.864 121.712 68.872 121.712 67.592C121.712 66.312 121.856 65.32 122.144 64.616C122.432 63.912 122.944 63.424 123.68 63.152C124.416 62.88 125.464 62.744 126.824 62.744C128.184 62.744 129.232 62.88 129.968 63.152C130.704 63.424 131.208 63.912 131.48 64.616C131.768 65.32 131.912 66.312 131.912 67.592C131.912 68.872 131.768 69.864 131.48 70.568C131.208 71.272 130.704 71.76 129.968 72.032C129.232 72.304 128.184 72.44 126.824 72.44ZM123.152 61.88C122.848 62.104 122.504 62.208 122.12 62.192C121.736 62.16 121.432 62 121.208 61.712C121.016 61.44 120.936 61.144 120.968 60.824C121 60.504 121.144 60.248 121.4 60.056C122.392 59.32 123.104 58.488 123.536 57.56C123.984 56.616 124.264 55.488 124.376 54.176H121.808C121.44 54.176 121.144 54.056 120.92 53.816C120.712 53.576 120.608 53.296 120.608 52.976C120.608 52.656 120.712 52.384 120.92 52.16C121.128 51.92 121.408 51.8 121.76 51.8H128.96C130.176 51.8 131.04 52.072 131.552 52.616C132.08 53.16 132.312 54 132.248 55.136C132.232 55.68 132.192 56.256 132.128 56.864C132.08 57.472 132.016 58.008 131.936 58.472C131.808 59.336 131.584 60.016 131.264 60.512C130.96 60.992 130.536 61.336 129.992 61.544C129.448 61.736 128.744 61.848 127.88 61.88C127.464 61.896 127.112 61.808 126.824 61.616C126.536 61.408 126.376 61.096 126.344 60.68C126.312 60.296 126.408 59.984 126.632 59.744C126.872 59.488 127.168 59.352 127.52 59.336C128.208 59.304 128.664 59.208 128.888 59.048C129.112 58.872 129.272 58.536 129.368 58.04C129.432 57.736 129.488 57.328 129.536 56.816C129.6 56.304 129.64 55.864 129.656 55.496C129.688 54.984 129.616 54.64 129.44 54.464C129.28 54.272 128.952 54.176 128.456 54.176H126.872C126.744 55.904 126.4 57.4 125.84 58.664C125.28 59.912 124.384 60.984 123.152 61.88ZM126.824 69.896C127.496 69.896 128 69.84 128.336 69.728C128.688 69.616 128.92 69.392 129.032 69.056C129.144 68.72 129.2 68.224 129.2 67.568C129.2 66.928 129.144 66.448 129.032 66.128C128.92 65.808 128.688 65.592 128.336 65.48C128 65.352 127.496 65.288 126.824 65.288C126.152 65.288 125.64 65.344 125.288 65.456C124.952 65.568 124.72 65.784 124.592 66.104C124.48 66.424 124.424 66.904 124.424 67.544C124.424 68.184 124.48 68.672 124.592 69.008C124.72 69.344 124.952 69.576 125.288 69.704C125.64 69.832 126.152 69.896 126.824 69.896ZM111.344 70.4C111.04 70.32 110.816 70.136 110.672 69.848C110.544 69.56 110.536 69.272 110.648 68.984C110.776 68.664 110.92 68.256 111.08 67.76C111.256 67.264 111.416 66.76 111.56 66.248C111.72 65.736 111.84 65.296 111.92 64.928C112 64.592 112.168 64.352 112.424 64.208C112.68 64.048 112.96 64 113.264 64.064C113.584 64.128 113.832 64.28 114.008 64.52C114.184 64.76 114.232 65.064 114.152 65.432C114.088 65.8 113.976 66.248 113.816 66.776C113.672 67.288 113.52 67.792 113.36 68.288C113.2 68.784 113.056 69.208 112.928 69.56C112.816 69.88 112.608 70.128 112.304 70.304C112 70.464 111.68 70.496 111.344 70.4ZM120.272 69.344C119.968 69.456 119.664 69.456 119.36 69.344C119.056 69.232 118.848 69 118.736 68.648C118.656 68.376 118.544 68.024 118.4 67.592C118.256 67.144 118.112 66.696 117.968 66.248C117.84 65.8 117.736 65.44 117.656 65.168C117.576 64.816 117.624 64.52 117.8 64.28C117.976 64.024 118.216 63.864 118.52 63.8C118.84 63.72 119.128 63.76 119.384 63.92C119.64 64.064 119.808 64.288 119.888 64.592C119.968 64.848 120.072 65.176 120.2 65.576C120.344 65.976 120.488 66.376 120.632 66.776C120.776 67.176 120.888 67.496 120.968 67.736C121.096 68.088 121.096 68.416 120.968 68.72C120.84 69.008 120.608 69.216 120.272 69.344ZM138.632 61.016C138.264 61.256 137.872 61.352 137.456 61.304C137.056 61.24 136.744 61.032 136.52 60.68C136.344 60.392 136.288 60.08 136.352 59.744C136.432 59.392 136.664 59.096 137.048 58.856C137.944 58.296 138.848 57.688 139.76 57.032C140.688 56.36 141.584 55.664 142.448 54.944C143.328 54.224 144.12 53.52 144.824 52.832C145.512 52.16 146.144 51.712 146.72 51.488C147.296 51.248 147.888 51.232 148.496 51.44C149.12 51.648 149.808 52.08 150.56 52.736C151.024 53.136 151.568 53.592 152.192 54.104C152.816 54.6 153.48 55.12 154.184 55.664C154.888 56.208 155.6 56.736 156.32 57.248C157.056 57.76 157.752 58.216 158.408 58.616C158.808 58.872 159.056 59.192 159.152 59.576C159.264 59.96 159.2 60.328 158.96 60.68C158.72 61.016 158.384 61.208 157.952 61.256C157.52 61.304 157.096 61.192 156.68 60.92C156.072 60.504 155.408 60.032 154.688 59.504C153.968 58.96 153.24 58.392 152.504 57.8C151.768 57.208 151.072 56.632 150.416 56.072C149.776 55.512 149.216 55.008 148.736 54.56C148.352 54.192 148.016 54.008 147.728 54.008C147.44 53.992 147.104 54.168 146.72 54.536C146.208 55.016 145.616 55.552 144.944 56.144C144.288 56.72 143.592 57.304 142.856 57.896C142.136 58.488 141.408 59.056 140.672 59.6C139.952 60.144 139.272 60.616 138.632 61.016ZM140.576 72.152C140.08 72.392 139.632 72.456 139.232 72.344C138.848 72.248 138.552 72.016 138.344 71.648C138.136 71.248 138.128 70.864 138.32 70.496C138.528 70.128 138.824 69.864 139.208 69.704C140.36 69.176 141.24 68.544 141.848 67.808C142.456 67.056 142.864 66.112 143.072 64.976C143.296 63.84 143.392 62.424 143.36 60.728C143.344 60.376 143.464 60.064 143.72 59.792C143.976 59.52 144.304 59.384 144.704 59.384C145.12 59.384 145.464 59.528 145.736 59.816C146.008 60.088 146.144 60.392 146.144 60.728C146.176 62.808 146.008 64.576 145.64 66.032C145.288 67.488 144.696 68.704 143.864 69.68C143.048 70.656 141.952 71.48 140.576 72.152ZM151.256 72.488C150.808 72.488 150.456 72.368 150.2 72.128C149.96 71.888 149.84 71.56 149.84 71.144V60.728C149.84 60.344 149.976 60.024 150.248 59.768C150.536 59.512 150.872 59.384 151.256 59.384C151.624 59.384 151.952 59.512 152.24 59.768C152.528 60.024 152.672 60.344 152.672 60.728V71.144C152.672 71.56 152.552 71.888 152.312 72.128C152.072 72.368 151.72 72.488 151.256 72.488ZM178.88 72.08C176.736 72.384 174.928 72.496 173.456 72.416C171.984 72.352 170.8 72.136 169.904 71.768C169.024 71.4 168.384 70.912 167.984 70.304C167.584 69.68 167.384 68.976 167.384 68.192C167.384 66.992 167.864 65.872 168.824 64.832C169.8 63.792 171.208 62.88 173.048 62.096C172.792 61.776 172.48 61.56 172.112 61.448C171.312 61.208 170.52 61.296 169.736 61.712C168.968 62.128 168.216 62.736 167.48 63.536C167.208 63.824 166.848 63.984 166.4 64.016C165.968 64.032 165.616 63.896 165.344 63.608C165.088 63.304 164.968 62.952 164.984 62.552C165.016 62.152 165.184 61.824 165.488 61.568C166.272 60.896 166.96 60.168 167.552 59.384C168.16 58.6 168.672 57.792 169.088 56.96C168.4 56.976 167.752 56.992 167.144 57.008C166.552 57.008 166.04 57 165.608 56.984C165.208 56.984 164.872 56.848 164.6 56.576C164.328 56.288 164.192 55.944 164.192 55.544C164.208 55.144 164.36 54.816 164.648 54.56C164.936 54.304 165.28 54.184 165.68 54.2C166.24 54.216 166.912 54.224 167.696 54.224C168.496 54.208 169.328 54.192 170.192 54.176C170.272 53.872 170.344 53.576 170.408 53.288C170.472 53 170.528 52.712 170.576 52.424C170.64 52.024 170.816 51.704 171.104 51.464C171.392 51.208 171.736 51.104 172.136 51.152C172.536 51.2 172.856 51.376 173.096 51.68C173.336 51.984 173.432 52.336 173.384 52.736C173.368 52.944 173.336 53.16 173.288 53.384C173.24 53.608 173.184 53.832 173.12 54.056C173.728 54.024 174.296 53.992 174.824 53.96C175.352 53.912 175.824 53.856 176.24 53.792C176.64 53.744 176.992 53.84 177.296 54.08C177.616 54.304 177.8 54.616 177.848 55.016C177.896 55.416 177.792 55.768 177.536 56.072C177.296 56.376 176.984 56.544 176.6 56.576C176.008 56.64 175.328 56.696 174.56 56.744C173.792 56.792 172.992 56.832 172.16 56.864C171.808 57.648 171.424 58.384 171.008 59.072C171.392 58.992 171.76 58.968 172.112 59C172.464 59.016 172.8 59.072 173.12 59.168C173.6 59.296 174.064 59.52 174.512 59.84C174.976 60.144 175.384 60.576 175.736 61.136C176.52 60.912 177.352 60.704 178.232 60.512C179.128 60.32 180.072 60.152 181.064 60.008C181.448 59.944 181.8 60.032 182.12 60.272C182.44 60.496 182.624 60.808 182.672 61.208C182.736 61.608 182.648 61.96 182.408 62.264C182.168 62.568 181.848 62.752 181.448 62.816C180.52 62.928 179.664 63.064 178.88 63.224C178.096 63.368 177.368 63.528 176.696 63.704C176.776 64.136 176.84 64.608 176.888 65.12C176.936 65.632 176.96 66.184 176.96 66.776C176.96 67.176 176.816 67.52 176.528 67.808C176.256 68.08 175.92 68.216 175.52 68.216C175.12 68.216 174.784 68.08 174.512 67.808C174.24 67.52 174.104 67.176 174.104 66.776C174.104 65.96 174.056 65.232 173.96 64.592C172.648 65.136 171.696 65.72 171.104 66.344C170.528 66.952 170.24 67.544 170.24 68.12C170.24 68.552 170.496 68.904 171.008 69.176C171.52 69.448 172.376 69.6 173.576 69.632C174.776 69.664 176.416 69.544 178.496 69.272C178.88 69.224 179.232 69.32 179.552 69.56C179.872 69.784 180.056 70.096 180.104 70.496C180.152 70.88 180.056 71.224 179.816 71.528C179.576 71.832 179.264 72.016 178.88 72.08ZM190.448 63.776C190.064 63.776 189.736 63.648 189.464 63.392C189.208 63.136 189.08 62.8 189.08 62.384V61.376C189.08 60.176 189.344 59.304 189.872 58.76C190.416 58.216 191.416 57.912 192.872 57.848L192.848 57.776C192.784 57.68 192.688 57.528 192.56 57.32C192.448 57.096 192.328 56.872 192.2 56.648C192.088 56.424 192 56.264 191.936 56.168C191.776 55.896 191.736 55.6 191.816 55.28C191.896 54.944 192.088 54.696 192.392 54.536H191.576C191.176 54.536 190.848 54.424 190.592 54.2C190.336 53.96 190.208 53.64 190.208 53.24C190.192 52.856 190.32 52.56 190.592 52.352C190.88 52.128 191.24 52.024 191.672 52.04C192.824 52.056 194.048 52.04 195.344 51.992C196.64 51.928 197.936 51.848 199.232 51.752C200.528 51.64 201.768 51.504 202.952 51.344C204.136 51.184 205.184 51.008 206.096 50.816C206.56 50.72 206.944 50.76 207.248 50.936C207.552 51.096 207.744 51.336 207.824 51.656C207.952 52.072 207.904 52.424 207.68 52.712C207.456 53 207.184 53.184 206.864 53.264C206.656 53.296 206.448 53.336 206.24 53.384C206.032 53.416 205.816 53.448 205.592 53.48L205.616 53.504C205.952 53.632 206.184 53.864 206.312 54.2C206.44 54.52 206.424 54.864 206.264 55.232C206.152 55.488 205.96 55.872 205.688 56.384C205.432 56.896 205.184 57.384 204.944 57.848H205.664C206.784 57.848 207.656 57.952 208.28 58.16C208.92 58.368 209.368 58.72 209.624 59.216C209.896 59.712 210.032 60.384 210.032 61.232V62.384C210.032 62.8 209.896 63.136 209.624 63.392C209.352 63.648 209.024 63.776 208.64 63.776C208.256 63.776 207.928 63.648 207.656 63.392C207.384 63.136 207.248 62.8 207.248 62.384V61.304C207.248 60.84 207.136 60.528 206.912 60.368C206.688 60.192 206.248 60.104 205.592 60.104H193.496C192.84 60.104 192.4 60.192 192.176 60.368C191.952 60.528 191.84 60.84 191.84 61.304V62.384C191.84 62.8 191.704 63.136 191.432 63.392C191.16 63.648 190.832 63.776 190.448 63.776ZM190.952 72.968C190.44 73.032 190.024 72.96 189.704 72.752C189.384 72.544 189.2 72.224 189.152 71.792C189.104 71.376 189.216 71.032 189.488 70.76C189.76 70.472 190.136 70.304 190.616 70.256C191.944 70.128 193.176 69.92 194.312 69.632C195.448 69.328 196.504 68.952 197.48 68.504C196.888 67.896 196.352 67.232 195.872 66.512C195.408 65.776 195 64.976 194.648 64.112H193.664C193.344 64.112 193.064 63.992 192.824 63.752C192.6 63.512 192.488 63.224 192.488 62.888C192.488 62.568 192.6 62.288 192.824 62.048C193.064 61.808 193.344 61.688 193.664 61.688H201.776C203.04 61.688 203.976 61.936 204.584 62.432C205.192 62.912 205.48 63.52 205.448 64.256C205.432 64.976 205.104 65.712 204.464 66.464C204.144 66.848 203.8 67.216 203.432 67.568C203.08 67.904 202.72 68.232 202.352 68.552C204.048 69.384 206.2 69.88 208.808 70.04C209.288 70.056 209.664 70.216 209.936 70.52C210.208 70.808 210.328 71.16 210.296 71.576C210.2 72.504 209.608 72.928 208.52 72.848C204.984 72.656 202.056 71.824 199.736 70.352C198.568 71.008 197.256 71.552 195.8 71.984C194.344 72.432 192.728 72.76 190.952 72.968ZM200.336 57.848H202.184C202.344 57.528 202.528 57.128 202.736 56.648C202.944 56.152 203.144 55.672 203.336 55.208C203.544 54.744 203.688 54.4 203.768 54.176C203.8 54.08 203.84 54 203.888 53.936C203.952 53.856 204.016 53.784 204.08 53.72C203.328 53.832 202.528 53.928 201.68 54.008C200.848 54.088 199.992 54.168 199.112 54.248C199.32 54.344 199.48 54.512 199.592 54.752C199.64 54.848 199.72 55.032 199.832 55.304C199.96 55.56 200.08 55.816 200.192 56.072C200.32 56.328 200.4 56.496 200.432 56.576C200.64 57.072 200.608 57.496 200.336 57.848ZM195.08 57.848H198.128C198.112 57.8 198.072 57.728 198.008 57.632C197.96 57.52 197.88 57.344 197.768 57.104C197.656 56.864 197.544 56.624 197.432 56.384C197.32 56.144 197.24 55.968 197.192 55.856C197.08 55.584 197.056 55.312 197.12 55.04C197.184 54.752 197.336 54.528 197.576 54.368C196.936 54.4 196.296 54.432 195.656 54.464C195.032 54.48 194.408 54.504 193.784 54.536C193.912 54.6 194.04 54.72 194.168 54.896C194.232 54.992 194.328 55.168 194.456 55.424C194.584 55.664 194.712 55.904 194.84 56.144C194.984 56.368 195.072 56.512 195.104 56.576C195.36 57.04 195.352 57.464 195.08 57.848ZM199.976 67.016C200.68 66.504 201.328 65.912 201.92 65.24C202.208 64.92 202.304 64.656 202.208 64.448C202.112 64.224 201.808 64.112 201.296 64.112H197.624C198.248 65.248 199.032 66.216 199.976 67.016ZM227.048 71.576C226.744 71.832 226.384 71.952 225.968 71.936C225.568 71.92 225.232 71.768 224.96 71.48C224.688 71.176 224.56 70.824 224.576 70.424C224.608 70.024 224.776 69.688 225.08 69.416C225.944 68.648 226.6 67.832 227.048 66.968C227.512 66.104 227.824 65.096 227.984 63.944C228.16 62.792 228.248 61.416 228.248 59.816C227.464 59.88 226.704 59.952 225.968 60.032C225.248 60.112 224.592 60.2 224 60.296C223.6 60.36 223.24 60.288 222.92 60.08C222.6 59.856 222.4 59.552 222.32 59.168C222.256 58.768 222.328 58.408 222.536 58.088C222.76 57.768 223.072 57.576 223.472 57.512C224.08 57.416 224.8 57.328 225.632 57.248C226.48 57.168 227.352 57.096 228.248 57.032V53.744C228.248 53.344 228.384 53.008 228.656 52.736C228.928 52.448 229.264 52.304 229.664 52.304C230.064 52.304 230.4 52.448 230.672 52.736C230.944 53.008 231.08 53.344 231.08 53.744V56.864C231.64 56.832 232.16 56.816 232.64 56.816C233.136 56.816 233.56 56.816 233.912 56.816C234.312 56.832 234.648 56.984 234.92 57.272C235.192 57.56 235.312 57.904 235.28 58.304C235.264 58.704 235.104 59.032 234.8 59.288C234.512 59.544 234.168 59.664 233.768 59.648C233 59.616 232.104 59.616 231.08 59.648V59.792C231.08 61.44 230.976 62.976 230.768 64.4C230.576 65.824 230.192 67.136 229.616 68.336C229.04 69.536 228.184 70.616 227.048 71.576ZM218.96 71C218.56 71.08 218.2 71.016 217.88 70.808C217.56 70.584 217.36 70.28 217.28 69.896C217.12 69.144 216.984 68.256 216.872 67.232C216.776 66.192 216.704 65.088 216.656 63.92C216.624 62.736 216.624 61.544 216.656 60.344C216.688 59.128 216.752 57.952 216.848 56.816C216.96 55.664 217.12 54.616 217.328 53.672C217.408 53.272 217.608 52.968 217.928 52.76C218.264 52.552 218.624 52.488 219.008 52.568C219.392 52.648 219.688 52.856 219.896 53.192C220.104 53.512 220.168 53.872 220.088 54.272C219.848 55.408 219.672 56.656 219.56 58.016C219.464 59.376 219.416 60.744 219.416 62.12C219.432 63.496 219.488 64.808 219.584 66.056C219.696 67.304 219.848 68.392 220.04 69.32C220.12 69.704 220.056 70.064 219.848 70.4C219.64 70.72 219.344 70.92 218.96 71ZM251.288 72.032C249.832 72 248.68 71.648 247.832 70.976C247 70.304 246.6 69.384 246.632 68.216C246.664 67.528 246.856 66.928 247.208 66.416C247.576 65.904 248.072 65.52 248.696 65.264C249.32 64.992 250.032 64.896 250.832 64.976C252.112 65.088 253.008 65.528 253.52 66.296C254.032 67.048 254.184 67.912 253.976 68.888C254.536 68.616 254.992 68.224 255.344 67.712C255.712 67.184 255.896 66.504 255.896 65.672C255.896 65.048 255.712 64.488 255.344 63.992C254.992 63.48 254.488 63.088 253.832 62.816C253.192 62.528 252.448 62.408 251.6 62.456C250.752 62.504 249.84 62.76 248.864 63.224C247.888 63.672 246.888 64.392 245.864 65.384C245.576 65.656 245.216 65.792 244.784 65.792C244.352 65.776 244 65.608 243.728 65.288C243.472 64.984 243.352 64.64 243.368 64.256C243.4 63.856 243.568 63.544 243.872 63.32C244.864 62.568 245.856 61.776 246.848 60.944C247.84 60.096 248.784 59.264 249.68 58.448C250.592 57.632 251.392 56.888 252.08 56.216C252.512 55.8 252.656 55.456 252.512 55.184C252.384 54.912 252.04 54.816 251.48 54.896C250.936 54.96 250.312 55.04 249.608 55.136C248.92 55.232 248.272 55.32 247.664 55.4C247.28 55.464 246.928 55.376 246.608 55.136C246.288 54.896 246.104 54.576 246.056 54.176C245.992 53.792 246.08 53.448 246.32 53.144C246.56 52.824 246.88 52.632 247.28 52.568C247.632 52.52 248.072 52.472 248.6 52.424C249.144 52.376 249.696 52.328 250.256 52.28C250.832 52.232 251.32 52.192 251.72 52.16C252.76 52.08 253.608 52.216 254.264 52.568C254.92 52.92 255.368 53.4 255.608 54.008C255.848 54.6 255.856 55.248 255.632 55.952C255.424 56.656 254.968 57.32 254.264 57.944C253.944 58.216 253.536 58.568 253.04 59C252.56 59.432 252.064 59.872 251.552 60.32C252.464 60.144 253.352 60.136 254.216 60.296C255.08 60.44 255.848 60.744 256.52 61.208C257.208 61.672 257.752 62.288 258.152 63.056C258.552 63.808 258.752 64.696 258.752 65.72C258.752 67.176 258.432 68.384 257.792 69.344C257.152 70.288 256.272 70.976 255.152 71.408C254.032 71.856 252.744 72.064 251.288 72.032ZM250.856 69.368C250.888 69.368 250.936 69.368 251 69.368C251.048 69.368 251.104 69.376 251.168 69.392C251.248 69.392 251.336 69.384 251.432 69.368C251.656 68.84 251.696 68.4 251.552 68.048C251.408 67.696 251.12 67.488 250.688 67.424C250.304 67.376 249.984 67.432 249.728 67.592C249.488 67.736 249.352 67.976 249.32 68.312C249.304 68.952 249.816 69.304 250.856 69.368Z" fill="white"/>
</g>
<g filter="url(#filter2_d_2082_4409)">
<path d="M277.032 51.9877C276.488 51.4407 275.605 51.434 275.053 51.9728V51.9728C274.479 52.5326 274.488 53.4578 275.073 54.006L280.444 59.0409C281.286 59.8311 281.286 61.1689 280.444 61.9591L275.073 66.994C274.488 67.5422 274.479 68.4674 275.053 69.0272V69.0272C275.605 69.566 276.488 69.5593 277.032 69.0123L284.097 61.9105C284.873 61.1303 284.873 59.8697 284.097 59.0895L277.032 51.9877Z" fill="white"/>
<path d="M280.786 58.6762L275.415 53.6412C275.038 53.2879 275.032 52.6915 275.402 52.3307C275.758 51.9834 276.327 51.9877 276.678 52.3403L283.742 59.4421C284.325 60.0273 284.325 60.9727 283.742 61.5579L276.678 68.6597C276.327 69.0123 275.758 69.0166 275.402 68.6693C275.032 68.3085 275.038 67.7121 275.415 67.3588L280.786 62.3238C281.839 61.3362 281.839 59.6638 280.786 58.6762Z" stroke="white"/>
</g>
<path d="M0 8C0 3.58172 3.58172 0 8 0H204C208.418 0 212 3.58172 212 8V31C212 35.4183 208.418 39 204 39H0V8Z" fill="white"/>
<path d="M18.97 14.472C19.6 14.544 20.446 14.58 21.04 14.58H30.004C30.472 14.58 31.102 14.562 31.444 14.544C31.426 14.958 31.39 15.588 31.39 16.056V25.362C31.39 26.01 31.444 26.874 31.462 27.27H29.41C29.428 26.892 29.446 26.226 29.446 25.578V16.398H21.058C20.356 16.398 19.42 16.434 18.97 16.47V14.472ZM18.736 24.336C19.276 24.39 20.068 24.444 20.842 24.444H30.526V26.298H20.896C20.176 26.298 19.276 26.334 18.736 26.388V24.336ZM38.194 13.608C39.454 14.454 41.776 16.326 42.802 17.37L41.362 18.828C40.444 17.856 38.194 15.912 36.862 15.012L38.194 13.608ZM36.34 25.632C39.328 25.2 41.668 24.174 43.396 23.13C46.312 21.348 48.562 18.648 49.642 16.326L50.74 18.306C49.462 20.628 47.23 23.094 44.44 24.822C42.622 25.938 40.336 27 37.528 27.504L36.34 25.632ZM65.176 18.882C65.176 23.526 64.114 26.1 59.902 27.972L58.39 26.532C61.756 25.308 63.34 23.76 63.34 18.972V14.418C63.34 13.716 63.286 13.122 63.232 12.87H65.284C65.248 13.122 65.176 13.716 65.176 14.418V18.882ZM58.678 12.996C58.642 13.248 58.588 13.788 58.588 14.436V20.97C58.588 21.69 58.642 22.464 58.66 22.716H56.662C56.698 22.464 56.752 21.708 56.752 20.97V14.436C56.752 14.004 56.716 13.464 56.662 12.996H58.678ZM53.134 16.38C53.35 16.416 54.178 16.524 54.988 16.524H66.868C67.732 16.524 68.308 16.47 68.668 16.416V18.306C68.38 18.288 67.732 18.252 66.868 18.252H54.988C54.16 18.252 53.422 18.306 53.134 18.324V16.38ZM79.252 26.622C79.324 26.316 79.396 25.884 79.396 25.47C79.396 24.588 79.396 16.092 79.396 14.814C79.396 14.076 79.288 13.482 79.27 13.392H81.376C81.358 13.482 81.268 14.094 81.268 14.832C81.268 16.092 81.268 23.994 81.268 24.786C82.852 24.084 84.868 22.536 86.182 20.628L87.262 22.194C85.732 24.228 83.194 26.118 81.142 27.144C80.8 27.324 80.602 27.486 80.458 27.612L79.252 26.622ZM70.972 26.46C72.52 25.362 73.546 23.742 74.068 22.086C74.59 20.484 74.608 16.974 74.608 14.886C74.608 14.274 74.554 13.842 74.464 13.428H76.552C76.534 13.59 76.444 14.238 76.444 14.868C76.444 16.92 76.39 20.754 75.904 22.572C75.364 24.534 74.212 26.298 72.7 27.594L70.972 26.46ZM95.578 18.684C97.846 19.998 100.96 22.158 102.688 23.562L101.338 25.164C99.718 23.652 96.496 21.312 94.318 19.962L95.578 18.684ZM103.912 15.498C103.732 15.786 103.534 16.236 103.408 16.596C102.868 18.36 101.752 20.7 100.15 22.68C98.494 24.732 96.154 26.694 92.734 27.972L91.096 26.55C94.624 25.47 96.946 23.562 98.548 21.69C99.862 20.142 100.978 17.946 101.356 16.398H94.948L95.632 14.778H101.086C101.608 14.778 102.094 14.706 102.436 14.598L103.912 15.498ZM97.9 12.816C97.522 13.356 97.144 14.058 96.946 14.418C95.812 16.488 93.67 19.224 90.916 21.114L89.404 19.944C92.518 18 94.282 15.408 95.146 13.788C95.38 13.428 95.704 12.708 95.83 12.168L97.9 12.816ZM110.194 13.608C111.454 14.454 113.776 16.326 114.802 17.37L113.362 18.828C112.444 17.856 110.194 15.912 108.862 15.012L110.194 13.608ZM108.34 25.632C111.328 25.2 113.668 24.174 115.396 23.13C118.312 21.348 120.562 18.648 121.642 16.326L122.74 18.306C121.462 20.628 119.23 23.094 116.44 24.822C114.622 25.938 112.336 27 109.528 27.504L108.34 25.632ZM129.868 25.362C129.868 24.192 129.868 16.452 129.868 14.94C129.868 14.382 129.832 13.536 129.724 12.942H131.938C131.866 13.536 131.794 14.31 131.794 14.94C131.794 17.388 131.812 24.3 131.812 25.362C131.812 25.902 131.866 27 131.938 27.666H129.724C129.832 27.018 129.868 26.046 129.868 25.362ZM131.38 17.64C133.774 18.324 137.518 19.71 139.408 20.646L138.616 22.59C136.564 21.51 133.342 20.286 131.38 19.656V17.64ZM152.35 14.706C152.116 16.56 151.756 18.666 151.162 20.664C150.064 24.336 148.588 26.388 146.788 26.388C145.006 26.388 143.386 24.39 143.386 21.384C143.386 17.37 146.914 13.896 151.432 13.896C155.752 13.896 158.488 16.92 158.488 20.7C158.488 24.48 156.076 27.072 151.684 27.684L150.622 26.01C151.252 25.938 151.774 25.848 152.224 25.758C154.528 25.218 156.598 23.526 156.598 20.628C156.598 17.766 154.708 15.552 151.396 15.552C147.49 15.552 145.186 18.738 145.186 21.222C145.186 23.292 146.086 24.246 146.842 24.246C147.652 24.246 148.498 23.058 149.344 20.286C149.866 18.576 150.262 16.524 150.442 14.652L152.35 14.706ZM160.9 14.832H177.1V16.452H160.9V14.832ZM166.84 19.152H173.896V20.772H166.84V19.152ZM173.266 19.152H175.03C175.03 19.152 175.012 19.692 174.976 19.926C174.634 25.002 174.256 27 173.554 27.756C173.068 28.26 172.582 28.404 171.826 28.476C171.178 28.512 169.972 28.494 168.766 28.44C168.73 27.954 168.478 27.252 168.154 26.766C169.432 26.892 170.71 26.892 171.196 26.892C171.61 26.892 171.844 26.874 172.06 26.676C172.618 26.19 172.978 24.156 173.266 19.422V19.152ZM166.3 15.768H168.208C167.938 20.556 167.434 25.884 161.872 28.62C161.62 28.17 161.098 27.558 160.648 27.198C165.886 24.804 166.12 19.98 166.3 15.768ZM168.028 11.754H169.792V15.498H168.028V11.754ZM178.846 21.888C179.332 21.51 179.746 21.132 180.25 20.61C181.15 19.674 182.608 17.712 183.688 16.434C184.84 15.12 185.866 14.958 187.108 16.2C188.26 17.334 189.664 19.152 190.78 20.358C191.896 21.582 193.57 23.346 195.226 24.822L193.768 26.514C192.436 25.254 190.852 23.454 189.664 22.086C188.512 20.754 187.144 19.026 186.316 18.09C185.596 17.316 185.254 17.424 184.678 18.144C183.886 19.134 182.5 21.024 181.654 22.104C181.258 22.626 180.844 23.22 180.556 23.634L178.846 21.888Z" fill="#135097"/>
</g>
</g>
<defs>
<filter id="filter0_dd_2082_4409" x="-44" y="-34" width="405.5" height="194" filterUnits="userSpaceOnUse" color-interpolation-filters="sRGB">
<feFlood flood-opacity="0" result="BackgroundImageFix"/>
<feColorMatrix in="SourceAlpha" type="matrix" values="0 0 0 0 0 0 0 0 0 0 0 0 0 0 0 0 0 0 127 0" result="hardAlpha"/>
<feOffset dy="24"/>
<feGaussianBlur stdDeviation="22"/>
<feComposite in2="hardAlpha" operator="out"/>
<feColorMatrix type="matrix" values="0 0 0 0 0 0 0 0 0 0 0 0 0 0 0 0 0 0 0.05 0"/>
<feBlend mode="normal" in2="BackgroundImageFix" result="effect1_dropShadow_2082_4409"/>
<feColorMatrix in="SourceAlpha" type="matrix" values="0 0 0 0 0 0 0 0 0 0 0 0 0 0 0 0 0 0 127 0" result="hardAlpha"/>
<feOffset/>
<feGaussianBlur stdDeviation="17"/>
<feComposite in2="hardAlpha" operator="out"/>
<feColorMatrix type="matrix" values="0 0 0 0 0 0 0 0 0 0 0 0 0 0 0 0 0 0 0.05 0"/>
<feBlend mode="normal" in2="effect1_dropShadow_2082_4409" result="effect2_dropShadow_2082_4409"/>
<feBlend mode="normal" in="SourceGraphic" in2="effect2_dropShadow_2082_4409" result="shape"/>
</filter>
<filter id="filter1_d_2082_4409" x="29.0322" y="47.336" width="233.72" height="31.064" filterUnits="userSpaceOnUse" color-interpolation-filters="sRGB">
<feFlood flood-opacity="0" result="BackgroundImageFix"/>
<feColorMatrix in="SourceAlpha" type="matrix" values="0 0 0 0 0 0 0 0 0 0 0 0 0 0 0 0 0 0 127 0" result="hardAlpha"/>
<feOffset dy="1"/>
<feGaussianBlur stdDeviation="2"/>
<feComposite in2="hardAlpha" operator="out"/>
<feColorMatrix type="matrix" values="0 0 0 0 0 0 0 0 0 0 0 0 0 0 0 0 0 0 0.15 0"/>
<feBlend mode="normal" in2="BackgroundImageFix" result="effect1_dropShadow_2082_4409"/>
<feBlend mode="normal" in="SourceGraphic" in2="effect1_dropShadow_2082_4409" result="shape"/>
</filter>
<filter id="filter2_d_2082_4409" x="270.628" y="48.5731" width="18.0508" height="25.8539" filterUnits="userSpaceOnUse" color-interpolation-filters="sRGB">
<feFlood flood-opacity="0" result="BackgroundImageFix"/>
<feColorMatrix in="SourceAlpha" type="matrix" values="0 0 0 0 0 0 0 0 0 0 0 0 0 0 0 0 0 0 127 0" result="hardAlpha"/>
<feOffset dy="1"/>
<feGaussianBlur stdDeviation="2"/>
<feComposite in2="hardAlpha" operator="out"/>
<feColorMatrix type="matrix" values="0 0 0 0 0 0 0 0 0 0 0 0 0 0 0 0 0 0 0.15 0"/>
<feBlend mode="normal" in2="BackgroundImageFix" result="effect1_dropShadow_2082_4409"/>
<feBlend mode="normal" in="SourceGraphic" in2="effect1_dropShadow_2082_4409" result="shape"/>
</filter>
<clipPath id="clip0_2082_4409">
<rect width="317.5" height="92" fill="white"/>
</clipPath>
</defs>
</svg>
