<svg width="392" height="92" viewBox="0 0 392 92" fill="none" xmlns="http://www.w3.org/2000/svg">
<g clip-path="url(#clip0_2082_4404)">
<g filter="url(#filter0_dd_2082_4404)">
<rect x="0.5" y="29.5" width="391" height="62" rx="7.5" fill="white"/>
<rect x="0.5" y="29.5" width="391" height="62" rx="7.5" stroke="white"/>
<path d="M39.44 71.408C39.072 71.568 38.696 71.568 38.312 71.408C37.928 71.264 37.648 71.008 37.472 70.64C37.312 70.256 37.304 69.872 37.448 69.488C37.592 69.088 37.848 68.808 38.216 68.648C40.712 67.528 42.816 66.184 44.528 64.616C46.256 63.048 47.512 61.344 48.296 59.504C48.648 58.704 48.704 58.104 48.464 57.704C48.224 57.288 47.632 57.08 46.688 57.08H37.688C37.288 57.08 36.944 56.936 36.656 56.648C36.368 56.344 36.224 55.992 36.224 55.592C36.224 55.176 36.368 54.824 36.656 54.536C36.944 54.248 37.288 54.104 37.688 54.104H46.808C48.28 54.104 49.416 54.376 50.216 54.92C51.032 55.448 51.512 56.192 51.656 57.152C51.8 58.096 51.608 59.208 51.08 60.488C50.136 62.728 48.672 64.792 46.688 66.68C44.72 68.552 42.304 70.128 39.44 71.408ZM54.344 56.912C53.672 56.912 53.096 56.68 52.616 56.216C52.152 55.736 51.92 55.16 51.92 54.488C51.92 53.816 52.152 53.248 52.616 52.784C53.096 52.304 53.672 52.064 54.344 52.064C55 52.064 55.56 52.304 56.024 52.784C56.504 53.248 56.744 53.816 56.744 54.488C56.744 55.16 56.504 55.736 56.024 56.216C55.56 56.68 55 56.912 54.344 56.912ZM54.344 55.52C54.632 55.52 54.872 55.424 55.064 55.232C55.272 55.024 55.376 54.776 55.376 54.488C55.376 54.2 55.272 53.96 55.064 53.768C54.872 53.56 54.632 53.456 54.344 53.456C54.056 53.456 53.808 53.56 53.6 53.768C53.392 53.96 53.288 54.2 53.288 54.488C53.288 54.776 53.392 55.024 53.6 55.232C53.808 55.424 54.056 55.52 54.344 55.52ZM68.84 69.56C67.192 69.56 65.832 69.44 64.76 69.2C63.704 68.96 62.88 68.56 62.288 68C61.696 67.44 61.28 66.696 61.04 65.768C60.816 64.84 60.704 63.688 60.704 62.312C60.704 60.936 60.816 59.784 61.04 58.856C61.28 57.928 61.696 57.184 62.288 56.624C62.88 56.064 63.704 55.664 64.76 55.424C65.832 55.184 67.192 55.064 68.84 55.064C70.504 55.064 71.864 55.184 72.92 55.424C73.976 55.664 74.8 56.064 75.392 56.624C75.984 57.184 76.392 57.928 76.616 58.856C76.856 59.784 76.976 60.936 76.976 62.312C76.976 63.688 76.856 64.84 76.616 65.768C76.392 66.696 75.984 67.44 75.392 68C74.8 68.56 73.976 68.96 72.92 69.2C71.864 69.44 70.504 69.56 68.84 69.56ZM68.84 66.632C69.976 66.632 70.88 66.576 71.552 66.464C72.24 66.336 72.76 66.12 73.112 65.816C73.48 65.512 73.72 65.08 73.832 64.52C73.96 63.944 74.024 63.208 74.024 62.312C74.024 61.416 73.96 60.688 73.832 60.128C73.72 59.552 73.48 59.112 73.112 58.808C72.76 58.504 72.24 58.296 71.552 58.184C70.88 58.056 69.976 57.992 68.84 57.992C67.72 57.992 66.816 58.056 66.128 58.184C65.44 58.296 64.912 58.504 64.544 58.808C64.192 59.112 63.952 59.552 63.824 60.128C63.712 60.688 63.656 61.416 63.656 62.312C63.656 63.208 63.712 63.944 63.824 64.52C63.952 65.08 64.192 65.512 64.544 65.816C64.912 66.12 65.44 66.336 66.128 66.464C66.816 66.576 67.72 66.632 68.84 66.632ZM87.344 70.856C86.944 70.968 86.56 70.936 86.192 70.76C85.84 70.568 85.6 70.272 85.472 69.872C85.36 69.488 85.392 69.112 85.568 68.744C85.76 68.376 86.048 68.136 86.432 68.024C87.664 67.64 88.92 67.104 90.2 66.416C91.496 65.728 92.744 64.944 93.944 64.064C95.16 63.168 96.272 62.224 97.28 61.232C98.304 60.24 99.152 59.248 99.824 58.256C100.048 57.92 100.36 57.712 100.76 57.632C101.16 57.552 101.528 57.632 101.864 57.872C102.216 58.096 102.424 58.408 102.488 58.808C102.568 59.208 102.496 59.576 102.272 59.912C101.536 61 100.6 62.104 99.464 63.224C98.328 64.328 97.08 65.384 95.72 66.392C94.36 67.384 92.96 68.272 91.52 69.056C90.08 69.824 88.688 70.424 87.344 70.856ZM90.776 58.64C90.552 58.448 90.232 58.208 89.816 57.92C89.416 57.632 89 57.352 88.568 57.08C88.136 56.792 87.76 56.568 87.44 56.408C87.088 56.216 86.856 55.92 86.744 55.52C86.632 55.12 86.68 54.744 86.888 54.392C87.096 54.024 87.4 53.792 87.8 53.696C88.2 53.6 88.576 53.648 88.928 53.84C89.28 54.032 89.704 54.296 90.2 54.632C90.712 54.952 91.208 55.28 91.688 55.616C92.168 55.952 92.544 56.24 92.816 56.48C93.12 56.752 93.272 57.096 93.272 57.512C93.288 57.928 93.16 58.288 92.888 58.592C92.6 58.896 92.256 59.048 91.856 59.048C91.456 59.048 91.096 58.912 90.776 58.64ZM88.232 63.08C88.008 62.904 87.68 62.688 87.248 62.432C86.832 62.16 86.392 61.896 85.928 61.64C85.48 61.384 85.096 61.184 84.776 61.04C84.408 60.864 84.16 60.576 84.032 60.176C83.904 59.776 83.928 59.4 84.104 59.048C84.296 58.68 84.584 58.44 84.968 58.328C85.368 58.2 85.744 58.224 86.096 58.4C86.48 58.576 86.928 58.808 87.44 59.096C87.968 59.384 88.48 59.688 88.976 60.008C89.472 60.312 89.864 60.576 90.152 60.8C90.472 61.056 90.648 61.392 90.68 61.808C90.712 62.208 90.592 62.568 90.32 62.888C90.064 63.208 89.728 63.384 89.312 63.416C88.912 63.448 88.552 63.336 88.232 63.08ZM99.632 56.744C99.44 56.952 99.192 57.056 98.888 57.056C98.6 57.04 98.36 56.92 98.168 56.696C97.96 56.472 97.704 56.208 97.4 55.904C97.112 55.584 96.84 55.304 96.584 55.064C96.424 54.92 96.336 54.72 96.32 54.464C96.304 54.208 96.392 53.976 96.584 53.768C96.76 53.592 96.976 53.496 97.232 53.48C97.488 53.464 97.72 53.528 97.928 53.672C98.184 53.848 98.48 54.096 98.816 54.416C99.168 54.72 99.456 55 99.68 55.256C99.888 55.464 99.984 55.712 99.968 56C99.952 56.288 99.84 56.536 99.632 56.744ZM100.28 54.56C100.072 54.352 99.808 54.104 99.488 53.816C99.168 53.512 98.872 53.256 98.6 53.048C98.424 52.904 98.32 52.704 98.288 52.448C98.256 52.192 98.328 51.96 98.504 51.752C98.664 51.544 98.864 51.432 99.104 51.416C99.36 51.384 99.6 51.432 99.824 51.56C100.096 51.72 100.408 51.944 100.76 52.232C101.128 52.504 101.44 52.768 101.696 53.024C101.904 53.216 102.008 53.456 102.008 53.744C102.024 54.032 101.936 54.288 101.744 54.512C101.568 54.72 101.328 54.832 101.024 54.848C100.736 54.864 100.488 54.768 100.28 54.56ZM111.104 69.728C110.752 69.728 110.448 69.6 110.192 69.344C109.936 69.072 109.808 68.76 109.808 68.408C109.808 68.04 109.936 67.736 110.192 67.496C110.448 67.24 110.752 67.112 111.104 67.112H116.528V63.104H113.24C112.888 63.104 112.584 62.976 112.328 62.72C112.072 62.448 111.944 62.136 111.944 61.784C111.944 61.416 112.072 61.112 112.328 60.872C112.584 60.616 112.888 60.488 113.24 60.488H122.36C122.728 60.488 123.04 60.616 123.296 60.872C123.552 61.112 123.68 61.416 123.68 61.784C123.68 62.136 123.552 62.448 123.296 62.72C123.04 62.976 122.728 63.104 122.36 63.104H119.12V67.112H124.592C124.96 67.112 125.264 67.24 125.504 67.496C125.76 67.736 125.888 68.04 125.888 68.408C125.888 68.76 125.76 69.072 125.504 69.344C125.264 69.6 124.96 69.728 124.592 69.728H111.104ZM136.472 71.816C136.088 71.976 135.704 71.976 135.32 71.816C134.952 71.672 134.68 71.416 134.504 71.048C134.344 70.68 134.336 70.304 134.48 69.92C134.64 69.536 134.904 69.264 135.272 69.104C137.928 67.936 140.224 66.488 142.16 64.76C144.096 63.032 145.624 61.064 146.744 58.856C147.016 58.344 147.064 57.96 146.888 57.704C146.728 57.448 146.32 57.32 145.664 57.32H142.472C141.704 58.344 140.848 59.344 139.904 60.32C138.96 61.28 137.976 62.112 136.952 62.816C136.632 63.056 136.264 63.144 135.848 63.08C135.448 63 135.128 62.792 134.888 62.456C134.664 62.12 134.584 61.752 134.648 61.352C134.728 60.936 134.936 60.616 135.272 60.392C136.168 59.784 137.04 59.056 137.888 58.208C138.736 57.36 139.504 56.472 140.192 55.544C140.896 54.6 141.448 53.68 141.848 52.784C142.008 52.416 142.28 52.16 142.664 52.016C143.048 51.856 143.424 51.864 143.792 52.04C144.16 52.2 144.416 52.472 144.56 52.856C144.72 53.24 144.712 53.616 144.536 53.984C144.472 54.144 144.392 54.304 144.296 54.464H145.952C147.856 54.464 149.12 54.952 149.744 55.928C150.384 56.904 150.304 58.224 149.504 59.888C148.688 61.584 147.616 63.192 146.288 64.712C144.976 66.232 143.488 67.6 141.824 68.816C140.16 70.016 138.376 71.016 136.472 71.816ZM165.296 72.032C164.896 72.032 164.552 71.888 164.264 71.6C163.976 71.312 163.832 70.968 163.832 70.568V53.984C163.832 53.568 163.976 53.224 164.264 52.952C164.552 52.664 164.896 52.52 165.296 52.52C165.712 52.52 166.064 52.664 166.352 52.952C166.64 53.224 166.784 53.568 166.784 53.984V59.768C166.992 59.448 167.28 59.24 167.648 59.144C168.016 59.032 168.376 59.064 168.728 59.24C169.672 59.736 170.632 60.304 171.608 60.944C172.6 61.584 173.456 62.208 174.176 62.816C174.496 63.072 174.672 63.416 174.704 63.848C174.752 64.264 174.64 64.632 174.368 64.952C174.112 65.256 173.776 65.432 173.36 65.48C172.944 65.512 172.576 65.4 172.256 65.144C171.808 64.792 171.288 64.416 170.696 64.016C170.12 63.616 169.536 63.232 168.944 62.864C168.368 62.48 167.84 62.152 167.36 61.88C167.104 61.736 166.912 61.56 166.784 61.352V70.568C166.784 70.968 166.64 71.312 166.352 71.6C166.064 71.888 165.712 72.032 165.296 72.032ZM193.808 70.928C193.408 71.024 193.032 70.968 192.68 70.76C192.328 70.552 192.104 70.256 192.008 69.872C191.912 69.488 191.968 69.128 192.176 68.792C192.384 68.44 192.68 68.216 193.064 68.12C194.84 67.656 196.144 66.904 196.976 65.864C197.824 64.824 198.248 63.504 198.248 61.904C198.248 60.896 198.024 59.992 197.576 59.192C197.128 58.392 196.488 57.744 195.656 57.248C194.84 56.752 193.856 56.448 192.704 56.336C192.416 59.024 191.928 61.352 191.24 63.32C190.568 65.272 189.768 66.784 188.84 67.856C187.928 68.912 186.968 69.44 185.96 69.44C185.112 69.44 184.336 69.192 183.632 68.696C182.928 68.2 182.368 67.488 181.952 66.56C181.552 65.632 181.352 64.52 181.352 63.224C181.352 61.896 181.6 60.656 182.096 59.504C182.608 58.336 183.328 57.312 184.256 56.432C185.184 55.552 186.272 54.864 187.52 54.368C188.784 53.872 190.168 53.624 191.672 53.624C193.496 53.624 195.112 53.976 196.52 54.68C197.944 55.368 199.064 56.336 199.88 57.584C200.696 58.816 201.104 60.256 201.104 61.904C201.104 64.224 200.48 66.16 199.232 67.712C198 69.248 196.192 70.32 193.808 70.928ZM185.984 66.488C186.272 66.488 186.6 66.248 186.968 65.768C187.352 65.272 187.736 64.576 188.12 63.68C188.504 62.784 188.856 61.728 189.176 60.512C189.496 59.28 189.736 57.92 189.896 56.432C188.648 56.672 187.6 57.136 186.752 57.824C185.904 58.496 185.264 59.304 184.832 60.248C184.4 61.176 184.176 62.152 184.16 63.176C184.16 64.264 184.328 65.088 184.664 65.648C185.016 66.208 185.456 66.488 185.984 66.488ZM220.472 72.08C219.16 72.08 218.128 71.936 217.376 71.648C216.64 71.376 216.112 70.904 215.792 70.232C215.488 69.544 215.336 68.608 215.336 67.424V56.48C215.336 55.296 215.488 54.368 215.792 53.696C216.112 53.008 216.64 52.528 217.376 52.256C218.128 51.968 219.16 51.824 220.472 51.824C221.784 51.824 222.808 51.968 223.544 52.256C224.296 52.528 224.824 53.008 225.128 53.696C225.448 54.368 225.608 55.296 225.608 56.48V67.424C225.608 68.608 225.448 69.544 225.128 70.232C224.824 70.904 224.296 71.376 223.544 71.648C222.808 71.936 221.784 72.08 220.472 72.08ZM210.272 72.968C209.888 72.968 209.56 72.84 209.288 72.584C209.032 72.344 208.904 72.016 208.904 71.6V63.848C208.552 64.456 208.2 65.04 207.848 65.6C207.496 66.144 207.168 66.624 206.864 67.04C206.624 67.36 206.312 67.56 205.928 67.64C205.544 67.704 205.192 67.608 204.872 67.352C204.568 67.128 204.392 66.832 204.344 66.464C204.296 66.08 204.392 65.744 204.632 65.456C204.952 65.056 205.312 64.552 205.712 63.944C206.112 63.336 206.512 62.688 206.912 62C207.328 61.296 207.712 60.624 208.064 59.984C208.416 59.328 208.696 58.768 208.904 58.304V58.184H205.928C205.544 58.184 205.24 58.064 205.016 57.824C204.792 57.584 204.68 57.288 204.68 56.936C204.68 56.6 204.792 56.312 205.016 56.072C205.24 55.816 205.544 55.688 205.928 55.688H208.904V52.16C208.904 51.744 209.032 51.416 209.288 51.176C209.56 50.92 209.888 50.792 210.272 50.792C210.64 50.792 210.952 50.92 211.208 51.176C211.48 51.416 211.616 51.744 211.616 52.16V55.688H213.44C213.808 55.688 214.104 55.816 214.328 56.072C214.552 56.312 214.664 56.6 214.664 56.936C214.664 57.288 214.552 57.584 214.328 57.824C214.104 58.064 213.808 58.184 213.44 58.184H211.616V59.816C211.872 60.104 212.2 60.472 212.6 60.92C213.016 61.352 213.424 61.776 213.824 62.192C214.24 62.592 214.56 62.904 214.784 63.128C215.056 63.384 215.2 63.688 215.216 64.04C215.232 64.392 215.12 64.704 214.88 64.976C214.64 65.232 214.336 65.36 213.968 65.36C213.616 65.36 213.32 65.232 213.08 64.976C212.904 64.784 212.68 64.544 212.408 64.256C212.152 63.952 211.888 63.648 211.616 63.344V71.6C211.616 72.016 211.48 72.344 211.208 72.584C210.952 72.84 210.64 72.968 210.272 72.968ZM218.096 63.584H222.848V60.128H218.096V63.584ZM220.472 69.56C221.128 69.56 221.624 69.496 221.96 69.368C222.296 69.24 222.528 69.024 222.656 68.72C222.784 68.4 222.848 67.952 222.848 67.376V66.032H218.096V67.376C218.096 67.952 218.152 68.4 218.264 68.72C218.392 69.024 218.624 69.24 218.96 69.368C219.312 69.496 219.816 69.56 220.472 69.56ZM218.096 57.68H222.848V56.528C222.848 55.952 222.784 55.512 222.656 55.208C222.528 54.888 222.296 54.672 221.96 54.56C221.624 54.432 221.128 54.368 220.472 54.368C219.816 54.368 219.312 54.432 218.96 54.56C218.624 54.672 218.392 54.888 218.264 55.208C218.152 55.512 218.096 55.952 218.096 56.528V57.68ZM239.216 72.896C238.816 73.056 238.432 73.08 238.064 72.968C237.696 72.872 237.424 72.632 237.248 72.248C237.088 71.912 237.08 71.568 237.224 71.216C237.384 70.864 237.64 70.624 237.992 70.496C238.952 70.144 239.744 69.752 240.368 69.32C241.008 68.872 241.512 68.336 241.88 67.712C242.248 67.088 242.504 66.328 242.648 65.432C242.808 64.536 242.888 63.456 242.888 62.192C242.888 61.792 243.016 61.48 243.272 61.256C243.544 61.032 243.856 60.928 244.208 60.944C244.576 60.944 244.888 61.064 245.144 61.304C245.4 61.528 245.52 61.848 245.504 62.264C245.472 63.048 245.424 63.776 245.36 64.448C245.728 65.76 246.328 66.904 247.16 67.88C247.992 68.84 249.12 69.632 250.544 70.256C250.912 70.416 251.152 70.664 251.264 71C251.376 71.352 251.344 71.712 251.168 72.08C250.976 72.448 250.68 72.688 250.28 72.8C249.896 72.912 249.52 72.872 249.152 72.68C248.08 72.12 247.152 71.48 246.368 70.76C245.6 70.024 244.96 69.168 244.448 68.192C243.968 69.312 243.304 70.24 242.456 70.976C241.608 71.696 240.528 72.336 239.216 72.896ZM239.888 62.384C239.536 62.544 239.168 62.584 238.784 62.504C238.416 62.408 238.144 62.184 237.968 61.832C237.808 61.496 237.784 61.168 237.896 60.848C238.024 60.512 238.272 60.264 238.64 60.104C239.76 59.624 240.616 59.04 241.208 58.352C241.816 57.664 242.232 56.808 242.456 55.784C242.696 54.744 242.824 53.488 242.84 52.016C242.84 51.616 242.976 51.304 243.248 51.08C243.52 50.856 243.832 50.752 244.184 50.768C244.552 50.784 244.856 50.904 245.096 51.128C245.352 51.352 245.472 51.672 245.456 52.088C245.44 52.52 245.416 52.936 245.384 53.336C245.368 53.72 245.336 54.096 245.288 54.464C245.64 55.68 246.24 56.728 247.088 57.608C247.936 58.488 249.056 59.248 250.448 59.888C250.768 60.032 250.976 60.272 251.072 60.608C251.168 60.944 251.12 61.28 250.928 61.616C250.736 61.968 250.456 62.184 250.088 62.264C249.72 62.344 249.352 62.304 248.984 62.144C246.936 61.136 245.4 59.736 244.376 57.944C243.944 58.936 243.36 59.792 242.624 60.512C241.888 61.216 240.976 61.84 239.888 62.384ZM233.576 72.44C232.68 72.44 231.968 72.336 231.44 72.128C230.928 71.936 230.568 71.584 230.36 71.072C230.152 70.56 230.048 69.832 230.048 68.888C230.048 67.912 230.152 67.168 230.36 66.656C230.568 66.144 230.928 65.8 231.44 65.624C231.968 65.432 232.68 65.336 233.576 65.336C234.488 65.336 235.2 65.432 235.712 65.624C236.224 65.8 236.584 66.144 236.792 66.656C237 67.168 237.104 67.912 237.104 68.888C237.104 69.832 237 70.56 236.792 71.072C236.584 71.584 236.224 71.936 235.712 72.128C235.2 72.336 234.488 72.44 233.576 72.44ZM230.096 57.464C229.792 57.464 229.528 57.352 229.304 57.128C229.096 56.904 228.992 56.64 228.992 56.336C228.992 56.032 229.096 55.776 229.304 55.568C229.528 55.344 229.792 55.232 230.096 55.232H236.672C236.976 55.232 237.232 55.344 237.44 55.568C237.664 55.776 237.776 56.032 237.776 56.336C237.776 56.64 237.664 56.904 237.44 57.128C237.232 57.352 236.976 57.464 236.672 57.464H230.096ZM231.176 54.104C230.872 54.104 230.608 53.992 230.384 53.768C230.16 53.528 230.048 53.256 230.048 52.952C230.048 52.632 230.16 52.36 230.384 52.136C230.608 51.912 230.872 51.8 231.176 51.8H235.808C236.128 51.8 236.392 51.912 236.6 52.136C236.824 52.36 236.936 52.632 236.936 52.952C236.936 53.256 236.824 53.528 236.6 53.768C236.392 53.992 236.128 54.104 235.808 54.104H231.176ZM231.152 64.232C230.848 64.232 230.584 64.12 230.36 63.896C230.136 63.672 230.024 63.408 230.024 63.104C230.024 62.784 230.136 62.52 230.36 62.312C230.584 62.088 230.848 61.976 231.152 61.976H235.832C236.152 61.976 236.416 62.088 236.624 62.312C236.832 62.52 236.936 62.784 236.936 63.104C236.936 63.408 236.832 63.672 236.624 63.896C236.416 64.12 236.152 64.232 235.832 64.232H231.152ZM231.152 60.848C230.848 60.848 230.584 60.736 230.36 60.512C230.136 60.288 230.024 60.024 230.024 59.72C230.024 59.4 230.136 59.136 230.36 58.928C230.584 58.704 230.848 58.592 231.152 58.592H235.832C236.152 58.592 236.416 58.704 236.624 58.928C236.832 59.136 236.936 59.4 236.936 59.72C236.936 60.024 236.832 60.288 236.624 60.512C236.416 60.736 236.152 60.848 235.832 60.848H231.152ZM239.144 67.952C238.792 67.856 238.544 67.664 238.4 67.376C238.256 67.072 238.24 66.76 238.352 66.44C238.432 66.2 238.52 65.912 238.616 65.576C238.712 65.224 238.808 64.88 238.904 64.544C239.016 64.192 239.096 63.912 239.144 63.704C239.224 63.336 239.408 63.072 239.696 62.912C239.984 62.752 240.296 62.712 240.632 62.792C240.968 62.856 241.224 63.024 241.4 63.296C241.592 63.568 241.648 63.888 241.568 64.256C241.52 64.496 241.448 64.8 241.352 65.168C241.256 65.536 241.152 65.896 241.04 66.248C240.944 66.6 240.856 66.888 240.776 67.112C240.664 67.464 240.448 67.72 240.128 67.88C239.824 68.04 239.496 68.064 239.144 67.952ZM239.264 57.416C238.912 57.336 238.664 57.152 238.52 56.864C238.376 56.56 238.352 56.248 238.448 55.928C238.528 55.688 238.616 55.4 238.712 55.064C238.808 54.712 238.896 54.36 238.976 54.008C239.072 53.656 239.136 53.376 239.168 53.168C239.248 52.8 239.424 52.536 239.696 52.376C239.984 52.216 240.304 52.168 240.656 52.232C240.992 52.296 241.256 52.456 241.448 52.712C241.64 52.968 241.696 53.28 241.616 53.648C241.568 53.904 241.496 54.216 241.4 54.584C241.32 54.952 241.232 55.312 241.136 55.664C241.056 56.016 240.976 56.312 240.896 56.552C240.784 56.904 240.576 57.16 240.272 57.32C239.968 57.48 239.632 57.512 239.264 57.416ZM247.304 56.84C247 56.68 246.8 56.448 246.704 56.144C246.624 55.824 246.664 55.512 246.824 55.208C246.968 54.92 247.152 54.536 247.376 54.056C247.616 53.576 247.808 53.184 247.952 52.88C248.096 52.56 248.32 52.344 248.624 52.232C248.944 52.12 249.272 52.136 249.608 52.28C249.928 52.408 250.144 52.624 250.256 52.928C250.384 53.216 250.376 53.528 250.232 53.864C250.152 54.056 250.04 54.312 249.896 54.632C249.752 54.936 249.6 55.248 249.44 55.568C249.296 55.872 249.168 56.128 249.056 56.336C248.88 56.64 248.624 56.84 248.288 56.936C247.952 57.032 247.624 57 247.304 56.84ZM247.328 67.304C247.024 67.128 246.824 66.88 246.728 66.56C246.648 66.24 246.688 65.928 246.848 65.624C247.008 65.352 247.192 64.992 247.4 64.544C247.624 64.08 247.808 63.704 247.952 63.416C248.096 63.08 248.32 62.856 248.624 62.744C248.944 62.616 249.272 62.624 249.608 62.768C249.928 62.896 250.152 63.112 250.28 63.416C250.408 63.704 250.4 64.024 250.256 64.376C250.176 64.568 250.064 64.816 249.92 65.12C249.776 65.424 249.624 65.728 249.464 66.032C249.32 66.32 249.192 66.568 249.08 66.776C248.92 67.096 248.664 67.304 248.312 67.4C247.976 67.496 247.648 67.464 247.328 67.304ZM233.576 70.208C234.008 70.208 234.288 70.128 234.416 69.968C234.544 69.808 234.608 69.448 234.608 68.888C234.608 68.328 234.544 67.968 234.416 67.808C234.288 67.632 234.008 67.544 233.576 67.544C233.16 67.544 232.88 67.632 232.736 67.808C232.608 67.968 232.544 68.328 232.544 68.888C232.544 69.448 232.608 69.808 232.736 69.968C232.88 70.128 233.16 70.208 233.576 70.208ZM269.96 72.08C267.816 72.384 266.008 72.496 264.536 72.416C263.064 72.352 261.88 72.136 260.984 71.768C260.104 71.4 259.464 70.912 259.064 70.304C258.664 69.68 258.464 68.976 258.464 68.192C258.464 66.992 258.944 65.872 259.904 64.832C260.88 63.792 262.288 62.88 264.128 62.096C263.872 61.776 263.56 61.56 263.192 61.448C262.392 61.208 261.6 61.296 260.816 61.712C260.048 62.128 259.296 62.736 258.56 63.536C258.288 63.824 257.928 63.984 257.48 64.016C257.048 64.032 256.696 63.896 256.424 63.608C256.168 63.304 256.048 62.952 256.064 62.552C256.096 62.152 256.264 61.824 256.568 61.568C257.352 60.896 258.04 60.168 258.632 59.384C259.24 58.6 259.752 57.792 260.168 56.96C259.48 56.976 258.832 56.992 258.224 57.008C257.632 57.008 257.12 57 256.688 56.984C256.288 56.984 255.952 56.848 255.68 56.576C255.408 56.288 255.272 55.944 255.272 55.544C255.288 55.144 255.44 54.816 255.728 54.56C256.016 54.304 256.36 54.184 256.76 54.2C257.32 54.216 257.992 54.224 258.776 54.224C259.576 54.208 260.408 54.192 261.272 54.176C261.352 53.872 261.424 53.576 261.488 53.288C261.552 53 261.608 52.712 261.656 52.424C261.72 52.024 261.896 51.704 262.184 51.464C262.472 51.208 262.816 51.104 263.216 51.152C263.616 51.2 263.936 51.376 264.176 51.68C264.416 51.984 264.512 52.336 264.464 52.736C264.448 52.944 264.416 53.16 264.368 53.384C264.32 53.608 264.264 53.832 264.2 54.056C264.808 54.024 265.376 53.992 265.904 53.96C266.432 53.912 266.904 53.856 267.32 53.792C267.72 53.744 268.072 53.84 268.376 54.08C268.696 54.304 268.88 54.616 268.928 55.016C268.976 55.416 268.872 55.768 268.616 56.072C268.376 56.376 268.064 56.544 267.68 56.576C267.088 56.64 266.408 56.696 265.64 56.744C264.872 56.792 264.072 56.832 263.24 56.864C262.888 57.648 262.504 58.384 262.088 59.072C262.472 58.992 262.84 58.968 263.192 59C263.544 59.016 263.88 59.072 264.2 59.168C264.68 59.296 265.144 59.52 265.592 59.84C266.056 60.144 266.464 60.576 266.816 61.136C267.6 60.912 268.432 60.704 269.312 60.512C270.208 60.32 271.152 60.152 272.144 60.008C272.528 59.944 272.88 60.032 273.2 60.272C273.52 60.496 273.704 60.808 273.752 61.208C273.816 61.608 273.728 61.96 273.488 62.264C273.248 62.568 272.928 62.752 272.528 62.816C271.6 62.928 270.744 63.064 269.96 63.224C269.176 63.368 268.448 63.528 267.776 63.704C267.856 64.136 267.92 64.608 267.968 65.12C268.016 65.632 268.04 66.184 268.04 66.776C268.04 67.176 267.896 67.52 267.608 67.808C267.336 68.08 267 68.216 266.6 68.216C266.2 68.216 265.864 68.08 265.592 67.808C265.32 67.52 265.184 67.176 265.184 66.776C265.184 65.96 265.136 65.232 265.04 64.592C263.728 65.136 262.776 65.72 262.184 66.344C261.608 66.952 261.32 67.544 261.32 68.12C261.32 68.552 261.576 68.904 262.088 69.176C262.6 69.448 263.456 69.6 264.656 69.632C265.856 69.664 267.496 69.544 269.576 69.272C269.96 69.224 270.312 69.32 270.632 69.56C270.952 69.784 271.136 70.096 271.184 70.496C271.232 70.88 271.136 71.224 270.896 71.528C270.656 71.832 270.344 72.016 269.96 72.08ZM286.736 72.68C286.352 72.792 285.976 72.784 285.608 72.656C285.256 72.544 284.992 72.312 284.816 71.96C284.656 71.592 284.64 71.216 284.768 70.832C284.896 70.448 285.144 70.184 285.512 70.04C286.728 69.576 287.672 69.056 288.344 68.48C289.016 67.904 289.488 67.24 289.76 66.488C289.216 66.744 288.68 66.872 288.152 66.872C286.888 66.872 285.856 66.552 285.056 65.912C284.256 65.256 283.856 64.296 283.856 63.032C283.856 61.768 284.272 60.776 285.104 60.056C285.936 59.336 286.984 58.976 288.248 58.976C288.36 58.976 288.464 58.984 288.56 59C288.656 59 288.76 59.008 288.872 59.024C288.824 58.752 288.784 58.472 288.752 58.184C288.736 57.896 288.72 57.592 288.704 57.272C287.104 57.336 285.528 57.432 283.976 57.56C282.44 57.672 281.008 57.792 279.68 57.92C279.296 57.952 278.952 57.856 278.648 57.632C278.344 57.392 278.168 57.08 278.12 56.696C278.088 56.296 278.192 55.944 278.432 55.64C278.672 55.336 278.984 55.176 279.368 55.16C280.728 55.048 282.208 54.952 283.808 54.872C285.408 54.776 287.032 54.696 288.68 54.632V52.568C288.68 52.168 288.816 51.832 289.088 51.56C289.36 51.288 289.696 51.152 290.096 51.152C290.512 51.152 290.856 51.288 291.128 51.56C291.4 51.832 291.536 52.168 291.536 52.568V54.536C292.864 54.504 294.136 54.48 295.352 54.464C296.568 54.432 297.688 54.408 298.712 54.392C299.112 54.392 299.44 54.536 299.696 54.824C299.968 55.112 300.096 55.448 300.08 55.832C300.064 56.232 299.912 56.56 299.624 56.816C299.352 57.072 299.016 57.192 298.616 57.176C296.568 57.096 294.208 57.096 291.536 57.176C291.552 57.736 291.576 58.296 291.608 58.856C291.656 59.416 291.696 59.952 291.728 60.464C292.496 61.376 292.88 62.616 292.88 64.184C292.88 66.184 292.352 67.936 291.296 69.44C290.256 70.944 288.736 72.024 286.736 72.68ZM288.152 64.4C288.616 64.384 288.976 64.264 289.232 64.04C289.504 63.8 289.64 63.456 289.64 63.008C289.64 62.88 289.624 62.736 289.592 62.576C289.576 62.416 289.552 62.256 289.52 62.096C289.184 61.696 288.744 61.496 288.2 61.496C287.752 61.496 287.368 61.632 287.048 61.904C286.744 62.16 286.592 62.52 286.592 62.984C286.592 63.448 286.736 63.808 287.024 64.064C287.328 64.304 287.704 64.416 288.152 64.4ZM313.568 72.032C312.112 72 310.96 71.648 310.112 70.976C309.28 70.304 308.88 69.384 308.912 68.216C308.944 67.528 309.136 66.928 309.488 66.416C309.856 65.904 310.352 65.52 310.976 65.264C311.6 64.992 312.312 64.896 313.112 64.976C314.392 65.088 315.288 65.528 315.8 66.296C316.312 67.048 316.464 67.912 316.256 68.888C316.816 68.616 317.272 68.224 317.624 67.712C317.992 67.184 318.176 66.504 318.176 65.672C318.176 65.048 317.992 64.488 317.624 63.992C317.272 63.48 316.768 63.088 316.112 62.816C315.472 62.528 314.728 62.408 313.88 62.456C313.032 62.504 312.12 62.76 311.144 63.224C310.168 63.672 309.168 64.392 308.144 65.384C307.856 65.656 307.496 65.792 307.064 65.792C306.632 65.776 306.28 65.608 306.008 65.288C305.752 64.984 305.632 64.64 305.648 64.256C305.68 63.856 305.848 63.544 306.152 63.32C307.144 62.568 308.136 61.776 309.128 60.944C310.12 60.096 311.064 59.264 311.96 58.448C312.872 57.632 313.672 56.888 314.36 56.216C314.792 55.8 314.936 55.456 314.792 55.184C314.664 54.912 314.32 54.816 313.76 54.896C313.216 54.96 312.592 55.04 311.888 55.136C311.2 55.232 310.552 55.32 309.944 55.4C309.56 55.464 309.208 55.376 308.888 55.136C308.568 54.896 308.384 54.576 308.336 54.176C308.272 53.792 308.36 53.448 308.6 53.144C308.84 52.824 309.16 52.632 309.56 52.568C309.912 52.52 310.352 52.472 310.88 52.424C311.424 52.376 311.976 52.328 312.536 52.28C313.112 52.232 313.6 52.192 314 52.16C315.04 52.08 315.888 52.216 316.544 52.568C317.2 52.92 317.648 53.4 317.888 54.008C318.128 54.6 318.136 55.248 317.912 55.952C317.704 56.656 317.248 57.32 316.544 57.944C316.224 58.216 315.816 58.568 315.32 59C314.84 59.432 314.344 59.872 313.832 60.32C314.744 60.144 315.632 60.136 316.496 60.296C317.36 60.44 318.128 60.744 318.8 61.208C319.488 61.672 320.032 62.288 320.432 63.056C320.832 63.808 321.032 64.696 321.032 65.72C321.032 67.176 320.712 68.384 320.072 69.344C319.432 70.288 318.552 70.976 317.432 71.408C316.312 71.856 315.024 72.064 313.568 72.032ZM313.136 69.368C313.168 69.368 313.216 69.368 313.28 69.368C313.328 69.368 313.384 69.376 313.448 69.392C313.528 69.392 313.616 69.384 313.712 69.368C313.936 68.84 313.976 68.4 313.832 68.048C313.688 67.696 313.4 67.488 312.968 67.424C312.584 67.376 312.264 67.432 312.008 67.592C311.768 67.736 311.632 67.976 311.6 68.312C311.584 68.952 312.096 69.304 313.136 69.368Z" fill="#135097"/>
<path d="M349.286 58.6762L343.915 53.6412C343.538 53.2879 343.532 52.6915 343.902 52.3307C344.258 51.9834 344.827 51.9877 345.178 52.3403L352.242 59.4421C352.825 60.0273 352.825 60.9727 352.242 61.5579L345.178 68.6597C344.827 69.0123 344.258 69.0166 343.902 68.6693C343.532 68.3085 343.538 67.7121 343.915 67.3588L349.286 62.3238C350.339 61.3362 350.339 59.6638 349.286 58.6762Z" fill="#135097" stroke="#135097"/>
<path d="M8 0.5H312C316.142 0.5 319.5 3.85786 319.5 8V31C319.5 35.1421 316.142 38.5 312 38.5H0.5V8C0.5 3.85786 3.85786 0.5 8 0.5Z" fill="#2A84BF"/>
<path d="M8 0.5H312C316.142 0.5 319.5 3.85786 319.5 8V31C319.5 35.1421 316.142 38.5 312 38.5H0.5V8C0.5 3.85786 3.85786 0.5 8 0.5Z" stroke="white"/>
<path d="M18.97 14.472C19.6 14.544 20.446 14.58 21.04 14.58H30.004C30.472 14.58 31.102 14.562 31.444 14.544C31.426 14.958 31.39 15.588 31.39 16.056V25.362C31.39 26.01 31.444 26.874 31.462 27.27H29.41C29.428 26.892 29.446 26.226 29.446 25.578V16.398H21.058C20.356 16.398 19.42 16.434 18.97 16.47V14.472ZM18.736 24.336C19.276 24.39 20.068 24.444 20.842 24.444H30.526V26.298H20.896C20.176 26.298 19.276 26.334 18.736 26.388V24.336ZM38.194 13.608C39.454 14.454 41.776 16.326 42.802 17.37L41.362 18.828C40.444 17.856 38.194 15.912 36.862 15.012L38.194 13.608ZM36.34 25.632C39.328 25.2 41.668 24.174 43.396 23.13C46.312 21.348 48.562 18.648 49.642 16.326L50.74 18.306C49.462 20.628 47.23 23.094 44.44 24.822C42.622 25.938 40.336 27 37.528 27.504L36.34 25.632ZM65.176 18.882C65.176 23.526 64.114 26.1 59.902 27.972L58.39 26.532C61.756 25.308 63.34 23.76 63.34 18.972V14.418C63.34 13.716 63.286 13.122 63.232 12.87H65.284C65.248 13.122 65.176 13.716 65.176 14.418V18.882ZM58.678 12.996C58.642 13.248 58.588 13.788 58.588 14.436V20.97C58.588 21.69 58.642 22.464 58.66 22.716H56.662C56.698 22.464 56.752 21.708 56.752 20.97V14.436C56.752 14.004 56.716 13.464 56.662 12.996H58.678ZM53.134 16.38C53.35 16.416 54.178 16.524 54.988 16.524H66.868C67.732 16.524 68.308 16.47 68.668 16.416V18.306C68.38 18.288 67.732 18.252 66.868 18.252H54.988C54.16 18.252 53.422 18.306 53.134 18.324V16.38ZM79.252 26.622C79.324 26.316 79.396 25.884 79.396 25.47C79.396 24.588 79.396 16.092 79.396 14.814C79.396 14.076 79.288 13.482 79.27 13.392H81.376C81.358 13.482 81.268 14.094 81.268 14.832C81.268 16.092 81.268 23.994 81.268 24.786C82.852 24.084 84.868 22.536 86.182 20.628L87.262 22.194C85.732 24.228 83.194 26.118 81.142 27.144C80.8 27.324 80.602 27.486 80.458 27.612L79.252 26.622ZM70.972 26.46C72.52 25.362 73.546 23.742 74.068 22.086C74.59 20.484 74.608 16.974 74.608 14.886C74.608 14.274 74.554 13.842 74.464 13.428H76.552C76.534 13.59 76.444 14.238 76.444 14.868C76.444 16.92 76.39 20.754 75.904 22.572C75.364 24.534 74.212 26.298 72.7 27.594L70.972 26.46ZM95.578 18.684C97.846 19.998 100.96 22.158 102.688 23.562L101.338 25.164C99.718 23.652 96.496 21.312 94.318 19.962L95.578 18.684ZM103.912 15.498C103.732 15.786 103.534 16.236 103.408 16.596C102.868 18.36 101.752 20.7 100.15 22.68C98.494 24.732 96.154 26.694 92.734 27.972L91.096 26.55C94.624 25.47 96.946 23.562 98.548 21.69C99.862 20.142 100.978 17.946 101.356 16.398H94.948L95.632 14.778H101.086C101.608 14.778 102.094 14.706 102.436 14.598L103.912 15.498ZM97.9 12.816C97.522 13.356 97.144 14.058 96.946 14.418C95.812 16.488 93.67 19.224 90.916 21.114L89.404 19.944C92.518 18 94.282 15.408 95.146 13.788C95.38 13.428 95.704 12.708 95.83 12.168L97.9 12.816ZM110.194 13.608C111.454 14.454 113.776 16.326 114.802 17.37L113.362 18.828C112.444 17.856 110.194 15.912 108.862 15.012L110.194 13.608ZM108.34 25.632C111.328 25.2 113.668 24.174 115.396 23.13C118.312 21.348 120.562 18.648 121.642 16.326L122.74 18.306C121.462 20.628 119.23 23.094 116.44 24.822C114.622 25.938 112.336 27 109.528 27.504L108.34 25.632ZM129.868 25.362C129.868 24.192 129.868 16.452 129.868 14.94C129.868 14.382 129.832 13.536 129.724 12.942H131.938C131.866 13.536 131.794 14.31 131.794 14.94C131.794 17.388 131.812 24.3 131.812 25.362C131.812 25.902 131.866 27 131.938 27.666H129.724C129.832 27.018 129.868 26.046 129.868 25.362ZM131.38 17.64C133.774 18.324 137.518 19.71 139.408 20.646L138.616 22.59C136.564 21.51 133.342 20.286 131.38 19.656V17.64ZM150.478 12.69C150.334 13.374 150.118 14.382 149.632 15.642C149.218 16.632 148.606 17.766 147.994 18.612C148.588 18.288 149.596 18.09 150.298 18.09C151.738 18.09 152.836 18.936 152.836 20.502C152.836 21.438 152.89 23.472 152.908 24.588H151.18C151.252 23.688 151.27 21.96 151.252 21.024C151.252 19.926 150.532 19.494 149.668 19.494C148.588 19.494 147.454 20.07 146.698 20.772C146.158 21.294 145.654 21.942 145.042 22.698L143.512 21.564C145.996 19.224 147.274 17.208 147.94 15.48C148.318 14.49 148.552 13.41 148.606 12.528L150.478 12.69ZM144.052 14.508C144.988 14.634 146.284 14.706 147.148 14.706C149.542 14.706 152.728 14.562 155.302 14.112L155.284 15.768C152.764 16.146 149.29 16.29 147.04 16.29C146.284 16.29 145.042 16.254 144.052 16.182V14.508ZM158.02 19.188C157.516 19.332 156.724 19.638 156.184 19.836C154.96 20.322 153.286 20.988 151.558 21.87C149.848 22.77 148.75 23.652 148.75 24.786C148.75 26.01 149.902 26.244 151.72 26.244C153.178 26.244 155.14 26.064 156.724 25.776L156.67 27.612C155.374 27.774 153.286 27.918 151.666 27.918C148.984 27.918 146.914 27.306 146.914 25.056C146.914 22.734 149.29 21.33 151.45 20.232C153.124 19.35 154.438 18.846 155.59 18.324C156.202 18.054 156.724 17.82 157.3 17.514L158.02 19.188ZM167.578 12.528C167.524 12.852 167.47 13.464 167.452 13.914C167.38 15.12 167.308 17.532 167.308 19.314C167.308 21.222 167.398 24.174 167.398 25.254C167.398 27.162 166.714 27.72 165.634 27.72C164.086 27.72 161.692 26.298 161.692 24.552C161.692 22.896 163.87 21.168 166.228 20.304C167.83 19.692 169.63 19.386 171.034 19.386C173.734 19.386 175.75 20.808 175.75 23.112C175.75 25.272 174.49 26.748 171.844 27.396C171.034 27.576 170.242 27.612 169.558 27.648L168.91 25.83C169.648 25.83 170.422 25.83 171.07 25.704C172.6 25.416 173.914 24.624 173.914 23.112C173.914 21.708 172.654 20.934 171.016 20.934C169.45 20.934 167.92 21.276 166.444 21.87C164.752 22.518 163.456 23.616 163.456 24.48C163.456 25.182 164.536 25.794 165.13 25.794C165.508 25.794 165.76 25.578 165.76 24.966C165.76 23.976 165.652 21.474 165.652 19.386C165.652 17.334 165.706 14.706 165.706 13.932C165.706 13.572 165.652 12.834 165.598 12.528H167.578ZM172.978 14.508C174.292 15.174 176.308 16.38 177.226 17.082L176.344 18.54C175.462 17.748 173.302 16.452 172.168 15.876L172.978 14.508ZM162.07 15.624C163.096 15.75 163.798 15.768 164.446 15.768C166.264 15.768 169.09 15.408 170.908 14.868L170.962 16.632C169.018 17.082 166.102 17.442 164.5 17.442C163.402 17.442 162.718 17.424 162.106 17.352L162.07 15.624ZM184.426 21.132H195.118V22.662H184.426V21.132ZM190.348 14.688H191.878V17.64C191.878 18.036 191.95 18.09 192.346 18.09C192.508 18.09 193.336 18.09 193.552 18.09C193.912 18.09 193.984 17.91 194.02 16.596C194.326 16.848 194.956 17.064 195.388 17.172C195.226 18.99 194.812 19.458 193.732 19.458C193.444 19.458 192.382 19.458 192.112 19.458C190.654 19.458 190.348 19.026 190.348 17.64V14.688ZM184.66 12.726H195.028V16.092H193.498V14.202H186.136V16.164H184.66V12.726ZM188.872 19.242H190.546V28.512H188.872V19.242ZM187.468 14.724H189.016C188.854 17.496 188.206 19.044 185.11 19.872C184.966 19.512 184.57 18.936 184.264 18.666C186.892 18.036 187.342 16.92 187.468 14.724ZM191.068 21.852C192.004 23.67 193.84 25.488 195.64 26.406C195.28 26.712 194.758 27.306 194.488 27.738C192.616 26.604 190.798 24.498 189.754 22.338L191.068 21.852ZM188.422 21.708L189.754 22.158C188.656 24.588 186.694 26.73 184.48 27.846C184.228 27.45 183.742 26.856 183.382 26.55C185.488 25.632 187.45 23.742 188.422 21.708ZM178.432 21.024C179.854 20.664 181.978 20.034 184.012 19.422L184.246 20.97C182.374 21.582 180.394 22.194 178.846 22.662L178.432 21.024ZM178.702 15.354H184.192V16.92H178.702V15.354ZM180.808 11.826H182.374V26.64C182.374 27.504 182.212 27.954 181.708 28.206C181.24 28.476 180.502 28.53 179.35 28.53C179.296 28.116 179.098 27.414 178.882 26.946C179.62 26.982 180.286 26.982 180.502 26.964C180.718 26.964 180.808 26.892 180.808 26.64V11.826ZM202.354 12.87C202.264 13.536 202.192 14.292 202.156 14.94C202.084 16.938 201.94 21.096 201.94 23.58C201.94 25.488 203.11 26.136 204.694 26.136C207.844 26.136 209.716 24.354 211.012 22.446L212.308 23.994C211.102 25.722 208.672 28.044 204.658 28.044C201.904 28.044 200.068 26.874 200.068 23.868C200.068 21.312 200.248 16.686 200.248 14.94C200.248 14.202 200.194 13.464 200.068 12.852L202.354 12.87ZM224.35 14.706C224.116 16.56 223.756 18.666 223.162 20.664C222.064 24.336 220.588 26.388 218.788 26.388C217.006 26.388 215.386 24.39 215.386 21.384C215.386 17.37 218.914 13.896 223.432 13.896C227.752 13.896 230.488 16.92 230.488 20.7C230.488 24.48 228.076 27.072 223.684 27.684L222.622 26.01C223.252 25.938 223.774 25.848 224.224 25.758C226.528 25.218 228.598 23.526 228.598 20.628C228.598 17.766 226.708 15.552 223.396 15.552C219.49 15.552 217.186 18.738 217.186 21.222C217.186 23.292 218.086 24.246 218.842 24.246C219.652 24.246 220.498 23.058 221.344 20.286C221.866 18.576 222.262 16.524 222.442 14.652L224.35 14.706ZM240.91 13.446C239.452 15.714 236.59 18.396 233.548 20.16C233.332 19.764 232.846 19.152 232.468 18.792C235.6 17.1 238.57 14.166 239.956 11.754H241.702C243.61 14.598 246.688 17.226 249.568 18.576C249.154 19.008 248.74 19.584 248.416 20.088C245.608 18.486 242.512 15.786 240.91 13.446ZM241.036 20.826H247.03V22.356H241.036V20.826ZM233.332 26.478H248.704V28.026H233.332V26.478ZM240.19 16.758H241.99V27.288H240.19V16.758ZM235.474 19.962H237.148V27.252H235.474V19.962ZM251.08 22.878H266.974V24.3H251.08V22.878ZM251.134 14.904H266.902V16.326H251.134V14.904ZM251.872 18.054H266.236V19.422H251.872V18.054ZM252.772 20.502H265.372V21.78H252.772V20.502ZM258.118 18.72H259.81V28.53H258.118V18.72ZM256.498 11.79H258.1V15.588H256.498V11.79ZM259.882 11.79H261.502V15.498H259.882V11.79ZM257.704 23.49L259.054 24.102C257.362 25.974 254.392 27.522 251.674 28.26C251.44 27.846 250.936 27.18 250.576 26.838C253.258 26.262 256.192 24.966 257.704 23.49ZM260.242 23.436C261.736 24.966 264.67 26.244 267.442 26.766C267.046 27.126 266.542 27.828 266.29 28.296C263.5 27.558 260.602 25.956 258.91 23.994L260.242 23.436ZM264.04 11.988L265.804 12.438C265.264 13.428 264.634 14.436 264.148 15.138L262.762 14.688C263.212 13.95 263.77 12.798 264.04 11.988ZM261.646 15.822L263.428 16.254C262.96 17.082 262.492 17.892 262.114 18.468L260.674 18.054C261.016 17.406 261.448 16.47 261.646 15.822ZM252.52 12.456L253.978 11.952C254.554 12.744 255.184 13.842 255.436 14.562L253.906 15.138C253.672 14.418 253.06 13.284 252.52 12.456ZM254.842 16.416L256.48 16.128C256.84 16.686 257.218 17.442 257.38 17.964L255.67 18.288C255.526 17.784 255.184 16.974 254.842 16.416ZM275.128 13.968H284.974V15.336H275.128V13.968ZM275.632 16.362H284.578V17.676H275.632V16.362ZM274.768 18.792H285.262V20.214H274.768V18.792ZM282.22 11.79L283.912 12.222C283.444 13.032 282.958 13.86 282.58 14.4L281.248 14.004C281.59 13.374 282.022 12.42 282.22 11.79ZM276.388 12.312L277.738 11.862C278.17 12.492 278.62 13.356 278.8 13.914L277.378 14.436C277.216 13.878 276.802 12.978 276.388 12.312ZM283.804 20.718L285.1 21.636C284.326 22.5 283.372 23.418 282.634 24.03L281.536 23.184C282.238 22.554 283.246 21.492 283.804 20.718ZM275.254 21.546L276.424 20.79C277.108 21.474 277.9 22.428 278.26 23.076L277.036 23.94C276.694 23.274 275.92 22.284 275.254 21.546ZM274.066 26.046C275.182 25.524 276.838 24.66 278.44 23.796L278.89 25.164C277.522 25.974 276.028 26.82 274.84 27.486L274.066 26.046ZM279.196 14.904H280.834V26.73C280.834 27.576 280.69 28.008 280.168 28.26C279.646 28.53 278.8 28.548 277.684 28.548C277.63 28.116 277.432 27.432 277.216 27.018C277.936 27.036 278.674 27.036 278.908 27.036C279.142 27.036 279.196 26.946 279.196 26.73V14.904ZM280.744 20.646C281.572 23.202 283.246 25.398 285.604 26.352C285.244 26.676 284.758 27.288 284.506 27.72C282.13 26.478 280.492 23.94 279.61 20.916L280.744 20.646ZM268.864 15.642H274.768V17.226H268.864V15.642ZM271.258 11.808H272.806V28.512H271.258V11.808ZM271.222 16.668L272.212 16.992C271.672 19.854 270.556 23.364 269.278 25.182C269.116 24.732 268.738 24.084 268.486 23.706C269.656 22.104 270.754 19.098 271.222 16.668ZM272.716 18.09C273.112 18.594 274.624 20.88 274.948 21.402L274.03 22.644C273.634 21.672 272.446 19.566 271.978 18.792L272.716 18.09ZM286.846 21.888C287.332 21.51 287.746 21.132 288.25 20.61C289.15 19.674 290.608 17.712 291.688 16.434C292.84 15.12 293.866 14.958 295.108 16.2C296.26 17.334 297.664 19.152 298.78 20.358C299.896 21.582 301.57 23.346 303.226 24.822L301.768 26.514C300.436 25.254 298.852 23.454 297.664 22.086C296.512 20.754 295.144 19.026 294.316 18.09C293.596 17.316 293.254 17.424 292.678 18.144C291.886 19.134 290.5 21.024 289.654 22.104C289.258 22.626 288.844 23.22 288.556 23.634L286.846 21.888Z" fill="white"/>
</g>
</g>
<defs>
<filter id="filter0_dd_2082_4404" x="-44" y="-34" width="480" height="194" filterUnits="userSpaceOnUse" color-interpolation-filters="sRGB">
<feFlood flood-opacity="0" result="BackgroundImageFix"/>
<feColorMatrix in="SourceAlpha" type="matrix" values="0 0 0 0 0 0 0 0 0 0 0 0 0 0 0 0 0 0 127 0" result="hardAlpha"/>
<feOffset dy="24"/>
<feGaussianBlur stdDeviation="22"/>
<feComposite in2="hardAlpha" operator="out"/>
<feColorMatrix type="matrix" values="0 0 0 0 0 0 0 0 0 0 0 0 0 0 0 0 0 0 0.05 0"/>
<feBlend mode="normal" in2="BackgroundImageFix" result="effect1_dropShadow_2082_4404"/>
<feColorMatrix in="SourceAlpha" type="matrix" values="0 0 0 0 0 0 0 0 0 0 0 0 0 0 0 0 0 0 127 0" result="hardAlpha"/>
<feOffset/>
<feGaussianBlur stdDeviation="17"/>
<feComposite in2="hardAlpha" operator="out"/>
<feColorMatrix type="matrix" values="0 0 0 0 0 0 0 0 0 0 0 0 0 0 0 0 0 0 0.05 0"/>
<feBlend mode="normal" in2="effect1_dropShadow_2082_4404" result="effect2_dropShadow_2082_4404"/>
<feBlend mode="normal" in="SourceGraphic" in2="effect2_dropShadow_2082_4404" result="shape"/>
</filter>
<clipPath id="clip0_2082_4404">
<rect width="392" height="92" fill="white"/>
</clipPath>
</defs>
</svg>
