<svg width="260" height="108" viewBox="0 0 260 108" fill="none" xmlns="http://www.w3.org/2000/svg">
<path d="M15.44 24.38C12.96 24.7933 10.9467 24.9667 9.4 24.9C7.86667 24.82 6.72 24.46 5.96 23.82C5.38667 23.3533 4.99333 22.76 4.78 22.04C4.58 21.32 4.48 20.4333 4.48 19.38V11.26C4.48 10.9133 4.6 10.62 4.84 10.38C5.08 10.14 5.36667 10.02 5.7 10.02C6.04667 10.02 6.34 10.14 6.58 10.38C6.82 10.62 6.94 10.9133 6.94 11.26V15.68C8.03333 15.4133 9.16 15.1067 10.32 14.76C11.4933 14.4 12.5467 14.04 13.48 13.68C13.8133 13.5467 14.1333 13.5533 14.44 13.7C14.7467 13.8333 14.96 14.0667 15.08 14.4C15.2 14.72 15.1933 15.04 15.06 15.36C14.9267 15.6667 14.7 15.8733 14.38 15.98C13.2467 16.3933 12.02 16.78 10.7 17.14C9.38 17.5 8.12667 17.8133 6.94 18.08V19.38C6.94 20.1667 7 20.7333 7.12 21.08C7.24 21.4133 7.42667 21.68 7.68 21.88C7.98667 22.1067 8.42 22.2733 8.98 22.38C9.55333 22.4733 10.3267 22.4867 11.3 22.42C12.2867 22.3533 13.54 22.1933 15.06 21.94C15.4067 21.8733 15.7133 21.9467 15.98 22.16C16.2467 22.36 16.4067 22.6333 16.46 22.98C16.5267 23.3133 16.4533 23.6133 16.24 23.88C16.04 24.1467 15.7733 24.3133 15.44 24.38ZM17.64 14.42C17.48 14.5933 17.2733 14.68 17.02 14.68C16.78 14.6667 16.5733 14.5733 16.4 14.4C16.24 14.2133 16.0333 13.9867 15.78 13.72C15.5267 13.4533 15.3 13.22 15.1 13.02C14.9667 12.9 14.8933 12.7333 14.88 12.52C14.8667 12.3067 14.94 12.1133 15.1 11.94C15.2467 11.7933 15.4267 11.7133 15.64 11.7C15.8533 11.6867 16.0467 11.7467 16.22 11.88C16.4333 12.0133 16.68 12.2133 16.96 12.48C17.2533 12.7333 17.4933 12.9667 17.68 13.18C17.84 13.3533 17.9133 13.56 17.9 13.8C17.9 14.04 17.8133 14.2467 17.64 14.42ZM18.16 12.6C17.9867 12.4133 17.76 12.2 17.48 11.96C17.2133 11.72 16.9667 11.5067 16.74 11.32C16.6067 11.2 16.5267 11.0333 16.5 10.82C16.4733 10.6067 16.5333 10.4133 16.68 10.24C16.8133 10.08 16.98 9.98667 17.18 9.96C17.3933 9.93333 17.5933 9.97333 17.78 10.08C18.0067 10.2133 18.2667 10.4 18.56 10.64C18.8667 10.88 19.1267 11.1 19.34 11.3C19.5133 11.4733 19.6 11.68 19.6 11.92C19.6133 12.1467 19.54 12.3533 19.38 12.54C19.2333 12.7133 19.0333 12.8133 18.78 12.84C18.54 12.8533 18.3333 12.7733 18.16 12.6ZM25.02 24.88C24.6867 24.9733 24.3667 24.9467 24.06 24.8C23.7667 24.64 23.5667 24.3933 23.46 24.06C23.3667 23.74 23.3933 23.4267 23.54 23.12C23.7 22.8133 23.94 22.6133 24.26 22.52C25.2867 22.2 26.3333 21.7533 27.4 21.18C28.48 20.6067 29.52 19.9533 30.52 19.22C31.5333 18.4733 32.46 17.6867 33.3 16.86C34.1533 16.0333 34.86 15.2067 35.42 14.38C35.6067 14.1 35.8667 13.9267 36.2 13.86C36.5333 13.7933 36.84 13.86 37.12 14.06C37.4133 14.2467 37.5867 14.5067 37.64 14.84C37.7067 15.1733 37.6467 15.48 37.46 15.76C36.8467 16.6667 36.0667 17.5867 35.12 18.52C34.1733 19.44 33.1333 20.32 32 21.16C30.8667 21.9867 29.7 22.7267 28.5 23.38C27.3 24.02 26.14 24.52 25.02 24.88ZM27.88 14.7C27.6933 14.54 27.4267 14.34 27.08 14.1C26.7467 13.86 26.4 13.6267 26.04 13.4C25.68 13.16 25.3667 12.9733 25.1 12.84C24.8067 12.68 24.6133 12.4333 24.52 12.1C24.4267 11.7667 24.4667 11.4533 24.64 11.16C24.8133 10.8533 25.0667 10.66 25.4 10.58C25.7333 10.5 26.0467 10.54 26.34 10.7C26.6333 10.86 26.9867 11.08 27.4 11.36C27.8267 11.6267 28.24 11.9 28.64 12.18C29.04 12.46 29.3533 12.7 29.58 12.9C29.8333 13.1267 29.96 13.4133 29.96 13.76C29.9733 14.1067 29.8667 14.4067 29.64 14.66C29.4 14.9133 29.1133 15.04 28.78 15.04C28.4467 15.04 28.1467 14.9267 27.88 14.7ZM25.76 18.4C25.5733 18.2533 25.3 18.0733 24.94 17.86C24.5933 17.6333 24.2267 17.4133 23.84 17.2C23.4667 16.9867 23.1467 16.82 22.88 16.7C22.5733 16.5533 22.3667 16.3133 22.26 15.98C22.1533 15.6467 22.1733 15.3333 22.32 15.04C22.48 14.7333 22.72 14.5333 23.04 14.44C23.3733 14.3333 23.6867 14.3533 23.98 14.5C24.3 14.6467 24.6733 14.84 25.1 15.08C25.54 15.32 25.9667 15.5733 26.38 15.84C26.7933 16.0933 27.12 16.3133 27.36 16.5C27.6267 16.7133 27.7733 16.9933 27.8 17.34C27.8267 17.6733 27.7267 17.9733 27.5 18.24C27.2867 18.5067 27.0067 18.6533 26.66 18.68C26.3267 18.7067 26.0267 18.6133 25.76 18.4ZM35.26 13.12C35.1 13.2933 34.8933 13.38 34.64 13.38C34.4 13.3667 34.2 13.2667 34.04 13.08C33.8667 12.8933 33.6533 12.6733 33.4 12.42C33.16 12.1533 32.9333 11.92 32.72 11.72C32.5867 11.6 32.5133 11.4333 32.5 11.22C32.4867 11.0067 32.56 10.8133 32.72 10.64C32.8667 10.4933 33.0467 10.4133 33.26 10.4C33.4733 10.3867 33.6667 10.44 33.84 10.56C34.0533 10.7067 34.3 10.9133 34.58 11.18C34.8733 11.4333 35.1133 11.6667 35.3 11.88C35.4733 12.0533 35.5533 12.26 35.54 12.5C35.5267 12.74 35.4333 12.9467 35.26 13.12ZM35.8 11.3C35.6267 11.1267 35.4067 10.92 35.14 10.68C34.8733 10.4267 34.6267 10.2133 34.4 10.04C34.2533 9.92 34.1667 9.75333 34.14 9.54C34.1133 9.32667 34.1733 9.13333 34.32 8.96C34.4533 8.78667 34.62 8.69333 34.82 8.68C35.0333 8.65333 35.2333 8.69333 35.42 8.8C35.6467 8.93333 35.9067 9.12 36.2 9.36C36.5067 9.58667 36.7667 9.80667 36.98 10.02C37.1533 10.18 37.24 10.38 37.24 10.62C37.2533 10.86 37.18 11.0733 37.02 11.26C36.8733 11.4333 36.6733 11.5267 36.42 11.54C36.18 11.5533 35.9733 11.4733 35.8 11.3ZM50.18 26.46C49.8467 26.46 49.56 26.34 49.32 26.1C49.08 25.86 48.96 25.5733 48.96 25.24V19.48C48 20.0533 46.96 20.6 45.84 21.12C44.7333 21.64 43.6667 22.0667 42.64 22.4C42.32 22.5067 42.0067 22.48 41.7 22.32C41.4067 22.16 41.2133 21.92 41.12 21.6C41.0267 21.28 41.0533 20.9667 41.2 20.66C41.36 20.3533 41.6 20.1533 41.92 20.06C42.6 19.8467 43.3333 19.5733 44.12 19.24C44.9067 18.9067 45.6867 18.5467 46.46 18.16C47.2333 17.76 47.9333 17.3667 48.56 16.98C49.2 16.5933 49.7 16.2467 50.06 15.94C50.3267 15.7133 50.4133 15.5133 50.32 15.34C50.24 15.1533 50.04 15.06 49.72 15.06H44.96C44.6267 15.06 44.34 14.9467 44.1 14.72C43.8733 14.4933 43.76 14.2133 43.76 13.88C43.76 13.5467 43.8733 13.2667 44.1 13.04C44.34 12.8133 44.6267 12.7 44.96 12.7H50.04C50.84 12.7 51.48 12.8533 51.96 13.16C52.44 13.4667 52.76 13.86 52.92 14.34C53.0933 14.82 53.1 15.3267 52.94 15.86C52.7933 16.3933 52.4733 16.8867 51.98 17.34C51.8867 17.42 51.7933 17.5 51.7 17.58C51.6067 17.66 51.5067 17.7467 51.4 17.84V25.24C51.4 25.5733 51.28 25.86 51.04 26.1C50.8 26.34 50.5133 26.46 50.18 26.46ZM51.74 11.78C51.2467 11.7267 50.6933 11.66 50.08 11.58C49.48 11.4867 48.8867 11.3867 48.3 11.28C47.7133 11.1733 47.18 11.0667 46.7 10.96C46.3667 10.88 46.1133 10.7 45.94 10.42C45.7667 10.14 45.72 9.83333 45.8 9.5C45.8667 9.16667 46.04 8.92 46.32 8.76C46.6133 8.58667 46.9267 8.53333 47.26 8.6C47.7267 8.70667 48.2333 8.81333 48.78 8.92C49.34 9.01333 49.8933 9.1 50.44 9.18C50.9867 9.26 51.4867 9.32667 51.94 9.38C52.2867 9.42 52.5667 9.56667 52.78 9.82C52.9933 10.06 53.0867 10.3533 53.06 10.7C53.0333 11.0333 52.8867 11.3067 52.62 11.52C52.3667 11.7333 52.0733 11.82 51.74 11.78ZM57.16 22.2C56.8533 22.04 56.4667 21.8467 56 21.62C55.5333 21.38 55.06 21.1467 54.58 20.92C54.1 20.68 53.6733 20.4867 53.3 20.34C52.9933 20.2067 52.7733 19.9867 52.64 19.68C52.52 19.36 52.5267 19.0467 52.66 18.74C52.7933 18.4333 53.0133 18.22 53.32 18.1C53.64 17.9667 53.9533 17.9667 54.26 18.1C54.6333 18.2467 55.0733 18.4333 55.58 18.66C56.0867 18.8867 56.5867 19.12 57.08 19.36C57.5733 19.5867 57.9867 19.8 58.32 20C58.6133 20.1733 58.8067 20.42 58.9 20.74C59.0067 21.0467 58.98 21.3533 58.82 21.66C58.6733 21.9533 58.4333 22.16 58.1 22.28C57.78 22.3867 57.4667 22.36 57.16 22.2ZM63.7 24.6C63.4067 24.7467 63.0933 24.7667 62.76 24.66C62.44 24.54 62.2067 24.3267 62.06 24.02C61.9133 23.7133 61.8933 23.4 62 23.08C62.12 22.76 62.3267 22.5267 62.62 22.38C64.5267 21.46 66.22 20.3533 67.7 19.06C69.1933 17.7533 70.4067 16.34 71.34 14.82C71.9267 13.86 71.6067 13.38 70.38 13.38H64.92C64.5867 13.38 64.3 13.26 64.06 13.02C63.82 12.7667 63.7 12.4733 63.7 12.14C63.7 11.7933 63.82 11.5 64.06 11.26C64.3 11.02 64.5867 10.9 64.92 10.9H70.46C71.66 10.9 72.58 11.12 73.22 11.56C73.86 11.9867 74.2067 12.5733 74.26 13.32C74.3267 14.0667 74.08 14.9267 73.52 15.9C73.2267 16.4333 72.8733 16.9667 72.46 17.5C73.0733 18.0067 73.7 18.5667 74.34 19.18C74.9933 19.78 75.6 20.3667 76.16 20.94C76.7333 21.5 77.2133 21.98 77.6 22.38C77.8267 22.62 77.94 22.9133 77.94 23.26C77.94 23.6067 77.8133 23.9 77.56 24.14C77.32 24.38 77.0267 24.5 76.68 24.5C76.3333 24.4867 76.04 24.36 75.8 24.12C75.44 23.7467 74.9867 23.28 74.44 22.72C73.8933 22.1467 73.3133 21.56 72.7 20.96C72.0867 20.3467 71.4933 19.7933 70.92 19.3C69.9067 20.3533 68.7733 21.3467 67.52 22.28C66.28 23.2 65.0067 23.9733 63.7 24.6ZM92.14 24.94C91.8067 25.02 91.4933 24.9733 91.2 24.8C90.9067 24.6267 90.72 24.38 90.64 24.06C90.56 23.74 90.6067 23.44 90.78 23.16C90.9533 22.8667 91.2 22.68 91.52 22.6C93 22.2133 94.0867 21.5867 94.78 20.72C95.4867 19.8533 95.84 18.7533 95.84 17.42C95.84 16.58 95.6533 15.8267 95.28 15.16C94.9067 14.4933 94.3733 13.9533 93.68 13.54C93 13.1267 92.18 12.8733 91.22 12.78C90.98 15.02 90.5733 16.96 90 18.6C89.44 20.2267 88.7733 21.4867 88 22.38C87.24 23.26 86.44 23.7 85.6 23.7C84.8933 23.7 84.2467 23.4933 83.66 23.08C83.0733 22.6667 82.6067 22.0733 82.26 21.3C81.9267 20.5267 81.76 19.6 81.76 18.52C81.76 17.4133 81.9667 16.38 82.38 15.42C82.8067 14.4467 83.4067 13.5933 84.18 12.86C84.9533 12.1267 85.86 11.5533 86.9 11.14C87.9533 10.7267 89.1067 10.52 90.36 10.52C91.88 10.52 93.2267 10.8133 94.4 11.4C95.5867 11.9733 96.52 12.78 97.2 13.82C97.88 14.8467 98.22 16.0467 98.22 17.42C98.22 19.3533 97.7 20.9667 96.66 22.26C95.6333 23.54 94.1267 24.4333 92.14 24.94ZM85.62 21.24C85.86 21.24 86.1333 21.04 86.44 20.64C86.76 20.2267 87.08 19.6467 87.4 18.9C87.72 18.1533 88.0133 17.2733 88.28 16.26C88.5467 15.2333 88.7467 14.1 88.88 12.86C87.84 13.06 86.9667 13.4467 86.26 14.02C85.5533 14.58 85.02 15.2533 84.66 16.04C84.3 16.8133 84.1133 17.6267 84.1 18.48C84.1 19.3867 84.24 20.0733 84.52 20.54C84.8133 21.0067 85.18 21.24 85.62 21.24ZM110.04 26.8C109.707 26.8 109.42 26.6867 109.18 26.46C108.953 26.2467 108.84 25.9667 108.84 25.62V19.72C108.293 20.4 107.673 21.0867 106.98 21.78C106.287 22.46 105.567 23.1 104.82 23.7C104.073 24.2867 103.333 24.7867 102.6 25.2C102.293 25.3733 101.98 25.4333 101.66 25.38C101.353 25.3267 101.1 25.1533 100.9 24.86C100.727 24.5933 100.667 24.3067 100.72 24C100.787 23.68 100.973 23.4333 101.28 23.26C101.84 22.94 102.427 22.56 103.04 22.12C103.667 21.6667 104.28 21.18 104.88 20.66C105.493 20.14 106.073 19.6133 106.62 19.08C107.167 18.5467 107.64 18.0333 108.04 17.54H102.18C101.847 17.54 101.58 17.4333 101.38 17.22C101.18 17.0067 101.08 16.7533 101.08 16.46C101.08 16.1533 101.18 15.8933 101.38 15.68C101.58 15.4667 101.847 15.36 102.18 15.36H108.84V13.02H103.4C103.067 13.02 102.8 12.9133 102.6 12.7C102.4 12.4733 102.3 12.2133 102.3 11.92C102.3 11.6133 102.4 11.36 102.6 11.16C102.8 10.9467 103.067 10.84 103.4 10.84H108.84V9.22C108.84 8.86 108.953 8.57333 109.18 8.36C109.42 8.14667 109.707 8.04 110.04 8.04C110.36 8.04 110.633 8.14667 110.86 8.36C111.1 8.57333 111.22 8.86 111.22 9.22V10.84H116.62C116.953 10.84 117.213 10.9467 117.4 11.16C117.6 11.36 117.7 11.6133 117.7 11.92C117.7 12.2133 117.6 12.4733 117.4 12.7C117.213 12.9133 116.953 13.02 116.62 13.02H111.22V15.36H117.88C118.213 15.36 118.473 15.4667 118.66 15.68C118.86 15.8933 118.96 16.1533 118.96 16.46C118.96 16.7533 118.86 17.0067 118.66 17.22C118.473 17.4333 118.213 17.54 117.88 17.54H112C112.587 18.2333 113.26 18.9333 114.02 19.64C114.78 20.3467 115.567 21.0067 116.38 21.62C117.207 22.22 117.987 22.74 118.72 23.18C119.027 23.3533 119.213 23.6067 119.28 23.94C119.347 24.26 119.293 24.56 119.12 24.84C118.933 25.1733 118.66 25.3733 118.3 25.44C117.94 25.5067 117.593 25.4333 117.26 25.22C116.593 24.78 115.9 24.2733 115.18 23.7C114.46 23.1133 113.76 22.48 113.08 21.8C112.4 21.1067 111.78 20.4 111.22 19.68V25.62C111.22 25.9667 111.1 26.2467 110.86 26.46C110.633 26.6867 110.36 26.8 110.04 26.8ZM130 26.68C129.68 26.68 129.4 26.5733 129.16 26.36C128.933 26.1467 128.82 25.8667 128.82 25.52V20.3C128.007 21.2733 127.067 22.22 126 23.14C124.933 24.0467 123.847 24.8533 122.74 25.56C122.447 25.7333 122.127 25.8 121.78 25.76C121.433 25.72 121.167 25.5533 120.98 25.26C120.807 24.9933 120.753 24.7133 120.82 24.42C120.9 24.1133 121.113 23.86 121.46 23.66C122.14 23.26 122.84 22.8 123.56 22.28C124.28 21.76 124.973 21.2067 125.64 20.62C126.32 20.02 126.92 19.4333 127.44 18.86H122C121.707 18.86 121.453 18.7533 121.24 18.54C121.04 18.3267 120.94 18.0733 120.94 17.78C120.94 17.4867 121.04 17.24 121.24 17.04C121.453 16.8267 121.707 16.72 122 16.72H125.34C125.287 16.6533 125.227 16.5733 125.16 16.48C125.08 16.32 124.953 16.1 124.78 15.82C124.62 15.5267 124.447 15.2333 124.26 14.94C124.087 14.6333 123.94 14.3933 123.82 14.22C123.66 13.9533 123.62 13.6733 123.7 13.38C123.78 13.0867 123.947 12.8733 124.2 12.74C124.373 12.6467 124.547 12.5867 124.72 12.56H122.92C122.627 12.56 122.373 12.4533 122.16 12.24C121.96 12.0267 121.86 11.7733 121.86 11.48C121.86 11.1867 121.96 10.94 122.16 10.74C122.373 10.5267 122.627 10.42 122.92 10.42H128.82V9.24C128.82 8.89333 128.933 8.61333 129.16 8.4C129.4 8.18667 129.68 8.08 130 8.08C130.32 8.08 130.593 8.18667 130.82 8.4C131.047 8.61333 131.16 8.89333 131.16 9.24V10.42H137.06C137.353 10.42 137.6 10.5267 137.8 10.74C138.013 10.94 138.12 11.1867 138.12 11.48C138.12 11.7733 138.013 12.0267 137.8 12.24C137.6 12.4533 137.353 12.56 137.06 12.56H135.28C135.32 12.5733 135.36 12.5867 135.4 12.6C135.453 12.6 135.5 12.6133 135.54 12.64C135.82 12.7733 136.013 12.9867 136.12 13.28C136.227 13.56 136.2 13.8333 136.04 14.1C135.947 14.2867 135.807 14.5333 135.62 14.84C135.433 15.1467 135.247 15.4533 135.06 15.76C134.873 16.0533 134.72 16.3 134.6 16.5C134.573 16.54 134.54 16.58 134.5 16.62C134.473 16.66 134.44 16.6933 134.4 16.72H137.96C138.253 16.72 138.5 16.8267 138.7 17.04C138.913 17.24 139.02 17.4867 139.02 17.78C139.02 18.0733 138.913 18.3267 138.7 18.54C138.5 18.7533 138.253 18.86 137.96 18.86H132.48C133.027 19.42 133.633 19.9867 134.3 20.56C134.967 21.12 135.66 21.6467 136.38 22.14C137.113 22.6333 137.82 23.0667 138.5 23.44C138.807 23.6133 139.007 23.86 139.1 24.18C139.193 24.5 139.147 24.8133 138.96 25.12C138.773 25.4267 138.493 25.6133 138.12 25.68C137.76 25.7467 137.413 25.68 137.08 25.48C136.413 25.08 135.72 24.6133 135 24.08C134.293 23.5333 133.607 22.94 132.94 22.3C132.287 21.66 131.693 21.0067 131.16 20.34V25.52C131.16 25.8667 131.047 26.1467 130.82 26.36C130.593 26.5733 130.32 26.68 130 26.68ZM125.04 12.56C125.373 12.6 125.64 12.7667 125.84 13.06C125.947 13.2067 126.093 13.4267 126.28 13.72C126.467 14.0133 126.653 14.3067 126.84 14.6C127.027 14.8933 127.167 15.12 127.26 15.28C127.407 15.5333 127.46 15.7933 127.42 16.06C127.393 16.3133 127.28 16.5333 127.08 16.72H128.82V12.56H125.04ZM131.16 16.72H132.7C132.553 16.5467 132.46 16.3467 132.42 16.12C132.393 15.8933 132.447 15.68 132.58 15.48C132.7 15.3067 132.847 15.0667 133.02 14.76C133.207 14.4533 133.387 14.1467 133.56 13.84C133.747 13.52 133.887 13.28 133.98 13.12C134.14 12.8133 134.38 12.6267 134.7 12.56H131.16V16.72ZM154.4 25.9C152.613 26.1533 151.107 26.2467 149.88 26.18C148.653 26.1267 147.667 25.9467 146.92 25.64C146.187 25.3333 145.653 24.9267 145.32 24.42C144.987 23.9 144.82 23.3133 144.82 22.66C144.82 21.66 145.22 20.7267 146.02 19.86C146.833 18.9933 148.007 18.2333 149.54 17.58C149.327 17.3133 149.067 17.1333 148.76 17.04C148.093 16.84 147.433 16.9133 146.78 17.26C146.14 17.6067 145.513 18.1133 144.9 18.78C144.673 19.02 144.373 19.1533 144 19.18C143.64 19.1933 143.347 19.08 143.12 18.84C142.907 18.5867 142.807 18.2933 142.82 17.96C142.847 17.6267 142.987 17.3533 143.24 17.14C143.893 16.58 144.467 15.9733 144.96 15.32C145.467 14.6667 145.893 13.9933 146.24 13.3C145.667 13.3133 145.127 13.3267 144.62 13.34C144.127 13.34 143.7 13.3333 143.34 13.32C143.007 13.32 142.727 13.2067 142.5 12.98C142.273 12.74 142.16 12.4533 142.16 12.12C142.173 11.7867 142.3 11.5133 142.54 11.3C142.78 11.0867 143.067 10.9867 143.4 11C143.867 11.0133 144.427 11.02 145.08 11.02C145.747 11.0067 146.44 10.9933 147.16 10.98C147.227 10.7267 147.287 10.48 147.34 10.24C147.393 10 147.44 9.76 147.48 9.52C147.533 9.18667 147.68 8.92 147.92 8.72C148.16 8.50667 148.447 8.42 148.78 8.46C149.113 8.5 149.38 8.64667 149.58 8.9C149.78 9.15333 149.86 9.44667 149.82 9.78C149.807 9.95333 149.78 10.1333 149.74 10.32C149.7 10.5067 149.653 10.6933 149.6 10.88C150.107 10.8533 150.58 10.8267 151.02 10.8C151.46 10.76 151.853 10.7133 152.2 10.66C152.533 10.62 152.827 10.7 153.08 10.9C153.347 11.0867 153.5 11.3467 153.54 11.68C153.58 12.0133 153.493 12.3067 153.28 12.56C153.08 12.8133 152.82 12.9533 152.5 12.98C152.007 13.0333 151.44 13.08 150.8 13.12C150.16 13.16 149.493 13.1933 148.8 13.22C148.507 13.8733 148.187 14.4867 147.84 15.06C148.16 14.9933 148.467 14.9733 148.76 15C149.053 15.0133 149.333 15.06 149.6 15.14C150 15.2467 150.387 15.4333 150.76 15.7C151.147 15.9533 151.487 16.3133 151.78 16.78C152.433 16.5933 153.127 16.42 153.86 16.26C154.607 16.1 155.393 15.96 156.22 15.84C156.54 15.7867 156.833 15.86 157.1 16.06C157.367 16.2467 157.52 16.5067 157.56 16.84C157.613 17.1733 157.54 17.4667 157.34 17.72C157.14 17.9733 156.873 18.1267 156.54 18.18C155.767 18.2733 155.053 18.3867 154.4 18.52C153.747 18.64 153.14 18.7733 152.58 18.92C152.647 19.28 152.7 19.6733 152.74 20.1C152.78 20.5267 152.8 20.9867 152.8 21.48C152.8 21.8133 152.68 22.1 152.44 22.34C152.213 22.5667 151.933 22.68 151.6 22.68C151.267 22.68 150.987 22.5667 150.76 22.34C150.533 22.1 150.42 21.8133 150.42 21.48C150.42 20.8 150.38 20.1933 150.3 19.66C149.207 20.1133 148.413 20.6 147.92 21.12C147.44 21.6267 147.2 22.12 147.2 22.6C147.2 22.96 147.413 23.2533 147.84 23.48C148.267 23.7067 148.98 23.8333 149.98 23.86C150.98 23.8867 152.347 23.7867 154.08 23.56C154.4 23.52 154.693 23.6 154.96 23.8C155.227 23.9867 155.38 24.2467 155.42 24.58C155.46 24.9 155.38 25.1867 155.18 25.44C154.98 25.6933 154.72 25.8467 154.4 25.9ZM173.76 26.28C173.333 26.28 172.993 26.16 172.74 25.92C172.5 25.68 172.373 25.3867 172.36 25.04C172.347 24.6933 172.453 24.3933 172.68 24.14C172.907 23.8867 173.207 23.7533 173.58 23.74C174.087 23.7133 174.48 23.6667 174.76 23.6C175.04 23.52 175.253 23.36 175.4 23.12C175.547 22.8667 175.66 22.4867 175.74 21.98C175.847 21.2067 175.933 20.3533 176 19.42C176.067 18.4733 176.113 17.5133 176.14 16.54C176.18 15.5667 176.2 14.6333 176.2 13.74C176.2 13.2867 176.153 12.94 176.06 12.7C175.967 12.46 175.793 12.2933 175.54 12.2C175.287 12.1067 174.913 12.06 174.42 12.06H173.74C173.7 14.0333 173.587 15.7467 173.4 17.2C173.227 18.64 172.953 19.8933 172.58 20.96C172.207 22.0133 171.7 22.94 171.06 23.74C170.433 24.5267 169.653 25.26 168.72 25.94C168.4 26.1667 168.06 26.2667 167.7 26.24C167.34 26.2267 167.047 26.0667 166.82 25.76C166.62 25.4933 166.553 25.1933 166.62 24.86C166.687 24.5267 166.867 24.2667 167.16 24.08C168.013 23.5467 168.713 22.94 169.26 22.26C169.807 21.5667 170.233 20.7533 170.54 19.82C170.847 18.8867 171.067 17.7867 171.2 16.52C171.333 15.2533 171.407 13.7667 171.42 12.06H168.72C168.373 12.06 168.093 11.9533 167.88 11.74C167.68 11.5133 167.58 11.2467 167.58 10.94C167.58 10.62 167.68 10.3533 167.88 10.14C168.093 9.91333 168.373 9.8 168.72 9.8H174.62C175.593 9.8 176.36 9.92 176.92 10.16C177.493 10.4 177.907 10.8 178.16 11.36C178.413 11.9067 178.54 12.64 178.54 13.56C178.527 15.0667 178.493 16.5667 178.44 18.06C178.387 19.5533 178.273 20.96 178.1 22.28C177.967 23.3067 177.74 24.1133 177.42 24.7C177.1 25.2733 176.647 25.68 176.06 25.92C175.473 26.16 174.707 26.28 173.76 26.28ZM166.18 22.58C165.153 22.58 164.387 22.38 163.88 21.98C163.387 21.58 163.14 20.8533 163.14 19.8V17.26C162.913 17.3133 162.687 17.3667 162.46 17.42C162.247 17.46 162.047 17.5 161.86 17.54C161.487 17.62 161.16 17.58 160.88 17.42C160.6 17.2467 160.427 16.9933 160.36 16.66C160.293 16.3 160.347 15.9933 160.52 15.74C160.693 15.4733 160.973 15.3067 161.36 15.24C161.613 15.1867 161.887 15.1333 162.18 15.08C162.487 15.0133 162.807 14.9467 163.14 14.88V10.24C163.14 9.84 163.253 9.54 163.48 9.34C163.707 9.14 163.987 9.04 164.32 9.04C164.667 9.04 164.947 9.14 165.16 9.34C165.387 9.54 165.5 9.84 165.5 10.24V14.36C166.087 14.2267 166.647 14.1 167.18 13.98C167.727 13.8467 168.213 13.7333 168.64 13.64C168.973 13.56 169.26 13.6067 169.5 13.78C169.753 13.9533 169.907 14.1933 169.96 14.5C170.027 14.82 169.973 15.1067 169.8 15.36C169.64 15.6133 169.387 15.78 169.04 15.86C168.573 15.98 168.027 16.12 167.4 16.28C166.787 16.4267 166.153 16.5733 165.5 16.72V19.4C165.5 19.6933 165.567 19.8933 165.7 20C165.833 20.0933 166.073 20.14 166.42 20.14C166.753 20.14 166.98 20.06 167.1 19.9C167.233 19.7267 167.36 19.3933 167.48 18.9C167.56 18.5933 167.733 18.3733 168 18.24C168.28 18.1067 168.587 18.08 168.92 18.16C169.267 18.2533 169.5 18.4333 169.62 18.7C169.753 18.9533 169.787 19.26 169.72 19.62C169.56 20.3533 169.34 20.94 169.06 21.38C168.78 21.8067 168.407 22.1133 167.94 22.3C167.487 22.4867 166.9 22.58 166.18 22.58ZM189.26 25.94C189.02 25.7133 188.887 25.4333 188.86 25.1C188.847 24.7667 188.96 24.48 189.2 24.24C190.213 23.2133 191.007 21.92 191.58 20.36C192.167 18.8 192.46 17.1 192.46 15.26C192.46 14.22 192.293 13.4667 191.96 13C191.627 12.5333 191.133 12.3 190.48 12.3C189.947 12.3 189.453 12.52 189 12.96C188.547 13.3867 188.207 14.0267 187.98 14.88C187.753 15.7333 187.693 16.8067 187.8 18.1C187.827 18.4067 187.74 18.6867 187.54 18.94C187.353 19.18 187.107 19.3133 186.8 19.34C186.48 19.3667 186.2 19.2867 185.96 19.1C185.733 18.9133 185.593 18.6667 185.54 18.36C185.447 17.6667 185.387 16.9067 185.36 16.08C185.333 15.24 185.327 14.4067 185.34 13.58C185.367 12.74 185.407 11.9667 185.46 11.26C185.513 10.54 185.567 9.94667 185.62 9.48C185.66 9.16 185.807 8.9 186.06 8.7C186.313 8.5 186.6 8.42 186.92 8.46C187.253 8.5 187.513 8.64 187.7 8.88C187.9 9.12 187.973 9.41333 187.92 9.76C187.893 10 187.853 10.3067 187.8 10.68C187.76 11.0533 187.727 11.4067 187.7 11.74C188.007 11.22 188.42 10.7867 188.94 10.44C189.46 10.08 190 9.9 190.56 9.9C191.987 9.9 193.053 10.3667 193.76 11.3C194.467 12.22 194.82 13.54 194.82 15.26C194.82 16.6333 194.673 17.9733 194.38 19.28C194.1 20.5733 193.673 21.7867 193.1 22.92C192.54 24.04 191.833 25.0333 190.98 25.9C190.753 26.14 190.467 26.26 190.12 26.26C189.787 26.2733 189.5 26.1667 189.26 25.94ZM213.94 26.22C212.913 26.22 212.093 26.1067 211.48 25.88C210.867 25.6533 210.42 25.2733 210.14 24.74C209.873 24.1933 209.74 23.4667 209.74 22.56V19.76C209.22 20.48 208.687 21.1133 208.14 21.66C207.887 21.9133 207.58 22.0533 207.22 22.08C206.86 22.0933 206.567 21.9733 206.34 21.72C206.127 21.4933 206.027 21.2267 206.04 20.92C206.053 20.6 206.173 20.34 206.4 20.14C207.107 19.4867 207.767 18.68 208.38 17.72C208.993 16.7467 209.52 15.72 209.96 14.64C210.413 13.5467 210.753 12.5 210.98 11.5H208.14C207.82 11.5 207.567 11.4 207.38 11.2C207.193 11 207.1 10.7533 207.1 10.46C207.1 10.1667 207.193 9.92 207.38 9.72C207.567 9.52 207.82 9.42 208.14 9.42H218.28C218.6 9.42 218.853 9.52 219.04 9.72C219.227 9.92 219.32 10.1667 219.32 10.46C219.32 10.7533 219.227 11 219.04 11.2C218.853 11.4 218.6 11.5 218.28 11.5H213.38C213.207 12.3 212.967 13.1267 212.66 13.98C212.367 14.82 212.027 15.6533 211.64 16.48C211.947 16.3733 212.287 16.3 212.66 16.26C213.047 16.22 213.473 16.2 213.94 16.2C214.967 16.2 215.78 16.3133 216.38 16.54C216.993 16.7667 217.433 17.1467 217.7 17.68C217.98 18.2133 218.12 18.94 218.12 19.86V22.56C218.12 23.4667 217.98 24.1933 217.7 24.74C217.433 25.2733 216.993 25.6533 216.38 25.88C215.78 26.1067 214.967 26.22 213.94 26.22ZM202.82 26.66C202.42 26.66 202.113 26.5533 201.9 26.34C201.687 26.14 201.56 25.8667 201.52 25.52C201.493 25.2 201.567 24.9133 201.74 24.66C201.913 24.4067 202.167 24.26 202.5 24.22C202.9 24.1667 203.153 24.0867 203.26 23.98C203.367 23.8733 203.42 23.6467 203.42 23.3V19.84C203.193 19.9333 202.98 20.02 202.78 20.1C202.58 20.1667 202.407 20.2333 202.26 20.3C201.9 20.4333 201.547 20.44 201.2 20.32C200.867 20.1867 200.647 19.94 200.54 19.58C200.433 19.2333 200.46 18.9133 200.62 18.62C200.78 18.3267 201.047 18.1267 201.42 18.02C201.687 17.94 201.993 17.8467 202.34 17.74C202.687 17.62 203.047 17.4933 203.42 17.36V14.08H201.64C201.307 14.08 201.04 13.9733 200.84 13.76C200.64 13.5333 200.54 13.2733 200.54 12.98C200.54 12.6733 200.64 12.4133 200.84 12.2C201.04 11.9867 201.307 11.88 201.64 11.88H203.42V9.28C203.42 8.93333 203.533 8.66 203.76 8.46C203.987 8.24667 204.26 8.14 204.58 8.14C204.9 8.14 205.167 8.24667 205.38 8.46C205.607 8.66 205.72 8.93333 205.72 9.28V11.88H206.92C207.253 11.88 207.52 11.9867 207.72 12.2C207.92 12.4133 208.02 12.6733 208.02 12.98C208.02 13.2733 207.92 13.5333 207.72 13.76C207.52 13.9733 207.253 14.08 206.92 14.08H205.72V16.52C205.907 16.4533 206.073 16.3933 206.22 16.34C206.38 16.2733 206.52 16.2133 206.64 16.16C206.907 16.0533 207.167 16.0667 207.42 16.2C207.687 16.3333 207.867 16.5333 207.96 16.8C208.067 17.0533 208.067 17.32 207.96 17.6C207.867 17.8667 207.66 18.0733 207.34 18.22C207.167 18.3 206.933 18.4 206.64 18.52C206.36 18.6267 206.053 18.7533 205.72 18.9V23.8C205.72 24.7733 205.493 25.4933 205.04 25.96C204.587 26.4267 203.847 26.66 202.82 26.66ZM213.94 24.1C214.647 24.1 215.127 23.9867 215.38 23.76C215.647 23.52 215.78 23.0733 215.78 22.42V19.96C215.78 19.3333 215.647 18.9067 215.38 18.68C215.127 18.44 214.647 18.32 213.94 18.32C213.233 18.32 212.747 18.4333 212.48 18.66C212.213 18.8867 212.08 19.32 212.08 19.96V22.42C212.08 23.0467 212.213 23.4867 212.48 23.74C212.747 23.98 213.233 24.1 213.94 24.1ZM233.56 26.24C233.293 26.4267 232.993 26.4867 232.66 26.42C232.327 26.3667 232.067 26.2133 231.88 25.96C231.427 25.3067 230.913 24.6267 230.34 23.92C229.78 23.2133 229.22 22.54 228.66 21.9C228.1 21.2467 227.593 20.6933 227.14 20.24C226.353 19.4667 225.827 18.74 225.56 18.06C225.293 17.38 225.3 16.7067 225.58 16.04C225.86 15.36 226.413 14.6333 227.24 13.86C227.52 13.6067 227.853 13.2867 228.24 12.9C228.64 12.5133 229.06 12.1 229.5 11.66C229.94 11.22 230.367 10.78 230.78 10.34C231.193 9.9 231.567 9.50667 231.9 9.16C232.127 8.92 232.407 8.8 232.74 8.8C233.087 8.78667 233.38 8.89333 233.62 9.12C233.86 9.33333 233.98 9.61333 233.98 9.96C233.993 10.2933 233.887 10.58 233.66 10.82C233.193 11.3267 232.673 11.8667 232.1 12.44C231.54 13 230.993 13.54 230.46 14.06C229.927 14.5667 229.467 14.9933 229.08 15.34C228.56 15.82 228.213 16.2333 228.04 16.58C227.88 16.9133 227.88 17.2467 228.04 17.58C228.213 17.9133 228.533 18.3267 229 18.82C229.453 19.2867 229.967 19.8467 230.54 20.5C231.127 21.1533 231.713 21.8333 232.3 22.54C232.887 23.2467 233.4 23.92 233.84 24.56C234.04 24.8133 234.107 25.1067 234.04 25.44C233.987 25.7867 233.827 26.0533 233.56 26.24ZM244.3 26.22C243.727 26.22 243.2 26.08 242.72 25.8C242.253 25.52 241.88 25.1467 241.6 24.68C241.333 24.2 241.2 23.68 241.2 23.12C241.2 22.5333 241.34 22.0067 241.62 21.54C241.9 21.06 242.273 20.68 242.74 20.4C243.22 20.12 243.74 19.98 244.3 19.98C244.873 19.98 245.393 20.12 245.86 20.4C246.34 20.68 246.72 21.06 247 21.54C247.28 22.0067 247.42 22.5333 247.42 23.12C247.42 23.6933 247.28 24.2133 247 24.68C246.72 25.1467 246.347 25.52 245.88 25.8C245.413 26.08 244.887 26.22 244.3 26.22ZM244.3 24.82C244.78 24.82 245.187 24.6533 245.52 24.32C245.853 23.9733 246.02 23.5667 246.02 23.1C246.02 22.6333 245.853 22.2333 245.52 21.9C245.187 21.5667 244.78 21.4 244.3 21.4C243.833 21.4 243.433 21.5667 243.1 21.9C242.767 22.2333 242.6 22.6333 242.6 23.1C242.6 23.5533 242.76 23.9533 243.08 24.3C243.413 24.6467 243.82 24.82 244.3 24.82Z" fill="url(#paint0_linear_2425_1370)"/>
<path d="M189.988 75.2801C189.988 77.4561 189.332 79.0721 188.02 80.1281C186.74 81.2161 184.724 81.7601 181.972 81.7601H173.276C172.724 81.7601 172.276 81.3124 172.276 80.7601V79.1601C172.276 78.6078 172.724 78.1601 173.276 78.1601H182.452C183.604 78.1601 184.468 77.9361 185.044 77.4881C185.62 77.0401 185.908 76.4641 185.908 75.7601V74.2241C185.908 73.4881 185.62 72.9121 185.044 72.4961C184.468 72.0481 183.604 71.8241 182.452 71.8241H175.436C174.884 71.8241 174.436 71.3764 174.436 70.8241V65.7937C174.436 65.4278 174.232 65.0971 173.93 64.8902C173.126 64.3392 172.511 63.6105 172.084 62.7041C171.572 61.6161 171.316 60.2081 171.316 58.4801V57.2801C171.316 54.5921 171.972 52.6401 173.284 51.4241C174.628 50.2081 176.692 49.6001 179.476 49.6001H188.268C188.82 49.6001 189.268 50.0478 189.268 50.6001V58.4801C189.268 60.8801 188.612 62.7681 187.3 64.1441C185.988 65.4881 184.244 66.1601 182.068 66.1601H179.516C178.964 66.1601 178.516 66.6078 178.516 67.1601V67.2241C178.516 67.7764 178.964 68.2241 179.516 68.2241H181.972C184.724 68.2241 186.74 68.7681 188.02 69.8561C189.332 70.9121 189.988 72.5281 189.988 74.7041V75.2801ZM182.068 62.5601C183.06 62.5601 183.812 62.2401 184.324 61.6001C184.836 60.9601 185.124 60.2881 185.188 59.5841V54.2001C185.188 53.6478 184.74 53.2001 184.188 53.2001H178.996C177.812 53.2001 176.916 53.4721 176.308 54.0161C175.7 54.5601 175.396 55.3281 175.396 56.3201V59.4401C175.396 60.4321 175.7 61.2001 176.308 61.7441C176.916 62.2881 177.812 62.5601 178.996 62.5601H182.068Z" fill="#332D2D"/>
<path d="M139.071 73.6C138.519 73.6 138.071 73.1523 138.071 72.6V47.6079C138.071 46.5575 136.659 46.2174 136.181 47.1526L133.674 52.0554C133.503 52.3897 133.159 52.6001 132.783 52.6001H129.956C129.608 52.6001 129.284 52.4186 129.103 52.121L125.669 46.4936C125.142 45.6312 123.815 46.0042 123.815 47.0145V72.6C123.815 73.1523 123.367 73.6 122.815 73.6H120.975C120.423 73.6 119.975 73.1523 119.975 72.6V41C119.975 40.4477 120.423 40 120.975 40H126.164C126.522 40 126.853 40.1915 127.031 40.502L130.465 46.4813C130.863 47.1736 131.872 47.1438 132.228 46.4293L135.155 40.554C135.324 40.2146 135.671 40 136.05 40H141.055C141.607 40 142.055 40.4477 142.055 41V72.6C142.055 73.1523 141.607 73.6 141.055 73.6H139.071Z" fill="#332D2D"/>
<path d="M104.791 75.7121C104.407 77.1521 104.007 78.3041 103.591 79.1681C103.175 80.0641 102.583 80.7521 101.815 81.2321C101.079 81.7441 100.087 82.0001 98.8395 82.0001C98.3395 82.0001 97.7066 81.947 96.9409 81.8407C96.4567 81.7734 96.1035 81.3538 96.1035 80.865V79.3611C96.1035 78.7526 96.6424 78.2881 97.2488 78.3399C97.7191 78.38 98.1693 78.4001 98.5995 78.4001C99.4955 78.4001 100.135 77.6801 100.519 76.2401L101.198 73.9076C101.256 73.7076 101.25 73.4944 101.182 73.2979L93.3531 50.9304C93.1255 50.2803 93.6081 49.6001 94.2969 49.6001H96.5456C96.9938 49.6001 97.3872 49.8982 97.5084 50.3297L101.827 65.7064C102.106 66.7 103.525 66.671 103.763 65.6669L107.393 50.3692C107.5 49.9184 107.903 49.6001 108.366 49.6001H110.45C111.107 49.6001 111.585 50.2228 111.416 50.8576L104.791 75.7121Z" fill="#332D2D"/>
<path d="M84.0551 72.1246C84.0317 72.1487 84.0072 72.1712 83.9814 72.1928C82.8813 73.1117 82.2944 73.6001 81.0926 73.6001H77.7806C75.3486 73.6001 73.5726 73.1201 72.4526 72.1601C71.3646 71.1681 70.8206 69.4881 70.8206 67.1201V66.1601C70.8206 61.2001 73.1566 58.7201 77.8286 58.7201H81.8206C82.3728 58.7201 82.8206 58.2724 82.8206 57.7201V56.3201C82.8206 55.3281 82.5166 54.5601 81.9086 54.0161C81.3006 53.4721 80.4046 53.2001 79.2206 53.2001H73.7406C73.1883 53.2001 72.7406 52.7524 72.7406 52.2001V50.6001C72.7406 50.0478 73.1883 49.6001 73.7406 49.6001H78.7406C81.5246 49.6001 83.5726 50.2081 84.8846 51.4241C86.2277 52.6393 86.8997 54.5896 86.9006 57.275C86.9006 57.2784 86.9005 57.2775 86.9006 57.2809C86.9017 57.3907 87.012 68.2748 86.9006 68.8001C86.796 69.2933 84.3742 71.7965 84.0551 72.1246ZM80.6126 70.0001C81.5726 70.0001 82.1806 69.7761 82.4366 69.3281C82.6926 68.8801 82.8206 68.3041 82.8206 67.6001V63.3201C82.8206 62.7678 82.3728 62.3201 81.8206 62.3201H77.7806C76.9486 62.3201 76.2606 62.5921 75.7166 63.1361C75.1726 63.6801 74.9006 64.3681 74.9006 65.2001V67.6001C74.9006 68.4321 75.0926 69.0401 75.4766 69.4241C75.8606 69.8081 76.4686 70.0001 77.3006 70.0001H80.6126Z" fill="#332D2D"/>
<path d="M161.63 72.1246C161.606 72.1487 161.582 72.1712 161.556 72.1928C160.456 73.1117 159.869 73.6001 158.667 73.6001H155.355C152.923 73.6001 151.147 73.1201 150.027 72.1601C148.939 71.1681 148.395 69.4881 148.395 67.1201V66.1601C148.395 61.2001 150.731 58.7201 155.403 58.7201H159.395C159.947 58.7201 160.395 58.2724 160.395 57.7201V56.3201C160.395 55.3281 160.091 54.5601 159.483 54.0161C158.875 53.4721 157.979 53.2001 156.795 53.2001H151.315C150.763 53.2001 150.315 52.7524 150.315 52.2001V50.6001C150.315 50.0478 150.763 49.6001 151.315 49.6001H156.315C159.099 49.6001 161.147 50.2081 162.459 51.4241C163.802 52.6393 164.474 54.5896 164.475 57.275C164.475 57.2784 164.475 57.2775 164.475 57.2809C164.476 57.3907 164.586 68.2748 164.475 68.8001C164.37 69.2933 161.949 71.7965 161.63 72.1246ZM158.187 70.0001C159.147 70.0001 159.755 69.7761 160.011 69.3281C160.267 68.8801 160.395 68.3041 160.395 67.6001V63.3201C160.395 62.7678 159.947 62.3201 159.395 62.3201H155.355C154.523 62.3201 153.835 62.5921 153.291 63.1361C152.747 63.6801 152.475 64.3681 152.475 65.2001V67.6001C152.475 68.4321 152.667 69.0401 153.051 69.4241C153.435 69.8081 154.043 70.0001 154.875 70.0001H158.187Z" fill="#332D2D"/>
<path d="M209.63 72.1246C209.606 72.1487 209.582 72.1712 209.556 72.1928C208.456 73.1117 207.869 73.6001 206.667 73.6001H203.355C200.923 73.6001 199.147 73.1201 198.027 72.1601C196.939 71.1681 196.395 69.4881 196.395 67.1201V66.1601C196.395 61.2001 198.731 58.7201 203.403 58.7201H207.395C207.947 58.7201 208.395 58.2724 208.395 57.7201V56.3201C208.395 55.3281 208.091 54.5601 207.483 54.0161C206.875 53.4721 205.979 53.2001 204.795 53.2001H199.315C198.763 53.2001 198.315 52.7524 198.315 52.2001V50.6001C198.315 50.0478 198.763 49.6001 199.315 49.6001H204.315C207.099 49.6001 209.147 50.2081 210.459 51.4241C211.802 52.6393 212.474 54.5896 212.475 57.275C212.475 57.2784 212.475 57.2775 212.475 57.2809C212.476 57.3907 212.586 68.2748 212.475 68.8001C212.37 69.2933 209.949 71.7965 209.63 72.1246ZM206.187 70.0001C207.147 70.0001 207.755 69.7761 208.011 69.3281C208.267 68.8801 208.395 68.3041 208.395 67.6001V63.3201C208.395 62.7678 207.947 62.3201 207.395 62.3201H203.355C202.523 62.3201 201.835 62.5921 201.291 63.1361C200.747 63.6801 200.475 64.3681 200.475 65.2001V67.6001C200.475 68.4321 200.667 69.0401 201.051 69.4241C201.435 69.8081 202.043 70.0001 202.875 70.0001H206.187Z" fill="#332D2D"/>
<path d="M65.0431 66.016C65.0431 68.768 64.4031 70.72 63.1231 71.872C61.8751 73.024 59.7951 73.6 56.8831 73.6H48.4751C47.9228 73.6 47.4751 73.1523 47.4751 72.6V41C47.4751 40.4477 47.9228 40 48.4751 40H56.3071C59.1871 40 61.3631 40.592 62.8351 41.776C64.3071 42.928 65.0431 44.832 65.0431 47.488V66.016ZM60.8671 47.056C60.8671 46 60.5471 45.168 59.9071 44.56C59.2671 43.92 58.4191 43.6 57.3631 43.6H52.6511C52.0988 43.6 51.6511 44.0477 51.6511 44.6V69C51.6511 69.5523 52.0988 70 52.6511 70H57.3151C58.5311 70 59.4271 69.728 60.0031 69.184C60.5791 68.608 60.8671 67.712 60.8671 66.496V47.056Z" fill="#332D2D"/>
<path d="M22.295 103.648C22.0783 103.648 21.8877 103.57 21.723 103.414C21.567 103.249 21.489 103.059 21.489 102.842C21.489 102.617 21.567 102.43 21.723 102.283C21.8877 102.127 22.0783 102.049 22.295 102.049H26.832C27.3607 102.049 27.7593 102.01 28.028 101.932C28.2967 101.845 28.4743 101.668 28.561 101.399C28.6563 101.13 28.704 100.719 28.704 100.164C28.704 99.6007 28.6563 99.189 28.561 98.929C28.4743 98.6603 28.2967 98.487 28.028 98.409C27.768 98.3223 27.3737 98.279 26.845 98.279H22.438C22.2213 98.279 22.035 98.201 21.879 98.045C21.723 97.889 21.645 97.6983 21.645 97.473C21.645 97.2477 21.723 97.0613 21.879 96.914C22.035 96.758 22.2213 96.68 22.438 96.68H26.845C27.521 96.68 28.08 96.732 28.522 96.836C28.9727 96.94 29.328 97.122 29.588 97.382C29.848 97.642 30.03 97.9973 30.134 98.448C30.2467 98.8987 30.303 99.4707 30.303 100.164C30.303 100.857 30.2467 101.429 30.134 101.88C30.03 102.331 29.848 102.686 29.588 102.946C29.328 103.206 28.9727 103.388 28.522 103.492C28.0713 103.596 27.508 103.648 26.832 103.648H22.295ZM35.906 104.493C35.698 104.571 35.49 104.562 35.282 104.467C35.0827 104.372 34.944 104.22 34.866 104.012C34.788 103.804 34.7967 103.6 34.892 103.401C34.9873 103.193 35.139 103.05 35.347 102.972C36.0403 102.729 36.738 102.43 37.44 102.075C38.1507 101.72 38.8267 101.334 39.468 100.918C40.118 100.493 40.7073 100.06 41.236 99.618C41.7733 99.1673 42.211 98.734 42.549 98.318C42.6963 98.1447 42.8783 98.045 43.095 98.019C43.3203 97.993 43.5153 98.0537 43.68 98.201C43.8533 98.3397 43.953 98.5217 43.979 98.747C44.005 98.9637 43.9443 99.1587 43.797 99.332C43.4417 99.7653 42.9693 100.229 42.38 100.723C41.7907 101.208 41.132 101.689 40.404 102.166C39.676 102.643 38.9263 103.085 38.155 103.492C37.3837 103.899 36.634 104.233 35.906 104.493ZM37.024 99.371C36.6947 99.0937 36.3263 98.8077 35.919 98.513C35.5117 98.2097 35.1433 97.9627 34.814 97.772C34.6233 97.6507 34.502 97.486 34.45 97.278C34.398 97.0613 34.4283 96.8577 34.541 96.667C34.6623 96.4763 34.827 96.355 35.035 96.303C35.2517 96.2423 35.4553 96.2727 35.646 96.394C35.88 96.5413 36.1443 96.7233 36.439 96.94C36.7423 97.148 37.0327 97.356 37.31 97.564C37.596 97.772 37.83 97.9497 38.012 98.097C38.1853 98.2357 38.285 98.4177 38.311 98.643C38.3457 98.8597 38.2937 99.0547 38.155 99.228C38.0163 99.4013 37.8343 99.5053 37.609 99.54C37.3923 99.566 37.1973 99.5097 37.024 99.371ZM50.739 105.546C50.5397 105.633 50.336 105.637 50.128 105.559C49.92 105.49 49.7683 105.355 49.673 105.156C49.5863 104.957 49.5777 104.753 49.647 104.545C49.725 104.328 49.8637 104.177 50.063 104.09C51.0423 103.631 51.766 103.011 52.234 102.231C52.702 101.451 52.949 100.446 52.975 99.215H50.999C51.0077 99.5617 51.012 99.891 51.012 100.203C51.012 100.515 51.0033 100.797 50.986 101.048C50.9773 101.273 50.8907 101.46 50.726 101.607C50.5613 101.746 50.3663 101.811 50.141 101.802C49.9243 101.785 49.7467 101.694 49.608 101.529C49.4693 101.356 49.4043 101.161 49.413 100.944C49.4303 100.71 49.439 100.446 49.439 100.151C49.439 99.8477 49.4347 99.5357 49.426 99.215H46.761C46.5443 99.215 46.358 99.1413 46.202 98.994C46.0547 98.8467 45.981 98.6647 45.981 98.448C45.981 98.2313 46.0547 98.0493 46.202 97.902C46.358 97.746 46.5443 97.668 46.761 97.668H49.374C49.3567 97.3647 49.335 97.0787 49.309 96.81C49.2917 96.5327 49.2657 96.29 49.231 96.082C49.1963 95.8653 49.2397 95.6703 49.361 95.497C49.491 95.315 49.6643 95.2067 49.881 95.172C50.1063 95.1287 50.3057 95.172 50.479 95.302C50.661 95.432 50.765 95.6053 50.791 95.822C50.8257 96.0647 50.856 96.3463 50.882 96.667C50.908 96.979 50.9297 97.3127 50.947 97.668H52.962C52.9533 97.2953 52.9403 96.9357 52.923 96.589C52.9143 96.2337 52.897 95.926 52.871 95.666C52.8537 95.4407 52.9143 95.2457 53.053 95.081C53.2003 94.9077 53.3823 94.8123 53.599 94.795C53.8243 94.7777 54.0193 94.8427 54.184 94.99C54.3573 95.1287 54.4483 95.3107 54.457 95.536C54.483 95.8047 54.5003 96.1297 54.509 96.511C54.5263 96.8837 54.5393 97.2693 54.548 97.668H57.018C57.2347 97.668 57.4167 97.746 57.564 97.902C57.72 98.0493 57.798 98.2313 57.798 98.448C57.798 98.6647 57.72 98.8467 57.564 98.994C57.4167 99.1413 57.2347 99.215 57.018 99.215H54.548C54.522 100.758 54.1883 102.062 53.547 103.128C52.9057 104.185 51.9697 104.991 50.739 105.546ZM68.328 103.31C67.574 103.596 66.9153 103.722 66.352 103.687C65.7887 103.652 65.3467 103.449 65.026 103.076C64.714 102.695 64.558 102.136 64.558 101.399V97.265C64.558 97.0397 64.636 96.849 64.792 96.693C64.9567 96.537 65.1473 96.459 65.364 96.459C65.5893 96.459 65.7757 96.537 65.923 96.693C66.079 96.849 66.157 97.0397 66.157 97.265V101.152C66.157 101.975 66.6553 102.205 67.652 101.841C68.042 101.694 68.4667 101.52 68.926 101.321C69.394 101.122 69.81 100.935 70.174 100.762C70.3733 100.667 70.577 100.654 70.785 100.723C70.993 100.784 71.149 100.914 71.253 101.113C71.357 101.304 71.3743 101.507 71.305 101.724C71.2443 101.941 71.1143 102.097 70.915 102.192C70.5163 102.383 70.0873 102.582 69.628 102.79C69.1687 102.989 68.7353 103.163 68.328 103.31ZM59.813 104.142C59.6137 104.229 59.41 104.237 59.202 104.168C58.994 104.09 58.8423 103.951 58.747 103.752C58.6603 103.553 58.6517 103.349 58.721 103.141C58.799 102.924 58.9377 102.773 59.137 102.686C59.839 102.357 60.3937 101.958 60.801 101.49C61.2083 101.013 61.4987 100.476 61.672 99.878C61.8453 99.2713 61.932 98.6213 61.932 97.928C61.932 97.7027 62.01 97.512 62.166 97.356C62.322 97.2 62.5083 97.122 62.725 97.122C62.9503 97.122 63.1367 97.2 63.284 97.356C63.44 97.512 63.518 97.7027 63.518 97.928C63.5093 99.4187 63.1843 100.693 62.543 101.75C61.9017 102.807 60.9917 103.605 59.813 104.142ZM75.036 105.325C74.8453 105.42 74.6417 105.438 74.425 105.377C74.217 105.325 74.0567 105.204 73.944 105.013C73.8313 104.822 73.8053 104.623 73.866 104.415C73.9267 104.198 74.0523 104.034 74.243 103.921C75.1357 103.436 75.8593 102.833 76.414 102.114C76.9773 101.395 77.3283 100.615 77.467 99.774H73.71C73.4933 99.774 73.307 99.7003 73.151 99.553C73.0037 99.397 72.93 99.2107 72.93 98.994C72.93 98.7773 73.0037 98.5953 73.151 98.448C73.307 98.292 73.4933 98.214 73.71 98.214H82.316C82.5327 98.214 82.7147 98.292 82.862 98.448C83.018 98.5953 83.096 98.7773 83.096 98.994C83.096 99.2107 83.018 99.397 82.862 99.553C82.7147 99.7003 82.5327 99.774 82.316 99.774H79.04C78.9447 100.519 78.7193 101.247 78.364 101.958C78.0173 102.66 77.5623 103.301 76.999 103.882C76.4357 104.463 75.7813 104.944 75.036 105.325ZM75.218 96.979C75.0013 96.979 74.8193 96.9053 74.672 96.758C74.5247 96.602 74.451 96.4157 74.451 96.199C74.451 95.9823 74.5247 95.8003 74.672 95.653C74.8193 95.497 75.0013 95.419 75.218 95.419H80.925C81.1417 95.419 81.3237 95.497 81.471 95.653C81.627 95.8003 81.705 95.9823 81.705 96.199C81.705 96.4157 81.627 96.602 81.471 96.758C81.3237 96.9053 81.1417 96.979 80.925 96.979H75.218ZM91.533 105.91C91.3423 105.91 91.1777 105.841 91.039 105.702C90.909 105.572 90.844 105.412 90.844 105.221V101.542C90.0293 102.244 89.206 102.855 88.374 103.375C88.2093 103.47 88.0317 103.496 87.841 103.453C87.6503 103.401 87.503 103.293 87.399 103.128C87.3037 102.963 87.2777 102.786 87.321 102.595C87.373 102.404 87.4813 102.261 87.646 102.166C88.244 101.819 88.8333 101.412 89.414 100.944C90.0033 100.476 90.545 99.9863 91.039 99.475C91.5417 98.955 91.9577 98.4523 92.287 97.967C92.3997 97.8023 92.547 97.7027 92.729 97.668C92.9197 97.6333 93.0973 97.6723 93.262 97.785C93.4267 97.8977 93.5263 98.0493 93.561 98.24C93.5957 98.4307 93.5567 98.604 93.444 98.76C93.288 98.9853 93.106 99.2237 92.898 99.475C92.6987 99.7263 92.4733 99.9777 92.222 100.229V105.221C92.222 105.412 92.1527 105.572 92.014 105.702C91.884 105.841 91.7237 105.91 91.533 105.91ZM100.906 104.493C100.698 104.571 100.49 104.562 100.282 104.467C100.083 104.372 99.944 104.22 99.866 104.012C99.788 103.804 99.7967 103.6 99.892 103.401C99.9873 103.193 100.139 103.05 100.347 102.972C101.04 102.729 101.738 102.43 102.44 102.075C103.151 101.72 103.827 101.334 104.468 100.918C105.118 100.493 105.707 100.06 106.236 99.618C106.773 99.1673 107.211 98.734 107.549 98.318C107.696 98.1447 107.878 98.045 108.095 98.019C108.32 97.993 108.515 98.0537 108.68 98.201C108.853 98.3397 108.953 98.5217 108.979 98.747C109.005 98.9637 108.944 99.1587 108.797 99.332C108.442 99.7653 107.969 100.229 107.38 100.723C106.791 101.208 106.132 101.689 105.404 102.166C104.676 102.643 103.926 103.085 103.155 103.492C102.384 103.899 101.634 104.233 100.906 104.493ZM102.024 99.371C101.695 99.0937 101.326 98.8077 100.919 98.513C100.512 98.2097 100.143 97.9627 99.814 97.772C99.6233 97.6507 99.502 97.486 99.45 97.278C99.398 97.0613 99.4283 96.8577 99.541 96.667C99.6623 96.4763 99.827 96.355 100.035 96.303C100.252 96.2423 100.455 96.2727 100.646 96.394C100.88 96.5413 101.144 96.7233 101.439 96.94C101.742 97.148 102.033 97.356 102.31 97.564C102.596 97.772 102.83 97.9497 103.012 98.097C103.185 98.2357 103.285 98.4177 103.311 98.643C103.346 98.8597 103.294 99.0547 103.155 99.228C103.016 99.4013 102.834 99.5053 102.609 99.54C102.392 99.566 102.197 99.5097 102.024 99.371ZM113.737 105.455C113.538 105.542 113.334 105.546 113.126 105.468C112.918 105.39 112.771 105.247 112.684 105.039C112.597 104.84 112.593 104.636 112.671 104.428C112.758 104.22 112.901 104.073 113.1 103.986C114.53 103.362 115.769 102.582 116.818 101.646C117.875 100.71 118.707 99.6397 119.314 98.435C119.591 97.8803 119.392 97.603 118.716 97.603H117C116.584 98.1577 116.116 98.6993 115.596 99.228C115.085 99.748 114.556 100.203 114.01 100.593C113.828 100.723 113.624 100.771 113.399 100.736C113.182 100.693 113.013 100.58 112.892 100.398C112.762 100.216 112.714 100.017 112.749 99.8C112.792 99.5747 112.905 99.4013 113.087 99.28C113.572 98.942 114.045 98.5477 114.504 98.097C114.963 97.6377 115.379 97.1567 115.752 96.654C116.133 96.1427 116.432 95.6443 116.649 95.159C116.744 94.951 116.892 94.808 117.091 94.73C117.299 94.652 117.507 94.6563 117.715 94.743C117.914 94.8297 118.053 94.9813 118.131 95.198C118.218 95.406 118.213 95.6097 118.118 95.809C118.101 95.8437 118.079 95.8827 118.053 95.926C118.027 95.9693 118.005 96.0127 117.988 96.056H118.872C119.912 96.056 120.601 96.3247 120.939 96.862C121.277 97.3907 121.229 98.1057 120.796 99.007C120.354 99.9257 119.778 100.797 119.067 101.62C118.356 102.435 117.546 103.171 116.636 103.83C115.735 104.48 114.768 105.022 113.737 105.455ZM122.941 95.809C122.828 95.6963 122.685 95.562 122.512 95.406C122.339 95.2413 122.178 95.1027 122.031 94.99C121.944 94.912 121.892 94.8037 121.875 94.665C121.858 94.5177 121.897 94.3877 121.992 94.275C122.079 94.171 122.187 94.1147 122.317 94.106C122.456 94.0887 122.586 94.1147 122.707 94.184C122.854 94.2707 123.023 94.392 123.214 94.548C123.413 94.6953 123.582 94.834 123.721 94.964C123.834 95.0767 123.89 95.211 123.89 95.367C123.899 95.5143 123.851 95.6487 123.747 95.77C123.652 95.8827 123.522 95.9477 123.357 95.965C123.201 95.9737 123.062 95.9217 122.941 95.809ZM122.603 96.992C122.49 97.1047 122.356 97.161 122.2 97.161C122.044 97.1523 121.91 97.0873 121.797 96.966C121.693 96.8447 121.559 96.7017 121.394 96.537C121.229 96.3637 121.082 96.212 120.952 96.082C120.865 95.9953 120.818 95.887 120.809 95.757C120.8 95.6183 120.848 95.4927 120.952 95.38C121.047 95.276 121.164 95.224 121.303 95.224C121.442 95.2153 121.567 95.25 121.68 95.328C121.819 95.4233 121.979 95.5533 122.161 95.718C122.352 95.8827 122.508 96.0387 122.629 96.186C122.733 96.2987 122.781 96.433 122.772 96.589C122.772 96.7363 122.716 96.8707 122.603 96.992ZM131.391 104.961C131.174 105.013 130.971 104.983 130.78 104.87C130.589 104.757 130.468 104.597 130.416 104.389C130.364 104.181 130.394 103.986 130.507 103.804C130.62 103.613 130.78 103.492 130.988 103.44C131.95 103.189 132.656 102.781 133.107 102.218C133.566 101.655 133.796 100.94 133.796 100.073C133.796 99.527 133.675 99.0373 133.432 98.604C133.189 98.1707 132.843 97.8197 132.392 97.551C131.95 97.2823 131.417 97.1177 130.793 97.057C130.637 98.513 130.373 99.774 130 100.84C129.636 101.897 129.203 102.716 128.7 103.297C128.206 103.869 127.686 104.155 127.14 104.155C126.681 104.155 126.26 104.021 125.879 103.752C125.498 103.483 125.194 103.098 124.969 102.595C124.752 102.092 124.644 101.49 124.644 100.788C124.644 100.069 124.778 99.397 125.047 98.773C125.324 98.1403 125.714 97.5857 126.217 97.109C126.72 96.6323 127.309 96.2597 127.985 95.991C128.67 95.7223 129.419 95.588 130.234 95.588C131.222 95.588 132.097 95.7787 132.86 96.16C133.631 96.5327 134.238 97.057 134.68 97.733C135.122 98.4003 135.343 99.1803 135.343 100.073C135.343 101.33 135.005 102.378 134.329 103.219C133.662 104.051 132.682 104.632 131.391 104.961ZM127.153 102.556C127.309 102.556 127.487 102.426 127.686 102.166C127.894 101.897 128.102 101.52 128.31 101.035C128.518 100.55 128.709 99.9777 128.882 99.319C129.055 98.6517 129.185 97.915 129.272 97.109C128.596 97.239 128.028 97.4903 127.569 97.863C127.11 98.227 126.763 98.6647 126.529 99.176C126.295 99.6787 126.174 100.207 126.165 100.762C126.165 101.351 126.256 101.798 126.438 102.101C126.629 102.404 126.867 102.556 127.153 102.556ZM144.014 106.196C143.797 106.196 143.607 106.135 143.442 106.014C143.277 105.901 143.182 105.728 143.156 105.494C143.139 105.303 143.182 105.13 143.286 104.974C143.399 104.809 143.568 104.718 143.793 104.701C144.148 104.658 144.382 104.593 144.495 104.506C144.608 104.419 144.664 104.242 144.664 103.973V103.193H141.011C141.028 103.202 141.046 103.21 141.063 103.219C141.08 103.219 141.093 103.228 141.102 103.245C141.189 103.306 141.306 103.401 141.453 103.531C141.609 103.652 141.761 103.778 141.908 103.908C142.064 104.029 142.177 104.125 142.246 104.194C142.419 104.341 142.51 104.523 142.519 104.74C142.536 104.957 142.463 105.152 142.298 105.325C142.151 105.481 141.969 105.563 141.752 105.572C141.535 105.589 141.345 105.52 141.18 105.364C141.111 105.286 141.002 105.182 140.855 105.052C140.708 104.931 140.56 104.805 140.413 104.675C140.266 104.545 140.149 104.445 140.062 104.376C139.906 104.246 139.824 104.081 139.815 103.882C139.815 103.674 139.884 103.492 140.023 103.336C140.066 103.293 140.123 103.245 140.192 103.193H137.501C137.31 103.193 137.154 103.128 137.033 102.998C136.92 102.868 136.864 102.716 136.864 102.543C136.864 102.37 136.92 102.222 137.033 102.101C137.154 101.971 137.31 101.906 137.501 101.906H144.664V101.386H141.193C140.526 101.386 140.001 101.321 139.62 101.191C139.247 101.061 138.983 100.84 138.827 100.528C138.68 100.207 138.606 99.7653 138.606 99.202V98.968C138.606 98.422 138.68 97.9887 138.827 97.668C138.983 97.3473 139.247 97.122 139.62 96.992C140.001 96.8533 140.526 96.784 141.193 96.784H142.285V96.238H137.644C137.462 96.238 137.319 96.1817 137.215 96.069C137.111 95.9477 137.059 95.8047 137.059 95.64C137.059 95.4753 137.111 95.3367 137.215 95.224C137.319 95.1027 137.462 95.042 137.644 95.042H142.285V94.6C142.285 94.3747 142.359 94.1927 142.506 94.054C142.653 93.9153 142.831 93.846 143.039 93.846C143.247 93.846 143.425 93.9153 143.572 94.054C143.719 94.1927 143.793 94.3747 143.793 94.6V95.042H148.343C148.525 95.042 148.668 95.1027 148.772 95.224C148.876 95.3367 148.928 95.4753 148.928 95.64C148.928 95.8047 148.876 95.9477 148.772 96.069C148.668 96.1817 148.525 96.238 148.343 96.238H143.793V96.784H144.872C145.539 96.784 146.059 96.8533 146.432 96.992C146.813 97.122 147.078 97.3473 147.225 97.668C147.381 97.9887 147.459 98.422 147.459 98.968V99.202C147.459 99.8173 147.368 100.285 147.186 100.606C147.004 100.927 146.67 101.148 146.185 101.269V101.906H148.421C148.62 101.906 148.772 101.971 148.876 102.101C148.989 102.222 149.045 102.37 149.045 102.543C149.045 102.716 148.989 102.868 148.876 102.998C148.772 103.128 148.62 103.193 148.421 103.193H146.185V104.233C146.185 104.892 146.016 105.381 145.678 105.702C145.349 106.031 144.794 106.196 144.014 106.196ZM141.167 100.255H142.285V99.605H140.192C140.209 99.8997 140.283 100.082 140.413 100.151C140.552 100.22 140.803 100.255 141.167 100.255ZM143.793 100.255H144.911C145.275 100.255 145.522 100.22 145.652 100.151C145.791 100.082 145.869 99.8997 145.886 99.605H143.793V100.255ZM140.192 98.565H142.285V97.915H141.167C140.803 97.915 140.552 97.9497 140.413 98.019C140.283 98.0883 140.209 98.2703 140.192 98.565ZM143.793 98.565H145.886C145.869 98.2703 145.791 98.0883 145.652 98.019C145.522 97.9497 145.275 97.915 144.911 97.915H143.793V98.565ZM159.38 106.014C159.129 106.014 158.925 105.94 158.769 105.793C158.622 105.654 158.539 105.472 158.522 105.247C158.496 105.03 158.548 104.84 158.678 104.675C158.817 104.51 158.999 104.415 159.224 104.389C159.579 104.346 159.796 104.281 159.874 104.194C159.961 104.099 160.004 103.93 160.004 103.687V99.501H158.574C157.811 99.501 157.261 99.3667 156.923 99.098C156.594 98.8207 156.429 98.3223 156.429 97.603V96.355C156.429 95.6357 156.594 95.1287 156.923 94.834C157.261 94.5393 157.811 94.392 158.574 94.392H159.367C160.138 94.392 160.689 94.5393 161.018 94.834C161.347 95.1287 161.512 95.6357 161.512 96.355V104.09C161.512 104.775 161.343 105.264 161.005 105.559C160.667 105.862 160.125 106.014 159.38 106.014ZM151.268 106.105C151.06 106.105 150.882 106.036 150.735 105.897C150.588 105.767 150.514 105.589 150.514 105.364V96.355C150.514 95.6357 150.679 95.1287 151.008 94.834C151.346 94.5393 151.896 94.392 152.659 94.392H153.4C154.171 94.392 154.722 94.5393 155.051 94.834C155.38 95.1287 155.545 95.6357 155.545 96.355V97.603C155.545 98.3223 155.38 98.8207 155.051 99.098C154.722 99.3667 154.171 99.501 153.4 99.501H152.022V105.364C152.022 105.589 151.948 105.767 151.801 105.897C151.654 106.036 151.476 106.105 151.268 106.105ZM158.73 98.253H160.004V97.512H157.885C157.894 97.8153 157.954 98.0147 158.067 98.11C158.18 98.2053 158.401 98.253 158.73 98.253ZM152.022 98.253H153.244C153.582 98.253 153.803 98.2053 153.907 98.11C154.02 98.0147 154.08 97.8153 154.089 97.512H152.022V98.253ZM157.885 96.368H160.004C159.995 96.0647 159.935 95.8697 159.822 95.783C159.718 95.6877 159.497 95.64 159.159 95.64H158.73C158.401 95.64 158.18 95.6877 158.067 95.783C157.954 95.8697 157.894 96.0647 157.885 96.368ZM152.022 96.368H154.089C154.08 96.0647 154.02 95.8697 153.907 95.783C153.803 95.6877 153.582 95.64 153.244 95.64H152.867C152.538 95.64 152.317 95.6877 152.204 95.783C152.091 95.8697 152.031 96.0647 152.022 96.368ZM165.568 106.105C165.36 106.105 165.182 106.036 165.035 105.897C164.896 105.767 164.827 105.589 164.827 105.364V94.743C164.827 94.5177 164.896 94.34 165.035 94.21C165.182 94.0713 165.36 94.002 165.568 94.002C165.776 94.002 165.949 94.0713 166.088 94.21C166.227 94.34 166.296 94.5177 166.296 94.743V96.095C166.305 96.095 166.318 96.0863 166.335 96.069C166.474 95.9737 166.625 95.9303 166.79 95.939C166.955 95.9477 167.08 96.0127 167.167 96.134C167.219 96.1947 167.288 96.29 167.375 96.42C167.47 96.5413 167.566 96.667 167.661 96.797C167.756 96.9183 167.826 97.018 167.869 97.096C167.886 96.9747 167.934 96.8707 168.012 96.784C168.09 96.6887 168.198 96.641 168.337 96.641H170.118V96.16H167.661C167.505 96.16 167.379 96.108 167.284 96.004C167.197 95.9 167.154 95.7787 167.154 95.64C167.154 95.5013 167.197 95.38 167.284 95.276C167.379 95.1633 167.505 95.107 167.661 95.107H170.118V94.652C170.118 94.4267 170.192 94.249 170.339 94.119C170.486 93.989 170.664 93.924 170.872 93.924C171.08 93.924 171.253 93.989 171.392 94.119C171.539 94.249 171.613 94.4267 171.613 94.652V95.107H174.265C174.421 95.107 174.542 95.1633 174.629 95.276C174.716 95.38 174.759 95.5013 174.759 95.64C174.759 95.7787 174.716 95.9 174.629 96.004C174.542 96.108 174.421 96.16 174.265 96.16H171.613V96.641H173.498C173.645 96.641 173.758 96.693 173.836 96.797C173.914 96.901 173.953 97.018 173.953 97.148C173.953 97.278 173.914 97.395 173.836 97.499C173.758 97.603 173.645 97.655 173.498 97.655H171.613V98.175H174.629C174.794 98.175 174.919 98.227 175.006 98.331C175.093 98.435 175.136 98.5607 175.136 98.708C175.136 98.8467 175.093 98.968 175.006 99.072C174.919 99.176 174.794 99.228 174.629 99.228H167.284C167.119 99.228 166.994 99.176 166.907 99.072C166.82 98.968 166.777 98.8467 166.777 98.708C166.777 98.5607 166.82 98.435 166.907 98.331C166.994 98.227 167.119 98.175 167.284 98.175H170.118V97.655H168.337C168.268 97.655 168.203 97.642 168.142 97.616C168.09 97.5813 168.042 97.5467 167.999 97.512C167.999 97.7287 167.912 97.8977 167.739 98.019C167.6 98.1143 167.444 98.149 167.271 98.123C167.098 98.097 166.963 98.0147 166.868 97.876C166.807 97.7807 166.721 97.6507 166.608 97.486C166.495 97.3127 166.391 97.1567 166.296 97.018V105.364C166.296 105.589 166.227 105.767 166.088 105.897C165.949 106.036 165.776 106.105 165.568 106.105ZM168.714 106.196C168.506 106.196 168.328 106.127 168.181 105.988C168.034 105.849 167.96 105.667 167.96 105.442V101.49C167.96 101.039 168.016 100.684 168.129 100.424C168.25 100.155 168.454 99.9647 168.74 99.852C169.035 99.7307 169.442 99.67 169.962 99.67H171.964C172.484 99.67 172.887 99.7307 173.173 99.852C173.459 99.9647 173.658 100.155 173.771 100.424C173.892 100.684 173.953 101.039 173.953 101.49V104.35C173.953 105 173.788 105.459 173.459 105.728C173.13 106.005 172.649 106.144 172.016 106.144C171.799 106.144 171.622 106.083 171.483 105.962C171.344 105.849 171.266 105.698 171.249 105.507C171.232 105.308 171.275 105.134 171.379 104.987C171.483 104.84 171.639 104.753 171.847 104.727C172.09 104.692 172.25 104.653 172.328 104.61C172.415 104.558 172.458 104.428 172.458 104.22V103.895H169.455V105.442C169.455 105.667 169.381 105.849 169.234 105.988C169.087 106.127 168.913 106.196 168.714 106.196ZM163.254 100.268C163.072 100.233 162.942 100.142 162.864 99.995C162.786 99.839 162.764 99.6743 162.799 99.501C162.851 99.293 162.903 99.0373 162.955 98.734C163.007 98.422 163.055 98.11 163.098 97.798C163.141 97.486 163.172 97.2217 163.189 97.005C163.206 96.7797 163.289 96.615 163.436 96.511C163.592 96.407 163.774 96.3723 163.982 96.407C164.155 96.433 164.294 96.5153 164.398 96.654C164.502 96.784 164.545 96.9487 164.528 97.148C164.502 97.3993 164.467 97.694 164.424 98.032C164.381 98.3613 164.333 98.682 164.281 98.994C164.229 99.306 164.177 99.5703 164.125 99.787C164.082 99.9777 163.978 100.116 163.813 100.203C163.657 100.29 163.471 100.311 163.254 100.268ZM169.455 102.894H172.458V102.322H169.455V102.894ZM169.455 101.321H172.458C172.449 101.07 172.393 100.914 172.289 100.853C172.194 100.784 171.986 100.749 171.665 100.749H170.248C169.927 100.749 169.715 100.784 169.611 100.853C169.516 100.914 169.464 101.07 169.455 101.321ZM183.079 106.118C182.888 106.118 182.719 106.049 182.572 105.91C182.433 105.78 182.364 105.607 182.364 105.39V96.563C182.364 95.991 182.429 95.549 182.559 95.237C182.698 94.9163 182.945 94.691 183.3 94.561C183.655 94.431 184.171 94.366 184.847 94.366C185.523 94.366 186.039 94.4223 186.394 94.535C186.758 94.6477 187.005 94.847 187.135 95.133C187.274 95.419 187.343 95.8177 187.343 96.329C187.343 96.901 187.274 97.3473 187.135 97.668C186.996 97.9887 186.771 98.214 186.459 98.344C186.156 98.4653 185.748 98.5303 185.237 98.539C185.012 98.539 184.834 98.474 184.704 98.344C184.574 98.2053 184.5 98.0277 184.483 97.811C184.474 97.6117 184.535 97.447 184.665 97.317C184.804 97.1783 184.981 97.1047 185.198 97.096C185.484 97.0787 185.67 97.031 185.757 96.953C185.844 96.8663 185.887 96.7103 185.887 96.485C185.887 96.1557 185.822 95.9433 185.692 95.848C185.562 95.7527 185.28 95.705 184.847 95.705C184.422 95.705 184.141 95.7613 184.002 95.874C183.872 95.978 183.807 96.2077 183.807 96.563V98.89H185.809C186.502 98.89 186.979 99.0503 187.239 99.371C187.499 99.683 187.564 100.16 187.434 100.801C187.243 101.746 186.949 102.569 186.55 103.271C186.741 103.488 186.94 103.7 187.148 103.908C187.356 104.107 187.581 104.298 187.824 104.48C187.98 104.593 188.062 104.753 188.071 104.961C188.088 105.16 188.036 105.334 187.915 105.481C187.776 105.646 187.603 105.732 187.395 105.741C187.187 105.758 187.001 105.702 186.836 105.572C186.628 105.407 186.429 105.234 186.238 105.052C186.056 104.879 185.883 104.697 185.718 104.506C185.579 104.662 185.436 104.818 185.289 104.974C185.15 105.121 185.003 105.269 184.847 105.416C184.7 105.555 184.526 105.633 184.327 105.65C184.128 105.676 183.954 105.62 183.807 105.481C183.781 105.672 183.699 105.823 183.56 105.936C183.43 106.057 183.27 106.118 183.079 106.118ZM179.114 106.144C178.923 106.144 178.759 106.079 178.62 105.949C178.481 105.819 178.412 105.646 178.412 105.429V103.752H176.839C176.666 103.752 176.514 103.691 176.384 103.57C176.263 103.44 176.202 103.288 176.202 103.115C176.202 102.942 176.263 102.794 176.384 102.673C176.514 102.543 176.666 102.478 176.839 102.478H178.412V101.594H176.67C176.497 101.594 176.345 101.533 176.215 101.412C176.094 101.282 176.033 101.13 176.033 100.957C176.033 100.784 176.094 100.636 176.215 100.515C176.345 100.385 176.497 100.32 176.67 100.32H177.359C177.298 100.155 177.238 99.995 177.177 99.839C177.116 99.683 177.077 99.5833 177.06 99.54C176.991 99.3753 176.995 99.215 177.073 99.059C177.151 98.903 177.272 98.7947 177.437 98.734H176.462C176.289 98.734 176.137 98.6733 176.007 98.552C175.886 98.422 175.825 98.2703 175.825 98.097C175.825 97.9237 175.886 97.7763 176.007 97.655C176.137 97.525 176.289 97.46 176.462 97.46H178.412V96.641H177.021C176.848 96.641 176.7 96.5803 176.579 96.459C176.458 96.329 176.397 96.1817 176.397 96.017C176.397 95.8437 176.458 95.6963 176.579 95.575C176.7 95.4537 176.848 95.393 177.021 95.393H178.412V94.704C178.412 94.4873 178.481 94.314 178.62 94.184C178.759 94.054 178.923 93.989 179.114 93.989C179.313 93.989 179.482 94.054 179.621 94.184C179.76 94.314 179.829 94.4873 179.829 94.704V95.393H181.168C181.341 95.393 181.489 95.4537 181.61 95.575C181.731 95.6963 181.792 95.8437 181.792 96.017C181.792 96.1817 181.731 96.329 181.61 96.459C181.489 96.5803 181.341 96.641 181.168 96.641H179.829V97.46H181.636C181.809 97.46 181.957 97.525 182.078 97.655C182.208 97.7763 182.273 97.9237 182.273 98.097C182.273 98.2703 182.208 98.422 182.078 98.552C181.957 98.6733 181.809 98.734 181.636 98.734H180.778C180.934 98.7947 181.047 98.903 181.116 99.059C181.194 99.2063 181.198 99.358 181.129 99.514C181.112 99.5747 181.068 99.6873 180.999 99.852C180.938 100.008 180.873 100.164 180.804 100.32H181.415C181.588 100.32 181.736 100.385 181.857 100.515C181.987 100.636 182.052 100.784 182.052 100.957C182.052 101.13 181.987 101.282 181.857 101.412C181.736 101.533 181.588 101.594 181.415 101.594H179.829V102.478H181.259C181.432 102.478 181.58 102.543 181.701 102.673C181.831 102.794 181.896 102.942 181.896 103.115C181.896 103.288 181.831 103.44 181.701 103.57C181.58 103.691 181.432 103.752 181.259 103.752H179.829V105.429C179.829 105.646 179.76 105.819 179.621 105.949C179.482 106.079 179.313 106.144 179.114 106.144ZM178.724 100.32H179.465C179.508 100.207 179.556 100.069 179.608 99.904C179.669 99.7393 179.721 99.5833 179.764 99.436C179.816 99.2887 179.851 99.1933 179.868 99.15C179.894 99.046 179.942 98.9593 180.011 98.89C180.08 98.8207 180.158 98.7687 180.245 98.734H177.905C178.078 98.8033 178.204 98.9247 178.282 99.098C178.317 99.176 178.36 99.2973 178.412 99.462C178.473 99.6267 178.533 99.7913 178.594 99.956C178.655 100.112 178.698 100.233 178.724 100.32ZM183.807 104.441C184.214 104.06 184.57 103.674 184.873 103.284C184.448 102.539 184.123 101.689 183.898 100.736C183.846 100.528 183.872 100.35 183.976 100.203H183.807V104.441ZM185.679 101.919C185.748 101.746 185.813 101.568 185.874 101.386C185.943 101.204 185.995 101.018 186.03 100.827C186.091 100.576 186.086 100.411 186.017 100.333C185.956 100.246 185.792 100.203 185.523 100.203H185.055C185.107 100.264 185.146 100.35 185.172 100.463C185.302 100.974 185.471 101.46 185.679 101.919ZM191.295 104.779C191.113 104.9 190.914 104.939 190.697 104.896C190.48 104.844 190.311 104.723 190.19 104.532C190.077 104.341 190.043 104.138 190.086 103.921C190.138 103.704 190.259 103.54 190.45 103.427C191.256 102.933 192.014 102.383 192.725 101.776C193.436 101.161 194.086 100.511 194.675 99.826C194.354 99.6007 194.038 99.397 193.726 99.215C193.423 99.0243 193.132 98.8597 192.855 98.721C192.656 98.6257 192.517 98.474 192.439 98.266C192.37 98.058 192.383 97.8543 192.478 97.655C192.573 97.4557 192.725 97.3213 192.933 97.252C193.15 97.1827 193.358 97.1957 193.557 97.291C193.869 97.4383 194.203 97.6247 194.558 97.85C194.922 98.0667 195.29 98.305 195.663 98.565C195.94 98.1663 196.196 97.7633 196.43 97.356C196.673 96.9487 196.889 96.537 197.08 96.121C197.175 95.9217 197.327 95.783 197.535 95.705C197.743 95.627 197.947 95.6357 198.146 95.731C198.345 95.8177 198.484 95.9693 198.562 96.186C198.64 96.394 198.631 96.5977 198.536 96.797C198.103 97.707 197.565 98.604 196.924 99.488C197.288 99.7827 197.63 100.069 197.951 100.346C198.272 100.623 198.54 100.879 198.757 101.113C198.904 101.278 198.974 101.473 198.965 101.698C198.965 101.915 198.883 102.101 198.718 102.257C198.553 102.413 198.358 102.487 198.133 102.478C197.908 102.469 197.721 102.383 197.574 102.218C197.357 101.993 197.11 101.754 196.833 101.503C196.556 101.252 196.252 101 195.923 100.749C195.264 101.52 194.541 102.253 193.752 102.946C192.972 103.631 192.153 104.242 191.295 104.779ZM204.997 105.325C204.806 105.42 204.603 105.438 204.386 105.377C204.178 105.325 204.018 105.204 203.905 105.013C203.792 104.822 203.766 104.623 203.827 104.415C203.888 104.198 204.013 104.034 204.204 103.921C205.097 103.436 205.82 102.833 206.375 102.114C206.938 101.395 207.289 100.615 207.428 99.774H203.658C203.441 99.774 203.259 99.7003 203.112 99.553C202.965 99.397 202.891 99.2107 202.891 98.994C202.891 98.7773 202.965 98.5953 203.112 98.448C203.259 98.292 203.441 98.214 203.658 98.214H212.277C212.494 98.214 212.676 98.292 212.823 98.448C212.97 98.5953 213.044 98.7773 213.044 98.994C213.044 99.2107 212.97 99.397 212.823 99.553C212.676 99.7003 212.494 99.774 212.277 99.774H208.988C208.901 100.519 208.68 101.247 208.325 101.958C207.978 102.66 207.523 103.301 206.96 103.882C206.397 104.463 205.742 104.944 204.997 105.325ZM205.179 96.979C204.962 96.979 204.776 96.9053 204.62 96.758C204.473 96.602 204.399 96.4157 204.399 96.199C204.399 95.9823 204.473 95.8003 204.62 95.653C204.776 95.497 204.962 95.419 205.179 95.419H210.717C210.942 95.419 211.129 95.497 211.276 95.653C211.423 95.8003 211.497 95.9823 211.497 96.199C211.497 96.4157 211.423 96.602 211.276 96.758C211.129 96.9053 210.942 96.979 210.717 96.979H205.179ZM213.486 98.019C213.373 98.123 213.235 98.1663 213.07 98.149C212.914 98.1317 212.788 98.058 212.693 97.928C212.606 97.798 212.489 97.6377 212.342 97.447C212.195 97.2563 212.06 97.0917 211.939 96.953C211.861 96.8577 211.826 96.7407 211.835 96.602C211.844 96.4633 211.904 96.3463 212.017 96.251C212.121 96.1557 212.238 96.1123 212.368 96.121C212.507 96.1297 212.628 96.1817 212.732 96.277C212.853 96.3897 212.996 96.5413 213.161 96.732C213.334 96.914 213.477 97.0787 213.59 97.226C213.685 97.356 213.72 97.499 213.694 97.655C213.677 97.8023 213.607 97.9237 213.486 98.019ZM214.734 96.94C214.621 97.044 214.483 97.096 214.318 97.096C214.162 97.0873 214.036 97.0223 213.941 96.901C213.837 96.7797 213.707 96.6323 213.551 96.459C213.395 96.277 213.252 96.1167 213.122 95.978C213.035 95.8913 212.988 95.783 212.979 95.653C212.979 95.5143 213.035 95.3887 213.148 95.276C213.243 95.1807 213.356 95.133 213.486 95.133C213.625 95.1243 213.75 95.1633 213.863 95.25C213.993 95.3453 214.149 95.4797 214.331 95.653C214.513 95.8263 214.665 95.9867 214.786 96.134C214.881 96.2553 214.925 96.394 214.916 96.55C214.907 96.6973 214.847 96.8273 214.734 96.94ZM221.533 105.91C221.342 105.91 221.178 105.841 221.039 105.702C220.909 105.572 220.844 105.412 220.844 105.221V101.542C220.029 102.244 219.206 102.855 218.374 103.375C218.209 103.47 218.032 103.496 217.841 103.453C217.65 103.401 217.503 103.293 217.399 103.128C217.304 102.963 217.278 102.786 217.321 102.595C217.373 102.404 217.481 102.261 217.646 102.166C218.244 101.819 218.833 101.412 219.414 100.944C220.003 100.476 220.545 99.9863 221.039 99.475C221.542 98.955 221.958 98.4523 222.287 97.967C222.4 97.8023 222.547 97.7027 222.729 97.668C222.92 97.6333 223.097 97.6723 223.262 97.785C223.427 97.8977 223.526 98.0493 223.561 98.24C223.596 98.4307 223.557 98.604 223.444 98.76C223.288 98.9853 223.106 99.2237 222.898 99.475C222.699 99.7263 222.473 99.9777 222.222 100.229V105.221C222.222 105.412 222.153 105.572 222.014 105.702C221.884 105.841 221.724 105.91 221.533 105.91ZM231.66 105.546C231.487 105.685 231.292 105.741 231.075 105.715C230.858 105.689 230.681 105.589 230.542 105.416C230.403 105.243 230.347 105.048 230.373 104.831C230.399 104.606 230.499 104.424 230.672 104.285C231.261 103.826 231.751 103.288 232.141 102.673C232.531 102.049 232.8 101.369 232.947 100.632C233.103 99.8953 233.112 99.1327 232.973 98.344C232.938 98.1187 232.982 97.9193 233.103 97.746C233.224 97.564 233.393 97.4557 233.61 97.421C233.835 97.3777 234.035 97.4167 234.208 97.538C234.39 97.6593 234.498 97.8327 234.533 98.058C234.55 98.1187 234.559 98.1837 234.559 98.253C234.568 98.3223 234.576 98.3917 234.585 98.461C235.365 98.4177 235.95 98.3527 236.34 98.266C236.739 98.1707 237.003 98.0667 237.133 97.954C237.272 97.8327 237.341 97.7113 237.341 97.59C237.341 97.408 237.285 97.2693 237.172 97.174C237.059 97.07 236.817 97.018 236.444 97.018H229.567C229.35 97.018 229.16 96.94 228.995 96.784C228.839 96.628 228.761 96.4417 228.761 96.225C228.761 95.9997 228.839 95.8133 228.995 95.666C229.16 95.51 229.35 95.432 229.567 95.432H236.444C238.16 95.432 239.018 96.1297 239.018 97.525C239.018 98.045 238.866 98.4783 238.563 98.825C238.268 99.163 237.796 99.423 237.146 99.605C236.505 99.787 235.66 99.9083 234.611 99.969C234.533 101.096 234.238 102.14 233.727 103.102C233.216 104.064 232.527 104.879 231.66 105.546Z" fill="#343436"/>
<defs>
<linearGradient id="paint0_linear_2425_1370" x1="49" y1="16" x2="175.5" y2="16" gradientUnits="userSpaceOnUse">
<stop stop-color="#C31F1F"/>
<stop offset="1" stop-color="#132097"/>
</linearGradient>
</defs>
</svg>
