<svg width="318" height="92" viewBox="0 0 318 92" fill="none" xmlns="http://www.w3.org/2000/svg"><g filter="url(#filter0_dd_2082_4409)" clip-path="url(#clip0_2082_4409)"><rect x="1" y="30" width="315.5" height="61" rx="11" stroke="#fff" stroke-width="2"/><g filter="url(#filter1_d_2082_4409)"><path d="M36.488 64.544c-.832.048-1.312-.288-1.44-1.008-.048-.32.04-.6.264-.84.224-.256.536-.392.936-.408a26.555 26.555 0 002.76-.216c.832-.128 1.576-.28 2.232-.456l-.36-.096c-.896-.208-1.48-.56-1.752-1.056-.256-.496-.224-1.056.096-1.68h-3.072c-.288 0-.528-.08-.72-.24a.976.976 0 01-.312-.624.728.728 0 01-.216.024c-.368 0-.688-.12-.96-.36s-.408-.568-.408-.984v-.504c0-1.232.296-2.096.888-2.592.592-.512 1.608-.768 3.048-.768h4.992v-.984c0-.464.144-.816.432-1.056.288-.24.64-.36 1.056-.36.416 0 .768.12 1.056.36.288.24.432.592.432 1.056v.984h5.04c1.424 0 2.432.256 3.024.768.592.496.888 1.36.888 2.592v.504c0 .416-.136.744-.408.984-.256.24-.568.36-.936.36a.728.728 0 01-.216-.024 1.034 1.034 0 01-.36.624c-.176.16-.408.24-.696.24h-2.52c-.608.8-1.296 1.52-2.064 2.16.704.192 1.424.392 2.16.6.736.208 1.472.424 2.208.648.336.096.584.296.744.6.16.288.176.616.048.984a1.15 1.15 0 01-.72.72c-.336.128-.68.128-1.032 0a58.366 58.366 0 00-2.832-1.008 63.199 63.199 0 00-2.952-.936c-1.072.544-2.288.984-3.648 1.32-1.36.336-2.92.56-4.68.672zM44 73.4c-.4 0-.736-.128-1.008-.384s-.408-.592-.408-1.008v-3.504c-.64.48-1.36.968-2.16 1.464-.8.48-1.616.92-2.448 1.32-.816.416-1.6.768-2.352 1.056-.4.16-.776.2-1.128.12-.336-.064-.592-.272-.768-.624-.176-.352-.2-.696-.072-1.032.144-.352.4-.592.768-.72.944-.32 1.968-.752 3.072-1.296a38.569 38.569 0 003.072-1.656h-6.504c-.32 0-.576-.104-.768-.312a1.114 1.114 0 01-.264-.744c0-.288.088-.536.264-.744.192-.208.448-.312.768-.312h8.52v-.552c0-.416.136-.752.408-1.008A1.415 1.415 0 0144 63.08c.384 0 .712.128.984.384s.408.592.408 1.008v.552h8.568c.336 0 .592.104.768.312.192.208.288.456.288.744s-.096.536-.288.744c-.176.208-.432.312-.768.312h-6.384a36.66 36.66 0 002.976 1.512c1.088.48 2.096.872 3.024 1.176.368.112.632.328.792.648.16.32.168.664.024 1.032-.176.416-.448.672-.816.768-.352.112-.72.096-1.104-.048-.752-.288-1.56-.64-2.424-1.056a34.405 34.405 0 01-2.52-1.344 30.73 30.73 0 01-2.136-1.44v3.624c0 .416-.136.752-.408 1.008-.272.256-.6.384-.984.384zm-.048-16.8h7.728v-.504c0-.448-.112-.76-.336-.936-.224-.176-.624-.264-1.2-.264h-4.848c-.016.048-.056.12-.12.216-.16.208-.352.44-.576.696-.208.256-.424.52-.648.792zm-7.68 0h4.632l.72-.864c.24-.304.464-.584.672-.84h-4.488c-.592 0-1 .088-1.224.264-.208.176-.312.488-.312.936v.504zm8.016 3.648c.64-.448 1.216-.936 1.728-1.464h-3.864c-.208.304-.288.544-.24.72.064.176.312.304.744.384l.816.192c.272.048.544.104.816.168zm29.4 12.792c-.4 0-.752-.136-1.056-.408-.288-.272-.432-.632-.432-1.08v-6.6h-5.472c-.384 0-.712-.128-.984-.384a1.384 1.384 0 01-.384-.984c0-.384.128-.704.384-.96.272-.272.6-.408.984-.408H72.2v-4.032h-3.072c-.16.416-.336.824-.528 1.224a30.55 30.55 0 01-.552 1.056c-.192.352-.48.616-.864.792-.384.16-.776.144-1.176-.048a1.397 1.397 0 01-.72-.792c-.112-.368-.08-.72.096-1.056.304-.56.616-1.216.936-1.968a40.12 40.12 0 00.936-2.28c.288-.784.512-1.464.672-2.04.112-.416.344-.712.696-.888a1.352 1.352 0 011.08-.12c.416.128.712.352.888.672.176.32.2.688.072 1.104-.08.256-.168.528-.264.816-.08.288-.168.568-.264.84H72.2v-3.192c0-.448.144-.808.432-1.08a1.536 1.536 0 011.056-.408c.416 0 .76.136 1.032.408.288.272.432.632.432 1.08v3.192h3.96c.368 0 .68.136.936.408.272.256.408.568.408.936 0 .368-.136.688-.408.96a1.274 1.274 0 01-.936.384h-3.96v4.032H80c.368 0 .688.136.96.408.272.256.408.576.408.96s-.136.712-.408.984a1.355 1.355 0 01-.96.384h-4.848v6.6c0 .448-.144.808-.432 1.08-.272.272-.616.408-1.032.408zm-10.368.072c-.384 0-.712-.128-.984-.384-.256-.256-.384-.584-.384-.984V61.28l-.528.816-.528.768a1.369 1.369 0 01-.912.552 1.439 1.439 0 01-1.056-.216 1.189 1.189 0 01-.552-.84 1.364 1.364 0 01.216-1.032c.448-.624.912-1.344 1.392-2.16.496-.832.976-1.696 1.44-2.592.464-.896.888-1.76 1.272-2.592.384-.848.688-1.6.912-2.256.16-.432.408-.72.744-.864.336-.16.696-.176 1.08-.048.368.128.624.352.768.672.16.32.168.68.024 1.08a23.7 23.7 0 01-.696 1.776 38.324 38.324 0 01-.84 1.896v15.504c0 .4-.136.728-.408.984a1.355 1.355 0 01-.96.384zm35.088-2.184c-.4.096-.776.04-1.128-.168a1.39 1.39 0 01-.672-.888 1.352 1.352 0 01.168-1.08 1.39 1.39 0 01.888-.672c1.776-.464 3.08-1.216 3.912-2.256.848-1.04 1.272-2.36 1.272-3.96 0-1.008-.224-1.912-.672-2.712-.448-.8-1.088-1.448-1.92-1.944-.816-.496-1.8-.8-2.952-.912-.288 2.688-.776 5.016-1.464 6.984-.672 1.952-1.472 3.464-2.4 4.536-.912 1.056-1.872 1.584-2.88 1.584a3.953 3.953 0 01-2.328-.744c-.704-.496-1.264-1.208-1.68-2.136-.4-.928-.6-2.04-.6-3.336 0-1.328.248-2.568.744-3.72a9.386 9.386 0 012.16-3.072 10.123 10.123 0 013.264-2.064c1.264-.496 2.648-.744 4.152-.744 1.824 0 3.44.352 4.848 1.056 1.424.688 2.544 1.656 3.36 2.904.816 1.232 1.224 2.672 1.224 4.32 0 2.32-.624 4.256-1.872 5.808-1.232 1.536-3.04 2.608-5.424 3.216zm-7.824-4.44c.288 0 .616-.24.984-.72.384-.496.768-1.192 1.152-2.088.384-.896.736-1.952 1.056-3.168.32-1.232.56-2.592.72-4.08-1.248.24-2.296.704-3.144 1.392a6.531 6.531 0 00-1.92 2.424 7.126 7.126 0 00-.672 2.928c0 1.088.168 1.912.504 2.472.352.56.792.84 1.32.84zm25.248 6.552c-.352 0-.656-.12-.912-.36s-.384-.56-.384-.96v-8.736a105.001 105.001 0 01-2.544.288c-.4.048-.744-.024-1.032-.216-.272-.192-.432-.48-.48-.864-.048-.384.04-.704.264-.96.224-.272.536-.416.936-.432.128-.016.272-.024.432-.024l.48-.048c.224-.272.48-.608.768-1.008.304-.416.624-.848.96-1.296-.288-.208-.64-.456-1.056-.744a44.224 44.224 0 00-1.224-.864c-.4-.288-.712-.496-.936-.624a1.275 1.275 0 01-.552-.792 1.278 1.278 0 01.168-.936c.176-.304.432-.496.768-.576.352-.08.68-.024.984.168.144.096.28.192.408.288.16-.256.344-.568.552-.936.224-.368.432-.728.624-1.08.208-.352.36-.624.456-.816.16-.32.408-.544.744-.672s.664-.112.984.048c.32.16.528.408.624.744a1.19 1.19 0 01-.12.96c-.144.24-.336.552-.576.936-.24.384-.488.768-.744 1.152-.24.384-.448.712-.624.984.208.128.392.256.552.384.176.128.328.232.456.312.352-.512.672-.984.96-1.416.304-.432.544-.784.72-1.056.224-.336.496-.544.816-.624.32-.096.648-.056.984.12.304.144.496.4.576.768.096.368.032.712-.192 1.032-.272.4-.632.904-1.08 1.512-.432.592-.896 1.224-1.392 1.896-.496.656-.968 1.288-1.416 1.896.4-.032.784-.064 1.152-.096.384-.048.736-.088 1.056-.12l-.192-.552c-.112-.336-.104-.64.024-.912.144-.288.368-.488.672-.6.32-.112.624-.104.912.024.304.128.528.36.672.696.096.24.216.552.36.936.16.384.312.776.456 1.176.144.384.256.704.336.96.112.352.096.688-.048 1.008-.144.304-.392.52-.744.648-.352.112-.68.088-.984-.072-.304-.16-.496-.392-.576-.696-.032-.16-.08-.32-.144-.48-.448.064-.976.136-1.584.216v9.096c0 .4-.128.72-.384.96s-.568.36-.936.36zm10.992-.6c-1.36 0-2.408-.136-3.144-.408-.736-.272-1.248-.76-1.536-1.464-.288-.704-.432-1.696-.432-2.976s.144-2.272.432-2.976c.288-.704.8-1.192 1.536-1.464s1.784-.408 3.144-.408 2.408.136 3.144.408c.736.272 1.24.76 1.512 1.464.288.704.432 1.696.432 2.976s-.144 2.272-.432 2.976c-.272.704-.776 1.192-1.512 1.464s-1.784.408-3.144.408zm-3.672-10.56a1.58 1.58 0 01-1.032.312 1.232 1.232 0 01-.912-.48 1.276 1.276 0 01-.24-.888c.032-.32.176-.576.432-.768.992-.736 1.704-1.568 2.136-2.496.448-.944.728-2.072.84-3.384h-2.568c-.368 0-.664-.12-.888-.36a1.243 1.243 0 01-.312-.84c0-.32.104-.592.312-.816.208-.24.488-.36.84-.36h7.2c1.216 0 2.08.272 2.592.816.528.544.76 1.384.696 2.52-.016.544-.056 1.12-.12 1.728a17.831 17.831 0 01-.192 1.608c-.128.864-.352 1.544-.672 2.04-.304.48-.728.824-1.272 1.032-.544.192-1.248.304-2.112.336-.416.016-.768-.072-1.056-.264-.288-.208-.448-.52-.48-.936-.032-.384.064-.696.288-.936.24-.256.536-.392.888-.408.688-.032 1.144-.128 1.368-.288.224-.176.384-.512.48-1.008.064-.304.12-.712.168-1.224.064-.512.104-.952.12-1.32.032-.512-.04-.856-.216-1.032-.16-.192-.488-.288-.984-.288h-1.584c-.128 1.728-.472 3.224-1.032 4.488-.56 1.248-1.456 2.32-2.688 3.216zm3.672 8.016c.672 0 1.176-.056 1.512-.168.352-.112.584-.336.696-.672.112-.336.168-.832.168-1.488 0-.64-.056-1.12-.168-1.44-.112-.32-.344-.536-.696-.648-.336-.128-.84-.192-1.512-.192s-1.184.056-1.536.168a1.08 1.08 0 00-.696.648c-.112.32-.168.8-.168 1.44 0 .64.056 1.128.168 1.464.128.336.36.568.696.696.352.128.864.192 1.536.192zm-15.48.504a1.01 1.01 0 01-.672-.552 1.083 1.083 0 01-.024-.864c.128-.32.272-.728.432-1.224.176-.496.336-1 .48-1.512.16-.512.28-.952.36-1.32.08-.336.248-.576.504-.72a1.1 1.1 0 01.84-.144c.32.064.568.216.744.456.176.24.224.544.144.912-.064.368-.176.816-.336 1.344a41.7 41.7 0 01-.888 2.784c-.112.32-.32.568-.624.744-.304.16-.624.192-.96.096zm8.928-1.056a1.28 1.28 0 01-.912 0c-.304-.112-.512-.344-.624-.696-.08-.272-.192-.624-.336-1.056l-.432-1.344c-.128-.448-.232-.808-.312-1.08-.08-.352-.032-.648.144-.888.176-.256.416-.416.72-.48.32-.08.608-.04.864.12.256.144.424.368.504.672.08.256.184.584.312.984l.432 1.2c.144.4.256.72.336.96.128.352.128.68 0 .984-.128.288-.36.496-.696.624zm18.36-8.328c-.368.24-.76.336-1.176.288a1.314 1.314 0 01-.936-.624 1.278 1.278 0 01-.168-.936c.08-.352.312-.648.696-.888.896-.56 1.8-1.168 2.712-1.824a50.056 50.056 0 002.688-2.088c.88-.72 1.672-1.424 2.376-2.112.688-.672 1.32-1.12 1.896-1.344a2.429 2.429 0 011.776-.048c.624.208 1.312.64 2.064 1.296.464.4 1.008.856 1.632 1.368.624.496 1.288 1.016 1.992 1.56a66.907 66.907 0 002.136 1.584 41.62 41.62 0 002.088 1.368c.4.256.648.576.744.96.112.384.048.752-.192 1.104-.24.336-.576.528-1.008.576-.432.048-.856-.064-1.272-.336a75.261 75.261 0 01-1.992-1.416 92.872 92.872 0 01-4.272-3.432 71.3 71.3 0 01-1.68-1.512c-.384-.368-.72-.552-1.008-.552-.288-.016-.624.16-1.008.528a78.249 78.249 0 01-1.776 1.608 63.212 63.212 0 01-2.088 1.752c-.72.592-1.448 1.16-2.184 1.704a28.24 28.24 0 01-2.04 1.416zm1.944 11.136c-.496.24-.944.304-1.344.192-.384-.096-.68-.328-.888-.696-.208-.4-.216-.784-.024-1.152.208-.368.504-.632.888-.792 1.152-.528 2.032-1.16 2.64-1.896.608-.752 1.016-1.696 1.224-2.832.224-1.136.32-2.552.288-4.248a1.239 1.239 0 01.36-.936c.256-.272.584-.408.984-.408.416 0 .76.144 1.032.432.272.272.408.576.408.912.032 2.08-.136 3.848-.504 5.304-.352 1.456-.944 2.672-1.776 3.648-.816.976-1.912 1.8-3.288 2.472zm10.68.336c-.448 0-.8-.12-1.056-.36-.24-.24-.36-.568-.36-.984V60.728c0-.384.136-.704.408-.96a1.47 1.47 0 011.008-.384c.368 0 .696.128.984.384.288.256.432.576.432.96v10.416c0 .416-.12.744-.36.984s-.592.36-1.056.36zm27.624-.408c-2.144.304-3.952.416-5.424.336-1.472-.064-2.656-.28-3.552-.648-.88-.368-1.52-.856-1.92-1.464a3.83 3.83 0 01-.6-2.112c0-1.2.48-2.32 1.44-3.36.976-1.04 2.384-1.952 4.224-2.736a1.884 1.884 0 00-.936-.648c-.8-.24-1.592-.152-2.376.264-.768.416-1.52 1.024-2.256 1.824-.272.288-.632.448-1.08.48-.432.016-.784-.12-1.056-.408a1.493 1.493 0 01-.36-1.056c.032-.4.2-.728.504-.984.784-.672 1.472-1.4 2.064-2.184a14.642 14.642 0 001.536-2.424l-1.944.048a42.27 42.27 0 01-1.536-.024c-.4 0-.736-.136-1.008-.408a1.45 1.45 0 01-.408-1.032c.016-.4.168-.728.456-.984a1.41 1.41 0 011.032-.36c.56.016 1.232.024 2.016.024l2.496-.048c.08-.304.152-.6.216-.888.064-.288.12-.576.168-.864.064-.4.24-.72.528-.96.288-.256.632-.36 1.032-.312.4.048.72.224.96.528.24.304.336.656.288 1.056a4.883 4.883 0 01-.096.648c-.048.224-.104.448-.168.672.608-.032 1.176-.064 1.704-.096.528-.048 1-.104 1.416-.168.4-.048.752.048 1.056.288.32.224.504.536.552.936.048.4-.056.752-.312 1.056-.24.304-.552.472-.936.504-.592.064-1.272.12-2.04.168-.768.048-1.568.088-2.4.12-.352.784-.736 1.52-1.152 2.208.384-.08.752-.104 1.104-.072a4.15 4.15 0 011.008.168c.48.128.944.352 1.392.672.464.304.872.736 1.224 1.296a40.599 40.599 0 012.496-.624c.896-.192 1.84-.36 2.832-.504a1.33 1.33 0 011.056.264c.32.224.504.536.552.936a1.3 1.3 0 01-.264 1.056c-.24.304-.56.488-.96.552a32.16 32.16 0 00-2.568.408c-.784.144-1.512.304-2.184.48.08.432.144.904.192 1.416.048.512.072 1.064.072 1.656 0 .4-.144.744-.432 1.032a1.37 1.37 0 01-1.008.408c-.4 0-.736-.136-1.008-.408a1.45 1.45 0 01-.408-1.032c0-.816-.048-1.544-.144-2.184-1.312.544-2.264 1.128-2.856 1.752-.576.608-.864 1.2-.864 1.776 0 .432.256.784.768 1.056s1.368.424 2.568.456c1.2.032 2.84-.088 4.92-.36a1.41 1.41 0 011.056.288c.32.224.504.536.552.936.048.384-.048.728-.288 1.032-.24.304-.552.488-.936.552zm11.568-8.304c-.384 0-.712-.128-.984-.384-.256-.256-.384-.592-.384-1.008v-1.008c0-1.2.264-2.072.792-2.616.544-.544 1.544-.848 3-.912l-.024-.072c-.064-.096-.16-.248-.288-.456a13.738 13.738 0 00-.36-.672 4.926 4.926 0 00-.264-.48c-.16-.272-.2-.568-.12-.888a1.09 1.09 0 01.576-.744h-.816c-.4 0-.728-.112-.984-.336-.256-.24-.384-.56-.384-.96-.016-.384.112-.68.384-.888.288-.224.648-.328 1.08-.312 1.152.016 2.376 0 3.672-.048a158.37 158.37 0 003.888-.24 77.879 77.879 0 003.72-.408 44.07 44.07 0 003.144-.528c.464-.096.848-.056 1.152.12.304.16.496.4.576.72.128.416.08.768-.144 1.056a1.472 1.472 0 01-.816.552 8.569 8.569 0 00-.624.12c-.208.032-.424.064-.648.096l.024.024c.336.128.568.36.696.696.128.32.112.664-.048 1.032-.112.256-.304.64-.576 1.152-.256.512-.504 1-.744 1.464h.72c1.12 0 1.992.104 2.616.312.64.208 1.088.56 1.344 1.056.272.496.408 1.168.408 2.016v1.152c0 .416-.136.752-.408 1.008-.272.256-.6.384-.984.384s-.712-.128-.984-.384-.408-.592-.408-1.008v-1.08c0-.464-.112-.776-.336-.936-.224-.176-.664-.264-1.32-.264h-12.096c-.656 0-1.096.088-1.32.264-.224.16-.336.472-.336.936v1.08c0 .416-.136.752-.408 1.008-.272.256-.6.384-.984.384zm.504 9.192c-.512.064-.928-.008-1.248-.216-.32-.208-.504-.528-.552-.96-.048-.416.064-.76.336-1.032.272-.288.648-.456 1.128-.504a24.693 24.693 0 003.696-.624 19.935 19.935 0 003.168-1.128 13.9 13.9 0 01-1.608-1.992 15.345 15.345 0 01-1.224-2.4h-.984c-.32 0-.6-.12-.84-.36a1.222 1.222 0 01-.336-.864c0-.32.112-.6.336-.84.24-.24.52-.36.84-.36h8.112c1.264 0 2.2.248 2.808.744.608.48.896 1.088.864 1.824-.016.72-.344 1.456-.984 2.208-.32.384-.664.752-1.032 1.104-.352.336-.712.664-1.08.984 1.696.832 3.848 1.328 6.456 1.488.48.016.856.176 1.128.48.272.288.392.64.36 1.056-.096.928-.688 1.352-1.776 1.272-3.536-.192-6.464-1.024-8.784-2.496-1.168.656-2.48 1.2-3.936 1.632-1.456.448-3.072.776-4.848.984zm9.384-15.12h1.848c.16-.32.344-.72.552-1.2.208-.496.408-.976.6-1.44.208-.464.352-.808.432-1.032a.84.84 0 01.12-.24c.064-.08.128-.152.192-.216-.752.112-1.552.208-2.4.288-.832.08-1.688.16-2.568.24a.987.987 0 01.48.504c.048.096.128.28.24.552.128.256.248.512.36.768.128.256.208.424.24.504.208.496.176.92-.096 1.272zm-5.256 0h3.048a1.052 1.052 0 00-.12-.216 20.447 20.447 0 00-.24-.528l-.336-.72c-.112-.24-.192-.416-.24-.528a1.308 1.308 0 01-.072-.816c.064-.288.216-.512.456-.672l-1.92.096c-.624.016-1.248.04-1.872.072.128.064.256.184.384.36.064.096.16.272.288.528l.384.72c.144.224.232.368.264.432.256.464.248.888-.024 1.272zm4.896 9.168a11.969 11.969 0 001.944-1.776c.288-.32.384-.584.288-.792-.096-.224-.4-.336-.912-.336h-3.672a10.201 10.201 0 002.352 2.904zm27.072 4.56a1.527 1.527 0 01-1.08.36 1.414 1.414 0 01-1.008-.456 1.444 1.444 0 01-.384-1.056c.032-.4.2-.736.504-1.008.864-.768 1.52-1.584 1.968-2.448.464-.864.776-1.872.936-3.024.176-1.152.264-2.528.264-4.128-.784.064-1.544.136-2.28.216-.72.08-1.376.168-1.968.264-.4.064-.76-.008-1.08-.216a1.431 1.431 0 01-.6-.912c-.064-.4.008-.76.216-1.08.224-.32.536-.512.936-.576a36.455 36.455 0 012.16-.264c.848-.08 1.72-.152 2.616-.216v-3.288c0-.4.136-.736.408-1.008a1.331 1.331 0 011.008-.432c.4 0 .736.144 1.008.432.272.272.408.608.408 1.008v3.12c.56-.032 1.08-.048 1.56-.048h1.272c.4.016.736.168 1.008.456.272.288.392.632.36 1.032-.016.4-.176.728-.48.984a1.41 1.41 0 01-1.032.36 37.452 37.452 0 00-2.688 0v.144c0 1.648-.104 3.184-.312 4.608-.192 1.424-.576 2.736-1.152 3.936-.576 1.2-1.432 2.28-2.568 3.24zM218.96 71c-.4.08-.76.016-1.08-.192a1.431 1.431 0 01-.6-.912 27.19 27.19 0 01-.408-2.664 65.264 65.264 0 01-.216-3.312 66.614 66.614 0 010-3.576c.032-1.216.096-2.392.192-3.528.112-1.152.272-2.2.48-3.144.08-.4.28-.704.6-.912a1.429 1.429 0 011.08-.192c.384.08.68.288.888.624.208.32.272.68.192 1.08a30.136 30.136 0 00-.528 3.744 58.267 58.267 0 00-.144 4.104c.016 1.376.072 2.688.168 3.936.112 1.248.264 2.336.456 3.264.08.384.016.744-.192 1.08-.208.32-.504.52-.888.6zm32.328 1.032c-1.456-.032-2.608-.384-3.456-1.056-.832-.672-1.232-1.592-1.2-2.76.032-.688.224-1.288.576-1.8a3.353 3.353 0 011.488-1.152c.624-.272 1.336-.368 2.136-.288 1.28.112 2.176.552 2.688 1.32.512.752.664 1.616.456 2.592a3.475 3.475 0 001.368-1.176c.368-.528.552-1.208.552-2.04 0-.624-.184-1.184-.552-1.68-.352-.512-.856-.904-1.512-1.176-.64-.288-1.384-.408-2.232-.36-.848.048-1.76.304-2.736.768-.976.448-1.976 1.168-3 2.16-.288.272-.648.408-1.08.408a1.394 1.394 0 01-1.056-.504 1.46 1.46 0 01-.36-1.032c.032-.4.2-.712.504-.936a77.325 77.325 0 002.976-2.376c.992-.848 1.936-1.68 2.832-2.496a75.757 75.757 0 002.4-2.232c.432-.416.576-.76.432-1.032-.128-.272-.472-.368-1.032-.288-.544.064-1.168.144-1.872.24-.688.096-1.336.184-1.944.264a1.33 1.33 0 01-1.056-.264c-.32-.24-.504-.56-.552-.96a1.262 1.262 0 01.264-1.032c.24-.32.56-.512.96-.576.352-.048.792-.096 1.32-.144a664.45 664.45 0 011.656-.144l1.464-.12c1.04-.08 1.888.056 2.544.408.656.352 1.104.832 1.344 1.44.24.592.248 1.24.024 1.944-.208.704-.664 1.368-1.368 1.992-.32.272-.728.624-1.224 1.056-.48.432-.976.872-1.488 1.32a7.112 7.112 0 012.664-.024 5.626 5.626 0 012.304.912 4.935 4.935 0 011.632 1.848c.4.752.6 1.64.6 2.664 0 1.456-.32 2.664-.96 3.624-.64.944-1.52 1.632-2.64 2.064-1.12.448-2.408.656-3.864.624zm-.432-2.664H251c.048 0 .104.008.168.024.08 0 .168-.008.264-.024.224-.528.264-.968.12-1.32-.144-.352-.432-.56-.864-.624-.384-.048-.704.008-.96.168-.24.144-.376.384-.408.72-.016.64.496.992 1.536 1.056z" fill="#fff"/></g><g filter="url(#filter2_d_2082_4409)"><path d="M277.032 51.988a1.406 1.406 0 10-1.959 2.018l5.371 5.035c.842.79.842 2.128 0 2.918l-5.371 5.035a1.406 1.406 0 101.959 2.018l7.065-7.102a2 2 0 000-2.82l-7.065-7.102z" fill="#fff"/><path d="M280.786 58.676l-5.371-5.035a.906.906 0 111.263-1.3l7.064 7.101c.583.585.583 1.53 0 2.116l-7.064 7.102a.907.907 0 11-1.263-1.301l5.371-5.035a2.5 2.5 0 000-3.648z" stroke="#fff"/></g><path d="M0 8a8 8 0 018-8h196a8 8 0 018 8v23a8 8 0 01-8 8H0V8z" fill="#fff"/><path d="M18.97 14.472c.63.072 1.476.108 2.07.108h8.964c.468 0 1.098-.018 1.44-.036-.018.414-.054 1.044-.054 1.512v9.306c0 .648.054 1.512.072 1.908H29.41c.018-.378.036-1.044.036-1.692v-9.18h-8.388c-.702 0-1.638.036-2.088.072v-1.998zm-.234 9.864c.54.054 1.332.108 2.106.108h9.684v1.854h-9.63c-.72 0-1.62.036-2.16.09v-2.052zm19.458-10.728c1.26.846 3.582 2.718 4.608 3.762l-1.44 1.458c-.918-.972-3.168-2.916-4.5-3.816l1.332-1.404zM36.34 25.632a18.73 18.73 0 007.056-2.502c2.916-1.782 5.166-4.482 6.246-6.804l1.098 1.98c-1.278 2.322-3.51 4.788-6.3 6.516-1.818 1.116-4.104 2.178-6.912 2.682l-1.188-1.872zm28.836-6.75c0 4.644-1.062 7.218-5.274 9.09l-1.512-1.44c3.366-1.224 4.95-2.772 4.95-7.56v-4.554c0-.702-.054-1.296-.108-1.548h2.052c-.036.252-.108.846-.108 1.548v4.464zm-6.498-5.886c-.036.252-.09.792-.09 1.44v6.534c0 .72.054 1.494.072 1.746h-1.998c.036-.252.09-1.008.09-1.746v-6.534c0-.432-.036-.972-.09-1.44h2.016zm-5.544 3.384c.216.036 1.044.144 1.854.144h11.88c.864 0 1.44-.054 1.8-.108v1.89a28.902 28.902 0 00-1.8-.054h-11.88c-.828 0-1.566.054-1.854.072V16.38zm26.118 10.242a5.29 5.29 0 00.144-1.152V14.814c0-.738-.108-1.332-.126-1.422h2.106c-.018.09-.108.702-.108 1.44v9.954c1.584-.702 3.6-2.25 4.914-4.158l1.08 1.566c-1.53 2.034-4.068 3.924-6.12 4.95-.342.18-.54.342-.684.468l-1.206-.99zm-8.28-.162c1.548-1.098 2.574-2.718 3.096-4.374.522-1.602.54-5.112.54-7.2 0-.612-.054-1.044-.144-1.458h2.088c-.018.162-.108.81-.108 1.44 0 2.052-.054 5.886-.54 7.704a10.265 10.265 0 01-3.204 5.022l-1.728-1.134zm24.606-7.776c2.268 1.314 5.382 3.474 7.11 4.878l-1.35 1.602c-1.62-1.512-4.842-3.852-7.02-5.202l1.26-1.278zm8.334-3.186a6.16 6.16 0 00-.504 1.098c-.54 1.764-1.656 4.104-3.258 6.084-1.656 2.052-3.996 4.014-7.416 5.292l-1.638-1.422c3.528-1.08 5.85-2.988 7.452-4.86 1.314-1.548 2.43-3.744 2.808-5.292h-6.408l.684-1.62h5.454c.522 0 1.008-.072 1.35-.18l1.476.9zM97.9 12.816c-.378.54-.756 1.242-.954 1.602-1.134 2.07-3.276 4.806-6.03 6.696l-1.512-1.17c3.114-1.944 4.878-4.536 5.742-6.156.234-.36.558-1.08.684-1.62l2.07.648zm12.294.792c1.26.846 3.582 2.718 4.608 3.762l-1.44 1.458c-.918-.972-3.168-2.916-4.5-3.816l1.332-1.404zm-1.854 12.024a18.73 18.73 0 007.056-2.502c2.916-1.782 5.166-4.482 6.246-6.804l1.098 1.98c-1.278 2.322-3.51 4.788-6.3 6.516-1.818 1.116-4.104 2.178-6.912 2.682l-1.188-1.872zm21.528-.27V14.94c0-.558-.036-1.404-.144-1.998h2.214a17.99 17.99 0 00-.144 1.998c0 2.448.018 9.36.018 10.422 0 .54.054 1.638.126 2.304h-2.214c.108-.648.144-1.62.144-2.304zm1.512-7.722c2.394.684 6.138 2.07 8.028 3.006l-.792 1.944c-2.052-1.08-5.274-2.304-7.236-2.934V17.64zm20.97-2.934c-.234 1.854-.594 3.96-1.188 5.958-1.098 3.672-2.574 5.724-4.374 5.724-1.782 0-3.402-1.998-3.402-5.004 0-4.014 3.528-7.488 8.046-7.488 4.32 0 7.056 3.024 7.056 6.804 0 3.78-2.412 6.372-6.804 6.984l-1.062-1.674c.63-.072 1.152-.162 1.602-.252 2.304-.54 4.374-2.232 4.374-5.13 0-2.862-1.89-5.076-5.202-5.076-3.906 0-6.21 3.186-6.21 5.67 0 2.07.9 3.024 1.656 3.024.81 0 1.656-1.188 2.502-3.96.522-1.71.918-3.762 1.098-5.634l1.908.054zm8.55.126h16.2v1.62h-16.2v-1.62zm5.94 4.32h7.056v1.62h-7.056v-1.62zm6.426 0h1.764s-.018.54-.054.774c-.342 5.076-.72 7.074-1.422 7.83-.486.504-.972.648-1.728.72-.648.036-1.854.018-3.06-.036-.036-.486-.288-1.188-.612-1.674 1.278.126 2.556.126 3.042.126.414 0 .648-.018.864-.216.558-.486.918-2.52 1.206-7.254v-.27zm-6.966-3.384h1.908c-.27 4.788-.774 10.116-6.336 12.852-.252-.45-.774-1.062-1.224-1.422 5.238-2.394 5.472-7.218 5.652-11.43zm1.728-4.014h1.764v3.744h-1.764v-3.744zm10.818 10.134c.486-.378.9-.756 1.404-1.278.9-.936 2.358-2.898 3.438-4.176 1.152-1.314 2.178-1.476 3.42-.234 1.152 1.134 2.556 2.952 3.672 4.158 1.116 1.224 2.79 2.988 4.446 4.464l-1.458 1.692c-1.332-1.26-2.916-3.06-4.104-4.428-1.152-1.332-2.52-3.06-3.348-3.996-.72-.774-1.062-.666-1.638.054-.792.99-2.178 2.88-3.024 3.96a47.55 47.55 0 00-1.098 1.53l-1.71-1.746z" fill="#135097"/></g><defs><filter id="filter0_dd_2082_4409" x="-44" y="-34" width="405.5" height="194" filterUnits="userSpaceOnUse" color-interpolation-filters="sRGB"><feFlood flood-opacity="0" result="BackgroundImageFix"/><feColorMatrix in="SourceAlpha" values="0 0 0 0 0 0 0 0 0 0 0 0 0 0 0 0 0 0 127 0" result="hardAlpha"/><feOffset dy="24"/><feGaussianBlur stdDeviation="22"/><feComposite in2="hardAlpha" operator="out"/><feColorMatrix values="0 0 0 0 0 0 0 0 0 0 0 0 0 0 0 0 0 0 0.05 0"/><feBlend in2="BackgroundImageFix" result="effect1_dropShadow_2082_4409"/><feColorMatrix in="SourceAlpha" values="0 0 0 0 0 0 0 0 0 0 0 0 0 0 0 0 0 0 127 0" result="hardAlpha"/><feOffset/><feGaussianBlur stdDeviation="17"/><feComposite in2="hardAlpha" operator="out"/><feColorMatrix values="0 0 0 0 0 0 0 0 0 0 0 0 0 0 0 0 0 0 0.05 0"/><feBlend in2="effect1_dropShadow_2082_4409" result="effect2_dropShadow_2082_4409"/><feBlend in="SourceGraphic" in2="effect2_dropShadow_2082_4409" result="shape"/></filter><filter id="filter1_d_2082_4409" x="29.032" y="47.336" width="233.72" height="31.064" filterUnits="userSpaceOnUse" color-interpolation-filters="sRGB"><feFlood flood-opacity="0" result="BackgroundImageFix"/><feColorMatrix in="SourceAlpha" values="0 0 0 0 0 0 0 0 0 0 0 0 0 0 0 0 0 0 127 0" result="hardAlpha"/><feOffset dy="1"/><feGaussianBlur stdDeviation="2"/><feComposite in2="hardAlpha" operator="out"/><feColorMatrix values="0 0 0 0 0 0 0 0 0 0 0 0 0 0 0 0 0 0 0.15 0"/><feBlend in2="BackgroundImageFix" result="effect1_dropShadow_2082_4409"/><feBlend in="SourceGraphic" in2="effect1_dropShadow_2082_4409" result="shape"/></filter><filter id="filter2_d_2082_4409" x="270.628" y="48.573" width="18.051" height="25.854" filterUnits="userSpaceOnUse" color-interpolation-filters="sRGB"><feFlood flood-opacity="0" result="BackgroundImageFix"/><feColorMatrix in="SourceAlpha" values="0 0 0 0 0 0 0 0 0 0 0 0 0 0 0 0 0 0 127 0" result="hardAlpha"/><feOffset dy="1"/><feGaussianBlur stdDeviation="2"/><feComposite in2="hardAlpha" operator="out"/><feColorMatrix values="0 0 0 0 0 0 0 0 0 0 0 0 0 0 0 0 0 0 0.15 0"/><feBlend in2="BackgroundImageFix" result="effect1_dropShadow_2082_4409"/><feBlend in="SourceGraphic" in2="effect1_dropShadow_2082_4409" result="shape"/></filter><clipPath id="clip0_2082_4409"><path fill="#fff" d="M0 0h317.5v92H0z"/></clipPath></defs></svg>