<svg width="260" height="108" viewBox="0 0 260 108" fill="none" xmlns="http://www.w3.org/2000/svg"><path d="M15.44 24.38c-2.48.413-4.493.587-6.04.52-1.533-.08-2.68-.44-3.44-1.08a3.537 3.537 0 01-1.18-1.78c-.2-.72-.3-1.607-.3-2.66v-8.12c0-.347.12-.64.36-.88s.527-.36.86-.36c.347 0 .64.12.88.36s.36.533.36.88v4.42a68.523 68.523 0 003.38-.92c1.173-.36 2.227-.72 3.16-1.08.333-.133.653-.127.96.02.307.133.52.367.64.7.12.32.113.64-.02.96-.133.307-.36.513-.68.62-1.133.413-2.36.8-3.68 1.16-1.32.36-2.573.673-3.76.94v1.3c0 .787.06 1.353.18 1.7.12.333.307.6.56.8.307.227.74.393 1.3.5.573.093 1.347.107 2.32.04.987-.067 2.24-.227 3.76-.48a1.08 1.08 0 01.92.22c.267.2.427.473.48.82.067.333-.007.633-.22.9a1.28 1.28 0 01-.8.5zm2.2-9.96a.806.806 0 01-.62.26.923.923 0 01-.62-.28 18.58 18.58 0 00-.62-.68c-.253-.267-.48-.5-.68-.7a.7.7 0 01-.22-.5.76.76 0 01.22-.58.81.81 0 01.54-.24.838.838 0 01.58.18c.213.133.46.333.74.6.293.253.533.487.72.7.16.173.233.38.22.62 0 .24-.087.447-.26.62zm.52-1.82c-.173-.187-.4-.4-.68-.64-.267-.24-.513-.453-.74-.64a.775.775 0 01-.24-.5.726.726 0 01.18-.58c.133-.16.3-.253.5-.28a.943.943 0 01.6.12c.227.133.487.32.78.56.307.24.567.46.78.66.173.173.26.38.26.62a.85.85 0 01-.22.62.872.872 0 01-.6.3.78.78 0 01-.62-.24zm6.86 12.28a1.327 1.327 0 01-.96-.08 1.238 1.238 0 01-.6-.74 1.28 1.28 0 01.08-.94c.16-.307.4-.507.72-.6a17.906 17.906 0 003.14-1.34 25.627 25.627 0 005.9-4.32c.853-.827 1.56-1.653 2.12-2.48a1.18 1.18 0 01.78-.52c.333-.067.64 0 .92.2.293.187.467.447.52.78.067.333.007.64-.18.92-.613.907-1.393 1.827-2.34 2.76-.947.92-1.987 1.8-3.12 2.64a31.468 31.468 0 01-3.5 2.22c-1.2.64-2.36 1.14-3.48 1.5zm2.86-10.18c-.187-.16-.453-.36-.8-.6a20.26 20.26 0 00-1.04-.7 9.018 9.018 0 00-.94-.56 1.164 1.164 0 01-.58-.74 1.161 1.161 0 01.12-.94c.173-.307.427-.5.76-.58.333-.08.647-.04.94.12.293.16.647.38 1.06.66.427.267.84.54 1.24.82.4.28.713.52.94.72.253.227.38.513.38.86a1.23 1.23 0 01-.32.9c-.24.253-.527.38-.86.38-.333 0-.633-.113-.9-.34zm-2.12 3.7a7.948 7.948 0 00-.82-.54 17.106 17.106 0 00-1.1-.66c-.373-.213-.693-.38-.96-.5a1.152 1.152 0 01-.62-.72 1.205 1.205 0 01.06-.94c.16-.307.4-.507.72-.6.333-.107.647-.087.94.06.32.147.693.34 1.12.58.44.24.867.493 1.28.76.413.253.74.473.98.66.267.213.413.493.44.84.027.333-.073.633-.3.9a1.143 1.143 0 01-.84.44 1.236 1.236 0 01-.9-.28zm9.5-5.28a.806.806 0 01-1.22-.04 25.274 25.274 0 00-.64-.66c-.24-.267-.467-.5-.68-.7a.7.7 0 01-.22-.5.76.76 0 01.22-.58.81.81 0 01.54-.24.893.893 0 01.58.16c.213.147.46.353.74.62.293.253.533.487.72.7a.78.78 0 01.24.62.923.923 0 01-.28.62zm.54-1.82a17.67 17.67 0 00-.66-.62 9.26 9.26 0 00-.74-.64.735.735 0 01-.26-.5.726.726 0 01.18-.58.668.668 0 01.5-.28.943.943 0 01.6.12c.227.133.487.32.78.56.307.227.567.447.78.66.173.16.26.36.26.6a.876.876 0 01-.22.64.804.804 0 01-.6.28.78.78 0 01-.62-.24zm14.38 15.16c-.333 0-.62-.12-.86-.36s-.36-.527-.36-.86v-5.76c-.96.573-2 1.12-3.12 1.64-1.107.52-2.173.947-3.2 1.28a1.16 1.16 0 01-.94-.08 1.16 1.16 0 01-.58-.72 1.28 1.28 0 01.08-.94c.16-.307.4-.507.72-.6a24.44 24.44 0 002.2-.82 40.934 40.934 0 002.34-1.08c.773-.4 1.473-.793 2.1-1.18.64-.387 1.14-.733 1.5-1.04.267-.227.353-.427.26-.6-.08-.187-.28-.28-.6-.28h-4.76c-.333 0-.62-.113-.86-.34a1.141 1.141 0 01-.34-.84c0-.333.113-.613.34-.84.24-.227.527-.34.86-.34h5.08c.8 0 1.44.153 1.92.46.48.307.8.7.96 1.18.173.48.18.987.02 1.52-.147.533-.467 1.027-.96 1.48l-.28.24-.3.26v7.4c0 .333-.12.62-.36.86s-.527.36-.86.36zm1.56-14.68a76.441 76.441 0 01-1.66-.2 70.42 70.42 0 01-1.78-.3 42.316 42.316 0 01-1.6-.32 1.18 1.18 0 01-.76-.54 1.165 1.165 0 01-.14-.92c.067-.333.24-.58.52-.74.293-.173.607-.227.94-.16.467.107.973.213 1.52.32.56.093 1.113.18 1.66.26.547.08 1.047.147 1.5.2.347.04.627.187.84.44.213.24.307.533.28.88a1.126 1.126 0 01-.44.82c-.253.213-.547.3-.88.26zm5.42 10.42c-.307-.16-.693-.353-1.16-.58-.467-.24-.94-.473-1.42-.7a16 16 0 00-1.28-.58 1.23 1.23 0 01-.66-.66 1.21 1.21 0 01.02-.94c.133-.307.353-.52.66-.64.32-.133.633-.133.94 0 .373.147.813.333 1.32.56.507.227 1.007.46 1.5.7.493.227.907.44 1.24.64.293.173.487.42.58.74.107.307.08.613-.08.92-.147.293-.387.5-.72.62a1.16 1.16 0 01-.94-.08zm6.54 2.4a1.205 1.205 0 01-1.64-.58 1.213 1.213 0 01-.06-.94c.12-.32.327-.553.62-.7 1.907-.92 3.6-2.027 5.08-3.32 1.493-1.307 2.707-2.72 3.64-4.24.587-.96.267-1.44-.96-1.44h-5.46c-.333 0-.62-.12-.86-.36a1.24 1.24 0 01-.36-.88c0-.347.12-.64.36-.88s.527-.36.86-.36h5.54c1.2 0 2.12.22 2.76.66.64.427.987 1.013 1.04 1.76.067.747-.18 1.607-.74 2.58a12.285 12.285 0 01-1.06 1.6c.613.507 1.24 1.067 1.88 1.68.653.6 1.26 1.187 1.82 1.76.573.56 1.053 1.04 1.44 1.44.227.24.34.533.34.88s-.127.64-.38.88c-.24.24-.533.36-.88.36a1.27 1.27 0 01-.88-.38c-.36-.373-.813-.84-1.36-1.4a71.391 71.391 0 00-1.74-1.76 32.624 32.624 0 00-1.78-1.66 27.464 27.464 0 01-3.4 2.98 23.384 23.384 0 01-3.82 2.32zm28.44.34c-.333.08-.647.033-.94-.14a1.158 1.158 0 01-.56-.74c-.08-.32-.033-.62.14-.9.173-.293.42-.48.74-.56 1.48-.387 2.567-1.013 3.26-1.88.707-.867 1.06-1.967 1.06-3.3 0-.84-.187-1.593-.56-2.26a4.334 4.334 0 00-1.6-1.62c-.68-.413-1.5-.667-2.46-.76-.24 2.24-.647 4.18-1.22 5.82-.56 1.627-1.227 2.887-2 3.78-.76.88-1.56 1.32-2.4 1.32a3.295 3.295 0 01-1.94-.62c-.587-.413-1.053-1.007-1.4-1.78-.333-.773-.5-1.7-.5-2.78 0-1.107.207-2.14.62-3.1a7.823 7.823 0 011.8-2.56 8.435 8.435 0 012.72-1.72c1.053-.413 2.207-.62 3.46-.62 1.52 0 2.867.293 4.04.88 1.187.573 2.12 1.38 2.8 2.42.68 1.027 1.02 2.227 1.02 3.6 0 1.933-.52 3.547-1.56 4.84-1.027 1.28-2.533 2.173-4.52 2.68zm-6.52-3.7c.24 0 .513-.2.82-.6.32-.413.64-.993.96-1.74.32-.747.613-1.627.88-2.64.267-1.027.467-2.16.6-3.4-1.04.2-1.913.587-2.62 1.16a5.442 5.442 0 00-1.6 2.02 5.938 5.938 0 00-.56 2.44c0 .907.14 1.593.42 2.06.293.467.66.7 1.1.7zm24.42 5.56a1.21 1.21 0 01-.86-.34c-.227-.213-.34-.493-.34-.84v-5.9a25.816 25.816 0 01-1.86 2.06c-.693.68-1.413 1.32-2.16 1.92a17.624 17.624 0 01-2.22 1.5c-.307.173-.62.233-.94.18-.307-.053-.56-.227-.76-.52a1.165 1.165 0 01-.18-.86c.067-.32.253-.567.56-.74.56-.32 1.147-.7 1.76-1.14.627-.453 1.24-.94 1.84-1.46a33.968 33.968 0 001.74-1.58 18.044 18.044 0 001.42-1.54h-5.86c-.333 0-.6-.107-.8-.32-.2-.213-.3-.467-.3-.76 0-.307.1-.567.3-.78.2-.213.467-.32.8-.32h6.66v-2.34h-5.44c-.333 0-.6-.107-.8-.32-.2-.227-.3-.487-.3-.78 0-.307.1-.56.3-.76.2-.213.467-.32.8-.32h5.44V9.22c0-.36.113-.647.34-.86.24-.213.527-.32.86-.32.32 0 .593.107.82.32.24.213.36.5.36.86v1.62h5.4c.333 0 .593.107.78.32.2.2.3.453.3.76 0 .293-.1.553-.3.78-.187.213-.447.32-.78.32h-5.4v2.34h6.66c.333 0 .593.107.78.32.2.213.3.473.3.78 0 .293-.1.547-.3.76-.187.213-.447.32-.78.32H112a24.52 24.52 0 002.02 2.1 29.97 29.97 0 002.36 1.98c.827.6 1.607 1.12 2.34 1.56.307.173.493.427.56.76.067.32.013.62-.16.9-.187.333-.46.533-.82.6a1.4 1.4 0 01-1.04-.22c-.667-.44-1.36-.947-2.08-1.52-.72-.587-1.42-1.22-2.1-1.9-.68-.693-1.3-1.4-1.86-2.12v5.94c0 .347-.12.627-.36.84-.227.227-.5.34-.82.34zm19.96-.12c-.32 0-.6-.107-.84-.32-.227-.213-.34-.493-.34-.84V20.3a24.54 24.54 0 01-2.82 2.84 29.82 29.82 0 01-3.26 2.42 1.5 1.5 0 01-.96.2 1.046 1.046 0 01-.8-.5 1.057 1.057 0 01-.16-.84c.08-.307.293-.56.64-.76.68-.4 1.38-.86 2.1-1.38a27.65 27.65 0 002.08-1.66c.68-.6 1.28-1.187 1.8-1.76H122a1.04 1.04 0 01-.76-.32c-.2-.213-.3-.467-.3-.76s.1-.54.3-.74a1.04 1.04 0 01.76-.32h3.34a6.269 6.269 0 01-.18-.24 9.13 9.13 0 00-.38-.66c-.16-.293-.333-.587-.52-.88a9.602 9.602 0 00-.44-.72 1.04 1.04 0 01-.12-.84.98.98 0 01.5-.64c.173-.093.347-.153.52-.18h-1.8a1.04 1.04 0 01-.76-.32c-.2-.213-.3-.467-.3-.76s.1-.54.3-.74a1.04 1.04 0 01.76-.32h5.9V9.24c0-.347.113-.627.34-.84.24-.213.52-.32.84-.32.32 0 .593.107.82.32.227.213.34.493.34.84v1.18h5.9c.293 0 .54.107.74.32.213.2.32.447.32.74s-.107.547-.32.76a.975.975 0 01-.74.32h-1.78l.12.04c.053 0 .1.013.14.04a1.1 1.1 0 01.58.64c.107.28.08.553-.08.82-.093.187-.233.433-.42.74l-.56.92c-.187.293-.34.54-.46.74a.815.815 0 01-.1.12.362.362 0 01-.1.1h3.56c.293 0 .54.107.74.32.213.2.32.447.32.74s-.107.547-.32.76a.975.975 0 01-.74.32h-5.48a28.54 28.54 0 001.82 1.7c.667.56 1.36 1.087 2.08 1.58.733.493 1.44.927 2.12 1.3.307.173.507.42.6.74.093.32.047.633-.14.94a1.178 1.178 0 01-.84.56c-.36.067-.707 0-1.04-.2-.667-.4-1.36-.867-2.08-1.4a25.553 25.553 0 01-2.06-1.78 21.896 21.896 0 01-1.78-1.96v5.18c0 .347-.113.627-.34.84-.227.213-.5.32-.82.32zm-4.96-14.12c.333.04.6.207.8.5.107.147.253.367.44.66l.56.88c.187.293.327.52.42.68.147.253.2.513.16.78-.027.253-.14.473-.34.66h1.74v-4.16h-3.78zm6.12 4.16h1.54a1.245 1.245 0 01-.28-.6.927.927 0 01.16-.64 9.48 9.48 0 00.44-.72c.187-.307.367-.613.54-.92l.42-.72c.16-.307.4-.493.72-.56h-3.54v4.16zm23.24 9.18c-1.787.253-3.293.347-4.52.28-1.227-.053-2.213-.233-2.96-.54-.733-.307-1.267-.713-1.6-1.22a3.194 3.194 0 01-.5-1.76c0-1 .4-1.933 1.2-2.8.813-.867 1.987-1.627 3.52-2.28a1.566 1.566 0 00-.78-.54c-.667-.2-1.327-.127-1.98.22-.64.347-1.267.853-1.88 1.52-.227.24-.527.373-.9.4-.36.013-.653-.1-.88-.34a1.247 1.247 0 01-.3-.88c.027-.333.167-.607.42-.82a11.62 11.62 0 001.72-1.82c.507-.653.933-1.327 1.28-2.02a536.8 536.8 0 00-1.62.04c-.493 0-.92-.007-1.28-.02a1.14 1.14 0 01-.84-.34 1.208 1.208 0 01-.34-.86 1.11 1.11 0 01.38-.82c.24-.213.527-.313.86-.3.467.013 1.027.02 1.68.02l2.08-.04c.067-.253.127-.5.18-.74.053-.24.1-.48.14-.72.053-.333.2-.6.44-.8.24-.213.527-.3.86-.26.333.04.6.187.8.44.2.253.28.547.24.88a4.03 4.03 0 01-.08.54c-.04.187-.087.373-.14.56.507-.027.98-.053 1.42-.08.44-.04.833-.087 1.18-.14.333-.04.627.04.88.24.267.187.42.447.46.78.04.333-.047.627-.26.88-.2.253-.46.393-.78.42-.493.053-1.06.1-1.7.14-.64.04-1.307.073-2 .1a16.926 16.926 0 01-.96 1.84c.32-.067.627-.087.92-.06.293.013.573.06.84.14.4.107.787.293 1.16.56.387.253.727.613 1.02 1.08.653-.187 1.347-.36 2.08-.52.747-.16 1.533-.3 2.36-.42.32-.053.613.02.88.22.267.187.42.447.46.78.053.333-.02.627-.22.88a1.23 1.23 0 01-.8.46 26.8 26.8 0 00-2.14.34c-.653.12-1.26.253-1.82.4.067.36.12.753.16 1.18.04.427.06.887.06 1.38 0 .333-.12.62-.36.86a1.14 1.14 0 01-.84.34 1.14 1.14 0 01-.84-.34 1.208 1.208 0 01-.34-.86c0-.68-.04-1.287-.12-1.82-1.093.453-1.887.94-2.38 1.46-.48.507-.72 1-.72 1.48 0 .36.213.653.64.88.427.227 1.14.353 2.14.38 1 .027 2.367-.073 4.1-.3.32-.04.613.04.88.24.267.187.42.447.46.78.04.32-.04.607-.24.86-.2.253-.46.407-.78.46zm19.36.38c-.427 0-.767-.12-1.02-.36a1.269 1.269 0 01-.38-.88 1.23 1.23 0 011.22-1.3c.507-.027.9-.073 1.18-.14.28-.08.493-.24.64-.48.147-.253.26-.633.34-1.14.107-.773.193-1.627.26-2.56.067-.947.113-1.907.14-2.88.04-.973.06-1.907.06-2.8 0-.453-.047-.8-.14-1.04a.841.841 0 00-.52-.5c-.253-.093-.627-.14-1.12-.14h-.68c-.04 1.973-.153 3.687-.34 5.14-.173 1.44-.447 2.693-.82 3.76a9.467 9.467 0 01-1.52 2.78c-.627.787-1.407 1.52-2.34 2.2-.32.227-.66.327-1.02.3-.36-.013-.653-.173-.88-.48a1.082 1.082 0 01-.2-.9c.067-.333.247-.593.54-.78.853-.533 1.553-1.14 2.1-1.82.547-.693.973-1.507 1.28-2.44.307-.933.527-2.033.66-3.3s.207-2.753.22-4.46h-2.7c-.347 0-.627-.107-.84-.32a1.17 1.17 0 01-.3-.8c0-.32.1-.587.3-.8.213-.227.493-.34.84-.34h5.9c.973 0 1.74.12 2.3.36.573.24.987.64 1.24 1.2.253.547.38 1.28.38 2.2a167.634 167.634 0 01-.1 4.5 44.732 44.732 0 01-.34 4.22c-.133 1.027-.36 1.833-.68 2.42a2.69 2.69 0 01-1.36 1.22c-.587.24-1.353.36-2.3.36zm-7.58-3.7c-1.027 0-1.793-.2-2.3-.6-.493-.4-.74-1.127-.74-2.18v-2.54l-.68.16c-.213.04-.413.08-.6.12-.373.08-.7.04-.98-.12a1.112 1.112 0 01-.52-.76c-.067-.36-.013-.667.16-.92.173-.267.453-.433.84-.5.253-.053.527-.107.82-.16.307-.067.627-.133.96-.2v-4.64c0-.4.113-.7.34-.9.227-.2.507-.3.84-.3.347 0 .627.1.84.3.227.2.34.5.34.9v4.12l1.68-.38a63.55 63.55 0 011.46-.34c.333-.08.62-.033.86.14.253.173.407.413.46.72.067.32.013.607-.16.86-.16.253-.413.42-.76.5l-1.64.42c-.613.147-1.247.293-1.9.44v2.68c0 .293.067.493.2.6.133.093.373.14.72.14.333 0 .56-.08.68-.24.133-.173.26-.507.38-1a.973.973 0 01.52-.66c.28-.133.587-.16.92-.08.347.093.58.273.7.54.133.253.167.56.1.92-.16.733-.38 1.32-.66 1.76a2.36 2.36 0 01-1.12.92c-.453.187-1.04.28-1.76.28zm23.08 3.36a1.256 1.256 0 01-.4-.84c-.013-.333.1-.62.34-.86 1.013-1.027 1.807-2.32 2.38-3.88.587-1.56.88-3.26.88-5.1 0-1.04-.167-1.793-.5-2.26-.333-.467-.827-.7-1.48-.7-.533 0-1.027.22-1.48.66-.453.427-.793 1.067-1.02 1.92-.227.853-.287 1.927-.18 3.22a1.15 1.15 0 01-.26.84 1.01 1.01 0 01-.74.4 1.16 1.16 0 01-.84-.24 1.185 1.185 0 01-.42-.74 22.828 22.828 0 01-.18-2.28 52.234 52.234 0 01-.02-2.5 54.668 54.668 0 01.28-4.1c.04-.32.187-.58.44-.78.253-.2.54-.28.86-.24.333.04.593.18.78.42.2.24.273.533.22.88-.027.24-.067.547-.12.92-.04.373-.073.727-.1 1.06.307-.52.72-.953 1.24-1.3.52-.36 1.06-.54 1.62-.54 1.427 0 2.493.467 3.2 1.4.707.92 1.06 2.24 1.06 3.96 0 1.373-.147 2.713-.44 4.02a15.122 15.122 0 01-1.28 3.64 11.634 11.634 0 01-2.12 2.98c-.227.24-.513.36-.86.36a1.139 1.139 0 01-.86-.32zm24.68.28c-1.027 0-1.847-.113-2.46-.34-.613-.227-1.06-.607-1.34-1.14-.267-.547-.4-1.273-.4-2.18v-2.8c-.52.72-1.053 1.353-1.6 1.9a1.41 1.41 0 01-.92.42 1.07 1.07 0 01-.88-.36 1.06 1.06 0 01-.3-.8c.013-.32.133-.58.36-.78.707-.653 1.367-1.46 1.98-2.42.613-.973 1.14-2 1.58-3.08.453-1.093.793-2.14 1.02-3.14h-2.84c-.32 0-.573-.1-.76-.3-.187-.2-.28-.447-.28-.74s.093-.54.28-.74c.187-.2.44-.3.76-.3h10.14c.32 0 .573.1.76.3.187.2.28.447.28.74s-.093.54-.28.74c-.187.2-.44.3-.76.3h-4.9c-.173.8-.413 1.627-.72 2.48-.293.84-.633 1.673-1.02 2.5a4.58 4.58 0 011.02-.22c.387-.04.813-.06 1.28-.06 1.027 0 1.84.113 2.44.34.613.227 1.053.607 1.32 1.14.28.533.42 1.26.42 2.18v2.7c0 .907-.14 1.633-.42 2.18-.267.533-.707.913-1.32 1.14-.6.227-1.413.34-2.44.34zm-11.12.44c-.4 0-.707-.107-.92-.32-.213-.2-.34-.473-.38-.82-.027-.32.047-.607.22-.86s.427-.4.76-.44c.4-.053.653-.133.76-.24.107-.107.16-.333.16-.68v-3.46c-.227.093-.44.18-.64.26-.2.067-.373.133-.52.2a1.53 1.53 0 01-1.06.02 1.085 1.085 0 01-.66-.74c-.107-.347-.08-.667.08-.96.16-.293.427-.493.8-.6.267-.08.573-.173.92-.28.347-.12.707-.247 1.08-.38v-3.28h-1.78c-.333 0-.6-.107-.8-.32-.2-.227-.3-.487-.3-.78 0-.307.1-.567.3-.78.2-.213.467-.32.8-.32h1.78v-2.6c0-.347.113-.62.34-.82.227-.213.5-.32.82-.32.32 0 .587.107.8.32.227.2.34.473.34.82v2.6h1.2c.333 0 .6.107.8.32.2.213.3.473.3.78 0 .293-.1.553-.3.78-.2.213-.467.32-.8.32h-1.2v2.44l.5-.18c.16-.067.3-.127.42-.18a.89.89 0 01.78.04c.267.133.447.333.54.6.107.253.107.52 0 .8-.093.267-.3.473-.62.62-.173.08-.407.18-.7.3-.28.107-.587.233-.92.38v4.9c0 .973-.227 1.693-.68 2.16-.453.467-1.193.7-2.22.7zm11.12-2.56c.707 0 1.187-.113 1.44-.34.267-.24.4-.687.4-1.34v-2.46c0-.627-.133-1.053-.4-1.28-.253-.24-.733-.36-1.44-.36s-1.193.113-1.46.34c-.267.227-.4.66-.4 1.3v2.46c0 .627.133 1.067.4 1.32.267.24.753.36 1.46.36zm19.62 2.14a1.123 1.123 0 01-.9.18 1.155 1.155 0 01-.78-.46 34.214 34.214 0 00-1.54-2.04c-.56-.707-1.12-1.38-1.68-2.02a29.924 29.924 0 00-1.52-1.66c-.787-.773-1.313-1.5-1.58-2.18a2.589 2.589 0 01.02-2.02c.28-.68.833-1.407 1.66-2.18.28-.253.613-.573 1-.96.4-.387.82-.8 1.26-1.24.44-.44.867-.88 1.28-1.32.413-.44.787-.833 1.12-1.18.227-.24.507-.36.84-.36.347-.013.64.093.88.32.24.213.36.493.36.84.013.333-.093.62-.32.86a55.82 55.82 0 01-1.56 1.62c-.56.56-1.107 1.1-1.64 1.62a65.05 65.05 0 01-1.38 1.28c-.52.48-.867.893-1.04 1.24-.16.333-.16.667 0 1 .173.333.493.747.96 1.24.453.467.967 1.027 1.54 1.68a69.366 69.366 0 011.76 2.04c.587.707 1.1 1.38 1.54 2.02.2.253.267.547.2.88a1.14 1.14 0 01-.48.8zm10.74-.02c-.573 0-1.1-.14-1.58-.42a3.214 3.214 0 01-1.12-1.12c-.267-.48-.4-1-.4-1.56 0-.587.14-1.113.42-1.58.28-.48.653-.86 1.12-1.14.48-.28 1-.42 1.56-.42.573 0 1.093.14 1.56.42.48.28.86.66 1.14 1.14.28.467.42.993.42 1.58 0 .573-.14 1.093-.42 1.56-.28.467-.653.84-1.12 1.12-.467.28-.993.42-1.58.42zm0-1.4c.48 0 .887-.167 1.22-.5.333-.347.5-.753.5-1.22 0-.467-.167-.867-.5-1.2a1.66 1.66 0 00-1.22-.5c-.467 0-.867.167-1.2.5-.333.333-.5.733-.5 1.2 0 .453.16.853.48 1.2.333.347.74.52 1.22.52z" fill="url(#paint0_linear_2425_1370)"/><path d="M189.988 75.28c0 2.176-.656 3.792-1.968 4.848-1.28 1.088-3.296 1.632-6.048 1.632h-8.696a1 1 0 01-1-1v-1.6a1 1 0 011-1h9.176c1.152 0 2.016-.224 2.592-.672.576-.448.864-1.024.864-1.728v-1.536c0-.736-.288-1.312-.864-1.728-.576-.448-1.44-.672-2.592-.672h-7.016a1 1 0 01-1-1v-5.03c0-.366-.204-.697-.506-.904a5.372 5.372 0 01-1.846-2.186c-.512-1.088-.768-2.496-.768-4.224v-1.2c0-2.688.656-4.64 1.968-5.856 1.344-1.216 3.408-1.824 6.192-1.824h8.792a1 1 0 011 1v7.88c0 2.4-.656 4.288-1.968 5.664-1.312 1.344-3.056 2.016-5.232 2.016h-2.552a1 1 0 00-1 1v.064a1 1 0 001 1h2.456c2.752 0 4.768.544 6.048 1.632 1.312 1.056 1.968 2.672 1.968 4.848v.576zm-7.92-12.72c.992 0 1.744-.32 2.256-.96.512-.64.8-1.312.864-2.016V54.2a1 1 0 00-1-1h-5.192c-1.184 0-2.08.272-2.688.816-.608.544-.912 1.312-.912 2.304v3.12c0 .992.304 1.76.912 2.304.608.544 1.504.816 2.688.816h3.072zM139.071 73.6a1 1 0 01-1-1V47.608c0-1.05-1.412-1.39-1.89-.455l-2.507 4.902a1 1 0 01-.891.545h-2.827a.999.999 0 01-.853-.479l-3.434-5.627c-.527-.863-1.854-.49-1.854.52V72.6a1 1 0 01-1 1h-1.84a1 1 0 01-1-1V41a1 1 0 011-1h5.189a1 1 0 01.867.502l3.434 5.98a1 1 0 001.763-.053l2.927-5.875a1 1 0 01.895-.554h5.005a1 1 0 011 1v31.6a1 1 0 01-1 1h-1.984zm-34.28 2.112c-.384 1.44-.784 2.592-1.2 3.456-.416.896-1.008 1.584-1.776 2.064-.736.512-1.728.768-2.975.768-.5 0-1.133-.053-1.9-.16a.979.979 0 01-.837-.975v-1.504c0-.608.54-1.073 1.146-1.021.47.04.92.06 1.35.06.897 0 1.536-.72 1.92-2.16l.679-2.332c.058-.2.052-.414-.016-.61L93.353 50.93a1 1 0 01.944-1.33h2.249a1 1 0 01.962.73l4.319 15.376c.279.994 1.698.965 1.936-.04l3.63-15.297a1 1 0 01.973-.769h2.084a1 1 0 01.966 1.258l-6.625 24.854zm-20.736-3.587a.97.97 0 01-.074.068c-1.1.919-1.687 1.407-2.888 1.407H77.78c-2.432 0-4.208-.48-5.328-1.44-1.088-.992-1.632-2.672-1.632-5.04v-.96c0-4.96 2.336-7.44 7.008-7.44h3.992a1 1 0 001-1v-1.4c0-.992-.304-1.76-.912-2.304-.608-.544-1.504-.816-2.688-.816h-5.48a1 1 0 01-1-1v-1.6a1 1 0 011-1h5c2.784 0 4.832.608 6.144 1.824 1.343 1.215 2.015 3.166 2.016 5.851v.006c0 .11.111 10.994 0 11.52-.105.492-2.527 2.995-2.846 3.324zM80.613 70c.96 0 1.568-.224 1.824-.672.256-.448.384-1.024.384-1.728v-4.28a1 1 0 00-1-1h-4.04c-.832 0-1.52.272-2.064.816-.544.544-.816 1.232-.816 2.064v2.4c0 .832.192 1.44.576 1.824.384.384.992.576 1.824.576h3.312zm81.017 2.125a1.058 1.058 0 01-.074.068c-1.1.919-1.687 1.407-2.889 1.407h-3.312c-2.432 0-4.208-.48-5.328-1.44-1.088-.992-1.632-2.672-1.632-5.04v-.96c0-4.96 2.336-7.44 7.008-7.44h3.992a1 1 0 001-1v-1.4c0-.992-.304-1.76-.912-2.304-.608-.544-1.504-.816-2.688-.816h-5.48a1 1 0 01-1-1v-1.6a1 1 0 011-1h5c2.784 0 4.832.608 6.144 1.824 1.343 1.215 2.015 3.166 2.016 5.851v.006c.001.11.111 10.994 0 11.52-.105.492-2.526 2.995-2.845 3.324zM158.187 70c.96 0 1.568-.224 1.824-.672.256-.448.384-1.024.384-1.728v-4.28a1 1 0 00-1-1h-4.04c-.832 0-1.52.272-2.064.816-.544.544-.816 1.232-.816 2.064v2.4c0 .832.192 1.44.576 1.824.384.384.992.576 1.824.576h3.312zm51.443 2.125a1.058 1.058 0 01-.074.068c-1.1.919-1.687 1.407-2.889 1.407h-3.312c-2.432 0-4.208-.48-5.328-1.44-1.088-.992-1.632-2.672-1.632-5.04v-.96c0-4.96 2.336-7.44 7.008-7.44h3.992a1 1 0 001-1v-1.4c0-.992-.304-1.76-.912-2.304-.608-.544-1.504-.816-2.688-.816h-5.48a1 1 0 01-1-1v-1.6a1 1 0 011-1h5c2.784 0 4.832.608 6.144 1.824 1.343 1.215 2.015 3.166 2.016 5.851v.006c.001.11.111 10.994 0 11.52-.105.492-2.526 2.995-2.845 3.324zM206.187 70c.96 0 1.568-.224 1.824-.672.256-.448.384-1.024.384-1.728v-4.28a1 1 0 00-1-1h-4.04c-.832 0-1.52.272-2.064.816-.544.544-.816 1.232-.816 2.064v2.4c0 .832.192 1.44.576 1.824.384.384.992.576 1.824.576h3.312zM65.043 66.016c0 2.752-.64 4.704-1.92 5.856-1.248 1.152-3.328 1.728-6.24 1.728h-8.408a1 1 0 01-1-1V41a1 1 0 011-1h7.832c2.88 0 5.056.592 6.528 1.776 1.472 1.152 2.208 3.056 2.208 5.712v18.528zm-4.176-18.96c0-1.056-.32-1.888-.96-2.496-.64-.64-1.488-.96-2.544-.96h-4.712a1 1 0 00-1 1V69a1 1 0 001 1h4.664c1.216 0 2.112-.272 2.688-.816.576-.576.864-1.472.864-2.688v-19.44z" fill="#332D2D"/><path d="M22.295 103.648a.807.807 0 01-.572-.234.807.807 0 01-.234-.572c0-.225.078-.412.234-.559a.807.807 0 01.572-.234h4.537c.529 0 .927-.039 1.196-.117a.784.784 0 00.533-.533c.095-.269.143-.68.143-1.235 0-.563-.048-.975-.143-1.235a.75.75 0 00-.533-.52c-.26-.087-.654-.13-1.183-.13h-4.407a.763.763 0 01-.559-.234.778.778 0 01-.234-.572c0-.225.078-.412.234-.559a.763.763 0 01.559-.234h4.407c.676 0 1.235.052 1.677.156.45.104.806.286 1.066.546.26.26.442.615.546 1.066.113.45.169 1.023.169 1.716 0 .693-.056 1.265-.169 1.716-.104.451-.286.806-.546 1.066-.26.26-.615.442-1.066.546-.45.104-1.014.156-1.69.156h-4.537zm13.611.845a.785.785 0 01-.624-.026.795.795 0 01-.416-.455.751.751 0 01.026-.611.79.79 0 01.455-.429 17.382 17.382 0 002.093-.897c.71-.355 1.387-.741 2.028-1.157.65-.425 1.24-.858 1.768-1.3a9.8 9.8 0 001.313-1.3.825.825 0 01.546-.299.716.716 0 01.585.182c.173.139.273.32.299.546a.735.735 0 01-.182.585c-.355.433-.828.897-1.417 1.391a22.71 22.71 0 01-1.976 1.443c-.728.477-1.478.919-2.249 1.326-.771.407-1.521.741-2.249 1.001zm1.118-5.122c-.33-.277-.698-.563-1.105-.858a11.85 11.85 0 00-1.105-.741.8.8 0 01-.364-.494.8.8 0 01.585-.975.73.73 0 01.611.091c.234.147.498.33.793.546.303.208.594.416.871.624.286.208.52.386.702.533.173.139.273.32.299.546a.717.717 0 01-.156.585.838.838 0 01-.546.312.758.758 0 01-.585-.169zm13.715 6.175a.785.785 0 01-.611.013.748.748 0 01-.455-.403.827.827 0 01-.026-.611.748.748 0 01.416-.455c.98-.459 1.703-1.079 2.171-1.859.468-.78.715-1.785.741-3.016h-1.976c.009.347.013.676.013.988 0 .312-.009.594-.026.845a.76.76 0 01-.26.559.824.824 0 01-.585.195.746.746 0 01-.533-.273.853.853 0 01-.195-.585c.017-.234.026-.498.026-.793 0-.303-.004-.615-.013-.936h-2.665a.786.786 0 01-.559-.221.742.742 0 01-.221-.546c0-.217.074-.399.221-.546a.763.763 0 01.559-.234h2.613c-.017-.303-.039-.59-.065-.858a7.21 7.21 0 00-.078-.728.77.77 0 01.13-.585.766.766 0 01.52-.325.726.726 0 01.598.13.72.72 0 01.312.52c.035.243.065.524.091.845.026.312.048.646.065 1.001h2.015a40.749 40.749 0 00-.039-1.079 12.518 12.518 0 00-.052-.923.78.78 0 01.182-.585.775.775 0 01.546-.286.756.756 0 01.585.195c.173.139.264.32.273.546.026.269.043.594.052.975.017.373.03.758.039 1.157h2.47a.72.72 0 01.546.234c.156.147.234.33.234.546a.721.721 0 01-.234.546.742.742 0 01-.546.221h-2.47c-.026 1.543-.36 2.847-1.001 3.913-.641 1.057-1.577 1.863-2.808 2.418zm17.589-2.236c-.754.286-1.413.412-1.976.377-.563-.035-1.005-.238-1.326-.611-.312-.381-.468-.94-.468-1.677v-4.134c0-.225.078-.416.234-.572a.807.807 0 01.572-.234c.225 0 .412.078.559.234a.778.778 0 01.234.572v3.887c0 .823.498 1.053 1.495.689.39-.147.815-.321 1.274-.52.468-.199.884-.386 1.248-.559a.792.792 0 01.611-.039.749.749 0 01.468.39.75.75 0 01.052.611.705.705 0 01-.39.468c-.399.191-.828.39-1.287.598-.46.199-.893.373-1.3.52zm-8.515.832a.827.827 0 01-.611.026.797.797 0 01-.481-1.027.748.748 0 01.416-.455c.702-.329 1.257-.728 1.664-1.196a4.298 4.298 0 00.871-1.612c.173-.607.26-1.257.26-1.95 0-.225.078-.416.234-.572a.763.763 0 01.559-.234c.225 0 .412.078.559.234a.778.778 0 01.234.572c-.009 1.49-.334 2.765-.975 3.822s-1.551 1.855-2.73 2.392zm15.223 1.183a.824.824 0 01-.611.052.752.752 0 01-.481-.364.729.729 0 01-.078-.598.805.805 0 01.377-.494c.893-.485 1.616-1.088 2.171-1.807.563-.719.914-1.499 1.053-2.34H73.71a.786.786 0 01-.559-.221.786.786 0 01-.221-.559c0-.217.074-.399.221-.546a.763.763 0 01.559-.234h8.606a.72.72 0 01.546.234c.156.147.234.33.234.546a.763.763 0 01-.234.559.742.742 0 01-.546.221H79.04a6.789 6.789 0 01-.676 2.184 7.566 7.566 0 01-1.365 1.924 7.407 7.407 0 01-1.963 1.443zm.182-8.346a.742.742 0 01-.546-.221.786.786 0 01-.221-.559c0-.217.074-.399.221-.546a.721.721 0 01.546-.234h5.707a.72.72 0 01.546.234c.156.147.234.33.234.546a.763.763 0 01-.234.559.742.742 0 01-.546.221h-5.707zm16.315 8.931a.674.674 0 01-.494-.208.653.653 0 01-.195-.481v-3.679a20.174 20.174 0 01-2.47 1.833.716.716 0 01-.975-.247.713.713 0 01-.078-.533.68.68 0 01.325-.429 14.093 14.093 0 001.768-1.222c.59-.468 1.131-.958 1.625-1.469a11.42 11.42 0 001.248-1.508.675.675 0 01.442-.299.692.692 0 01.533.117.68.68 0 01.299.455.654.654 0 01-.117.52c-.156.225-.338.464-.546.715a8.83 8.83 0 01-.676.754v4.992c0 .191-.07.351-.208.481a.632.632 0 01-.481.208zm9.373-1.417a.785.785 0 01-.624-.026.796.796 0 01-.416-.455.751.751 0 01.026-.611.79.79 0 01.455-.429 17.402 17.402 0 002.093-.897 20.741 20.741 0 002.028-1.157c.65-.425 1.239-.858 1.768-1.3a9.8 9.8 0 001.313-1.3.824.824 0 01.546-.299.717.717 0 01.585.182.79.79 0 01.299.546.736.736 0 01-.182.585c-.355.433-.828.897-1.417 1.391-.589.485-1.248.966-1.976 1.443-.728.477-1.478.919-2.249 1.326-.771.407-1.521.741-2.249 1.001zm1.118-5.122a19.113 19.113 0 00-1.105-.858 11.85 11.85 0 00-1.105-.741.8.8 0 01-.364-.494.8.8 0 01.585-.975.73.73 0 01.611.091c.234.147.498.33.793.546.303.208.594.416.871.624.286.208.52.386.702.533a.79.79 0 01.299.546.715.715 0 01-.156.585.84.84 0 01-.546.312.757.757 0 01-.585-.169zm11.713 6.084a.785.785 0 01-.611.013.746.746 0 01-.442-.429.799.799 0 01.416-1.053c1.43-.624 2.669-1.404 3.718-2.34a10.695 10.695 0 002.496-3.211c.277-.555.078-.832-.598-.832H117a16.078 16.078 0 01-1.404 1.625c-.511.52-1.04.975-1.586 1.365a.802.802 0 01-.611.143.764.764 0 01-.507-.338.779.779 0 01.195-1.118c.485-.338.958-.732 1.417-1.183.459-.46.875-.94 1.248-1.443a7.97 7.97 0 00.897-1.495.794.794 0 01.442-.429.82.82 0 01.624.013.749.749 0 01.416.455.718.718 0 01-.013.611 1.611 1.611 0 01-.065.117.876.876 0 00-.065.13h.884c1.04 0 1.729.269 2.067.806.338.529.29 1.244-.143 2.145a11.856 11.856 0 01-1.729 2.613 14.608 14.608 0 01-5.33 3.835zm9.204-9.646a12.025 12.025 0 00-.429-.403 6.019 6.019 0 00-.481-.416.5.5 0 01-.156-.325.493.493 0 01.117-.39.448.448 0 01.325-.169.613.613 0 01.39.078c.147.087.316.208.507.364.199.147.368.286.507.416a.549.549 0 01.169.403.55.55 0 01-.143.403.565.565 0 01-.39.195.546.546 0 01-.416-.156zm-.338 1.183a.55.55 0 01-.403.169.579.579 0 01-.403-.195 7.766 7.766 0 00-.403-.429 26.363 26.363 0 00-.442-.455.49.49 0 01-.143-.325.493.493 0 01.143-.377.457.457 0 01.351-.156.58.58 0 01.377.104c.139.095.299.225.481.39.191.165.347.32.468.468a.527.527 0 01.143.403.578.578 0 01-.169.403zm8.788 7.969a.793.793 0 01-.611-.091.753.753 0 01-.364-.481.73.73 0 01.091-.585.753.753 0 01.481-.364c.962-.251 1.668-.659 2.119-1.222.459-.563.689-1.278.689-2.145a2.95 2.95 0 00-.364-1.469 2.818 2.818 0 00-1.04-1.053c-.442-.269-.975-.433-1.599-.494-.156 1.456-.42 2.717-.793 3.783-.364 1.057-.797 1.876-1.3 2.457-.494.572-1.014.858-1.56.858-.459 0-.88-.134-1.261-.403-.381-.269-.685-.654-.91-1.157-.217-.503-.325-1.105-.325-1.807 0-.719.134-1.391.403-2.015a5.074 5.074 0 011.17-1.664 5.487 5.487 0 011.768-1.118 6.104 6.104 0 012.249-.403c.988 0 1.863.19 2.626.572.771.373 1.378.897 1.82 1.573.442.667.663 1.447.663 2.34 0 1.257-.338 2.305-1.014 3.146-.667.832-1.647 1.413-2.938 1.742zm-4.238-2.405c.156 0 .334-.13.533-.39.208-.269.416-.646.624-1.131.208-.485.399-1.057.572-1.716.173-.667.303-1.404.39-2.21-.676.13-1.244.381-1.703.754a3.541 3.541 0 00-1.04 1.313 3.864 3.864 0 00-.364 1.586c0 .589.091 1.036.273 1.339.191.303.429.455.715.455zm16.861 3.64a.94.94 0 01-.572-.182c-.165-.113-.26-.286-.286-.52a.784.784 0 01.13-.52c.113-.165.282-.256.507-.273.355-.043.589-.108.702-.195.113-.087.169-.264.169-.533v-.78h-3.653l.052.026c.017 0 .03.009.039.026.087.061.204.156.351.286.156.121.308.247.455.377.156.121.269.217.338.286a.731.731 0 01.273.546.736.736 0 01-.221.585.766.766 0 01-.546.247.718.718 0 01-.572-.208 4.006 4.006 0 00-.325-.312 16.43 16.43 0 01-.442-.377 9.235 9.235 0 00-.351-.299.657.657 0 01-.247-.494c0-.208.069-.39.208-.546.043-.043.1-.091.169-.143h-2.691a.61.61 0 01-.468-.195.672.672 0 01-.169-.455.625.625 0 01.637-.637h7.163v-.52h-3.471c-.667 0-1.192-.065-1.573-.195-.373-.13-.637-.351-.793-.663-.147-.321-.221-.763-.221-1.326v-.234c0-.546.074-.98.221-1.3.156-.32.42-.546.793-.676.381-.139.906-.208 1.573-.208h1.092v-.546h-4.641a.555.555 0 01-.429-.169.638.638 0 01-.156-.429.59.59 0 01.156-.416.535.535 0 01.429-.182h4.641V94.6c0-.225.074-.407.221-.546a.75.75 0 01.533-.208.75.75 0 01.533.208c.147.139.221.32.221.546v.442h4.55c.182 0 .325.06.429.182a.59.59 0 01.156.416.638.638 0 01-.156.429.555.555 0 01-.429.169h-4.55v.546h1.079c.667 0 1.187.07 1.56.208.381.13.646.355.793.676.156.32.234.754.234 1.3v.234c0 .615-.091 1.083-.273 1.404-.182.321-.516.542-1.001.663v.637h2.236c.199 0 .351.065.455.195a.625.625 0 01.169.442.672.672 0 01-.169.455c-.104.13-.256.195-.455.195h-2.236v1.04c0 .659-.169 1.148-.507 1.469-.329.329-.884.494-1.664.494zm-2.847-5.941h1.118v-.65h-2.093c.017.295.091.477.221.546.139.069.39.104.754.104zm2.626 0h1.118c.364 0 .611-.035.741-.104.139-.069.217-.251.234-.546h-2.093v.65zm-3.601-1.69h2.093v-.65h-1.118c-.364 0-.615.035-.754.104-.13.07-.204.251-.221.546zm3.601 0h2.093c-.017-.295-.095-.477-.234-.546-.13-.07-.377-.104-.741-.104h-1.118v.65zm15.587 7.449c-.251 0-.455-.074-.611-.221a.806.806 0 01-.247-.546.744.744 0 01.156-.572.807.807 0 01.546-.286c.355-.043.572-.108.65-.195.087-.095.13-.264.13-.507v-4.186h-1.43c-.763 0-1.313-.134-1.651-.403-.329-.277-.494-.776-.494-1.495v-1.248c0-.72.165-1.226.494-1.521.338-.295.888-.442 1.651-.442h.793c.771 0 1.322.147 1.651.442.329.295.494.802.494 1.521v7.735c0 .685-.169 1.174-.507 1.469-.338.303-.88.455-1.625.455zm-8.112.091a.748.748 0 01-.533-.208.676.676 0 01-.221-.533v-9.009c0-.72.165-1.226.494-1.521.338-.295.888-.442 1.651-.442h.741c.771 0 1.322.147 1.651.442.329.295.494.802.494 1.521v1.248c0 .72-.165 1.218-.494 1.495-.329.269-.88.403-1.651.403h-1.378v5.863a.676.676 0 01-.221.533.748.748 0 01-.533.208zm7.462-7.852h1.274v-.741h-2.119c.009.303.069.503.182.598.113.095.334.143.663.143zm-6.708 0h1.222c.338 0 .559-.048.663-.143.113-.095.173-.295.182-.598h-2.067v.741zm5.863-1.885h2.119c-.009-.303-.069-.498-.182-.585-.104-.095-.325-.143-.663-.143h-.429c-.329 0-.55.048-.663.143-.113.087-.173.282-.182.585zm-5.863 0h2.067c-.009-.303-.069-.498-.182-.585-.104-.095-.325-.143-.663-.143h-.377c-.329 0-.55.048-.663.143-.113.087-.173.282-.182.585zm13.546 9.737a.748.748 0 01-.533-.208c-.139-.13-.208-.308-.208-.533V94.743c0-.225.069-.403.208-.533a.75.75 0 01.533-.208c.208 0 .381.07.52.208.139.13.208.308.208.533v1.352c.009 0 .022-.009.039-.026a.717.717 0 01.455-.13c.165.009.29.074.377.195.052.06.121.156.208.286.095.121.191.247.286.377.095.121.165.221.208.299a.575.575 0 01.143-.312.396.396 0 01.325-.143h1.781v-.481h-2.457a.487.487 0 01-.377-.156.55.55 0 01-.13-.364.55.55 0 01.13-.364.47.47 0 01.377-.169h2.457v-.455c0-.225.074-.403.221-.533a.777.777 0 01.533-.195c.208 0 .381.065.52.195.147.13.221.308.221.533v.455h2.652c.156 0 .277.056.364.169a.55.55 0 01.13.364.55.55 0 01-.13.364.448.448 0 01-.364.156h-2.652v.481h1.885c.147 0 .26.052.338.156a.57.57 0 01.117.351.57.57 0 01-.117.351.397.397 0 01-.338.156h-1.885v.52h3.016c.165 0 .29.052.377.156.087.104.13.23.13.377a.55.55 0 01-.13.364c-.087.104-.212.156-.377.156h-7.345c-.165 0-.29-.052-.377-.156a.55.55 0 01-.13-.364c0-.147.043-.273.13-.377.087-.104.212-.156.377-.156h2.834v-.52h-1.781a.492.492 0 01-.195-.039c-.052-.035-.1-.07-.143-.104a.585.585 0 01-.26.507.633.633 0 01-.468.104.57.57 0 01-.403-.247 15.058 15.058 0 00-.26-.39 23.7 23.7 0 00-.312-.468v8.346c0 .225-.069.403-.208.533a.705.705 0 01-.52.208zm3.146.091a.748.748 0 01-.533-.208.717.717 0 01-.221-.546v-3.952c0-.451.056-.806.169-1.066a1.07 1.07 0 01.611-.572c.295-.121.702-.182 1.222-.182h2.002c.52 0 .923.06 1.209.182.286.113.485.303.598.572.121.26.182.615.182 1.066v2.86c0 .65-.165 1.109-.494 1.378-.329.277-.81.416-1.443.416a.782.782 0 01-.533-.182.632.632 0 01-.234-.455.76.76 0 01.13-.52.64.64 0 01.468-.26c.243-.035.403-.074.481-.117.087-.052.13-.182.13-.39v-.325h-3.003v1.547a.732.732 0 01-.741.754zm-5.46-5.928a.527.527 0 01-.39-.273.745.745 0 01-.065-.494c.052-.208.104-.464.156-.767.052-.312.1-.624.143-.936.043-.312.074-.576.091-.793.017-.225.1-.39.247-.494a.73.73 0 01.546-.104.615.615 0 01.416.247.67.67 0 01.13.494 38.89 38.89 0 01-.104.884 27.3 27.3 0 01-.143.962 11.75 11.75 0 01-.156.793.594.594 0 01-.312.416c-.156.087-.342.108-.559.065zm6.201 2.626h3.003v-.572h-3.003v.572zm0-1.573h3.003c-.009-.251-.065-.407-.169-.468-.095-.069-.303-.104-.624-.104h-1.417c-.321 0-.533.035-.637.104-.095.061-.147.217-.156.468zm13.624 4.797a.716.716 0 01-.507-.208.677.677 0 01-.208-.52v-8.827c0-.572.065-1.014.195-1.326.139-.32.386-.546.741-.676s.871-.195 1.547-.195c.676 0 1.192.056 1.547.169.364.113.611.312.741.598.139.286.208.685.208 1.196 0 .572-.069 1.018-.208 1.339-.139.32-.364.546-.676.676-.303.121-.711.186-1.222.195-.225 0-.403-.065-.533-.195a.85.85 0 01-.221-.533.627.627 0 01.182-.494.768.768 0 01.533-.221c.286-.017.472-.065.559-.143.087-.087.13-.243.13-.468 0-.33-.065-.542-.195-.637-.13-.095-.412-.143-.845-.143-.425 0-.706.056-.845.169-.13.104-.195.334-.195.689v2.327h2.002c.693 0 1.17.16 1.43.481.26.312.325.789.195 1.43-.191.945-.485 1.768-.884 2.47.191.217.39.429.598.637.208.199.433.39.676.572a.592.592 0 01.247.481.695.695 0 01-.156.52.693.693 0 01-.52.26.771.771 0 01-.559-.169 8.733 8.733 0 01-.598-.52 7.67 7.67 0 01-.52-.546c-.139.156-.282.312-.429.468-.139.147-.286.295-.442.442a.842.842 0 01-.52.234.608.608 0 01-.52-.169.68.68 0 01-.247.455.68.68 0 01-.481.182zm-3.965.026a.698.698 0 01-.494-.195.677.677 0 01-.208-.52v-1.677h-1.573a.648.648 0 01-.455-.182.648.648 0 010-.897.624.624 0 01.455-.195h1.573v-.884h-1.742a.648.648 0 01-.455-.182.648.648 0 010-.897.624.624 0 01.455-.195h.689a27.676 27.676 0 00-.299-.78.552.552 0 01.013-.481.64.64 0 01.364-.325h-.975a.647.647 0 01-.455-.182.647.647 0 010-.897.624.624 0 01.455-.195h1.95v-.819h-1.391a.602.602 0 01-.442-.182.632.632 0 010-.884.602.602 0 01.442-.182h1.391v-.689c0-.217.069-.39.208-.52a.698.698 0 01.494-.195c.199 0 .368.065.507.195s.208.303.208.52v.689h1.339a.6.6 0 01.442.182.632.632 0 010 .884.602.602 0 01-.442.182h-1.339v.819h1.807c.173 0 .321.065.442.195.13.121.195.269.195.442a.624.624 0 01-.195.455.602.602 0 01-.442.182h-.858a.59.59 0 01.338.325.497.497 0 01.013.455 3.8 3.8 0 01-.13.338c-.061.156-.126.312-.195.468h.611c.173 0 .321.065.442.195.13.121.195.269.195.442a.624.624 0 01-.195.455.603.603 0 01-.442.182h-1.586v.884h1.43c.173 0 .321.065.442.195.13.121.195.269.195.442a.624.624 0 01-.195.455.603.603 0 01-.442.182h-1.43v1.677c0 .217-.069.39-.208.52a.715.715 0 01-.507.195zm-.39-5.824h.741c.043-.113.091-.251.143-.416.061-.165.113-.32.156-.468.052-.147.087-.243.104-.286a.55.55 0 01.143-.26.687.687 0 01.234-.156h-2.34c.173.07.299.19.377.364.035.078.078.2.13.364l.182.494c.061.156.104.277.13.364zm5.083 4.121a9.996 9.996 0 001.066-1.157c-.425-.745-.75-1.595-.975-2.548-.052-.208-.026-.386.078-.533h-.169v4.238zm1.872-2.522c.069-.173.134-.351.195-.533a3.2 3.2 0 00.156-.559c.061-.251.056-.416-.013-.494-.061-.087-.225-.13-.494-.13h-.468a.604.604 0 01.117.26c.13.511.299.997.507 1.456zm5.616 2.86a.77.77 0 01-.598.117.8.8 0 01-.507-.364.84.84 0 01-.104-.611.756.756 0 01.364-.494 17.914 17.914 0 002.275-1.651 18.696 18.696 0 001.95-1.95 13.466 13.466 0 00-.949-.611c-.303-.19-.594-.355-.871-.494a.797.797 0 01-.416-.455.792.792 0 01.039-.611.747.747 0 01.455-.403.819.819 0 01.624.039c.312.147.646.334 1.001.559a18.5 18.5 0 011.105.715c.277-.399.533-.802.767-1.209.243-.407.459-.819.65-1.235a.795.795 0 01.455-.416.751.751 0 01.611.026.749.749 0 01.416.455.752.752 0 01-.026.611 17.13 17.13 0 01-1.612 2.691c.364.295.706.581 1.027.858.321.277.589.533.806.767a.8.8 0 01.208.585.742.742 0 01-.247.559.775.775 0 01-.585.221.76.76 0 01-.559-.26 15.373 15.373 0 00-.741-.715 14.03 14.03 0 00-.91-.754 21.616 21.616 0 01-2.171 2.197 18.983 18.983 0 01-2.457 1.833zm13.702.546a.824.824 0 01-.611.052.753.753 0 01-.481-.364.727.727 0 01-.078-.598.805.805 0 01.377-.494c.893-.485 1.616-1.088 2.171-1.807.563-.719.914-1.499 1.053-2.34h-3.77a.74.74 0 01-.546-.221.787.787 0 01-.221-.559c0-.217.074-.399.221-.546a.72.72 0 01.546-.234h8.619a.72.72 0 01.546.234c.147.147.221.33.221.546a.787.787 0 01-.221.559.74.74 0 01-.546.221h-3.289a6.569 6.569 0 01-.663 2.184 7.58 7.58 0 01-1.365 1.924 7.407 7.407 0 01-1.963 1.443zm.182-8.346a.785.785 0 01-.559-.221.787.787 0 01-.221-.559c0-.217.074-.399.221-.546a.762.762 0 01.559-.234h5.538c.225 0 .412.078.559.234.147.147.221.33.221.546a.787.787 0 01-.221.559.758.758 0 01-.559.221h-5.538zm8.307 1.04a.507.507 0 01-.416.13.521.521 0 01-.377-.221 9.213 9.213 0 00-.351-.481c-.147-.19-.282-.355-.403-.494a.484.484 0 01-.104-.351.485.485 0 01.182-.351.458.458 0 01.351-.13c.139.009.26.06.364.156.121.113.264.264.429.455.173.182.316.347.429.494.095.13.13.273.104.429a.526.526 0 01-.208.364zm1.248-1.079a.59.59 0 01-.416.156.493.493 0 01-.377-.195 25.03 25.03 0 00-.39-.442 14.656 14.656 0 00-.429-.481.49.49 0 01-.143-.325.52.52 0 01.169-.377.462.462 0 01.338-.143.544.544 0 01.377.117c.13.095.286.23.468.403.182.173.334.334.455.481a.598.598 0 01-.052.806zm6.799 8.97a.674.674 0 01-.494-.208.653.653 0 01-.195-.481v-3.679a20.197 20.197 0 01-2.47 1.833.716.716 0 01-.975-.247.716.716 0 01-.078-.533.68.68 0 01.325-.429 14.115 14.115 0 001.768-1.222 16.706 16.706 0 001.625-1.469 11.4 11.4 0 001.248-1.508.676.676 0 01.442-.299.692.692 0 01.533.117.68.68 0 01.299.455.651.651 0 01-.117.52c-.156.225-.338.464-.546.715a8.83 8.83 0 01-.676.754v4.992a.632.632 0 01-.208.481.632.632 0 01-.481.208zm10.127-.364a.756.756 0 01-.585.169.78.78 0 01-.533-.299.756.756 0 01-.169-.585.79.79 0 01.299-.546 6.335 6.335 0 001.469-1.612 6.05 6.05 0 00.806-2.041c.156-.737.165-1.5.026-2.288a.794.794 0 01.13-.598.72.72 0 01.507-.325.753.753 0 01.598.117.73.73 0 01.325.52.72.72 0 01.026.195l.026.208c.78-.043 1.365-.108 1.755-.195.399-.095.663-.2.793-.312.139-.121.208-.243.208-.364 0-.182-.056-.32-.169-.416-.113-.104-.355-.156-.728-.156h-6.877a.807.807 0 01-.572-.234.763.763 0 01-.234-.559c0-.225.078-.412.234-.559a.807.807 0 01.572-.234h6.877c1.716 0 2.574.698 2.574 2.093 0 .52-.152.953-.455 1.3-.295.338-.767.598-1.417.78-.641.182-1.486.303-2.535.364a7.74 7.74 0 01-.884 3.133 7.474 7.474 0 01-2.067 2.444z" fill="#343436"/><defs><linearGradient id="paint0_linear_2425_1370" x1="49" y1="16" x2="175.5" y2="16" gradientUnits="userSpaceOnUse"><stop stop-color="#C31F1F"/><stop offset="1" stop-color="#132097"/></linearGradient></defs></svg>