<svg width="282" height="65" viewBox="0 0 282 65" fill="none" xmlns="http://www.w3.org/2000/svg">
<rect x="0.5" y="20.5" width="281" height="44" rx="7.5" fill="white"/>
<rect x="0.5" y="20.5" width="281" height="44" rx="7.5" stroke="white"/>
<path d="M25.33 51.306C25.054 51.426 24.772 51.426 24.484 51.306C24.196 51.198 23.986 51.006 23.854 50.73C23.734 50.442 23.728 50.154 23.836 49.866C23.944 49.566 24.136 49.356 24.412 49.236C26.284 48.396 27.862 47.388 29.146 46.212C30.442 45.036 31.384 43.758 31.972 42.378C32.236 41.778 32.278 41.328 32.098 41.028C31.918 40.716 31.474 40.56 30.766 40.56H24.016C23.716 40.56 23.458 40.452 23.242 40.236C23.026 40.008 22.918 39.744 22.918 39.444C22.918 39.132 23.026 38.868 23.242 38.652C23.458 38.436 23.716 38.328 24.016 38.328H30.856C31.96 38.328 32.812 38.532 33.412 38.94C34.024 39.336 34.384 39.894 34.492 40.614C34.6 41.322 34.456 42.156 34.06 43.116C33.352 44.796 32.254 46.344 30.766 47.76C29.29 49.164 27.478 50.346 25.33 51.306ZM36.508 40.434C36.004 40.434 35.572 40.26 35.212 39.912C34.864 39.552 34.69 39.12 34.69 38.616C34.69 38.112 34.864 37.686 35.212 37.338C35.572 36.978 36.004 36.798 36.508 36.798C37 36.798 37.42 36.978 37.768 37.338C38.128 37.686 38.308 38.112 38.308 38.616C38.308 39.12 38.128 39.552 37.768 39.912C37.42 40.26 37 40.434 36.508 40.434ZM36.508 39.39C36.724 39.39 36.904 39.318 37.048 39.174C37.204 39.018 37.282 38.832 37.282 38.616C37.282 38.4 37.204 38.22 37.048 38.076C36.904 37.92 36.724 37.842 36.508 37.842C36.292 37.842 36.106 37.92 35.95 38.076C35.794 38.22 35.716 38.4 35.716 38.616C35.716 38.832 35.794 39.018 35.95 39.174C36.106 39.318 36.292 39.39 36.508 39.39ZM47.38 49.92C46.144 49.92 45.124 49.83 44.32 49.65C43.528 49.47 42.91 49.17 42.466 48.75C42.022 48.33 41.71 47.772 41.53 47.076C41.362 46.38 41.278 45.516 41.278 44.484C41.278 43.452 41.362 42.588 41.53 41.892C41.71 41.196 42.022 40.638 42.466 40.218C42.91 39.798 43.528 39.498 44.32 39.318C45.124 39.138 46.144 39.048 47.38 39.048C48.628 39.048 49.648 39.138 50.44 39.318C51.232 39.498 51.85 39.798 52.294 40.218C52.738 40.638 53.044 41.196 53.212 41.892C53.392 42.588 53.482 43.452 53.482 44.484C53.482 45.516 53.392 46.38 53.212 47.076C53.044 47.772 52.738 48.33 52.294 48.75C51.85 49.17 51.232 49.47 50.44 49.65C49.648 49.83 48.628 49.92 47.38 49.92ZM47.38 47.724C48.232 47.724 48.91 47.682 49.414 47.598C49.93 47.502 50.32 47.34 50.584 47.112C50.86 46.884 51.04 46.56 51.124 46.14C51.22 45.708 51.268 45.156 51.268 44.484C51.268 43.812 51.22 43.266 51.124 42.846C51.04 42.414 50.86 42.084 50.584 41.856C50.32 41.628 49.93 41.472 49.414 41.388C48.91 41.292 48.232 41.244 47.38 41.244C46.54 41.244 45.862 41.292 45.346 41.388C44.83 41.472 44.434 41.628 44.158 41.856C43.894 42.084 43.714 42.414 43.618 42.846C43.534 43.266 43.492 43.812 43.492 44.484C43.492 45.156 43.534 45.708 43.618 46.14C43.714 46.56 43.894 46.884 44.158 47.112C44.434 47.34 44.83 47.502 45.346 47.598C45.862 47.682 46.54 47.724 47.38 47.724ZM61.258 50.892C60.958 50.976 60.67 50.952 60.394 50.82C60.13 50.676 59.95 50.454 59.854 50.154C59.77 49.866 59.794 49.584 59.926 49.308C60.07 49.032 60.286 48.852 60.574 48.768C61.498 48.48 62.44 48.078 63.4 47.562C64.372 47.046 65.308 46.458 66.208 45.798C67.12 45.126 67.954 44.418 68.71 43.674C69.478 42.93 70.114 42.186 70.618 41.442C70.786 41.19 71.02 41.034 71.32 40.974C71.62 40.914 71.896 40.974 72.148 41.154C72.412 41.322 72.568 41.556 72.616 41.856C72.676 42.156 72.622 42.432 72.454 42.684C71.902 43.5 71.2 44.328 70.348 45.168C69.496 45.996 68.56 46.788 67.54 47.544C66.52 48.288 65.47 48.954 64.39 49.542C63.31 50.118 62.266 50.568 61.258 50.892ZM63.832 41.73C63.664 41.586 63.424 41.406 63.112 41.19C62.812 40.974 62.5 40.764 62.176 40.56C61.852 40.344 61.57 40.176 61.33 40.056C61.066 39.912 60.892 39.69 60.808 39.39C60.724 39.09 60.76 38.808 60.916 38.544C61.072 38.268 61.3 38.094 61.6 38.022C61.9 37.95 62.182 37.986 62.446 38.13C62.71 38.274 63.028 38.472 63.4 38.724C63.784 38.964 64.156 39.21 64.516 39.462C64.876 39.714 65.158 39.93 65.362 40.11C65.59 40.314 65.704 40.572 65.704 40.884C65.716 41.196 65.62 41.466 65.416 41.694C65.2 41.922 64.942 42.036 64.642 42.036C64.342 42.036 64.072 41.934 63.832 41.73ZM61.924 45.06C61.756 44.928 61.51 44.766 61.186 44.574C60.874 44.37 60.544 44.172 60.196 43.98C59.86 43.788 59.572 43.638 59.332 43.53C59.056 43.398 58.87 43.182 58.774 42.882C58.678 42.582 58.696 42.3 58.828 42.036C58.972 41.76 59.188 41.58 59.476 41.496C59.776 41.4 60.058 41.418 60.322 41.55C60.61 41.682 60.946 41.856 61.33 42.072C61.726 42.288 62.11 42.516 62.482 42.756C62.854 42.984 63.148 43.182 63.364 43.35C63.604 43.542 63.736 43.794 63.76 44.106C63.784 44.406 63.694 44.676 63.49 44.916C63.298 45.156 63.046 45.288 62.734 45.312C62.434 45.336 62.164 45.252 61.924 45.06ZM70.474 40.308C70.33 40.464 70.144 40.542 69.916 40.542C69.7 40.53 69.52 40.44 69.376 40.272C69.22 40.104 69.028 39.906 68.8 39.678C68.584 39.438 68.38 39.228 68.188 39.048C68.068 38.94 68.002 38.79 67.99 38.598C67.978 38.406 68.044 38.232 68.188 38.076C68.32 37.944 68.482 37.872 68.674 37.86C68.866 37.848 69.04 37.896 69.196 38.004C69.388 38.136 69.61 38.322 69.862 38.562C70.126 38.79 70.342 39 70.51 39.192C70.666 39.348 70.738 39.534 70.726 39.75C70.714 39.966 70.63 40.152 70.474 40.308ZM70.96 38.67C70.804 38.514 70.606 38.328 70.366 38.112C70.126 37.884 69.904 37.692 69.7 37.536C69.568 37.428 69.49 37.278 69.466 37.086C69.442 36.894 69.496 36.72 69.628 36.564C69.748 36.408 69.898 36.324 70.078 36.312C70.27 36.288 70.45 36.324 70.618 36.42C70.822 36.54 71.056 36.708 71.32 36.924C71.596 37.128 71.83 37.326 72.022 37.518C72.178 37.662 72.256 37.842 72.256 38.058C72.268 38.274 72.202 38.466 72.058 38.634C71.926 38.79 71.746 38.874 71.518 38.886C71.302 38.898 71.116 38.826 70.96 38.67ZM79.078 50.046C78.814 50.046 78.586 49.95 78.394 49.758C78.202 49.554 78.106 49.32 78.106 49.056C78.106 48.78 78.202 48.552 78.394 48.372C78.586 48.18 78.814 48.084 79.078 48.084H83.146V45.078H80.68C80.416 45.078 80.188 44.982 79.996 44.79C79.804 44.586 79.708 44.352 79.708 44.088C79.708 43.812 79.804 43.584 79.996 43.404C80.188 43.212 80.416 43.116 80.68 43.116H87.52C87.796 43.116 88.03 43.212 88.222 43.404C88.414 43.584 88.51 43.812 88.51 44.088C88.51 44.352 88.414 44.586 88.222 44.79C88.03 44.982 87.796 45.078 87.52 45.078H85.09V48.084H89.194C89.47 48.084 89.698 48.18 89.878 48.372C90.07 48.552 90.166 48.78 90.166 49.056C90.166 49.32 90.07 49.554 89.878 49.758C89.698 49.95 89.47 50.046 89.194 50.046H79.078ZM98.104 51.612C97.816 51.732 97.528 51.732 97.24 51.612C96.964 51.504 96.76 51.312 96.628 51.036C96.508 50.76 96.502 50.478 96.61 50.19C96.73 49.902 96.928 49.698 97.204 49.578C99.196 48.702 100.918 47.616 102.37 46.32C103.822 45.024 104.968 43.548 105.808 41.892C106.012 41.508 106.048 41.22 105.916 41.028C105.796 40.836 105.49 40.74 104.998 40.74H102.604C102.028 41.508 101.386 42.258 100.678 42.99C99.97 43.71 99.232 44.334 98.464 44.862C98.224 45.042 97.948 45.108 97.636 45.06C97.336 45 97.096 44.844 96.916 44.592C96.748 44.34 96.688 44.064 96.736 43.764C96.796 43.452 96.952 43.212 97.204 43.044C97.876 42.588 98.53 42.042 99.166 41.406C99.802 40.77 100.378 40.104 100.894 39.408C101.422 38.7 101.836 38.01 102.136 37.338C102.256 37.062 102.46 36.87 102.748 36.762C103.036 36.642 103.318 36.648 103.594 36.78C103.87 36.9 104.062 37.104 104.17 37.392C104.29 37.68 104.284 37.962 104.152 38.238C104.104 38.358 104.044 38.478 103.972 38.598H105.214C106.642 38.598 107.59 38.964 108.058 39.696C108.538 40.428 108.478 41.418 107.878 42.666C107.266 43.938 106.462 45.144 105.466 46.284C104.482 47.424 103.366 48.45 102.118 49.362C100.87 50.262 99.532 51.012 98.104 51.612ZM119.722 51.774C119.422 51.774 119.164 51.666 118.948 51.45C118.732 51.234 118.624 50.976 118.624 50.676V38.238C118.624 37.926 118.732 37.668 118.948 37.464C119.164 37.248 119.422 37.14 119.722 37.14C120.034 37.14 120.298 37.248 120.514 37.464C120.73 37.668 120.838 37.926 120.838 38.238V42.576C120.994 42.336 121.21 42.18 121.486 42.108C121.762 42.024 122.032 42.048 122.296 42.18C123.004 42.552 123.724 42.978 124.456 43.458C125.2 43.938 125.842 44.406 126.382 44.862C126.622 45.054 126.754 45.312 126.778 45.636C126.814 45.948 126.73 46.224 126.526 46.464C126.334 46.692 126.082 46.824 125.77 46.86C125.458 46.884 125.182 46.8 124.942 46.608C124.606 46.344 124.216 46.062 123.772 45.762C123.34 45.462 122.902 45.174 122.458 44.898C122.026 44.61 121.63 44.364 121.27 44.16C121.078 44.052 120.934 43.92 120.838 43.764V50.676C120.838 50.976 120.73 51.234 120.514 51.45C120.298 51.666 120.034 51.774 119.722 51.774ZM141.106 50.946C140.806 51.018 140.524 50.976 140.26 50.82C139.996 50.664 139.828 50.442 139.756 50.154C139.684 49.866 139.726 49.596 139.882 49.344C140.038 49.08 140.26 48.912 140.548 48.84C141.88 48.492 142.858 47.928 143.482 47.148C144.118 46.368 144.436 45.378 144.436 44.178C144.436 43.422 144.268 42.744 143.932 42.144C143.596 41.544 143.116 41.058 142.492 40.686C141.88 40.314 141.142 40.086 140.278 40.002C140.062 42.018 139.696 43.764 139.18 45.24C138.676 46.704 138.076 47.838 137.38 48.642C136.696 49.434 135.976 49.83 135.22 49.83C134.584 49.83 134.002 49.644 133.474 49.272C132.946 48.9 132.526 48.366 132.214 47.67C131.914 46.974 131.764 46.14 131.764 45.168C131.764 44.172 131.95 43.242 132.322 42.378C132.706 41.502 133.246 40.734 133.942 40.074C134.638 39.414 135.454 38.898 136.39 38.526C137.338 38.154 138.376 37.968 139.504 37.968C140.872 37.968 142.084 38.232 143.14 38.76C144.208 39.276 145.048 40.002 145.66 40.938C146.272 41.862 146.578 42.942 146.578 44.178C146.578 45.918 146.11 47.37 145.174 48.534C144.25 49.686 142.894 50.49 141.106 50.946ZM135.238 47.616C135.454 47.616 135.7 47.436 135.976 47.076C136.264 46.704 136.552 46.182 136.84 45.51C137.128 44.838 137.392 44.046 137.632 43.134C137.872 42.21 138.052 41.19 138.172 40.074C137.236 40.254 136.45 40.602 135.814 41.118C135.178 41.622 134.698 42.228 134.374 42.936C134.05 43.632 133.882 44.364 133.87 45.132C133.87 45.948 133.996 46.566 134.248 46.986C134.512 47.406 134.842 47.616 135.238 47.616ZM161.104 51.81C160.12 51.81 159.346 51.702 158.782 51.486C158.23 51.282 157.834 50.928 157.594 50.424C157.366 49.908 157.252 49.206 157.252 48.318V40.11C157.252 39.222 157.366 38.526 157.594 38.022C157.834 37.506 158.23 37.146 158.782 36.942C159.346 36.726 160.12 36.618 161.104 36.618C162.088 36.618 162.856 36.726 163.408 36.942C163.972 37.146 164.368 37.506 164.596 38.022C164.836 38.526 164.956 39.222 164.956 40.11V48.318C164.956 49.206 164.836 49.908 164.596 50.424C164.368 50.928 163.972 51.282 163.408 51.486C162.856 51.702 162.088 51.81 161.104 51.81ZM153.454 52.476C153.166 52.476 152.92 52.38 152.716 52.188C152.524 52.008 152.428 51.762 152.428 51.45V45.636C152.164 46.092 151.9 46.53 151.636 46.95C151.372 47.358 151.126 47.718 150.898 48.03C150.718 48.27 150.484 48.42 150.196 48.48C149.908 48.528 149.644 48.456 149.404 48.264C149.176 48.096 149.044 47.874 149.008 47.598C148.972 47.31 149.044 47.058 149.224 46.842C149.464 46.542 149.734 46.164 150.034 45.708C150.334 45.252 150.634 44.766 150.934 44.25C151.246 43.722 151.534 43.218 151.798 42.738C152.062 42.246 152.272 41.826 152.428 41.478V41.388H150.196C149.908 41.388 149.68 41.298 149.512 41.118C149.344 40.938 149.26 40.716 149.26 40.452C149.26 40.2 149.344 39.984 149.512 39.804C149.68 39.612 149.908 39.516 150.196 39.516H152.428V36.87C152.428 36.558 152.524 36.312 152.716 36.132C152.92 35.94 153.166 35.844 153.454 35.844C153.73 35.844 153.964 35.94 154.156 36.132C154.36 36.312 154.462 36.558 154.462 36.87V39.516H155.83C156.106 39.516 156.328 39.612 156.496 39.804C156.664 39.984 156.748 40.2 156.748 40.452C156.748 40.716 156.664 40.938 156.496 41.118C156.328 41.298 156.106 41.388 155.83 41.388H154.462V42.612C154.654 42.828 154.9 43.104 155.2 43.44C155.512 43.764 155.818 44.082 156.118 44.394C156.43 44.694 156.67 44.928 156.838 45.096C157.042 45.288 157.15 45.516 157.162 45.78C157.174 46.044 157.09 46.278 156.91 46.482C156.73 46.674 156.502 46.77 156.226 46.77C155.962 46.77 155.74 46.674 155.56 46.482C155.428 46.338 155.26 46.158 155.056 45.942C154.864 45.714 154.666 45.486 154.462 45.258V51.45C154.462 51.762 154.36 52.008 154.156 52.188C153.964 52.38 153.73 52.476 153.454 52.476ZM159.322 45.438H162.886V42.846H159.322V45.438ZM161.104 49.92C161.596 49.92 161.968 49.872 162.22 49.776C162.472 49.68 162.646 49.518 162.742 49.29C162.838 49.05 162.886 48.714 162.886 48.282V47.274H159.322V48.282C159.322 48.714 159.364 49.05 159.448 49.29C159.544 49.518 159.718 49.68 159.97 49.776C160.234 49.872 160.612 49.92 161.104 49.92ZM159.322 41.01H162.886V40.146C162.886 39.714 162.838 39.384 162.742 39.156C162.646 38.916 162.472 38.754 162.22 38.67C161.968 38.574 161.596 38.526 161.104 38.526C160.612 38.526 160.234 38.574 159.97 38.67C159.718 38.754 159.544 38.916 159.448 39.156C159.364 39.384 159.322 39.714 159.322 40.146V41.01ZM175.162 52.422C174.862 52.542 174.574 52.56 174.298 52.476C174.022 52.404 173.818 52.224 173.686 51.936C173.566 51.684 173.56 51.426 173.668 51.162C173.788 50.898 173.98 50.718 174.244 50.622C174.964 50.358 175.558 50.064 176.026 49.74C176.506 49.404 176.884 49.002 177.16 48.534C177.436 48.066 177.628 47.496 177.736 46.824C177.856 46.152 177.916 45.342 177.916 44.394C177.916 44.094 178.012 43.86 178.204 43.692C178.408 43.524 178.642 43.446 178.906 43.458C179.182 43.458 179.416 43.548 179.608 43.728C179.8 43.896 179.89 44.136 179.878 44.448C179.854 45.036 179.818 45.582 179.77 46.086C180.046 47.07 180.496 47.928 181.12 48.66C181.744 49.38 182.59 49.974 183.658 50.442C183.934 50.562 184.114 50.748 184.198 51C184.282 51.264 184.258 51.534 184.126 51.81C183.982 52.086 183.76 52.266 183.46 52.35C183.172 52.434 182.89 52.404 182.614 52.26C181.81 51.84 181.114 51.36 180.526 50.82C179.95 50.268 179.47 49.626 179.086 48.894C178.726 49.734 178.228 50.43 177.592 50.982C176.956 51.522 176.146 52.002 175.162 52.422ZM175.666 44.538C175.402 44.658 175.126 44.688 174.838 44.628C174.562 44.556 174.358 44.388 174.226 44.124C174.106 43.872 174.088 43.626 174.172 43.386C174.268 43.134 174.454 42.948 174.73 42.828C175.57 42.468 176.212 42.03 176.656 41.514C177.112 40.998 177.424 40.356 177.592 39.588C177.772 38.808 177.868 37.866 177.88 36.762C177.88 36.462 177.982 36.228 178.186 36.06C178.39 35.892 178.624 35.814 178.888 35.826C179.164 35.838 179.392 35.928 179.572 36.096C179.764 36.264 179.854 36.504 179.842 36.816C179.83 37.14 179.812 37.452 179.788 37.752C179.776 38.04 179.752 38.322 179.716 38.598C179.98 39.51 180.43 40.296 181.066 40.956C181.702 41.616 182.542 42.186 183.586 42.666C183.826 42.774 183.982 42.954 184.054 43.206C184.126 43.458 184.09 43.71 183.946 43.962C183.802 44.226 183.592 44.388 183.316 44.448C183.04 44.508 182.764 44.478 182.488 44.358C180.952 43.602 179.8 42.552 179.032 41.208C178.708 41.952 178.27 42.594 177.718 43.134C177.166 43.662 176.482 44.13 175.666 44.538ZM170.932 52.08C170.26 52.08 169.726 52.002 169.33 51.846C168.946 51.702 168.676 51.438 168.52 51.054C168.364 50.67 168.286 50.124 168.286 49.416C168.286 48.684 168.364 48.126 168.52 47.742C168.676 47.358 168.946 47.1 169.33 46.968C169.726 46.824 170.26 46.752 170.932 46.752C171.616 46.752 172.15 46.824 172.534 46.968C172.918 47.1 173.188 47.358 173.344 47.742C173.5 48.126 173.578 48.684 173.578 49.416C173.578 50.124 173.5 50.67 173.344 51.054C173.188 51.438 172.918 51.702 172.534 51.846C172.15 52.002 171.616 52.08 170.932 52.08ZM168.322 40.848C168.094 40.848 167.896 40.764 167.728 40.596C167.572 40.428 167.494 40.23 167.494 40.002C167.494 39.774 167.572 39.582 167.728 39.426C167.896 39.258 168.094 39.174 168.322 39.174H173.254C173.482 39.174 173.674 39.258 173.83 39.426C173.998 39.582 174.082 39.774 174.082 40.002C174.082 40.23 173.998 40.428 173.83 40.596C173.674 40.764 173.482 40.848 173.254 40.848H168.322ZM169.132 38.328C168.904 38.328 168.706 38.244 168.538 38.076C168.37 37.896 168.286 37.692 168.286 37.464C168.286 37.224 168.37 37.02 168.538 36.852C168.706 36.684 168.904 36.6 169.132 36.6H172.606C172.846 36.6 173.044 36.684 173.2 36.852C173.368 37.02 173.452 37.224 173.452 37.464C173.452 37.692 173.368 37.896 173.2 38.076C173.044 38.244 172.846 38.328 172.606 38.328H169.132ZM169.114 45.924C168.886 45.924 168.688 45.84 168.52 45.672C168.352 45.504 168.268 45.306 168.268 45.078C168.268 44.838 168.352 44.64 168.52 44.484C168.688 44.316 168.886 44.232 169.114 44.232H172.624C172.864 44.232 173.062 44.316 173.218 44.484C173.374 44.64 173.452 44.838 173.452 45.078C173.452 45.306 173.374 45.504 173.218 45.672C173.062 45.84 172.864 45.924 172.624 45.924H169.114ZM169.114 43.386C168.886 43.386 168.688 43.302 168.52 43.134C168.352 42.966 168.268 42.768 168.268 42.54C168.268 42.3 168.352 42.102 168.52 41.946C168.688 41.778 168.886 41.694 169.114 41.694H172.624C172.864 41.694 173.062 41.778 173.218 41.946C173.374 42.102 173.452 42.3 173.452 42.54C173.452 42.768 173.374 42.966 173.218 43.134C173.062 43.302 172.864 43.386 172.624 43.386H169.114ZM175.108 48.714C174.844 48.642 174.658 48.498 174.55 48.282C174.442 48.054 174.43 47.82 174.514 47.58C174.574 47.4 174.64 47.184 174.712 46.932C174.784 46.668 174.856 46.41 174.928 46.158C175.012 45.894 175.072 45.684 175.108 45.528C175.168 45.252 175.306 45.054 175.522 44.934C175.738 44.814 175.972 44.784 176.224 44.844C176.476 44.892 176.668 45.018 176.8 45.222C176.944 45.426 176.986 45.666 176.926 45.942C176.89 46.122 176.836 46.35 176.764 46.626C176.692 46.902 176.614 47.172 176.53 47.436C176.458 47.7 176.392 47.916 176.332 48.084C176.248 48.348 176.086 48.54 175.846 48.66C175.618 48.78 175.372 48.798 175.108 48.714ZM175.198 40.812C174.934 40.752 174.748 40.614 174.64 40.398C174.532 40.17 174.514 39.936 174.586 39.696C174.646 39.516 174.712 39.3 174.784 39.048C174.856 38.784 174.922 38.52 174.982 38.256C175.054 37.992 175.102 37.782 175.126 37.626C175.186 37.35 175.318 37.152 175.522 37.032C175.738 36.912 175.978 36.876 176.242 36.924C176.494 36.972 176.692 37.092 176.836 37.284C176.98 37.476 177.022 37.71 176.962 37.986C176.926 38.178 176.872 38.412 176.8 38.688C176.74 38.964 176.674 39.234 176.602 39.498C176.542 39.762 176.482 39.984 176.422 40.164C176.338 40.428 176.182 40.62 175.954 40.74C175.726 40.86 175.474 40.884 175.198 40.812ZM181.228 40.38C181 40.26 180.85 40.086 180.778 39.858C180.718 39.618 180.748 39.384 180.868 39.156C180.976 38.94 181.114 38.652 181.282 38.292C181.462 37.932 181.606 37.638 181.714 37.41C181.822 37.17 181.99 37.008 182.218 36.924C182.458 36.84 182.704 36.852 182.956 36.96C183.196 37.056 183.358 37.218 183.442 37.446C183.538 37.662 183.532 37.896 183.424 38.148C183.364 38.292 183.28 38.484 183.172 38.724C183.064 38.952 182.95 39.186 182.83 39.426C182.722 39.654 182.626 39.846 182.542 40.002C182.41 40.23 182.218 40.38 181.966 40.452C181.714 40.524 181.468 40.5 181.228 40.38ZM181.246 48.228C181.018 48.096 180.868 47.91 180.796 47.67C180.736 47.43 180.766 47.196 180.886 46.968C181.006 46.764 181.144 46.494 181.3 46.158C181.468 45.81 181.606 45.528 181.714 45.312C181.822 45.06 181.99 44.892 182.218 44.808C182.458 44.712 182.704 44.718 182.956 44.826C183.196 44.922 183.364 45.084 183.46 45.312C183.556 45.528 183.55 45.768 183.442 46.032C183.382 46.176 183.298 46.362 183.19 46.59C183.082 46.818 182.968 47.046 182.848 47.274C182.74 47.49 182.644 47.676 182.56 47.832C182.44 48.072 182.248 48.228 181.984 48.3C181.732 48.372 181.486 48.348 181.246 48.228ZM170.932 50.406C171.256 50.406 171.466 50.346 171.562 50.226C171.658 50.106 171.706 49.836 171.706 49.416C171.706 48.996 171.658 48.726 171.562 48.606C171.466 48.474 171.256 48.408 170.932 48.408C170.62 48.408 170.41 48.474 170.302 48.606C170.206 48.726 170.158 48.996 170.158 49.416C170.158 49.836 170.206 50.106 170.302 50.226C170.41 50.346 170.62 50.406 170.932 50.406ZM198.22 51.81C196.612 52.038 195.256 52.122 194.152 52.062C193.048 52.014 192.16 51.852 191.488 51.576C190.828 51.3 190.348 50.934 190.048 50.478C189.748 50.01 189.598 49.482 189.598 48.894C189.598 47.994 189.958 47.154 190.678 46.374C191.41 45.594 192.466 44.91 193.846 44.322C193.654 44.082 193.42 43.92 193.144 43.836C192.544 43.656 191.95 43.722 191.362 44.034C190.786 44.346 190.222 44.802 189.67 45.402C189.466 45.618 189.196 45.738 188.86 45.762C188.536 45.774 188.272 45.672 188.068 45.456C187.876 45.228 187.786 44.964 187.798 44.664C187.822 44.364 187.948 44.118 188.176 43.926C188.764 43.422 189.28 42.876 189.724 42.288C190.18 41.7 190.564 41.094 190.876 40.47C190.36 40.482 189.874 40.494 189.418 40.506C188.974 40.506 188.59 40.5 188.266 40.488C187.966 40.488 187.714 40.386 187.51 40.182C187.306 39.966 187.204 39.708 187.204 39.408C187.216 39.108 187.33 38.862 187.546 38.67C187.762 38.478 188.02 38.388 188.32 38.4C188.74 38.412 189.244 38.418 189.832 38.418C190.432 38.406 191.056 38.394 191.704 38.382C191.764 38.154 191.818 37.932 191.866 37.716C191.914 37.5 191.956 37.284 191.992 37.068C192.04 36.768 192.172 36.528 192.388 36.348C192.604 36.156 192.862 36.078 193.162 36.114C193.462 36.15 193.702 36.282 193.882 36.51C194.062 36.738 194.134 37.002 194.098 37.302C194.086 37.458 194.062 37.62 194.026 37.788C193.99 37.956 193.948 38.124 193.9 38.292C194.356 38.268 194.782 38.244 195.178 38.22C195.574 38.184 195.928 38.142 196.24 38.094C196.54 38.058 196.804 38.13 197.032 38.31C197.272 38.478 197.41 38.712 197.446 39.012C197.482 39.312 197.404 39.576 197.212 39.804C197.032 40.032 196.798 40.158 196.51 40.182C196.066 40.23 195.556 40.272 194.98 40.308C194.404 40.344 193.804 40.374 193.18 40.398C192.916 40.986 192.628 41.538 192.316 42.054C192.604 41.994 192.88 41.976 193.144 42C193.408 42.012 193.66 42.054 193.9 42.126C194.26 42.222 194.608 42.39 194.944 42.63C195.292 42.858 195.598 43.182 195.862 43.602C196.45 43.434 197.074 43.278 197.734 43.134C198.406 42.99 199.114 42.864 199.858 42.756C200.146 42.708 200.41 42.774 200.65 42.954C200.89 43.122 201.028 43.356 201.064 43.656C201.112 43.956 201.046 44.22 200.866 44.448C200.686 44.676 200.446 44.814 200.146 44.862C199.45 44.946 198.808 45.048 198.22 45.168C197.632 45.276 197.086 45.396 196.582 45.528C196.642 45.852 196.69 46.206 196.726 46.59C196.762 46.974 196.78 47.388 196.78 47.832C196.78 48.132 196.672 48.39 196.456 48.606C196.252 48.81 196 48.912 195.7 48.912C195.4 48.912 195.148 48.81 194.944 48.606C194.74 48.39 194.638 48.132 194.638 47.832C194.638 47.22 194.602 46.674 194.53 46.194C193.546 46.602 192.832 47.04 192.388 47.508C191.956 47.964 191.74 48.408 191.74 48.84C191.74 49.164 191.932 49.428 192.316 49.632C192.7 49.836 193.342 49.95 194.242 49.974C195.142 49.998 196.372 49.908 197.932 49.704C198.22 49.668 198.484 49.74 198.724 49.92C198.964 50.088 199.102 50.322 199.138 50.622C199.174 50.91 199.102 51.168 198.922 51.396C198.742 51.624 198.508 51.762 198.22 51.81ZM210.802 52.26C210.514 52.344 210.232 52.338 209.956 52.242C209.692 52.158 209.494 51.984 209.362 51.72C209.242 51.444 209.23 51.162 209.326 50.874C209.422 50.586 209.608 50.388 209.884 50.28C210.796 49.932 211.504 49.542 212.008 49.11C212.512 48.678 212.866 48.18 213.07 47.616C212.662 47.808 212.26 47.904 211.864 47.904C210.916 47.904 210.142 47.664 209.542 47.184C208.942 46.692 208.642 45.972 208.642 45.024C208.642 44.076 208.954 43.332 209.578 42.792C210.202 42.252 210.988 41.982 211.936 41.982C212.02 41.982 212.098 41.988 212.17 42C212.242 42 212.32 42.006 212.404 42.018C212.368 41.814 212.338 41.604 212.314 41.388C212.302 41.172 212.29 40.944 212.278 40.704C211.078 40.752 209.896 40.824 208.732 40.92C207.58 41.004 206.506 41.094 205.51 41.19C205.222 41.214 204.964 41.142 204.736 40.974C204.508 40.794 204.376 40.56 204.34 40.272C204.316 39.972 204.394 39.708 204.574 39.48C204.754 39.252 204.988 39.132 205.276 39.12C206.296 39.036 207.406 38.964 208.606 38.904C209.806 38.832 211.024 38.772 212.26 38.724V37.176C212.26 36.876 212.362 36.624 212.566 36.42C212.77 36.216 213.022 36.114 213.322 36.114C213.634 36.114 213.892 36.216 214.096 36.42C214.3 36.624 214.402 36.876 214.402 37.176V38.652C215.398 38.628 216.352 38.61 217.264 38.598C218.176 38.574 219.016 38.556 219.784 38.544C220.084 38.544 220.33 38.652 220.522 38.868C220.726 39.084 220.822 39.336 220.81 39.624C220.798 39.924 220.684 40.17 220.468 40.362C220.264 40.554 220.012 40.644 219.712 40.632C218.176 40.572 216.406 40.572 214.402 40.632C214.414 41.052 214.432 41.472 214.456 41.892C214.492 42.312 214.522 42.714 214.546 43.098C215.122 43.782 215.41 44.712 215.41 45.888C215.41 47.388 215.014 48.702 214.222 49.83C213.442 50.958 212.302 51.768 210.802 52.26ZM211.864 46.05C212.212 46.038 212.482 45.948 212.674 45.78C212.878 45.6 212.98 45.342 212.98 45.006C212.98 44.91 212.968 44.802 212.944 44.682C212.932 44.562 212.914 44.442 212.89 44.322C212.638 44.022 212.308 43.872 211.9 43.872C211.564 43.872 211.276 43.974 211.036 44.178C210.808 44.37 210.694 44.64 210.694 44.988C210.694 45.336 210.802 45.606 211.018 45.798C211.246 45.978 211.528 46.062 211.864 46.05ZM230.926 51.774C229.834 51.75 228.97 51.486 228.334 50.982C227.71 50.478 227.41 49.788 227.434 48.912C227.458 48.396 227.602 47.946 227.866 47.562C228.142 47.178 228.514 46.89 228.982 46.698C229.45 46.494 229.984 46.422 230.584 46.482C231.544 46.566 232.216 46.896 232.6 47.472C232.984 48.036 233.098 48.684 232.942 49.416C233.362 49.212 233.704 48.918 233.968 48.534C234.244 48.138 234.382 47.628 234.382 47.004C234.382 46.536 234.244 46.116 233.968 45.744C233.704 45.36 233.326 45.066 232.834 44.862C232.354 44.646 231.796 44.556 231.16 44.592C230.524 44.628 229.84 44.82 229.108 45.168C228.376 45.504 227.626 46.044 226.858 46.788C226.642 46.992 226.372 47.094 226.048 47.094C225.724 47.082 225.46 46.956 225.256 46.716C225.064 46.488 224.974 46.23 224.986 45.942C225.01 45.642 225.136 45.408 225.364 45.24C226.108 44.676 226.852 44.082 227.596 43.458C228.34 42.822 229.048 42.198 229.72 41.586C230.404 40.974 231.004 40.416 231.52 39.912C231.844 39.6 231.952 39.342 231.844 39.138C231.748 38.934 231.49 38.862 231.07 38.922C230.662 38.97 230.194 39.03 229.666 39.102C229.15 39.174 228.664 39.24 228.208 39.3C227.92 39.348 227.656 39.282 227.416 39.102C227.176 38.922 227.038 38.682 227.002 38.382C226.954 38.094 227.02 37.836 227.2 37.608C227.38 37.368 227.62 37.224 227.92 37.176C228.184 37.14 228.514 37.104 228.91 37.068C229.318 37.032 229.732 36.996 230.152 36.96C230.584 36.924 230.95 36.894 231.25 36.87C232.03 36.81 232.666 36.912 233.158 37.176C233.65 37.44 233.986 37.8 234.166 38.256C234.346 38.7 234.352 39.186 234.184 39.714C234.028 40.242 233.686 40.74 233.158 41.208C232.918 41.412 232.612 41.676 232.24 42C231.88 42.324 231.508 42.654 231.124 42.99C231.808 42.858 232.474 42.852 233.122 42.972C233.77 43.08 234.346 43.308 234.85 43.656C235.366 44.004 235.774 44.466 236.074 45.042C236.374 45.606 236.524 46.272 236.524 47.04C236.524 48.132 236.284 49.038 235.804 49.758C235.324 50.466 234.664 50.982 233.824 51.306C232.984 51.642 232.018 51.798 230.926 51.774ZM230.602 49.776C230.626 49.776 230.662 49.776 230.71 49.776C230.746 49.776 230.788 49.782 230.836 49.794C230.896 49.794 230.962 49.788 231.034 49.776C231.202 49.38 231.232 49.05 231.124 48.786C231.016 48.522 230.8 48.366 230.476 48.318C230.188 48.282 229.948 48.324 229.756 48.444C229.576 48.552 229.474 48.732 229.45 48.984C229.438 49.464 229.822 49.728 230.602 49.776Z" fill="#135097"/>
<path d="M257.661 41.6762L254.022 38.2647C253.791 38.0484 253.787 37.6834 254.014 37.4625C254.232 37.2499 254.58 37.2525 254.795 37.4684L259.742 42.4421C260.325 43.0273 260.325 43.9727 259.742 44.5579L254.795 49.5316C254.58 49.7475 254.232 49.7501 254.014 49.5375C253.787 49.3166 253.791 48.9516 254.022 48.7353L257.661 45.3238C258.714 44.3362 258.714 42.6638 257.661 41.6762Z" fill="#135097" stroke="#135097"/>
<path d="M8 0.5H248C252.142 0.5 255.5 3.85786 255.5 8V22C255.5 26.1421 252.142 29.5 248 29.5H0.5V8C0.5 3.85786 3.85786 0.5 8 0.5Z" fill="#2A84BF"/>
<path d="M8 0.5H248C252.142 0.5 255.5 3.85786 255.5 8V22C255.5 26.1421 252.142 29.5 248 29.5H0.5V8C0.5 3.85786 3.85786 0.5 8 0.5Z" stroke="white"/>
<path d="M18.31 11.256C18.562 11.2747 18.8373 11.2933 19.136 11.312C19.4347 11.3307 19.7007 11.34 19.934 11.34H26.892C27.0787 11.34 27.2793 11.34 27.494 11.34C27.718 11.3307 27.8907 11.3213 28.012 11.312C28.0027 11.4707 27.9933 11.662 27.984 11.886C27.984 12.1007 27.984 12.3013 27.984 12.488V19.726C27.984 19.9687 27.9887 20.2393 27.998 20.538C28.0167 20.8273 28.0307 21.0513 28.04 21.21H26.444C26.444 21.0513 26.4487 20.8553 26.458 20.622C26.4673 20.3793 26.472 20.132 26.472 19.88V12.754H19.934C19.6633 12.754 19.3693 12.7587 19.052 12.768C18.7347 12.7773 18.4873 12.7913 18.31 12.81V11.256ZM18.142 18.928C18.3473 18.9373 18.5947 18.9513 18.884 18.97C19.1733 18.9887 19.4673 18.998 19.766 18.998H27.298V20.454H19.822C19.542 20.454 19.2433 20.4587 18.926 20.468C18.6087 20.4773 18.3473 20.4913 18.142 20.51V18.928ZM33.262 10.57C33.514 10.738 33.8033 10.948 34.13 11.2C34.4567 11.4427 34.788 11.704 35.124 11.984C35.4693 12.264 35.796 12.5347 36.104 12.796C36.412 13.0573 36.6593 13.2907 36.846 13.496L35.74 14.63C35.5627 14.4433 35.3293 14.2193 35.04 13.958C34.7507 13.6873 34.438 13.412 34.102 13.132C33.7753 12.8427 33.4487 12.572 33.122 12.32C32.7953 12.0587 32.5013 11.8393 32.24 11.662L33.262 10.57ZM31.82 19.936C32.604 19.8147 33.3273 19.656 33.99 19.46C34.6527 19.2547 35.2593 19.026 35.81 18.774C36.37 18.5127 36.874 18.2467 37.322 17.976C38.0687 17.5187 38.7547 16.9913 39.38 16.394C40.0147 15.7967 40.57 15.1807 41.046 14.546C41.522 13.9113 41.9 13.2953 42.18 12.698L43.034 14.224C42.698 14.8307 42.2827 15.4373 41.788 16.044C41.3027 16.6507 40.752 17.234 40.136 17.794C39.52 18.3447 38.848 18.844 38.12 19.292C37.6533 19.5813 37.14 19.8613 36.58 20.132C36.0293 20.4027 35.432 20.6453 34.788 20.86C34.1533 21.0747 33.4767 21.2473 32.758 21.378L31.82 19.936ZM54.248 14.672C54.248 15.5773 54.1873 16.3893 54.066 17.108C53.9447 17.8173 53.7347 18.4567 53.436 19.026C53.1373 19.586 52.722 20.09 52.19 20.538C51.658 20.9767 50.9813 21.3827 50.16 21.756L48.97 20.636C49.6233 20.3933 50.1927 20.1227 50.678 19.824C51.1633 19.5253 51.5647 19.1613 51.882 18.732C52.1993 18.2933 52.4327 17.752 52.582 17.108C52.7407 16.464 52.82 15.68 52.82 14.756V11.214C52.82 10.934 52.8107 10.6867 52.792 10.472C52.7827 10.2573 52.7687 10.0987 52.75 9.996H54.332C54.3227 10.0987 54.304 10.2573 54.276 10.472C54.2573 10.6867 54.248 10.934 54.248 11.214V14.672ZM49.208 10.108C49.1987 10.2013 49.18 10.346 49.152 10.542C49.1333 10.738 49.124 10.9667 49.124 11.228V16.296C49.124 16.4827 49.1287 16.6693 49.138 16.856C49.1473 17.0427 49.1567 17.206 49.166 17.346C49.1753 17.486 49.1847 17.5887 49.194 17.654H47.64C47.6493 17.5887 47.6587 17.486 47.668 17.346C47.6773 17.206 47.6867 17.0473 47.696 16.87C47.7053 16.6833 47.71 16.492 47.71 16.296V11.228C47.71 11.0507 47.7007 10.864 47.682 10.668C47.6727 10.472 47.654 10.2853 47.626 10.108H49.208ZM44.882 12.726C44.9473 12.7447 45.05 12.7633 45.19 12.782C45.3393 12.7913 45.512 12.8053 45.708 12.824C45.9133 12.8333 46.1233 12.838 46.338 12.838H55.564C55.9093 12.838 56.194 12.8287 56.418 12.81C56.6513 12.7913 56.8333 12.7727 56.964 12.754V14.238C56.852 14.2287 56.6747 14.2193 56.432 14.21C56.1987 14.2007 55.914 14.196 55.578 14.196H46.338C46.1233 14.196 45.918 14.2007 45.722 14.21C45.526 14.21 45.3533 14.2147 45.204 14.224C45.064 14.2333 44.9567 14.2427 44.882 14.252V12.726ZM65.21 20.692C65.238 20.5707 65.2613 20.4353 65.28 20.286C65.2987 20.1273 65.308 19.9687 65.308 19.81C65.308 19.7073 65.308 19.502 65.308 19.194C65.308 18.8767 65.308 18.494 65.308 18.046C65.308 17.5887 65.308 17.0987 65.308 16.576C65.308 16.044 65.308 15.512 65.308 14.98C65.308 14.4387 65.308 13.9347 65.308 13.468C65.308 13.0013 65.308 12.5953 65.308 12.25C65.308 11.9047 65.308 11.662 65.308 11.522C65.308 11.2327 65.294 10.9853 65.266 10.78C65.238 10.5747 65.224 10.4487 65.224 10.402H66.848C66.848 10.4487 66.834 10.5747 66.806 10.78C66.7873 10.9853 66.778 11.2327 66.778 11.522C66.778 11.662 66.778 11.8953 66.778 12.222C66.778 12.5487 66.778 12.936 66.778 13.384C66.778 13.8227 66.778 14.294 66.778 14.798C66.778 15.2927 66.778 15.7873 66.778 16.282C66.778 16.7673 66.778 17.22 66.778 17.64C66.778 18.06 66.778 18.4147 66.778 18.704C66.778 18.9933 66.778 19.18 66.778 19.264C67.1887 19.0773 67.6227 18.83 68.08 18.522C68.5373 18.2047 68.9853 17.836 69.424 17.416C69.8627 16.996 70.25 16.5387 70.586 16.044L71.44 17.248C71.0387 17.78 70.5673 18.2887 70.026 18.774C69.494 19.2593 68.934 19.7027 68.346 20.104C67.7673 20.5053 67.2073 20.8413 66.666 21.112C66.5353 21.1773 66.428 21.238 66.344 21.294C66.26 21.3593 66.19 21.4153 66.134 21.462L65.21 20.692ZM58.756 20.566C59.3627 20.146 59.8667 19.6373 60.268 19.04C60.6693 18.4333 60.9727 17.808 61.178 17.164C61.2807 16.856 61.36 16.4687 61.416 16.002C61.472 15.5353 61.5093 15.0407 61.528 14.518C61.556 13.986 61.57 13.4633 61.57 12.95C61.5793 12.4367 61.584 11.9793 61.584 11.578C61.584 11.3353 61.5747 11.1253 61.556 10.948C61.5373 10.7707 61.5093 10.6027 61.472 10.444H63.096C63.096 10.4813 63.0867 10.5607 63.068 10.682C63.0587 10.794 63.0493 10.9293 63.04 11.088C63.0307 11.2373 63.026 11.396 63.026 11.564C63.026 11.9653 63.0213 12.4367 63.012 12.978C63.0027 13.51 62.9793 14.0607 62.942 14.63C62.914 15.1993 62.872 15.7407 62.816 16.254C62.7693 16.7673 62.6947 17.1967 62.592 17.542C62.3867 18.3073 62.0693 19.026 61.64 19.698C61.2107 20.37 60.6973 20.958 60.1 21.462L58.756 20.566ZM77.894 14.518C78.3327 14.7793 78.804 15.0733 79.308 15.4C79.812 15.7173 80.316 16.0533 80.82 16.408C81.324 16.7533 81.8 17.0893 82.248 17.416C82.7053 17.7427 83.0973 18.046 83.424 18.326L82.388 19.558C82.0707 19.2687 81.688 18.9467 81.24 18.592C80.8013 18.2373 80.3253 17.8733 79.812 17.5C79.308 17.1267 78.804 16.772 78.3 16.436C77.8053 16.0907 77.348 15.7827 76.928 15.512L77.894 14.518ZM84.376 12.04C84.3107 12.152 84.2407 12.292 84.166 12.46C84.1007 12.6187 84.0447 12.768 83.998 12.908C83.858 13.356 83.6667 13.8507 83.424 14.392C83.1907 14.9333 82.906 15.484 82.57 16.044C82.2433 16.5947 81.8747 17.1267 81.464 17.64C80.82 18.4333 80.0267 19.194 79.084 19.922C78.1507 20.6407 77.0213 21.252 75.696 21.756L74.422 20.636C75.3367 20.356 76.1487 20.0153 76.858 19.614C77.5767 19.2127 78.2113 18.7787 78.762 18.312C79.3127 17.836 79.7933 17.3553 80.204 16.87C80.5493 16.4593 80.8667 16.0113 81.156 15.526C81.4547 15.0407 81.7113 14.5553 81.926 14.07C82.15 13.5847 82.3087 13.146 82.402 12.754H77.404L77.936 11.494H82.192C82.388 11.494 82.5793 11.48 82.766 11.452C82.9527 11.424 83.1113 11.3867 83.242 11.34L84.376 12.04ZM79.7 9.968C79.56 10.1733 79.42 10.3973 79.28 10.64C79.1493 10.8827 79.0467 11.074 78.972 11.214C78.6733 11.7367 78.2907 12.3107 77.824 12.936C77.3667 13.5613 76.8393 14.1773 76.242 14.784C75.6447 15.3813 74.9913 15.9273 74.282 16.422L73.092 15.498C73.904 14.994 74.5993 14.4527 75.178 13.874C75.766 13.2953 76.256 12.7307 76.648 12.18C77.04 11.6293 77.348 11.144 77.572 10.724C77.656 10.584 77.7493 10.3927 77.852 10.15C77.964 9.898 78.048 9.66933 78.104 9.464L79.7 9.968ZM89.262 10.57C89.514 10.738 89.8033 10.948 90.13 11.2C90.4567 11.4427 90.788 11.704 91.124 11.984C91.4693 12.264 91.796 12.5347 92.104 12.796C92.412 13.0573 92.6593 13.2907 92.846 13.496L91.74 14.63C91.5627 14.4433 91.3293 14.2193 91.04 13.958C90.7507 13.6873 90.438 13.412 90.102 13.132C89.7753 12.8427 89.4487 12.572 89.122 12.32C88.7953 12.0587 88.5013 11.8393 88.24 11.662L89.262 10.57ZM87.82 19.936C88.604 19.8147 89.3273 19.656 89.99 19.46C90.6527 19.2547 91.2593 19.026 91.81 18.774C92.37 18.5127 92.874 18.2467 93.322 17.976C94.0687 17.5187 94.7547 16.9913 95.38 16.394C96.0147 15.7967 96.57 15.1807 97.046 14.546C97.522 13.9113 97.9 13.2953 98.18 12.698L99.034 14.224C98.698 14.8307 98.2827 15.4373 97.788 16.044C97.3027 16.6507 96.752 17.234 96.136 17.794C95.52 18.3447 94.848 18.844 94.12 19.292C93.6533 19.5813 93.14 19.8613 92.58 20.132C92.0293 20.4027 91.432 20.6453 90.788 20.86C90.1533 21.0747 89.4767 21.2473 88.758 21.378L87.82 19.936ZM104.578 19.712C104.578 19.5627 104.578 19.292 104.578 18.9C104.578 18.4987 104.578 18.0273 104.578 17.486C104.578 16.9353 104.578 16.366 104.578 15.778C104.578 15.1807 104.578 14.602 104.578 14.042C104.578 13.482 104.578 12.9873 104.578 12.558C104.578 12.1287 104.578 11.816 104.578 11.62C104.578 11.396 104.569 11.1393 104.55 10.85C104.531 10.5513 104.499 10.2853 104.452 10.052H106.174C106.155 10.276 106.132 10.5327 106.104 10.822C106.085 11.1113 106.076 11.3773 106.076 11.62C106.076 11.9373 106.076 12.3387 106.076 12.824C106.076 13.3 106.076 13.818 106.076 14.378C106.076 14.938 106.076 15.5027 106.076 16.072C106.076 16.6413 106.076 17.178 106.076 17.682C106.076 18.1767 106.076 18.606 106.076 18.97C106.076 19.334 106.076 19.5813 106.076 19.712C106.076 19.8613 106.081 20.0433 106.09 20.258C106.099 20.4727 106.113 20.692 106.132 20.916C106.151 21.1307 106.169 21.3267 106.188 21.504H104.466C104.503 21.2613 104.531 20.972 104.55 20.636C104.569 20.2907 104.578 19.9827 104.578 19.712ZM105.754 13.706C106.211 13.8367 106.725 14 107.294 14.196C107.863 14.3827 108.437 14.588 109.016 14.812C109.595 15.0267 110.145 15.2413 110.668 15.456C111.191 15.6707 111.634 15.8667 111.998 16.044L111.368 17.57C110.976 17.3553 110.533 17.1407 110.038 16.926C109.553 16.702 109.053 16.4873 108.54 16.282C108.027 16.0767 107.527 15.89 107.042 15.722C106.566 15.554 106.137 15.4093 105.754 15.288V13.706ZM120.608 9.856C120.552 10.1267 120.473 10.458 120.37 10.85C120.277 11.2327 120.137 11.6667 119.95 12.152C119.791 12.544 119.595 12.9453 119.362 13.356C119.138 13.7667 118.905 14.14 118.662 14.476C118.821 14.3827 119.003 14.308 119.208 14.252C119.423 14.1867 119.637 14.14 119.852 14.112C120.076 14.0747 120.277 14.056 120.454 14.056C121.014 14.056 121.485 14.2193 121.868 14.546C122.251 14.8633 122.442 15.3253 122.442 15.932C122.442 16.1187 122.442 16.3473 122.442 16.618C122.442 16.8887 122.447 17.1733 122.456 17.472C122.465 17.7707 122.47 18.0647 122.47 18.354C122.479 18.6433 122.484 18.8953 122.484 19.11H121.154C121.163 18.9327 121.173 18.7273 121.182 18.494C121.191 18.2513 121.196 17.9993 121.196 17.738C121.205 17.4767 121.21 17.2247 121.21 16.982C121.21 16.7393 121.21 16.5247 121.21 16.338C121.201 15.918 121.075 15.6147 120.832 15.428C120.589 15.2413 120.305 15.148 119.978 15.148C119.558 15.148 119.138 15.246 118.718 15.442C118.307 15.638 117.953 15.876 117.654 16.156C117.458 16.352 117.253 16.576 117.038 16.828C116.833 17.08 116.613 17.3553 116.38 17.654L115.176 16.758C115.82 16.1513 116.366 15.5727 116.814 15.022C117.262 14.4713 117.631 13.9487 117.92 13.454C118.219 12.95 118.452 12.474 118.62 12.026C118.769 11.6433 118.891 11.256 118.984 10.864C119.077 10.4627 119.133 10.0893 119.152 9.744L120.608 9.856ZM115.596 11.27C115.969 11.326 116.38 11.368 116.828 11.396C117.276 11.4147 117.668 11.424 118.004 11.424C118.629 11.424 119.306 11.41 120.034 11.382C120.762 11.354 121.495 11.3073 122.232 11.242C122.979 11.1767 123.683 11.0833 124.346 10.962V12.264C123.851 12.3293 123.324 12.39 122.764 12.446C122.204 12.502 121.635 12.5487 121.056 12.586C120.477 12.614 119.922 12.6373 119.39 12.656C118.858 12.6653 118.373 12.67 117.934 12.67C117.738 12.67 117.505 12.67 117.234 12.67C116.973 12.6607 116.697 12.6467 116.408 12.628C116.128 12.6093 115.857 12.5953 115.596 12.586V11.27ZM126.474 14.91C126.343 14.9567 126.189 15.008 126.012 15.064C125.844 15.12 125.676 15.1807 125.508 15.246C125.34 15.3113 125.186 15.372 125.046 15.428C124.57 15.6147 124.015 15.8387 123.38 16.1C122.755 16.3613 122.111 16.6647 121.448 17.01C121 17.2433 120.613 17.4767 120.286 17.71C119.959 17.9433 119.703 18.186 119.516 18.438C119.339 18.69 119.25 18.9653 119.25 19.264C119.25 19.5067 119.306 19.7027 119.418 19.852C119.53 20.0013 119.684 20.118 119.88 20.202C120.085 20.2767 120.328 20.3327 120.608 20.37C120.897 20.398 121.219 20.412 121.574 20.412C122.134 20.412 122.769 20.3793 123.478 20.314C124.187 20.2487 124.85 20.16 125.466 20.048L125.424 21.462C125.088 21.4993 124.696 21.5367 124.248 21.574C123.8 21.6207 123.338 21.6533 122.862 21.672C122.395 21.7 121.952 21.714 121.532 21.714C120.832 21.714 120.202 21.6487 119.642 21.518C119.082 21.3873 118.639 21.1633 118.312 20.846C117.985 20.5193 117.822 20.0667 117.822 19.488C117.822 19.0307 117.925 18.62 118.13 18.256C118.345 17.8827 118.62 17.5467 118.956 17.248C119.301 16.9493 119.684 16.674 120.104 16.422C120.524 16.17 120.939 15.9413 121.35 15.736C121.789 15.5027 122.195 15.302 122.568 15.134C122.951 14.9567 123.305 14.798 123.632 14.658C123.968 14.518 124.281 14.378 124.57 14.238C124.813 14.1353 125.041 14.0373 125.256 13.944C125.471 13.8413 125.685 13.734 125.9 13.622L126.474 14.91ZM133.908 9.73C133.889 9.814 133.875 9.92133 133.866 10.052C133.857 10.1733 133.843 10.304 133.824 10.444C133.815 10.5747 133.805 10.696 133.796 10.808C133.787 11.0507 133.773 11.34 133.754 11.676C133.745 12.0027 133.731 12.362 133.712 12.754C133.703 13.1367 133.693 13.524 133.684 13.916C133.684 14.2987 133.684 14.6673 133.684 15.022C133.684 15.386 133.689 15.792 133.698 16.24C133.707 16.688 133.717 17.1313 133.726 17.57C133.735 17.9993 133.745 18.4007 133.754 18.774C133.763 19.138 133.768 19.4273 133.768 19.642C133.768 20.1367 133.707 20.524 133.586 20.804C133.474 21.084 133.315 21.28 133.11 21.392C132.914 21.504 132.676 21.56 132.396 21.56C132.097 21.56 131.771 21.4947 131.416 21.364C131.061 21.2333 130.725 21.056 130.408 20.832C130.091 20.608 129.829 20.3467 129.624 20.048C129.419 19.7493 129.316 19.432 129.316 19.096C129.316 18.6667 129.479 18.242 129.806 17.822C130.142 17.3927 130.581 17.0007 131.122 16.646C131.663 16.2913 132.237 16.002 132.844 15.778C133.479 15.5447 134.127 15.3673 134.79 15.246C135.453 15.1247 136.055 15.064 136.596 15.064C137.296 15.064 137.921 15.1807 138.472 15.414C139.023 15.6473 139.457 15.9833 139.774 16.422C140.091 16.8607 140.25 17.3787 140.25 17.976C140.25 18.5267 140.138 19.0213 139.914 19.46C139.699 19.8987 139.368 20.272 138.92 20.58C138.472 20.888 137.907 21.126 137.226 21.294C136.909 21.3593 136.596 21.406 136.288 21.434C135.989 21.462 135.709 21.4853 135.448 21.504L134.944 20.076C135.224 20.0853 135.509 20.0853 135.798 20.076C136.087 20.0667 136.363 20.034 136.624 19.978C137.016 19.9033 137.38 19.7867 137.716 19.628C138.052 19.46 138.318 19.2407 138.514 18.97C138.719 18.69 138.822 18.354 138.822 17.962C138.822 17.598 138.724 17.2947 138.528 17.052C138.332 16.8 138.066 16.6087 137.73 16.478C137.394 16.3473 137.011 16.282 136.582 16.282C135.975 16.282 135.373 16.3473 134.776 16.478C134.179 16.5993 133.591 16.772 133.012 16.996C132.583 17.164 132.191 17.3647 131.836 17.598C131.481 17.8313 131.201 18.074 130.996 18.326C130.791 18.5687 130.688 18.802 130.688 19.026C130.688 19.166 130.735 19.3013 130.828 19.432C130.921 19.5533 131.033 19.6607 131.164 19.754C131.304 19.8473 131.449 19.922 131.598 19.978C131.747 20.034 131.883 20.062 132.004 20.062C132.144 20.062 132.256 20.0153 132.34 19.922C132.433 19.8193 132.48 19.6513 132.48 19.418C132.48 19.1567 132.471 18.788 132.452 18.312C132.443 17.836 132.433 17.3133 132.424 16.744C132.415 16.1653 132.41 15.61 132.41 15.078C132.41 14.6767 132.41 14.2613 132.41 13.832C132.419 13.3933 132.424 12.9733 132.424 12.572C132.433 12.1707 132.438 11.816 132.438 11.508C132.447 11.2 132.452 10.976 132.452 10.836C132.452 10.7333 132.447 10.612 132.438 10.472C132.429 10.332 132.419 10.1967 132.41 10.066C132.401 9.926 132.387 9.814 132.368 9.73H133.908ZM138.094 11.27C138.439 11.438 138.822 11.648 139.242 11.9C139.671 12.1427 140.077 12.39 140.46 12.642C140.852 12.8847 141.165 13.0993 141.398 13.286L140.712 14.406C140.544 14.2473 140.32 14.0747 140.04 13.888C139.769 13.7013 139.475 13.51 139.158 13.314C138.85 13.118 138.547 12.936 138.248 12.768C137.959 12.5907 137.702 12.446 137.478 12.334L138.094 11.27ZM129.61 12.152C130.011 12.1987 130.357 12.2313 130.646 12.25C130.935 12.2593 131.211 12.264 131.472 12.264C131.817 12.264 132.209 12.2453 132.648 12.208C133.087 12.1707 133.53 12.124 133.978 12.068C134.435 12.012 134.879 11.942 135.308 11.858C135.747 11.7647 136.143 11.6667 136.498 11.564L136.526 12.936C136.153 13.02 135.737 13.0993 135.28 13.174C134.832 13.2487 134.375 13.3187 133.908 13.384C133.451 13.44 133.012 13.4867 132.592 13.524C132.181 13.552 131.817 13.566 131.5 13.566C131.08 13.566 130.725 13.5613 130.436 13.552C130.147 13.5333 129.885 13.5147 129.652 13.496L129.61 12.152ZM146.998 16.422H155.328V17.612H146.998V16.422ZM151.604 11.424H152.794V13.706C152.794 13.8553 152.817 13.9533 152.864 14C152.911 14.0373 153.009 14.056 153.158 14.056C153.205 14.056 153.289 14.056 153.41 14.056C153.541 14.056 153.671 14.056 153.802 14.056C153.942 14.056 154.04 14.056 154.096 14.056C154.199 14.056 154.273 14.0327 154.32 13.986C154.367 13.9393 154.399 13.832 154.418 13.664C154.446 13.496 154.465 13.244 154.474 12.908C154.586 12.992 154.745 13.076 154.95 13.16C155.165 13.244 155.356 13.3047 155.524 13.342C155.487 13.818 155.421 14.1867 155.328 14.448C155.235 14.7 155.099 14.8773 154.922 14.98C154.754 15.0827 154.53 15.134 154.25 15.134C154.194 15.134 154.105 15.134 153.984 15.134C153.872 15.134 153.746 15.134 153.606 15.134C153.475 15.134 153.349 15.134 153.228 15.134C153.116 15.134 153.032 15.134 152.976 15.134C152.603 15.134 152.318 15.092 152.122 15.008C151.926 14.9147 151.791 14.7653 151.716 14.56C151.641 14.3547 151.604 14.0747 151.604 13.72V11.424ZM147.194 9.898H155.244V12.516H154.068V11.032H148.328V12.572H147.194V9.898ZM150.47 14.952H151.772V22.176H150.47V14.952ZM149.364 11.438H150.582C150.545 11.9793 150.475 12.4647 150.372 12.894C150.279 13.314 150.125 13.6873 149.91 14.014C149.695 14.3407 149.397 14.6207 149.014 14.854C148.631 15.0873 148.137 15.288 147.53 15.456C147.483 15.316 147.39 15.1527 147.25 14.966C147.119 14.77 146.993 14.616 146.872 14.504C147.395 14.3827 147.81 14.238 148.118 14.07C148.435 13.8927 148.678 13.6827 148.846 13.44C149.023 13.1973 149.145 12.9127 149.21 12.586C149.285 12.25 149.336 11.8673 149.364 11.438ZM152.164 16.982C152.407 17.458 152.719 17.9247 153.102 18.382C153.485 18.8393 153.9 19.2547 154.348 19.628C154.805 19.992 155.267 20.2953 155.734 20.538C155.641 20.6127 155.533 20.7107 155.412 20.832C155.3 20.9533 155.193 21.0747 155.09 21.196C154.987 21.3267 154.899 21.448 154.824 21.56C154.348 21.2707 153.877 20.9067 153.41 20.468C152.953 20.02 152.528 19.53 152.136 18.998C151.753 18.466 151.422 17.9247 151.142 17.374L152.164 16.982ZM150.106 16.87L151.142 17.22C150.862 17.8547 150.512 18.4567 150.092 19.026C149.672 19.586 149.201 20.09 148.678 20.538C148.165 20.986 147.619 21.3593 147.04 21.658C146.947 21.4993 146.816 21.3173 146.648 21.112C146.489 20.916 146.34 20.7573 146.2 20.636C146.741 20.4027 147.264 20.0947 147.768 19.712C148.272 19.32 148.725 18.8813 149.126 18.396C149.537 17.9107 149.863 17.402 150.106 16.87ZM142.35 16.352C142.901 16.2027 143.563 16.0207 144.338 15.806C145.113 15.582 145.897 15.3487 146.69 15.106L146.858 16.31C146.139 16.5433 145.411 16.7767 144.674 17.01C143.937 17.234 143.265 17.4393 142.658 17.626L142.35 16.352ZM142.56 11.928H146.816V13.16H142.56V11.928ZM144.184 9.198H145.416V20.72C145.416 21.0467 145.379 21.3033 145.304 21.49C145.229 21.6767 145.094 21.826 144.898 21.938C144.711 22.0407 144.469 22.106 144.17 22.134C143.881 22.1713 143.507 22.19 143.05 22.19C143.041 22.022 142.999 21.8167 142.924 21.574C142.859 21.3407 142.784 21.1353 142.7 20.958C142.98 20.9673 143.237 20.972 143.47 20.972C143.703 20.972 143.862 20.9673 143.946 20.958C144.03 20.958 144.091 20.944 144.128 20.916C144.165 20.8787 144.184 20.8133 144.184 20.72V9.198ZM160.956 10.01C160.919 10.262 160.886 10.5327 160.858 10.822C160.83 11.102 160.811 11.368 160.802 11.62C160.783 12.0027 160.765 12.4787 160.746 13.048C160.727 13.608 160.709 14.2053 160.69 14.84C160.671 15.4653 160.657 16.086 160.648 16.702C160.639 17.3087 160.634 17.8547 160.634 18.34C160.634 18.8347 160.723 19.2267 160.9 19.516C161.087 19.8053 161.343 20.0153 161.67 20.146C161.997 20.2673 162.361 20.328 162.762 20.328C163.378 20.328 163.933 20.2487 164.428 20.09C164.923 19.9313 165.366 19.7167 165.758 19.446C166.159 19.1753 166.519 18.8673 166.836 18.522C167.153 18.1767 167.438 17.8173 167.69 17.444L168.684 18.662C168.451 18.998 168.157 19.348 167.802 19.712C167.447 20.076 167.023 20.4167 166.528 20.734C166.043 21.0513 165.483 21.308 164.848 21.504C164.223 21.7 163.518 21.798 162.734 21.798C162.025 21.798 161.404 21.6907 160.872 21.476C160.34 21.2613 159.925 20.916 159.626 20.44C159.327 19.964 159.178 19.3387 159.178 18.564C159.178 18.1627 159.183 17.71 159.192 17.206C159.201 16.702 159.211 16.184 159.22 15.652C159.239 15.1107 159.253 14.5833 159.262 14.07C159.281 13.5567 159.295 13.0853 159.304 12.656C159.313 12.2267 159.318 11.8813 159.318 11.62C159.318 11.3213 159.304 11.0367 159.276 10.766C159.257 10.486 159.22 10.2293 159.164 9.996L160.956 10.01ZM178.064 11.424C177.971 12.1427 177.849 12.9033 177.7 13.706C177.56 14.4993 177.369 15.288 177.126 16.072C176.846 17.024 176.529 17.8313 176.174 18.494C175.829 19.1473 175.451 19.6467 175.04 19.992C174.629 20.3373 174.195 20.51 173.738 20.51C173.271 20.51 172.837 20.3513 172.436 20.034C172.035 19.7073 171.708 19.2547 171.456 18.676C171.204 18.088 171.078 17.4067 171.078 16.632C171.078 15.848 171.237 15.106 171.554 14.406C171.881 13.706 172.329 13.0853 172.898 12.544C173.467 12.0027 174.13 11.578 174.886 11.27C175.642 10.962 176.459 10.808 177.336 10.808C178.176 10.808 178.932 10.9433 179.604 11.214C180.285 11.4847 180.864 11.8627 181.34 12.348C181.825 12.824 182.194 13.384 182.446 14.028C182.698 14.672 182.824 15.358 182.824 16.086C182.824 17.066 182.619 17.9387 182.208 18.704C181.807 19.46 181.214 20.0807 180.43 20.566C179.646 21.042 178.685 21.364 177.546 21.532L176.72 20.216C176.963 20.188 177.187 20.16 177.392 20.132C177.597 20.0947 177.789 20.0573 177.966 20.02C178.414 19.9173 178.839 19.7587 179.24 19.544C179.651 19.3293 180.015 19.0587 180.332 18.732C180.649 18.396 180.897 18.004 181.074 17.556C181.261 17.108 181.354 16.604 181.354 16.044C181.354 15.484 181.265 14.966 181.088 14.49C180.911 14.0047 180.649 13.5847 180.304 13.23C179.959 12.8753 179.534 12.6 179.03 12.404C178.526 12.1987 177.957 12.096 177.322 12.096C176.557 12.096 175.875 12.2313 175.278 12.502C174.681 12.7727 174.172 13.132 173.752 13.58C173.341 14.0187 173.029 14.4947 172.814 15.008C172.599 15.5213 172.492 16.016 172.492 16.492C172.492 17.024 172.557 17.4673 172.688 17.822C172.819 18.1673 172.982 18.424 173.178 18.592C173.374 18.76 173.575 18.844 173.78 18.844C173.985 18.844 174.195 18.7413 174.41 18.536C174.625 18.3213 174.839 17.9853 175.054 17.528C175.278 17.0707 175.497 16.4873 175.712 15.778C175.927 15.106 176.104 14.392 176.244 13.636C176.393 12.8707 176.501 12.124 176.566 11.396L178.064 11.424ZM190.93 10.444C190.65 10.892 190.305 11.3493 189.894 11.816C189.493 12.2827 189.04 12.7493 188.536 13.216C188.032 13.6733 187.5 14.112 186.94 14.532C186.38 14.952 185.806 15.3347 185.218 15.68C185.162 15.5773 185.083 15.4607 184.98 15.33C184.887 15.1993 184.784 15.0733 184.672 14.952C184.569 14.8213 184.467 14.7093 184.364 14.616C185.185 14.168 185.969 13.6407 186.716 13.034C187.472 12.418 188.149 11.7693 188.746 11.088C189.353 10.4067 189.833 9.75333 190.188 9.128H191.546C191.919 9.67867 192.344 10.2153 192.82 10.738C193.296 11.2607 193.8 11.7553 194.332 12.222C194.864 12.6793 195.415 13.0993 195.984 13.482C196.553 13.8647 197.118 14.1867 197.678 14.448C197.51 14.6067 197.347 14.7933 197.188 15.008C197.039 15.2227 196.903 15.428 196.782 15.624C196.231 15.3067 195.676 14.9473 195.116 14.546C194.556 14.1353 194.015 13.706 193.492 13.258C192.969 12.8007 192.489 12.334 192.05 11.858C191.621 11.3727 191.247 10.9013 190.93 10.444ZM191.028 16.184H195.69V17.388H191.028V16.184ZM185.036 20.58H196.992V21.784H185.036V20.58ZM190.384 13.034H191.784V21.224H190.384V13.034ZM186.702 15.512H188.004V21.182H186.702V15.512ZM198.84 17.794H211.202V18.9H198.84V17.794ZM198.896 11.592H211.16V12.698H198.896V11.592ZM199.456 14.028H210.642V15.092H199.456V14.028ZM200.156 15.946H209.97V16.926H200.156V15.946ZM204.328 14.546H205.63V22.176H204.328V14.546ZM203.068 9.17H204.314V12.11H203.068V9.17ZM205.7 9.17H206.96V12.04H205.7V9.17ZM203.992 18.256L205.056 18.746C204.617 19.222 204.085 19.67 203.46 20.09C202.835 20.51 202.163 20.8787 201.444 21.196C200.725 21.5227 200.016 21.784 199.316 21.98C199.251 21.8587 199.167 21.728 199.064 21.588C198.971 21.4573 198.868 21.3267 198.756 21.196C198.653 21.0653 198.551 20.9533 198.448 20.86C199.148 20.7107 199.848 20.5053 200.548 20.244C201.248 19.9827 201.901 19.684 202.508 19.348C203.115 19.0027 203.609 18.6387 203.992 18.256ZM205.966 18.228C206.265 18.5173 206.619 18.7973 207.03 19.068C207.45 19.3387 207.907 19.5907 208.402 19.824C208.897 20.048 209.41 20.244 209.942 20.412C210.483 20.58 211.025 20.7153 211.566 20.818C211.473 20.9113 211.365 21.028 211.244 21.168C211.132 21.308 211.025 21.4527 210.922 21.602C210.829 21.7513 210.749 21.8867 210.684 22.008C210.133 21.8587 209.587 21.672 209.046 21.448C208.505 21.2333 207.982 20.9813 207.478 20.692C206.983 20.4027 206.517 20.09 206.078 19.754C205.649 19.4087 205.271 19.04 204.944 18.648L205.966 18.228ZM208.934 9.324L210.306 9.674C210.091 10.0473 209.867 10.4207 209.634 10.794C209.41 11.1673 209.205 11.4893 209.018 11.76L207.94 11.424C208.061 11.228 208.183 11.0087 208.304 10.766C208.425 10.514 208.542 10.262 208.654 10.01C208.766 9.758 208.859 9.52933 208.934 9.324ZM207.072 12.292L208.458 12.628C208.281 12.9547 208.103 13.272 207.926 13.58C207.749 13.8787 207.581 14.1353 207.422 14.35L206.316 14.028C206.447 13.776 206.582 13.4867 206.722 13.16C206.871 12.8333 206.988 12.544 207.072 12.292ZM199.96 9.674L201.094 9.282C201.327 9.59 201.551 9.93533 201.766 10.318C201.981 10.7007 202.139 11.0367 202.242 11.326L201.038 11.76C200.954 11.48 200.809 11.144 200.604 10.752C200.399 10.36 200.184 10.0007 199.96 9.674ZM201.766 12.754L203.04 12.53C203.189 12.7447 203.329 12.9873 203.46 13.258C203.591 13.5287 203.684 13.762 203.74 13.958L202.41 14.21C202.363 14.014 202.279 13.7807 202.158 13.51C202.037 13.23 201.906 12.978 201.766 12.754ZM217.558 10.864H225.216V11.928H217.558V10.864ZM217.95 12.726H224.908V13.748H217.95V12.726ZM217.264 14.602H225.426V15.708H217.264V14.602ZM223.074 9.156L224.39 9.506C224.203 9.814 224.017 10.122 223.83 10.43C223.653 10.7287 223.494 10.9807 223.354 11.186L222.318 10.878C222.449 10.6353 222.584 10.3507 222.724 10.024C222.873 9.69733 222.99 9.408 223.074 9.156ZM218.538 9.576L219.588 9.212C219.756 9.464 219.915 9.73933 220.064 10.038C220.223 10.3367 220.339 10.5933 220.414 10.808L219.294 11.228C219.238 11.004 219.135 10.738 218.986 10.43C218.846 10.1127 218.697 9.828 218.538 9.576ZM224.306 16.114L225.314 16.828C225.015 17.164 224.689 17.4953 224.334 17.822C223.989 18.1487 223.676 18.4333 223.396 18.676L222.528 18.032C222.715 17.864 222.915 17.6727 223.13 17.458C223.354 17.234 223.569 17.0053 223.774 16.772C223.979 16.5293 224.157 16.31 224.306 16.114ZM217.642 16.758L218.552 16.17C218.823 16.4313 219.093 16.73 219.364 17.066C219.635 17.3927 219.84 17.6867 219.98 17.948L219.028 18.606C218.897 18.354 218.701 18.0553 218.44 17.71C218.179 17.3553 217.913 17.038 217.642 16.758ZM216.718 20.258C217.157 20.0527 217.679 19.7913 218.286 19.474C218.893 19.1567 219.509 18.83 220.134 18.494L220.47 19.572C219.938 19.88 219.397 20.1927 218.846 20.51C218.305 20.8273 217.796 21.112 217.32 21.364L216.718 20.258ZM220.722 11.592H221.996V20.79C221.996 21.1167 221.959 21.3687 221.884 21.546C221.809 21.7327 221.674 21.8773 221.478 21.98C221.263 22.0827 220.993 22.1433 220.666 22.162C220.349 22.19 219.975 22.204 219.546 22.204C219.527 22.036 219.481 21.8307 219.406 21.588C219.341 21.3547 219.266 21.1587 219.182 21C219.453 21.0093 219.714 21.014 219.966 21.014C220.227 21.0233 220.4 21.0233 220.484 21.014C220.577 21.014 220.638 20.9953 220.666 20.958C220.703 20.9207 220.722 20.8647 220.722 20.79V11.592ZM221.926 16.058C222.141 16.7207 222.425 17.3413 222.78 17.92C223.135 18.4987 223.555 19.0073 224.04 19.446C224.535 19.8847 225.085 20.2347 225.692 20.496C225.608 20.5707 225.51 20.6733 225.398 20.804C225.295 20.9253 225.193 21.0513 225.09 21.182C224.997 21.322 224.917 21.448 224.852 21.56C224.236 21.2333 223.681 20.8087 223.186 20.286C222.701 19.754 222.276 19.1473 221.912 18.466C221.557 17.7847 221.263 17.052 221.03 16.268L221.926 16.058ZM212.686 12.166H217.264V13.398H212.686V12.166ZM214.534 9.184H215.738V22.162H214.534V9.184ZM214.506 12.95L215.276 13.216C215.173 13.7667 215.043 14.3407 214.884 14.938C214.725 15.5353 214.548 16.1233 214.352 16.702C214.156 17.2807 213.941 17.8173 213.708 18.312C213.484 18.8067 213.251 19.2313 213.008 19.586C212.943 19.4087 212.845 19.208 212.714 18.984C212.593 18.76 212.481 18.5733 212.378 18.424C212.602 18.116 212.821 17.7473 213.036 17.318C213.26 16.8887 213.465 16.4313 213.652 15.946C213.839 15.4513 214.002 14.9473 214.142 14.434C214.291 13.9207 214.413 13.426 214.506 12.95ZM215.668 14.07C215.752 14.1633 215.873 14.3313 216.032 14.574C216.191 14.8073 216.363 15.064 216.55 15.344C216.746 15.624 216.923 15.8853 217.082 16.128C217.241 16.3613 217.348 16.5293 217.404 16.632L216.704 17.598C216.62 17.4113 216.508 17.1827 216.368 16.912C216.228 16.632 216.074 16.3473 215.906 16.058C215.747 15.7593 215.593 15.4793 215.444 15.218C215.304 14.9567 215.187 14.7513 215.094 14.602L215.668 14.07ZM226.672 17.01C226.859 16.8607 227.036 16.7113 227.204 16.562C227.372 16.4033 227.554 16.2213 227.75 16.016C227.927 15.8293 228.123 15.6053 228.338 15.344C228.562 15.0827 228.795 14.8027 229.038 14.504C229.281 14.196 229.519 13.8927 229.752 13.594C229.995 13.2953 230.223 13.02 230.438 12.768C230.877 12.2547 231.306 11.9793 231.726 11.942C232.155 11.8953 232.613 12.1147 233.098 12.6C233.397 12.8893 233.709 13.23 234.036 13.622C234.363 14.0047 234.689 14.392 235.016 14.784C235.343 15.1667 235.651 15.512 235.94 15.82C236.155 16.0627 236.393 16.3287 236.654 16.618C236.925 16.898 237.209 17.192 237.508 17.5C237.816 17.7987 238.129 18.102 238.446 18.41C238.763 18.718 239.085 19.0167 239.412 19.306L238.278 20.608C237.933 20.2813 237.569 19.922 237.186 19.53C236.813 19.1287 236.444 18.7227 236.08 18.312C235.725 17.9013 235.389 17.5187 235.072 17.164C234.773 16.8187 234.465 16.4547 234.148 16.072C233.831 15.68 233.527 15.3113 233.238 14.966C232.949 14.6113 232.692 14.308 232.468 14.056C232.291 13.86 232.132 13.7387 231.992 13.692C231.861 13.636 231.735 13.6453 231.614 13.72C231.493 13.7853 231.357 13.9113 231.208 14.098C231.059 14.294 230.881 14.5227 230.676 14.784C230.471 15.0453 230.256 15.3253 230.032 15.624C229.817 15.9133 229.607 16.1933 229.402 16.464C229.197 16.7347 229.01 16.9727 228.842 17.178C228.693 17.3833 228.543 17.5933 228.394 17.808C228.245 18.0227 228.109 18.2093 227.988 18.368L226.672 17.01Z" fill="white"/>
</svg>
