<svg width="238" height="63" viewBox="0 0 238 63" fill="none" xmlns="http://www.w3.org/2000/svg">
<rect x="1" y="19" width="235.5" height="43" rx="11" stroke="white" stroke-width="2"/>
<g filter="url(#filter0_d_1_30)">
<path d="M27.366 44.158C26.742 44.194 26.382 43.942 26.286 43.402C26.25 43.162 26.316 42.952 26.484 42.772C26.652 42.58 26.886 42.478 27.186 42.466C27.954 42.442 28.644 42.388 29.256 42.304C29.88 42.208 30.438 42.094 30.93 41.962L30.66 41.89C29.988 41.734 29.55 41.47 29.346 41.098C29.154 40.726 29.178 40.306 29.418 39.838H27.114C26.898 39.838 26.718 39.778 26.574 39.658C26.442 39.538 26.364 39.382 26.34 39.19C26.304 39.202 26.25 39.208 26.178 39.208C25.902 39.208 25.662 39.118 25.458 38.938C25.254 38.758 25.152 38.512 25.152 38.2V37.822C25.152 36.898 25.374 36.25 25.818 35.878C26.262 35.494 27.024 35.302 28.104 35.302H31.848V34.564C31.848 34.216 31.956 33.952 32.172 33.772C32.388 33.592 32.652 33.502 32.964 33.502C33.276 33.502 33.54 33.592 33.756 33.772C33.972 33.952 34.08 34.216 34.08 34.564V35.302H37.86C38.928 35.302 39.684 35.494 40.128 35.878C40.572 36.25 40.794 36.898 40.794 37.822V38.2C40.794 38.512 40.692 38.758 40.488 38.938C40.296 39.118 40.062 39.208 39.786 39.208C39.714 39.208 39.66 39.202 39.624 39.19C39.588 39.382 39.498 39.538 39.354 39.658C39.222 39.778 39.048 39.838 38.832 39.838H36.942C36.486 40.438 35.97 40.978 35.394 41.458C35.922 41.602 36.462 41.752 37.014 41.908C37.566 42.064 38.118 42.226 38.67 42.394C38.922 42.466 39.108 42.616 39.228 42.844C39.348 43.06 39.36 43.306 39.264 43.582C39.168 43.846 38.988 44.026 38.724 44.122C38.472 44.218 38.214 44.218 37.95 44.122C37.266 43.858 36.558 43.606 35.826 43.366C35.094 43.114 34.356 42.88 33.612 42.664C32.808 43.072 31.896 43.402 30.876 43.654C29.856 43.906 28.686 44.074 27.366 44.158ZM33 50.8C32.7 50.8 32.448 50.704 32.244 50.512C32.04 50.32 31.938 50.068 31.938 49.756V47.128C31.458 47.488 30.918 47.854 30.318 48.226C29.718 48.586 29.106 48.916 28.482 49.216C27.87 49.528 27.282 49.792 26.718 50.008C26.418 50.128 26.136 50.158 25.872 50.098C25.62 50.05 25.428 49.894 25.296 49.63C25.164 49.366 25.146 49.108 25.242 48.856C25.35 48.592 25.542 48.412 25.818 48.316C26.526 48.076 27.294 47.752 28.122 47.344C28.962 46.936 29.73 46.522 30.426 46.102H25.548C25.308 46.102 25.116 46.024 24.972 45.868C24.84 45.712 24.774 45.526 24.774 45.31C24.774 45.094 24.84 44.908 24.972 44.752C25.116 44.596 25.308 44.518 25.548 44.518H31.938V44.104C31.938 43.792 32.04 43.54 32.244 43.348C32.448 43.156 32.7 43.06 33 43.06C33.288 43.06 33.534 43.156 33.738 43.348C33.942 43.54 34.044 43.792 34.044 44.104V44.518H40.47C40.722 44.518 40.914 44.596 41.046 44.752C41.19 44.908 41.262 45.094 41.262 45.31C41.262 45.526 41.19 45.712 41.046 45.868C40.914 46.024 40.722 46.102 40.47 46.102H35.682C36.354 46.486 37.098 46.864 37.914 47.236C38.73 47.596 39.486 47.89 40.182 48.118C40.458 48.202 40.656 48.364 40.776 48.604C40.896 48.844 40.902 49.102 40.794 49.378C40.662 49.69 40.458 49.882 40.182 49.954C39.918 50.038 39.642 50.026 39.354 49.918C38.79 49.702 38.184 49.438 37.536 49.126C36.888 48.814 36.258 48.478 35.646 48.118C35.046 47.746 34.512 47.386 34.044 47.038V49.756C34.044 50.068 33.942 50.32 33.738 50.512C33.534 50.704 33.288 50.8 33 50.8ZM32.964 38.2H38.76V37.822C38.76 37.486 38.676 37.252 38.508 37.12C38.34 36.988 38.04 36.922 37.608 36.922H33.972C33.96 36.958 33.93 37.012 33.882 37.084C33.762 37.24 33.618 37.414 33.45 37.606C33.294 37.798 33.132 37.996 32.964 38.2ZM27.204 38.2H30.678C30.858 37.984 31.038 37.768 31.218 37.552C31.398 37.324 31.566 37.114 31.722 36.922H28.356C27.912 36.922 27.606 36.988 27.438 37.12C27.282 37.252 27.204 37.486 27.204 37.822V38.2ZM33.216 40.936C33.696 40.6 34.128 40.234 34.512 39.838H31.614C31.458 40.066 31.398 40.246 31.434 40.378C31.482 40.51 31.668 40.606 31.992 40.666C32.196 40.714 32.4 40.762 32.604 40.81C32.808 40.846 33.012 40.888 33.216 40.936ZM55.266 50.53C54.966 50.53 54.702 50.428 54.474 50.224C54.258 50.02 54.15 49.75 54.15 49.414V44.464H50.046C49.758 44.464 49.512 44.368 49.308 44.176C49.116 43.972 49.02 43.726 49.02 43.438C49.02 43.15 49.116 42.91 49.308 42.718C49.512 42.514 49.758 42.412 50.046 42.412H54.15V39.388H51.846C51.726 39.7 51.594 40.006 51.45 40.306C51.306 40.594 51.168 40.858 51.036 41.098C50.892 41.362 50.676 41.56 50.388 41.692C50.1 41.812 49.806 41.8 49.506 41.656C49.242 41.524 49.062 41.326 48.966 41.062C48.882 40.786 48.906 40.522 49.038 40.27C49.266 39.85 49.5 39.358 49.74 38.794C49.992 38.23 50.226 37.66 50.442 37.084C50.658 36.496 50.826 35.986 50.946 35.554C51.03 35.242 51.204 35.02 51.468 34.888C51.732 34.744 52.002 34.714 52.278 34.798C52.59 34.894 52.812 35.062 52.944 35.302C53.076 35.542 53.094 35.818 52.998 36.13C52.938 36.322 52.872 36.526 52.8 36.742C52.74 36.958 52.674 37.168 52.602 37.372H54.15V34.978C54.15 34.642 54.258 34.372 54.474 34.168C54.702 33.964 54.966 33.862 55.266 33.862C55.578 33.862 55.836 33.964 56.04 34.168C56.256 34.372 56.364 34.642 56.364 34.978V37.372H59.334C59.61 37.372 59.844 37.474 60.036 37.678C60.24 37.87 60.342 38.104 60.342 38.38C60.342 38.656 60.24 38.896 60.036 39.1C59.844 39.292 59.61 39.388 59.334 39.388H56.364V42.412H60C60.276 42.412 60.516 42.514 60.72 42.718C60.924 42.91 61.026 43.15 61.026 43.438C61.026 43.726 60.924 43.972 60.72 44.176C60.516 44.368 60.276 44.464 60 44.464H56.364V49.414C56.364 49.75 56.256 50.02 56.04 50.224C55.836 50.428 55.578 50.53 55.266 50.53ZM47.49 50.584C47.202 50.584 46.956 50.488 46.752 50.296C46.56 50.104 46.464 49.858 46.464 49.558V41.71C46.332 41.914 46.2 42.118 46.068 42.322C45.936 42.514 45.804 42.706 45.672 42.898C45.504 43.126 45.276 43.264 44.988 43.312C44.7 43.36 44.436 43.306 44.196 43.15C43.968 43.006 43.83 42.796 43.782 42.52C43.734 42.232 43.788 41.974 43.944 41.746C44.28 41.278 44.628 40.738 44.988 40.126C45.36 39.502 45.72 38.854 46.068 38.182C46.416 37.51 46.734 36.862 47.022 36.238C47.31 35.602 47.538 35.038 47.706 34.546C47.826 34.222 48.012 34.006 48.264 33.898C48.516 33.778 48.786 33.766 49.074 33.862C49.35 33.958 49.542 34.126 49.65 34.366C49.77 34.606 49.776 34.876 49.668 35.176C49.524 35.596 49.35 36.04 49.146 36.508C48.954 36.976 48.744 37.45 48.516 37.93V49.558C48.516 49.858 48.414 50.104 48.21 50.296C48.006 50.488 47.766 50.584 47.49 50.584ZM73.806 48.946C73.506 49.018 73.224 48.976 72.96 48.82C72.696 48.664 72.528 48.442 72.456 48.154C72.384 47.866 72.426 47.596 72.582 47.344C72.738 47.08 72.96 46.912 73.248 46.84C74.58 46.492 75.558 45.928 76.182 45.148C76.818 44.368 77.136 43.378 77.136 42.178C77.136 41.422 76.968 40.744 76.632 40.144C76.296 39.544 75.816 39.058 75.192 38.686C74.58 38.314 73.842 38.086 72.978 38.002C72.762 40.018 72.396 41.764 71.88 43.24C71.376 44.704 70.776 45.838 70.08 46.642C69.396 47.434 68.676 47.83 67.92 47.83C67.284 47.83 66.702 47.644 66.174 47.272C65.646 46.9 65.226 46.366 64.914 45.67C64.614 44.974 64.464 44.14 64.464 43.168C64.464 42.172 64.65 41.242 65.022 40.378C65.406 39.502 65.946 38.734 66.642 38.074C67.338 37.414 68.154 36.898 69.09 36.526C70.038 36.154 71.076 35.968 72.204 35.968C73.572 35.968 74.784 36.232 75.84 36.76C76.908 37.276 77.748 38.002 78.36 38.938C78.972 39.862 79.278 40.942 79.278 42.178C79.278 43.918 78.81 45.37 77.874 46.534C76.95 47.686 75.594 48.49 73.806 48.946ZM67.938 45.616C68.154 45.616 68.4 45.436 68.676 45.076C68.964 44.704 69.252 44.182 69.54 43.51C69.828 42.838 70.092 42.046 70.332 41.134C70.572 40.21 70.752 39.19 70.872 38.074C69.936 38.254 69.15 38.602 68.514 39.118C67.878 39.622 67.398 40.228 67.074 40.936C66.75 41.632 66.582 42.364 66.57 43.132C66.57 43.948 66.696 44.566 66.948 44.986C67.212 45.406 67.542 45.616 67.938 45.616ZM86.874 50.53C86.61 50.53 86.382 50.44 86.19 50.26C85.998 50.08 85.902 49.84 85.902 49.54V42.988C85.53 43.036 85.176 43.078 84.84 43.114C84.516 43.15 84.234 43.18 83.994 43.204C83.694 43.24 83.436 43.186 83.22 43.042C83.016 42.898 82.896 42.682 82.86 42.394C82.824 42.106 82.89 41.866 83.058 41.674C83.226 41.47 83.46 41.362 83.76 41.35C83.856 41.338 83.964 41.332 84.084 41.332C84.204 41.32 84.324 41.308 84.444 41.296C84.612 41.092 84.804 40.84 85.02 40.54C85.248 40.228 85.488 39.904 85.74 39.568C85.524 39.412 85.26 39.226 84.948 39.01C84.636 38.782 84.33 38.566 84.03 38.362C83.73 38.146 83.496 37.99 83.328 37.894C83.112 37.75 82.974 37.552 82.914 37.3C82.866 37.048 82.908 36.814 83.04 36.598C83.172 36.37 83.364 36.226 83.616 36.166C83.88 36.106 84.126 36.148 84.354 36.292C84.462 36.364 84.564 36.436 84.66 36.508C84.78 36.316 84.918 36.082 85.074 35.806C85.242 35.53 85.398 35.26 85.542 34.996C85.698 34.732 85.812 34.528 85.884 34.384C86.004 34.144 86.19 33.976 86.442 33.88C86.694 33.784 86.94 33.796 87.18 33.916C87.42 34.036 87.576 34.222 87.648 34.474C87.72 34.726 87.69 34.966 87.558 35.194C87.45 35.374 87.306 35.608 87.126 35.896C86.946 36.184 86.76 36.472 86.568 36.76C86.388 37.048 86.232 37.294 86.1 37.498C86.256 37.594 86.394 37.69 86.514 37.786C86.646 37.882 86.76 37.96 86.856 38.02C87.12 37.636 87.36 37.282 87.576 36.958C87.804 36.634 87.984 36.37 88.116 36.166C88.284 35.914 88.488 35.758 88.728 35.698C88.968 35.626 89.214 35.656 89.466 35.788C89.694 35.896 89.838 36.088 89.898 36.364C89.97 36.64 89.922 36.898 89.754 37.138C89.55 37.438 89.28 37.816 88.944 38.272C88.62 38.716 88.272 39.19 87.9 39.694C87.528 40.186 87.174 40.66 86.838 41.116C87.138 41.092 87.426 41.068 87.702 41.044C87.99 41.008 88.254 40.978 88.494 40.954L88.35 40.54C88.266 40.288 88.272 40.06 88.368 39.856C88.476 39.64 88.644 39.49 88.872 39.406C89.112 39.322 89.34 39.328 89.556 39.424C89.784 39.52 89.952 39.694 90.06 39.946C90.132 40.126 90.222 40.36 90.33 40.648C90.45 40.936 90.564 41.23 90.672 41.53C90.78 41.818 90.864 42.058 90.924 42.25C91.008 42.514 90.996 42.766 90.888 43.006C90.78 43.234 90.594 43.396 90.33 43.492C90.066 43.576 89.82 43.558 89.592 43.438C89.364 43.318 89.22 43.144 89.16 42.916C89.136 42.796 89.1 42.676 89.052 42.556C88.716 42.604 88.32 42.658 87.864 42.718V49.54C87.864 49.84 87.768 50.08 87.576 50.26C87.384 50.44 87.15 50.53 86.874 50.53ZM95.118 50.08C94.098 50.08 93.312 49.978 92.76 49.774C92.208 49.57 91.824 49.204 91.608 48.676C91.392 48.148 91.284 47.404 91.284 46.444C91.284 45.484 91.392 44.74 91.608 44.212C91.824 43.684 92.208 43.318 92.76 43.114C93.312 42.91 94.098 42.808 95.118 42.808C96.138 42.808 96.924 42.91 97.476 43.114C98.028 43.318 98.406 43.684 98.61 44.212C98.826 44.74 98.934 45.484 98.934 46.444C98.934 47.404 98.826 48.148 98.61 48.676C98.406 49.204 98.028 49.57 97.476 49.774C96.924 49.978 96.138 50.08 95.118 50.08ZM92.364 42.16C92.136 42.328 91.878 42.406 91.59 42.394C91.302 42.37 91.074 42.25 90.906 42.034C90.762 41.83 90.702 41.608 90.726 41.368C90.75 41.128 90.858 40.936 91.05 40.792C91.794 40.24 92.328 39.616 92.652 38.92C92.988 38.212 93.198 37.366 93.282 36.382H91.356C91.08 36.382 90.858 36.292 90.69 36.112C90.534 35.932 90.456 35.722 90.456 35.482C90.456 35.242 90.534 35.038 90.69 34.87C90.846 34.69 91.056 34.6 91.32 34.6H96.72C97.632 34.6 98.28 34.804 98.664 35.212C99.06 35.62 99.234 36.25 99.186 37.102C99.174 37.51 99.144 37.942 99.096 38.398C99.06 38.854 99.012 39.256 98.952 39.604C98.856 40.252 98.688 40.762 98.448 41.134C98.22 41.494 97.902 41.752 97.494 41.908C97.086 42.052 96.558 42.136 95.91 42.16C95.598 42.172 95.334 42.106 95.118 41.962C94.902 41.806 94.782 41.572 94.758 41.26C94.734 40.972 94.806 40.738 94.974 40.558C95.154 40.366 95.376 40.264 95.64 40.252C96.156 40.228 96.498 40.156 96.666 40.036C96.834 39.904 96.954 39.652 97.026 39.28C97.074 39.052 97.116 38.746 97.152 38.362C97.2 37.978 97.23 37.648 97.242 37.372C97.266 36.988 97.212 36.73 97.08 36.598C96.96 36.454 96.714 36.382 96.342 36.382H95.154C95.058 37.678 94.8 38.8 94.38 39.748C93.96 40.684 93.288 41.488 92.364 42.16ZM95.118 48.172C95.622 48.172 96 48.13 96.252 48.046C96.516 47.962 96.69 47.794 96.774 47.542C96.858 47.29 96.9 46.918 96.9 46.426C96.9 45.946 96.858 45.586 96.774 45.346C96.69 45.106 96.516 44.944 96.252 44.86C96 44.764 95.622 44.716 95.118 44.716C94.614 44.716 94.23 44.758 93.966 44.842C93.714 44.926 93.54 45.088 93.444 45.328C93.36 45.568 93.318 45.928 93.318 46.408C93.318 46.888 93.36 47.254 93.444 47.506C93.54 47.758 93.714 47.932 93.966 48.028C94.23 48.124 94.614 48.172 95.118 48.172ZM83.508 48.55C83.28 48.49 83.112 48.352 83.004 48.136C82.908 47.92 82.902 47.704 82.986 47.488C83.082 47.248 83.19 46.942 83.31 46.57C83.442 46.198 83.562 45.82 83.67 45.436C83.79 45.052 83.88 44.722 83.94 44.446C84 44.194 84.126 44.014 84.318 43.906C84.51 43.786 84.72 43.75 84.948 43.798C85.188 43.846 85.374 43.96 85.506 44.14C85.638 44.32 85.674 44.548 85.614 44.824C85.566 45.1 85.482 45.436 85.362 45.832C85.254 46.216 85.14 46.594 85.02 46.966C84.9 47.338 84.792 47.656 84.696 47.92C84.612 48.16 84.456 48.346 84.228 48.478C84 48.598 83.76 48.622 83.508 48.55ZM90.204 47.758C89.976 47.842 89.748 47.842 89.52 47.758C89.292 47.674 89.136 47.5 89.052 47.236C88.992 47.032 88.908 46.768 88.8 46.444C88.692 46.108 88.584 45.772 88.476 45.436C88.38 45.1 88.302 44.83 88.242 44.626C88.182 44.362 88.218 44.14 88.35 43.96C88.482 43.768 88.662 43.648 88.89 43.6C89.13 43.54 89.346 43.57 89.538 43.69C89.73 43.798 89.856 43.966 89.916 44.194C89.976 44.386 90.054 44.632 90.15 44.932C90.258 45.232 90.366 45.532 90.474 45.832C90.582 46.132 90.666 46.372 90.726 46.552C90.822 46.816 90.822 47.062 90.726 47.29C90.63 47.506 90.456 47.662 90.204 47.758ZM103.974 41.512C103.698 41.692 103.404 41.764 103.092 41.728C102.792 41.68 102.558 41.524 102.39 41.26C102.258 41.044 102.216 40.81 102.264 40.558C102.324 40.294 102.498 40.072 102.786 39.892C103.458 39.472 104.136 39.016 104.82 38.524C105.516 38.02 106.188 37.498 106.836 36.958C107.496 36.418 108.09 35.89 108.618 35.374C109.134 34.87 109.608 34.534 110.04 34.366C110.472 34.186 110.916 34.174 111.372 34.33C111.84 34.486 112.356 34.81 112.92 35.302C113.268 35.602 113.676 35.944 114.144 36.328C114.612 36.7 115.11 37.09 115.638 37.498C116.166 37.906 116.7 38.302 117.24 38.686C117.792 39.07 118.314 39.412 118.806 39.712C119.106 39.904 119.292 40.144 119.364 40.432C119.448 40.72 119.4 40.996 119.22 41.26C119.04 41.512 118.788 41.656 118.464 41.692C118.14 41.728 117.822 41.644 117.51 41.44C117.054 41.128 116.556 40.774 116.016 40.378C115.476 39.97 114.93 39.544 114.378 39.1C113.826 38.656 113.304 38.224 112.812 37.804C112.332 37.384 111.912 37.006 111.552 36.67C111.264 36.394 111.012 36.256 110.796 36.256C110.58 36.244 110.328 36.376 110.04 36.652C109.656 37.012 109.212 37.414 108.708 37.858C108.216 38.29 107.694 38.728 107.142 39.172C106.602 39.616 106.056 40.042 105.504 40.45C104.964 40.858 104.454 41.212 103.974 41.512ZM105.432 49.864C105.06 50.044 104.724 50.092 104.424 50.008C104.136 49.936 103.914 49.762 103.758 49.486C103.602 49.186 103.596 48.898 103.74 48.622C103.896 48.346 104.118 48.148 104.406 48.028C105.27 47.632 105.93 47.158 106.386 46.606C106.842 46.042 107.148 45.334 107.304 44.482C107.472 43.63 107.544 42.568 107.52 41.296C107.508 41.032 107.598 40.798 107.79 40.594C107.982 40.39 108.228 40.288 108.528 40.288C108.84 40.288 109.098 40.396 109.302 40.612C109.506 40.816 109.608 41.044 109.608 41.296C109.632 42.856 109.506 44.182 109.23 45.274C108.966 46.366 108.522 47.278 107.898 48.01C107.286 48.742 106.464 49.36 105.432 49.864ZM113.442 50.116C113.106 50.116 112.842 50.026 112.65 49.846C112.47 49.666 112.38 49.42 112.38 49.108V41.296C112.38 41.008 112.482 40.768 112.686 40.576C112.902 40.384 113.154 40.288 113.442 40.288C113.718 40.288 113.964 40.384 114.18 40.576C114.396 40.768 114.504 41.008 114.504 41.296V49.108C114.504 49.42 114.414 49.666 114.234 49.846C114.054 50.026 113.79 50.116 113.442 50.116ZM134.16 49.81C132.552 50.038 131.196 50.122 130.092 50.062C128.988 50.014 128.1 49.852 127.428 49.576C126.768 49.3 126.288 48.934 125.988 48.478C125.688 48.01 125.538 47.482 125.538 46.894C125.538 45.994 125.898 45.154 126.618 44.374C127.35 43.594 128.406 42.91 129.786 42.322C129.594 42.082 129.36 41.92 129.084 41.836C128.484 41.656 127.89 41.722 127.302 42.034C126.726 42.346 126.162 42.802 125.61 43.402C125.406 43.618 125.136 43.738 124.8 43.762C124.476 43.774 124.212 43.672 124.008 43.456C123.816 43.228 123.726 42.964 123.738 42.664C123.762 42.364 123.888 42.118 124.116 41.926C124.704 41.422 125.22 40.876 125.664 40.288C126.12 39.7 126.504 39.094 126.816 38.47C126.3 38.482 125.814 38.494 125.358 38.506C124.914 38.506 124.53 38.5 124.206 38.488C123.906 38.488 123.654 38.386 123.45 38.182C123.246 37.966 123.144 37.708 123.144 37.408C123.156 37.108 123.27 36.862 123.486 36.67C123.702 36.478 123.96 36.388 124.26 36.4C124.68 36.412 125.184 36.418 125.772 36.418C126.372 36.406 126.996 36.394 127.644 36.382C127.704 36.154 127.758 35.932 127.806 35.716C127.854 35.5 127.896 35.284 127.932 35.068C127.98 34.768 128.112 34.528 128.328 34.348C128.544 34.156 128.802 34.078 129.102 34.114C129.402 34.15 129.642 34.282 129.822 34.51C130.002 34.738 130.074 35.002 130.038 35.302C130.026 35.458 130.002 35.62 129.966 35.788C129.93 35.956 129.888 36.124 129.84 36.292C130.296 36.268 130.722 36.244 131.118 36.22C131.514 36.184 131.868 36.142 132.18 36.094C132.48 36.058 132.744 36.13 132.972 36.31C133.212 36.478 133.35 36.712 133.386 37.012C133.422 37.312 133.344 37.576 133.152 37.804C132.972 38.032 132.738 38.158 132.45 38.182C132.006 38.23 131.496 38.272 130.92 38.308C130.344 38.344 129.744 38.374 129.12 38.398C128.856 38.986 128.568 39.538 128.256 40.054C128.544 39.994 128.82 39.976 129.084 40C129.348 40.012 129.6 40.054 129.84 40.126C130.2 40.222 130.548 40.39 130.884 40.63C131.232 40.858 131.538 41.182 131.802 41.602C132.39 41.434 133.014 41.278 133.674 41.134C134.346 40.99 135.054 40.864 135.798 40.756C136.086 40.708 136.35 40.774 136.59 40.954C136.83 41.122 136.968 41.356 137.004 41.656C137.052 41.956 136.986 42.22 136.806 42.448C136.626 42.676 136.386 42.814 136.086 42.862C135.39 42.946 134.748 43.048 134.16 43.168C133.572 43.276 133.026 43.396 132.522 43.528C132.582 43.852 132.63 44.206 132.666 44.59C132.702 44.974 132.72 45.388 132.72 45.832C132.72 46.132 132.612 46.39 132.396 46.606C132.192 46.81 131.94 46.912 131.64 46.912C131.34 46.912 131.088 46.81 130.884 46.606C130.68 46.39 130.578 46.132 130.578 45.832C130.578 45.22 130.542 44.674 130.47 44.194C129.486 44.602 128.772 45.04 128.328 45.508C127.896 45.964 127.68 46.408 127.68 46.84C127.68 47.164 127.872 47.428 128.256 47.632C128.64 47.836 129.282 47.95 130.182 47.974C131.082 47.998 132.312 47.908 133.872 47.704C134.16 47.668 134.424 47.74 134.664 47.92C134.904 48.088 135.042 48.322 135.078 48.622C135.114 48.91 135.042 49.168 134.862 49.396C134.682 49.624 134.448 49.762 134.16 49.81ZM142.836 43.582C142.548 43.582 142.302 43.486 142.098 43.294C141.906 43.102 141.81 42.85 141.81 42.538V41.782C141.81 40.882 142.008 40.228 142.404 39.82C142.812 39.412 143.562 39.184 144.654 39.136L144.636 39.082C144.588 39.01 144.516 38.896 144.42 38.74C144.336 38.572 144.246 38.404 144.15 38.236C144.066 38.068 144 37.948 143.952 37.876C143.832 37.672 143.802 37.45 143.862 37.21C143.922 36.958 144.066 36.772 144.294 36.652H143.682C143.382 36.652 143.136 36.568 142.944 36.4C142.752 36.22 142.656 35.98 142.656 35.68C142.644 35.392 142.74 35.17 142.944 35.014C143.16 34.846 143.43 34.768 143.754 34.78C144.618 34.792 145.536 34.78 146.508 34.744C147.48 34.696 148.452 34.636 149.424 34.564C150.396 34.48 151.326 34.378 152.214 34.258C153.102 34.138 153.888 34.006 154.572 33.862C154.92 33.79 155.208 33.82 155.436 33.952C155.664 34.072 155.808 34.252 155.868 34.492C155.964 34.804 155.928 35.068 155.76 35.284C155.592 35.5 155.388 35.638 155.148 35.698C154.992 35.722 154.836 35.752 154.68 35.788C154.524 35.812 154.362 35.836 154.194 35.86L154.212 35.878C154.464 35.974 154.638 36.148 154.734 36.4C154.83 36.64 154.818 36.898 154.698 37.174C154.614 37.366 154.47 37.654 154.266 38.038C154.074 38.422 153.888 38.788 153.708 39.136H154.248C155.088 39.136 155.742 39.214 156.21 39.37C156.69 39.526 157.026 39.79 157.218 40.162C157.422 40.534 157.524 41.038 157.524 41.674V42.538C157.524 42.85 157.422 43.102 157.218 43.294C157.014 43.486 156.768 43.582 156.48 43.582C156.192 43.582 155.946 43.486 155.742 43.294C155.538 43.102 155.436 42.85 155.436 42.538V41.728C155.436 41.38 155.352 41.146 155.184 41.026C155.016 40.894 154.686 40.828 154.194 40.828H145.122C144.63 40.828 144.3 40.894 144.132 41.026C143.964 41.146 143.88 41.38 143.88 41.728V42.538C143.88 42.85 143.778 43.102 143.574 43.294C143.37 43.486 143.124 43.582 142.836 43.582ZM143.214 50.476C142.83 50.524 142.518 50.47 142.278 50.314C142.038 50.158 141.9 49.918 141.864 49.594C141.828 49.282 141.912 49.024 142.116 48.82C142.32 48.604 142.602 48.478 142.962 48.442C143.958 48.346 144.882 48.19 145.734 47.974C146.586 47.746 147.378 47.464 148.11 47.128C147.666 46.672 147.264 46.174 146.904 45.634C146.556 45.082 146.25 44.482 145.986 43.834H145.248C145.008 43.834 144.798 43.744 144.618 43.564C144.45 43.384 144.366 43.168 144.366 42.916C144.366 42.676 144.45 42.466 144.618 42.286C144.798 42.106 145.008 42.016 145.248 42.016H151.332C152.28 42.016 152.982 42.202 153.438 42.574C153.894 42.934 154.11 43.39 154.086 43.942C154.074 44.482 153.828 45.034 153.348 45.598C153.108 45.886 152.85 46.162 152.574 46.426C152.31 46.678 152.04 46.924 151.764 47.164C153.036 47.788 154.65 48.16 156.606 48.28C156.966 48.292 157.248 48.412 157.452 48.64C157.656 48.856 157.746 49.12 157.722 49.432C157.65 50.128 157.206 50.446 156.39 50.386C153.738 50.242 151.542 49.618 149.802 48.514C148.926 49.006 147.942 49.414 146.85 49.738C145.758 50.074 144.546 50.32 143.214 50.476ZM150.252 39.136H151.638C151.758 38.896 151.896 38.596 152.052 38.236C152.208 37.864 152.358 37.504 152.502 37.156C152.658 36.808 152.766 36.55 152.826 36.382C152.85 36.31 152.88 36.25 152.916 36.202C152.964 36.142 153.012 36.088 153.06 36.04C152.496 36.124 151.896 36.196 151.26 36.256C150.636 36.316 149.994 36.376 149.334 36.436C149.49 36.508 149.61 36.634 149.694 36.814C149.73 36.886 149.79 37.024 149.874 37.228C149.97 37.42 150.06 37.612 150.144 37.804C150.24 37.996 150.3 38.122 150.324 38.182C150.48 38.554 150.456 38.872 150.252 39.136ZM146.31 39.136H148.596C148.584 39.1 148.554 39.046 148.506 38.974C148.47 38.89 148.41 38.758 148.326 38.578C148.242 38.398 148.158 38.218 148.074 38.038C147.99 37.858 147.93 37.726 147.894 37.642C147.81 37.438 147.792 37.234 147.84 37.03C147.888 36.814 148.002 36.646 148.182 36.526C147.702 36.55 147.222 36.574 146.742 36.598C146.274 36.61 145.806 36.628 145.338 36.652C145.434 36.7 145.53 36.79 145.626 36.922C145.674 36.994 145.746 37.126 145.842 37.318C145.938 37.498 146.034 37.678 146.13 37.858C146.238 38.026 146.304 38.134 146.328 38.182C146.52 38.53 146.514 38.848 146.31 39.136ZM149.982 46.012C150.51 45.628 150.996 45.184 151.44 44.68C151.656 44.44 151.728 44.242 151.656 44.086C151.584 43.918 151.356 43.834 150.972 43.834H148.218C148.686 44.686 149.274 45.412 149.982 46.012ZM170.286 49.432C170.058 49.624 169.788 49.714 169.476 49.702C169.176 49.69 168.924 49.576 168.72 49.36C168.516 49.132 168.42 48.868 168.432 48.568C168.456 48.268 168.582 48.016 168.81 47.812C169.458 47.236 169.95 46.624 170.286 45.976C170.634 45.328 170.868 44.572 170.988 43.708C171.12 42.844 171.186 41.812 171.186 40.612C170.598 40.66 170.028 40.714 169.476 40.774C168.936 40.834 168.444 40.9 168 40.972C167.7 41.02 167.43 40.966 167.19 40.81C166.95 40.642 166.8 40.414 166.74 40.126C166.692 39.826 166.746 39.556 166.902 39.316C167.07 39.076 167.304 38.932 167.604 38.884C168.06 38.812 168.6 38.746 169.224 38.686C169.86 38.626 170.514 38.572 171.186 38.524V36.058C171.186 35.758 171.288 35.506 171.492 35.302C171.696 35.086 171.948 34.978 172.248 34.978C172.548 34.978 172.8 35.086 173.004 35.302C173.208 35.506 173.31 35.758 173.31 36.058V38.398C173.73 38.374 174.12 38.362 174.48 38.362C174.852 38.362 175.17 38.362 175.434 38.362C175.734 38.374 175.986 38.488 176.19 38.704C176.394 38.92 176.484 39.178 176.46 39.478C176.448 39.778 176.328 40.024 176.1 40.216C175.884 40.408 175.626 40.498 175.326 40.486C174.75 40.462 174.078 40.462 173.31 40.486V40.594C173.31 41.83 173.232 42.982 173.076 44.05C172.932 45.118 172.644 46.102 172.212 47.002C171.78 47.902 171.138 48.712 170.286 49.432ZM164.22 49C163.92 49.06 163.65 49.012 163.41 48.856C163.17 48.688 163.02 48.46 162.96 48.172C162.84 47.608 162.738 46.942 162.654 46.174C162.582 45.394 162.528 44.566 162.492 43.69C162.468 42.802 162.468 41.908 162.492 41.008C162.516 40.096 162.564 39.214 162.636 38.362C162.72 37.498 162.84 36.712 162.996 36.004C163.056 35.704 163.206 35.476 163.446 35.32C163.698 35.164 163.968 35.116 164.256 35.176C164.544 35.236 164.766 35.392 164.922 35.644C165.078 35.884 165.126 36.154 165.066 36.454C164.886 37.306 164.754 38.242 164.67 39.262C164.598 40.282 164.562 41.308 164.562 42.34C164.574 43.372 164.616 44.356 164.688 45.292C164.772 46.228 164.886 47.044 165.03 47.74C165.09 48.028 165.042 48.298 164.886 48.55C164.73 48.79 164.508 48.94 164.22 49ZM188.466 49.774C187.374 49.75 186.51 49.486 185.874 48.982C185.25 48.478 184.95 47.788 184.974 46.912C184.998 46.396 185.142 45.946 185.406 45.562C185.682 45.178 186.054 44.89 186.522 44.698C186.99 44.494 187.524 44.422 188.124 44.482C189.084 44.566 189.756 44.896 190.14 45.472C190.524 46.036 190.638 46.684 190.482 47.416C190.902 47.212 191.244 46.918 191.508 46.534C191.784 46.138 191.922 45.628 191.922 45.004C191.922 44.536 191.784 44.116 191.508 43.744C191.244 43.36 190.866 43.066 190.374 42.862C189.894 42.646 189.336 42.556 188.7 42.592C188.064 42.628 187.38 42.82 186.648 43.168C185.916 43.504 185.166 44.044 184.398 44.788C184.182 44.992 183.912 45.094 183.588 45.094C183.264 45.082 183 44.956 182.796 44.716C182.604 44.488 182.514 44.23 182.526 43.942C182.55 43.642 182.676 43.408 182.904 43.24C183.648 42.676 184.392 42.082 185.136 41.458C185.88 40.822 186.588 40.198 187.26 39.586C187.944 38.974 188.544 38.416 189.06 37.912C189.384 37.6 189.492 37.342 189.384 37.138C189.288 36.934 189.03 36.862 188.61 36.922C188.202 36.97 187.734 37.03 187.206 37.102C186.69 37.174 186.204 37.24 185.748 37.3C185.46 37.348 185.196 37.282 184.956 37.102C184.716 36.922 184.578 36.682 184.542 36.382C184.494 36.094 184.56 35.836 184.74 35.608C184.92 35.368 185.16 35.224 185.46 35.176C185.724 35.14 186.054 35.104 186.45 35.068C186.858 35.032 187.272 34.996 187.692 34.96C188.124 34.924 188.49 34.894 188.79 34.87C189.57 34.81 190.206 34.912 190.698 35.176C191.19 35.44 191.526 35.8 191.706 36.256C191.886 36.7 191.892 37.186 191.724 37.714C191.568 38.242 191.226 38.74 190.698 39.208C190.458 39.412 190.152 39.676 189.78 40C189.42 40.324 189.048 40.654 188.664 40.99C189.348 40.858 190.014 40.852 190.662 40.972C191.31 41.08 191.886 41.308 192.39 41.656C192.906 42.004 193.314 42.466 193.614 43.042C193.914 43.606 194.064 44.272 194.064 45.04C194.064 46.132 193.824 47.038 193.344 47.758C192.864 48.466 192.204 48.982 191.364 49.306C190.524 49.642 189.558 49.798 188.466 49.774ZM188.142 47.776C188.166 47.776 188.202 47.776 188.25 47.776C188.286 47.776 188.328 47.782 188.376 47.794C188.436 47.794 188.502 47.788 188.574 47.776C188.742 47.38 188.772 47.05 188.664 46.786C188.556 46.522 188.34 46.366 188.016 46.318C187.728 46.282 187.488 46.324 187.296 46.444C187.116 46.552 187.014 46.732 186.99 46.984C186.978 47.464 187.362 47.728 188.142 47.776Z" fill="white"/>
</g>
<g filter="url(#filter1_d_1_30)">
<path d="M205.79 33.9938C205.499 33.7108 205.044 33.6858 204.724 33.9352V33.9352C204.34 34.2352 204.304 34.8045 204.649 35.1495L209.586 40.0858C210.367 40.8668 210.367 42.1332 209.586 42.9142L204.923 47.5774C204.671 47.8289 204.612 48.2146 204.776 48.5299V48.5299C205.029 49.0135 205.676 49.1172 206.067 48.7367L212.028 42.933C212.835 42.1479 212.835 40.8521 212.028 40.067L205.79 33.9938Z" fill="white"/>
<path d="M209.939 39.7322L205.003 34.7959C204.871 34.6634 204.884 34.4448 205.032 34.3296C205.155 34.2338 205.329 34.2434 205.441 34.352L211.679 40.4252C212.284 41.0141 212.284 41.9859 211.679 42.5748L205.718 48.3785C205.567 48.5254 205.317 48.4853 205.22 48.2986C205.156 48.1769 205.179 48.028 205.276 47.9309L209.939 43.2678C210.916 42.2915 210.916 40.7085 209.939 39.7322Z" stroke="white"/>
</g>
<path d="M0 8C0 3.58172 3.58172 0 8 0H164C168.418 0 172 3.58172 172 8V20C172 24.4183 168.418 28 164 28H0V8Z" fill="white"/>
<path d="M18.31 10.256C18.562 10.2747 18.8373 10.2933 19.136 10.312C19.4347 10.3307 19.7007 10.34 19.934 10.34H26.892C27.0787 10.34 27.2793 10.34 27.494 10.34C27.718 10.3307 27.8907 10.3213 28.012 10.312C28.0027 10.4707 27.9933 10.662 27.984 10.886C27.984 11.1007 27.984 11.3013 27.984 11.488V18.726C27.984 18.9687 27.9887 19.2393 27.998 19.538C28.0167 19.8273 28.0307 20.0513 28.04 20.21H26.444C26.444 20.0513 26.4487 19.8553 26.458 19.622C26.4673 19.3793 26.472 19.132 26.472 18.88V11.754H19.934C19.6633 11.754 19.3693 11.7587 19.052 11.768C18.7347 11.7773 18.4873 11.7913 18.31 11.81V10.256ZM18.142 17.928C18.3473 17.9373 18.5947 17.9513 18.884 17.97C19.1733 17.9887 19.4673 17.998 19.766 17.998H27.298V19.454H19.822C19.542 19.454 19.2433 19.4587 18.926 19.468C18.6087 19.4773 18.3473 19.4913 18.142 19.51V17.928ZM33.262 9.57C33.514 9.738 33.8033 9.948 34.13 10.2C34.4567 10.4427 34.788 10.704 35.124 10.984C35.4693 11.264 35.796 11.5347 36.104 11.796C36.412 12.0573 36.6593 12.2907 36.846 12.496L35.74 13.63C35.5627 13.4433 35.3293 13.2193 35.04 12.958C34.7507 12.6873 34.438 12.412 34.102 12.132C33.7753 11.8427 33.4487 11.572 33.122 11.32C32.7953 11.0587 32.5013 10.8393 32.24 10.662L33.262 9.57ZM31.82 18.936C32.604 18.8147 33.3273 18.656 33.99 18.46C34.6527 18.2547 35.2593 18.026 35.81 17.774C36.37 17.5127 36.874 17.2467 37.322 16.976C38.0687 16.5187 38.7547 15.9913 39.38 15.394C40.0147 14.7967 40.57 14.1807 41.046 13.546C41.522 12.9113 41.9 12.2953 42.18 11.698L43.034 13.224C42.698 13.8307 42.2827 14.4373 41.788 15.044C41.3027 15.6507 40.752 16.234 40.136 16.794C39.52 17.3447 38.848 17.844 38.12 18.292C37.6533 18.5813 37.14 18.8613 36.58 19.132C36.0293 19.4027 35.432 19.6453 34.788 19.86C34.1533 20.0747 33.4767 20.2473 32.758 20.378L31.82 18.936ZM54.248 13.672C54.248 14.5773 54.1873 15.3893 54.066 16.108C53.9447 16.8173 53.7347 17.4567 53.436 18.026C53.1373 18.586 52.722 19.09 52.19 19.538C51.658 19.9767 50.9813 20.3827 50.16 20.756L48.97 19.636C49.6233 19.3933 50.1927 19.1227 50.678 18.824C51.1633 18.5253 51.5647 18.1613 51.882 17.732C52.1993 17.2933 52.4327 16.752 52.582 16.108C52.7407 15.464 52.82 14.68 52.82 13.756V10.214C52.82 9.934 52.8107 9.68667 52.792 9.472C52.7827 9.25733 52.7687 9.09867 52.75 8.996H54.332C54.3227 9.09867 54.304 9.25733 54.276 9.472C54.2573 9.68667 54.248 9.934 54.248 10.214V13.672ZM49.208 9.108C49.1987 9.20133 49.18 9.346 49.152 9.542C49.1333 9.738 49.124 9.96667 49.124 10.228V15.296C49.124 15.4827 49.1287 15.6693 49.138 15.856C49.1473 16.0427 49.1567 16.206 49.166 16.346C49.1753 16.486 49.1847 16.5887 49.194 16.654H47.64C47.6493 16.5887 47.6587 16.486 47.668 16.346C47.6773 16.206 47.6867 16.0473 47.696 15.87C47.7053 15.6833 47.71 15.492 47.71 15.296V10.228C47.71 10.0507 47.7007 9.864 47.682 9.668C47.6727 9.472 47.654 9.28533 47.626 9.108H49.208ZM44.882 11.726C44.9473 11.7447 45.05 11.7633 45.19 11.782C45.3393 11.7913 45.512 11.8053 45.708 11.824C45.9133 11.8333 46.1233 11.838 46.338 11.838H55.564C55.9093 11.838 56.194 11.8287 56.418 11.81C56.6513 11.7913 56.8333 11.7727 56.964 11.754V13.238C56.852 13.2287 56.6747 13.2193 56.432 13.21C56.1987 13.2007 55.914 13.196 55.578 13.196H46.338C46.1233 13.196 45.918 13.2007 45.722 13.21C45.526 13.21 45.3533 13.2147 45.204 13.224C45.064 13.2333 44.9567 13.2427 44.882 13.252V11.726ZM65.21 19.692C65.238 19.5707 65.2613 19.4353 65.28 19.286C65.2987 19.1273 65.308 18.9687 65.308 18.81C65.308 18.7073 65.308 18.502 65.308 18.194C65.308 17.8767 65.308 17.494 65.308 17.046C65.308 16.5887 65.308 16.0987 65.308 15.576C65.308 15.044 65.308 14.512 65.308 13.98C65.308 13.4387 65.308 12.9347 65.308 12.468C65.308 12.0013 65.308 11.5953 65.308 11.25C65.308 10.9047 65.308 10.662 65.308 10.522C65.308 10.2327 65.294 9.98533 65.266 9.78C65.238 9.57467 65.224 9.44867 65.224 9.402H66.848C66.848 9.44867 66.834 9.57467 66.806 9.78C66.7873 9.98533 66.778 10.2327 66.778 10.522C66.778 10.662 66.778 10.8953 66.778 11.222C66.778 11.5487 66.778 11.936 66.778 12.384C66.778 12.8227 66.778 13.294 66.778 13.798C66.778 14.2927 66.778 14.7873 66.778 15.282C66.778 15.7673 66.778 16.22 66.778 16.64C66.778 17.06 66.778 17.4147 66.778 17.704C66.778 17.9933 66.778 18.18 66.778 18.264C67.1887 18.0773 67.6227 17.83 68.08 17.522C68.5373 17.2047 68.9853 16.836 69.424 16.416C69.8627 15.996 70.25 15.5387 70.586 15.044L71.44 16.248C71.0387 16.78 70.5673 17.2887 70.026 17.774C69.494 18.2593 68.934 18.7027 68.346 19.104C67.7673 19.5053 67.2073 19.8413 66.666 20.112C66.5353 20.1773 66.428 20.238 66.344 20.294C66.26 20.3593 66.19 20.4153 66.134 20.462L65.21 19.692ZM58.756 19.566C59.3627 19.146 59.8667 18.6373 60.268 18.04C60.6693 17.4333 60.9727 16.808 61.178 16.164C61.2807 15.856 61.36 15.4687 61.416 15.002C61.472 14.5353 61.5093 14.0407 61.528 13.518C61.556 12.986 61.57 12.4633 61.57 11.95C61.5793 11.4367 61.584 10.9793 61.584 10.578C61.584 10.3353 61.5747 10.1253 61.556 9.948C61.5373 9.77067 61.5093 9.60267 61.472 9.444H63.096C63.096 9.48133 63.0867 9.56067 63.068 9.682C63.0587 9.794 63.0493 9.92933 63.04 10.088C63.0307 10.2373 63.026 10.396 63.026 10.564C63.026 10.9653 63.0213 11.4367 63.012 11.978C63.0027 12.51 62.9793 13.0607 62.942 13.63C62.914 14.1993 62.872 14.7407 62.816 15.254C62.7693 15.7673 62.6947 16.1967 62.592 16.542C62.3867 17.3073 62.0693 18.026 61.64 18.698C61.2107 19.37 60.6973 19.958 60.1 20.462L58.756 19.566ZM77.894 13.518C78.3327 13.7793 78.804 14.0733 79.308 14.4C79.812 14.7173 80.316 15.0533 80.82 15.408C81.324 15.7533 81.8 16.0893 82.248 16.416C82.7053 16.7427 83.0973 17.046 83.424 17.326L82.388 18.558C82.0707 18.2687 81.688 17.9467 81.24 17.592C80.8013 17.2373 80.3253 16.8733 79.812 16.5C79.308 16.1267 78.804 15.772 78.3 15.436C77.8053 15.0907 77.348 14.7827 76.928 14.512L77.894 13.518ZM84.376 11.04C84.3107 11.152 84.2407 11.292 84.166 11.46C84.1007 11.6187 84.0447 11.768 83.998 11.908C83.858 12.356 83.6667 12.8507 83.424 13.392C83.1907 13.9333 82.906 14.484 82.57 15.044C82.2433 15.5947 81.8747 16.1267 81.464 16.64C80.82 17.4333 80.0267 18.194 79.084 18.922C78.1507 19.6407 77.0213 20.252 75.696 20.756L74.422 19.636C75.3367 19.356 76.1487 19.0153 76.858 18.614C77.5767 18.2127 78.2113 17.7787 78.762 17.312C79.3127 16.836 79.7933 16.3553 80.204 15.87C80.5493 15.4593 80.8667 15.0113 81.156 14.526C81.4547 14.0407 81.7113 13.5553 81.926 13.07C82.15 12.5847 82.3087 12.146 82.402 11.754H77.404L77.936 10.494H82.192C82.388 10.494 82.5793 10.48 82.766 10.452C82.9527 10.424 83.1113 10.3867 83.242 10.34L84.376 11.04ZM79.7 8.968C79.56 9.17333 79.42 9.39733 79.28 9.64C79.1493 9.88267 79.0467 10.074 78.972 10.214C78.6733 10.7367 78.2907 11.3107 77.824 11.936C77.3667 12.5613 76.8393 13.1773 76.242 13.784C75.6447 14.3813 74.9913 14.9273 74.282 15.422L73.092 14.498C73.904 13.994 74.5993 13.4527 75.178 12.874C75.766 12.2953 76.256 11.7307 76.648 11.18C77.04 10.6293 77.348 10.144 77.572 9.724C77.656 9.584 77.7493 9.39267 77.852 9.15C77.964 8.898 78.048 8.66933 78.104 8.464L79.7 8.968ZM89.262 9.57C89.514 9.738 89.8033 9.948 90.13 10.2C90.4567 10.4427 90.788 10.704 91.124 10.984C91.4693 11.264 91.796 11.5347 92.104 11.796C92.412 12.0573 92.6593 12.2907 92.846 12.496L91.74 13.63C91.5627 13.4433 91.3293 13.2193 91.04 12.958C90.7507 12.6873 90.438 12.412 90.102 12.132C89.7753 11.8427 89.4487 11.572 89.122 11.32C88.7953 11.0587 88.5013 10.8393 88.24 10.662L89.262 9.57ZM87.82 18.936C88.604 18.8147 89.3273 18.656 89.99 18.46C90.6527 18.2547 91.2593 18.026 91.81 17.774C92.37 17.5127 92.874 17.2467 93.322 16.976C94.0687 16.5187 94.7547 15.9913 95.38 15.394C96.0147 14.7967 96.57 14.1807 97.046 13.546C97.522 12.9113 97.9 12.2953 98.18 11.698L99.034 13.224C98.698 13.8307 98.2827 14.4373 97.788 15.044C97.3027 15.6507 96.752 16.234 96.136 16.794C95.52 17.3447 94.848 17.844 94.12 18.292C93.6533 18.5813 93.14 18.8613 92.58 19.132C92.0293 19.4027 91.432 19.6453 90.788 19.86C90.1533 20.0747 89.4767 20.2473 88.758 20.378L87.82 18.936ZM104.578 18.712C104.578 18.5627 104.578 18.292 104.578 17.9C104.578 17.4987 104.578 17.0273 104.578 16.486C104.578 15.9353 104.578 15.366 104.578 14.778C104.578 14.1807 104.578 13.602 104.578 13.042C104.578 12.482 104.578 11.9873 104.578 11.558C104.578 11.1287 104.578 10.816 104.578 10.62C104.578 10.396 104.569 10.1393 104.55 9.85C104.531 9.55133 104.499 9.28533 104.452 9.052H106.174C106.155 9.276 106.132 9.53267 106.104 9.822C106.085 10.1113 106.076 10.3773 106.076 10.62C106.076 10.9373 106.076 11.3387 106.076 11.824C106.076 12.3 106.076 12.818 106.076 13.378C106.076 13.938 106.076 14.5027 106.076 15.072C106.076 15.6413 106.076 16.178 106.076 16.682C106.076 17.1767 106.076 17.606 106.076 17.97C106.076 18.334 106.076 18.5813 106.076 18.712C106.076 18.8613 106.081 19.0433 106.09 19.258C106.099 19.4727 106.113 19.692 106.132 19.916C106.151 20.1307 106.169 20.3267 106.188 20.504H104.466C104.503 20.2613 104.531 19.972 104.55 19.636C104.569 19.2907 104.578 18.9827 104.578 18.712ZM105.754 12.706C106.211 12.8367 106.725 13 107.294 13.196C107.863 13.3827 108.437 13.588 109.016 13.812C109.595 14.0267 110.145 14.2413 110.668 14.456C111.191 14.6707 111.634 14.8667 111.998 15.044L111.368 16.57C110.976 16.3553 110.533 16.1407 110.038 15.926C109.553 15.702 109.053 15.4873 108.54 15.282C108.027 15.0767 107.527 14.89 107.042 14.722C106.566 14.554 106.137 14.4093 105.754 14.288V12.706ZM122.064 10.424C121.971 11.1427 121.849 11.9033 121.7 12.706C121.56 13.4993 121.369 14.288 121.126 15.072C120.846 16.024 120.529 16.8313 120.174 17.494C119.829 18.1473 119.451 18.6467 119.04 18.992C118.629 19.3373 118.195 19.51 117.738 19.51C117.271 19.51 116.837 19.3513 116.436 19.034C116.035 18.7073 115.708 18.2547 115.456 17.676C115.204 17.088 115.078 16.4067 115.078 15.632C115.078 14.848 115.237 14.106 115.554 13.406C115.881 12.706 116.329 12.0853 116.898 11.544C117.467 11.0027 118.13 10.578 118.886 10.27C119.642 9.962 120.459 9.808 121.336 9.808C122.176 9.808 122.932 9.94333 123.604 10.214C124.285 10.4847 124.864 10.8627 125.34 11.348C125.825 11.824 126.194 12.384 126.446 13.028C126.698 13.672 126.824 14.358 126.824 15.086C126.824 16.066 126.619 16.9387 126.208 17.704C125.807 18.46 125.214 19.0807 124.43 19.566C123.646 20.042 122.685 20.364 121.546 20.532L120.72 19.216C120.963 19.188 121.187 19.16 121.392 19.132C121.597 19.0947 121.789 19.0573 121.966 19.02C122.414 18.9173 122.839 18.7587 123.24 18.544C123.651 18.3293 124.015 18.0587 124.332 17.732C124.649 17.396 124.897 17.004 125.074 16.556C125.261 16.108 125.354 15.604 125.354 15.044C125.354 14.484 125.265 13.966 125.088 13.49C124.911 13.0047 124.649 12.5847 124.304 12.23C123.959 11.8753 123.534 11.6 123.03 11.404C122.526 11.1987 121.957 11.096 121.322 11.096C120.557 11.096 119.875 11.2313 119.278 11.502C118.681 11.7727 118.172 12.132 117.752 12.58C117.341 13.0187 117.029 13.4947 116.814 14.008C116.599 14.5213 116.492 15.016 116.492 15.492C116.492 16.024 116.557 16.4673 116.688 16.822C116.819 17.1673 116.982 17.424 117.178 17.592C117.374 17.76 117.575 17.844 117.78 17.844C117.985 17.844 118.195 17.7413 118.41 17.536C118.625 17.3213 118.839 16.9853 119.054 16.528C119.278 16.0707 119.497 15.4873 119.712 14.778C119.927 14.106 120.104 13.392 120.244 12.636C120.393 11.8707 120.501 11.124 120.566 10.396L122.064 10.424ZM128.7 10.522H141.3V11.796H128.7V10.522ZM133.32 13.882H138.822V15.142H133.32V13.882ZM138.332 13.882H139.704C139.704 13.882 139.699 13.924 139.69 14.008C139.69 14.0827 139.685 14.1667 139.676 14.26C139.676 14.344 139.667 14.4233 139.648 14.498C139.564 15.8047 139.471 16.8733 139.368 17.704C139.265 18.5253 139.149 19.1647 139.018 19.622C138.887 20.07 138.729 20.392 138.542 20.588C138.365 20.784 138.169 20.9147 137.954 20.98C137.749 21.0547 137.501 21.106 137.212 21.134C136.951 21.1527 136.605 21.1573 136.176 21.148C135.747 21.148 135.294 21.1387 134.818 21.12C134.809 20.924 134.762 20.7047 134.678 20.462C134.594 20.2193 134.487 20.0047 134.356 19.818C134.851 19.8553 135.317 19.8833 135.756 19.902C136.204 19.9113 136.526 19.916 136.722 19.916C136.881 19.916 137.011 19.9067 137.114 19.888C137.217 19.86 137.31 19.8087 137.394 19.734C137.543 19.6127 137.669 19.342 137.772 18.922C137.884 18.502 137.987 17.9 138.08 17.116C138.173 16.332 138.253 15.3287 138.318 14.106L138.332 13.882ZM132.914 11.25H134.384C134.347 12.006 134.286 12.7667 134.202 13.532C134.127 14.288 133.997 15.0347 133.81 15.772C133.623 16.5093 133.353 17.2187 132.998 17.9C132.653 18.572 132.191 19.1927 131.612 19.762C131.043 20.322 130.324 20.8167 129.456 21.246C129.353 21.0687 129.213 20.8727 129.036 20.658C128.859 20.4527 128.681 20.2847 128.504 20.154C129.325 19.7807 129.997 19.342 130.52 18.838C131.052 18.3247 131.472 17.7647 131.78 17.158C132.088 16.5513 132.317 15.9167 132.466 15.254C132.625 14.5913 132.732 13.924 132.788 13.252C132.844 12.5707 132.886 11.9033 132.914 11.25ZM134.258 8.128H135.616V11.04H134.258V8.128ZM142.672 16.01C142.859 15.8607 143.036 15.7113 143.204 15.562C143.372 15.4033 143.554 15.2213 143.75 15.016C143.927 14.8293 144.123 14.6053 144.338 14.344C144.562 14.0827 144.795 13.8027 145.038 13.504C145.281 13.196 145.519 12.8927 145.752 12.594C145.995 12.2953 146.223 12.02 146.438 11.768C146.877 11.2547 147.306 10.9793 147.726 10.942C148.155 10.8953 148.613 11.1147 149.098 11.6C149.397 11.8893 149.709 12.23 150.036 12.622C150.363 13.0047 150.689 13.392 151.016 13.784C151.343 14.1667 151.651 14.512 151.94 14.82C152.155 15.0627 152.393 15.3287 152.654 15.618C152.925 15.898 153.209 16.192 153.508 16.5C153.816 16.7987 154.129 17.102 154.446 17.41C154.763 17.718 155.085 18.0167 155.412 18.306L154.278 19.608C153.933 19.2813 153.569 18.922 153.186 18.53C152.813 18.1287 152.444 17.7227 152.08 17.312C151.725 16.9013 151.389 16.5187 151.072 16.164C150.773 15.8187 150.465 15.4547 150.148 15.072C149.831 14.68 149.527 14.3113 149.238 13.966C148.949 13.6113 148.692 13.308 148.468 13.056C148.291 12.86 148.132 12.7387 147.992 12.692C147.861 12.636 147.735 12.6453 147.614 12.72C147.493 12.7853 147.357 12.9113 147.208 13.098C147.059 13.294 146.881 13.5227 146.676 13.784C146.471 14.0453 146.256 14.3253 146.032 14.624C145.817 14.9133 145.607 15.1933 145.402 15.464C145.197 15.7347 145.01 15.9727 144.842 16.178C144.693 16.3833 144.543 16.5933 144.394 16.808C144.245 17.0227 144.109 17.2093 143.988 17.368L142.672 16.01Z" fill="#135097"/>
<defs>
<filter id="filter0_d_1_30" x="20.774" y="29.502" width="177.29" height="25.298" filterUnits="userSpaceOnUse" color-interpolation-filters="sRGB">
<feFlood flood-opacity="0" result="BackgroundImageFix"/>
<feColorMatrix in="SourceAlpha" type="matrix" values="0 0 0 0 0 0 0 0 0 0 0 0 0 0 0 0 0 0 127 0" result="hardAlpha"/>
<feOffset/>
<feGaussianBlur stdDeviation="2"/>
<feComposite in2="hardAlpha" operator="out"/>
<feColorMatrix type="matrix" values="0 0 0 0 0 0 0 0 0 0 0 0 0 0 0 0 0 0 0.25 0"/>
<feBlend mode="normal" in2="BackgroundImageFix" result="effect1_dropShadow_1_30"/>
<feBlend mode="normal" in="SourceGraphic" in2="effect1_dropShadow_1_30" result="shape"/>
</filter>
<filter id="filter1_d_1_30" x="200.412" y="29.7636" width="16.2212" height="23.2041" filterUnits="userSpaceOnUse" color-interpolation-filters="sRGB">
<feFlood flood-opacity="0" result="BackgroundImageFix"/>
<feColorMatrix in="SourceAlpha" type="matrix" values="0 0 0 0 0 0 0 0 0 0 0 0 0 0 0 0 0 0 127 0" result="hardAlpha"/>
<feOffset/>
<feGaussianBlur stdDeviation="2"/>
<feComposite in2="hardAlpha" operator="out"/>
<feColorMatrix type="matrix" values="0 0 0 0 0 0 0 0 0 0 0 0 0 0 0 0 0 0 0.25 0"/>
<feBlend mode="normal" in2="BackgroundImageFix" result="effect1_dropShadow_1_30"/>
<feBlend mode="normal" in="SourceGraphic" in2="effect1_dropShadow_1_30" result="shape"/>
</filter>
</defs>
</svg>
