<svg xmlns="http://www.w3.org/2000/svg" width="392" height="92" fill="none"><g clip-path="url(#a)" filter="url(#b)"><rect width="391" height="62" x=".5" y="29.5" fill="#fff" rx="7.5"/><rect width="391" height="62" x=".5" y="29.5" stroke="#fff" rx="7.5"/><path fill="#135097" d="M39.44 71.408c-.368.16-.744.16-1.128 0a1.47 1.47 0 0 1-.84-.768 1.513 1.513 0 0 1-.024-1.152c.144-.4.4-.68.768-.84 2.496-1.12 4.6-2.464 6.312-4.032 1.728-1.568 2.984-3.272 3.768-5.112.352-.8.408-1.4.168-1.8-.24-.416-.832-.624-1.776-.624h-9c-.4 0-.744-.144-1.032-.432a1.49 1.49 0 0 1-.432-1.056c0-.416.144-.768.432-1.056a1.408 1.408 0 0 1 1.032-.432h9.12c1.472 0 2.608.272 3.408.816.816.528 1.296 1.272 1.44 2.232.144.944-.048 2.056-.576 3.336-.944 2.24-2.408 4.304-4.392 6.192-1.968 1.872-4.384 3.448-7.248 4.728Zm14.904-14.496a2.398 2.398 0 0 1-1.728-.696 2.398 2.398 0 0 1-.696-1.728c0-.672.232-1.24.696-1.704.48-.48 1.056-.72 1.728-.72.656 0 1.216.24 1.68.72.48.464.72 1.032.72 1.704 0 .672-.24 1.248-.72 1.728a2.29 2.29 0 0 1-1.68.696Zm0-1.392a.977.977 0 0 0 .72-.288c.208-.208.312-.456.312-.744a.94.94 0 0 0-.312-.72.94.94 0 0 0-.72-.312c-.288 0-.536.104-.744.312a.94.94 0 0 0-.312.72c0 .288.104.536.312.744.208.192.456.288.744.288ZM68.84 69.56c-1.648 0-3.008-.12-4.08-.36-1.056-.24-1.88-.64-2.472-1.2-.592-.56-1.008-1.304-1.248-2.232-.224-.928-.336-2.08-.336-3.456s.112-2.528.336-3.456c.24-.928.656-1.672 1.248-2.232.592-.56 1.416-.96 2.472-1.2 1.072-.24 2.432-.36 4.08-.36 1.664 0 3.024.12 4.08.36s1.88.64 2.472 1.2c.592.56 1 1.304 1.224 2.232.24.928.36 2.08.36 3.456s-.12 2.528-.36 3.456c-.224.928-.632 1.672-1.224 2.232-.592.56-1.416.96-2.472 1.2s-2.416.36-4.08.36Zm0-2.928c1.136 0 2.04-.056 2.712-.168.688-.128 1.208-.344 1.56-.648.368-.304.608-.736.72-1.296.128-.576.192-1.312.192-2.208 0-.896-.064-1.624-.192-2.184-.112-.576-.352-1.016-.72-1.32-.352-.304-.872-.512-1.56-.624-.672-.128-1.576-.192-2.712-.192-1.12 0-2.024.064-2.712.192-.688.112-1.216.32-1.584.624-.352.304-.592.744-.72 1.32-.112.56-.168 1.288-.168 2.184 0 .896.056 1.632.168 2.208.128.56.368.992.72 1.296.368.304.896.52 1.584.648.688.112 1.592.168 2.712.168Zm18.504 4.224c-.4.112-.784.08-1.152-.096a1.485 1.485 0 0 1-.72-.888c-.112-.384-.08-.76.096-1.128a1.38 1.38 0 0 1 .864-.72 21.484 21.484 0 0 0 3.768-1.608 30.748 30.748 0 0 0 7.08-5.184c1.024-.992 1.872-1.984 2.544-2.976.224-.336.536-.544.936-.624.4-.08.768 0 1.104.24.352.224.56.536.624.936.08.4.008.768-.216 1.104-.736 1.088-1.672 2.192-2.808 3.312a36.814 36.814 0 0 1-3.744 3.168c-1.36.992-2.76 1.88-4.2 2.664-1.44.768-2.832 1.368-4.176 1.8Zm3.432-12.216a12.29 12.29 0 0 0-.96-.72c-.4-.288-.816-.568-1.248-.84a10.833 10.833 0 0 0-1.128-.672 1.397 1.397 0 0 1-.696-.888c-.112-.4-.064-.776.144-1.128.208-.368.512-.6.912-.696.4-.096.776-.048 1.128.144.352.192.776.456 1.272.792.512.32 1.008.648 1.488.984.48.336.856.624 1.128.864.304.272.456.616.456 1.032.016.416-.112.776-.384 1.08a1.373 1.373 0 0 1-1.032.456c-.4 0-.76-.136-1.08-.408Zm-2.544 4.44a9.547 9.547 0 0 0-.984-.648 20.564 20.564 0 0 0-1.32-.792 13.867 13.867 0 0 0-1.152-.6 1.382 1.382 0 0 1-.744-.864c-.128-.4-.104-.776.072-1.128a1.38 1.38 0 0 1 .864-.72c.4-.128.776-.104 1.128.072.384.176.832.408 1.344.696.528.288 1.04.592 1.536.912.496.304.888.568 1.176.792.32.256.496.592.528 1.008.032.4-.088.76-.36 1.08-.256.32-.592.496-1.008.528-.4.032-.76-.08-1.08-.336Zm11.4-6.336a.966.966 0 0 1-.744.312.986.986 0 0 1-.72-.36 30.456 30.456 0 0 0-.768-.792c-.288-.32-.56-.6-.816-.84-.16-.144-.248-.344-.264-.6a.912.912 0 0 1 .264-.696.971.971 0 0 1 .648-.288c.256-.016.488.048.696.192.256.176.552.424.888.744.352.304.64.584.864.84a.937.937 0 0 1 .288.744 1.107 1.107 0 0 1-.336.744Zm.648-2.184a21.233 21.233 0 0 0-.792-.744c-.32-.304-.616-.56-.888-.768a.882.882 0 0 1-.312-.6.871.871 0 0 1 .216-.696c.16-.208.36-.32.6-.336.256-.032.496.016.72.144.272.16.584.384.936.672.368.272.68.536.936.792a.94.94 0 0 1 .312.72c.016.288-.072.544-.264.768-.176.208-.416.32-.72.336a.937.937 0 0 1-.744-.288Zm10.824 15.168c-.352 0-.656-.128-.912-.384a1.327 1.327 0 0 1-.384-.936c0-.368.128-.672.384-.912.256-.256.56-.384.912-.384h5.424v-4.008h-3.288c-.352 0-.656-.128-.912-.384a1.327 1.327 0 0 1-.384-.936c0-.368.128-.672.384-.912.256-.256.56-.384.912-.384h9.12c.368 0 .68.128.936.384.256.24.384.544.384.912 0 .352-.128.664-.384.936a1.274 1.274 0 0 1-.936.384h-3.24v4.008h5.472c.368 0 .672.128.912.384.256.24.384.544.384.912 0 .352-.128.664-.384.936-.24.256-.544.384-.912.384h-13.488Zm25.368 2.088c-.384.16-.768.16-1.152 0-.368-.144-.64-.4-.816-.768a1.47 1.47 0 0 1 .768-1.944c2.656-1.168 4.952-2.616 6.888-4.344 1.936-1.728 3.464-3.696 4.584-5.904.272-.512.32-.896.144-1.152-.16-.256-.568-.384-1.224-.384h-3.192a31.544 31.544 0 0 1-2.568 3 20.194 20.194 0 0 1-2.952 2.496 1.41 1.41 0 0 1-1.104.264 1.497 1.497 0 0 1-1.2-1.728c.08-.416.288-.736.624-.96a18.034 18.034 0 0 0 2.616-2.184 23.884 23.884 0 0 0 2.304-2.664c.704-.944 1.256-1.864 1.656-2.76.16-.368.432-.624.816-.768.384-.16.76-.152 1.128.024.368.16.624.432.768.816.16.384.152.76-.024 1.128-.064.16-.144.32-.24.48h1.656c1.904 0 3.168.488 3.792 1.464.64.976.56 2.296-.24 3.96-.816 1.696-1.888 3.304-3.216 4.824a26.614 26.614 0 0 1-4.464 4.104 26.999 26.999 0 0 1-5.352 3Zm28.824.216c-.4 0-.744-.144-1.032-.432a1.408 1.408 0 0 1-.432-1.032V53.984c0-.416.144-.76.432-1.032a1.408 1.408 0 0 1 1.032-.432c.416 0 .768.144 1.056.432.288.272.432.616.432 1.032v5.784c.208-.32.496-.528.864-.624.368-.112.728-.08 1.08.096a34.68 34.68 0 0 1 2.88 1.704c.992.64 1.848 1.264 2.568 1.872.32.256.496.6.528 1.032.048.416-.064.784-.336 1.104a1.49 1.49 0 0 1-1.008.528 1.52 1.52 0 0 1-1.104-.336 27.085 27.085 0 0 0-1.56-1.128c-.576-.4-1.16-.784-1.752-1.152a25.984 25.984 0 0 0-1.584-.984 1.544 1.544 0 0 1-.576-.528v9.216c0 .4-.144.744-.432 1.032-.288.288-.64.432-1.056.432Zm28.512-1.104c-.4.096-.776.04-1.128-.168a1.39 1.39 0 0 1-.672-.888 1.352 1.352 0 0 1 .168-1.08 1.39 1.39 0 0 1 .888-.672c1.776-.464 3.08-1.216 3.912-2.256.848-1.04 1.272-2.36 1.272-3.96 0-1.008-.224-1.912-.672-2.712-.448-.8-1.088-1.448-1.92-1.944-.816-.496-1.8-.8-2.952-.912-.288 2.688-.776 5.016-1.464 6.984-.672 1.952-1.472 3.464-2.4 4.536-.912 1.056-1.872 1.584-2.88 1.584a3.953 3.953 0 0 1-2.328-.744c-.704-.496-1.264-1.208-1.68-2.136-.4-.928-.6-2.04-.6-3.336 0-1.328.248-2.568.744-3.72a9.386 9.386 0 0 1 2.16-3.072 10.123 10.123 0 0 1 3.264-2.064c1.264-.496 2.648-.744 4.152-.744 1.824 0 3.44.352 4.848 1.056 1.424.688 2.544 1.656 3.36 2.904.816 1.232 1.224 2.672 1.224 4.32 0 2.32-.624 4.256-1.872 5.808-1.232 1.536-3.04 2.608-5.424 3.216Zm-7.824-4.44c.288 0 .616-.24.984-.72.384-.496.768-1.192 1.152-2.088.384-.896.736-1.952 1.056-3.168.32-1.232.56-2.592.72-4.08-1.248.24-2.296.704-3.144 1.392a6.531 6.531 0 0 0-1.92 2.424 7.126 7.126 0 0 0-.672 2.928c0 1.088.168 1.912.504 2.472.352.56.792.84 1.32.84Zm34.488 5.592c-1.312 0-2.344-.144-3.096-.432-.736-.272-1.264-.744-1.584-1.416-.304-.688-.456-1.624-.456-2.808V56.48c0-1.184.152-2.112.456-2.784.32-.688.848-1.168 1.584-1.44.752-.288 1.784-.432 3.096-.432s2.336.144 3.072.432c.752.272 1.28.752 1.584 1.44.32.672.48 1.6.48 2.784v10.944c0 1.184-.16 2.12-.48 2.808-.304.672-.832 1.144-1.584 1.416-.736.288-1.76.432-3.072.432Zm-10.2.888c-.384 0-.712-.128-.984-.384-.256-.24-.384-.568-.384-.984v-7.752a56.286 56.286 0 0 1-1.056 1.752c-.352.544-.68 1.024-.984 1.44-.24.32-.552.52-.936.6a1.287 1.287 0 0 1-1.056-.288 1.267 1.267 0 0 1-.528-.888c-.048-.384.048-.72.288-1.008.32-.4.68-.904 1.08-1.512s.8-1.256 1.2-1.944c.416-.704.8-1.376 1.152-2.016.352-.656.632-1.216.84-1.68v-.12h-2.976c-.384 0-.688-.12-.912-.36a1.252 1.252 0 0 1-.336-.888c0-.336.112-.624.336-.864.224-.256.528-.384.912-.384h2.976V52.16c0-.416.128-.744.384-.984.272-.256.6-.384.984-.384.368 0 .68.128.936.384.272.24.408.568.408.984v3.528h1.824c.368 0 .664.128.888.384.224.24.336.528.336.864 0 .352-.112.648-.336.888-.224.24-.52.36-.888.36h-1.824v1.632l.984 1.104 1.224 1.272c.416.4.736.712.96.936.272.256.416.56.432.912a1.28 1.28 0 0 1-.336.936c-.24.256-.544.384-.912.384-.352 0-.648-.128-.888-.384-.176-.192-.4-.432-.672-.72-.256-.304-.52-.608-.792-.912V71.6c0 .416-.136.744-.408.984a1.274 1.274 0 0 1-.936.384Zm7.824-9.384h4.752v-3.456h-4.752v3.456Zm2.376 5.976c.656 0 1.152-.064 1.488-.192.336-.128.568-.344.696-.648.128-.32.192-.768.192-1.344v-1.344h-4.752v1.344c0 .576.056 1.024.168 1.344.128.304.36.52.696.648.352.128.856.192 1.512.192Zm-2.376-11.88h4.752v-1.152c0-.576-.064-1.016-.192-1.32a1.08 1.08 0 0 0-.696-.648c-.336-.128-.832-.192-1.488-.192s-1.16.064-1.512.192a1.08 1.08 0 0 0-.696.648c-.112.304-.168.744-.168 1.32v1.152Zm21.12 15.216c-.4.16-.784.184-1.152.072-.368-.096-.64-.336-.816-.72a1.224 1.224 0 0 1-.024-1.032c.16-.352.416-.592.768-.72.96-.352 1.752-.744 2.376-1.176a5.153 5.153 0 0 0 1.512-1.608c.368-.624.624-1.384.768-2.28.16-.896.24-1.976.24-3.24 0-.4.128-.712.384-.936a1.33 1.33 0 0 1 .936-.312c.368 0 .68.12.936.36.256.224.376.544.36.96-.032.784-.08 1.512-.144 2.184.368 1.312.968 2.456 1.8 3.432.832.96 1.96 1.752 3.384 2.376.368.16.608.408.72.744.112.352.08.712-.096 1.08a1.383 1.383 0 0 1-.888.72c-.384.112-.76.072-1.128-.12-1.072-.56-2-1.2-2.784-1.92a9.891 9.891 0 0 1-1.92-2.568c-.48 1.12-1.144 2.048-1.992 2.784-.848.72-1.928 1.36-3.24 1.92Zm.672-10.512c-.352.16-.72.2-1.104.12a1.225 1.225 0 0 1-.816-.672c-.16-.336-.184-.664-.072-.984.128-.336.376-.584.744-.744 1.12-.48 1.976-1.064 2.568-1.752.608-.688 1.024-1.544 1.248-2.568.24-1.04.368-2.296.384-3.768 0-.4.136-.712.408-.936a1.33 1.33 0 0 1 .936-.312c.368.016.672.136.912.36.256.224.376.544.36.96-.016.432-.04.848-.072 1.248-.016.384-.048.76-.096 1.128a7.435 7.435 0 0 0 1.8 3.144c.848.88 1.968 1.64 3.36 2.28.32.144.528.384.624.72.096.336.048.672-.144 1.008-.192.352-.472.568-.84.648-.368.08-.736.04-1.104-.12-2.048-1.008-3.584-2.408-4.608-4.2a8.04 8.04 0 0 1-1.752 2.568c-.736.704-1.648 1.328-2.736 1.872Zm-6.312 10.056c-.896 0-1.608-.104-2.136-.312a1.806 1.806 0 0 1-1.08-1.056c-.208-.512-.312-1.24-.312-2.184 0-.976.104-1.72.312-2.232a1.727 1.727 0 0 1 1.08-1.032c.528-.192 1.24-.288 2.136-.288.912 0 1.624.096 2.136.288.512.176.872.52 1.08 1.032.208.512.312 1.256.312 2.232 0 .944-.104 1.672-.312 2.184a1.806 1.806 0 0 1-1.08 1.056c-.512.208-1.224.312-2.136.312Zm-3.48-14.976c-.304 0-.568-.112-.792-.336a1.126 1.126 0 0 1-.312-.792c0-.304.104-.56.312-.768.224-.224.488-.336.792-.336h6.576c.304 0 .56.112.768.336.224.208.336.464.336.768s-.112.568-.336.792a1.007 1.007 0 0 1-.768.336h-6.576Zm1.08-3.36c-.304 0-.568-.112-.792-.336a1.164 1.164 0 0 1-.336-.816c0-.32.112-.592.336-.816.224-.224.488-.336.792-.336h4.632c.32 0 .584.112.792.336.224.224.336.496.336.816 0 .304-.112.576-.336.816a1.034 1.034 0 0 1-.792.336h-4.632Zm-.024 10.128c-.304 0-.568-.112-.792-.336a1.083 1.083 0 0 1-.336-.792c0-.32.112-.584.336-.792.224-.224.488-.336.792-.336h4.68c.32 0 .584.112.792.336.208.208.312.472.312.792 0 .304-.104.568-.312.792a1.034 1.034 0 0 1-.792.336h-4.68Zm0-3.384c-.304 0-.568-.112-.792-.336a1.083 1.083 0 0 1-.336-.792c0-.32.112-.584.336-.792.224-.224.488-.336.792-.336h4.68c.32 0 .584.112.792.336.208.208.312.472.312.792 0 .304-.104.568-.312.792a1.034 1.034 0 0 1-.792.336h-4.68Zm7.992 7.104c-.352-.096-.6-.288-.744-.576a1.19 1.19 0 0 1-.048-.936c.08-.24.168-.528.264-.864.096-.352.192-.696.288-1.032.112-.352.192-.632.24-.84.08-.368.264-.632.552-.792.288-.16.6-.2.936-.12.336.064.592.232.768.504.192.272.248.592.168.96a21.265 21.265 0 0 1-.528 1.992c-.096.352-.184.64-.264.864a1.243 1.243 0 0 1-.648.768c-.304.16-.632.184-.984.072Zm.12-10.536c-.352-.08-.6-.264-.744-.552a1.266 1.266 0 0 1-.072-.936c.08-.24.168-.528.264-.864.096-.352.184-.704.264-1.056.096-.352.16-.632.192-.84.08-.368.256-.632.528-.792.288-.16.608-.208.96-.144.336.064.6.224.792.48.192.256.248.568.168.936-.048.256-.12.568-.216.936-.08.368-.168.728-.264 1.08-.08.352-.16.648-.24.888-.112.352-.32.608-.624.768-.304.16-.64.192-1.008.096Zm8.04-.576a1.166 1.166 0 0 1-.6-.696c-.08-.32-.04-.632.12-.936.144-.288.328-.672.552-1.152.24-.48.432-.872.576-1.176.144-.32.368-.536.672-.648.32-.112.648-.096.984.048.32.128.536.344.648.648.128.288.12.6-.024.936-.08.192-.192.448-.336.768-.144.304-.296.616-.456.936-.144.304-.272.56-.384.768a1.256 1.256 0 0 1-.768.6 1.32 1.32 0 0 1-.984-.096Zm.024 10.464a1.254 1.254 0 0 1-.6-.744c-.08-.32-.04-.632.12-.936.16-.272.344-.632.552-1.08.224-.464.408-.84.552-1.128.144-.336.368-.56.672-.672.32-.128.648-.12.984.024.32.128.544.344.672.648.128.288.12.608-.024.96a24.219 24.219 0 0 1-.792 1.656c-.144.288-.272.536-.384.744-.16.32-.416.528-.768.624a1.32 1.32 0 0 1-.984-.096Zm-13.752 2.904c.432 0 .712-.08.84-.24.128-.16.192-.52.192-1.08s-.064-.92-.192-1.08c-.128-.176-.408-.264-.84-.264-.416 0-.696.088-.84.264-.128.16-.192.52-.192 1.08s.064.92.192 1.08c.144.16.424.24.84.24Zm36.384 1.872c-2.144.304-3.952.416-5.424.336-1.472-.064-2.656-.28-3.552-.648-.88-.368-1.52-.856-1.92-1.464a3.83 3.83 0 0 1-.6-2.112c0-1.2.48-2.32 1.44-3.36.976-1.04 2.384-1.952 4.224-2.736a1.884 1.884 0 0 0-.936-.648c-.8-.24-1.592-.152-2.376.264-.768.416-1.52 1.024-2.256 1.824-.272.288-.632.448-1.08.48-.432.016-.784-.12-1.056-.408a1.493 1.493 0 0 1-.36-1.056c.032-.4.2-.728.504-.984.784-.672 1.472-1.4 2.064-2.184a14.642 14.642 0 0 0 1.536-2.424l-1.944.048a42.27 42.27 0 0 1-1.536-.024c-.4 0-.736-.136-1.008-.408a1.45 1.45 0 0 1-.408-1.032c.016-.4.168-.728.456-.984a1.41 1.41 0 0 1 1.032-.36c.56.016 1.232.024 2.016.024l2.496-.048c.08-.304.152-.6.216-.888.064-.288.12-.576.168-.864.064-.4.24-.72.528-.96.288-.256.632-.36 1.032-.312.4.048.72.224.96.528.24.304.336.656.288 1.056a4.883 4.883 0 0 1-.096.648c-.048.224-.104.448-.168.672.608-.032 1.176-.064 1.704-.096.528-.048 1-.104 1.416-.168.4-.048.752.048 1.056.288.32.224.504.536.552.936.048.4-.056.752-.312 1.056-.24.304-.552.472-.936.504-.592.064-1.272.12-2.04.168-.768.048-1.568.088-2.4.12-.352.784-.736 1.52-1.152 2.208.384-.08.752-.104 1.104-.072a4.15 4.15 0 0 1 1.008.168c.48.128.944.352 1.392.672.464.304.872.736 1.224 1.296a40.599 40.599 0 0 1 2.496-.624c.896-.192 1.84-.36 2.832-.504a1.33 1.33 0 0 1 1.056.264c.32.224.504.536.552.936a1.3 1.3 0 0 1-.264 1.056c-.24.304-.56.488-.96.552a32.16 32.16 0 0 0-2.568.408c-.784.144-1.512.304-2.184.48.08.432.144.904.192 1.416.048.512.072 1.064.072 1.656 0 .4-.144.744-.432 1.032a1.37 1.37 0 0 1-1.008.408c-.4 0-.736-.136-1.008-.408a1.45 1.45 0 0 1-.408-1.032c0-.816-.048-1.544-.144-2.184-1.312.544-2.264 1.128-2.856 1.752-.576.608-.864 1.2-.864 1.776 0 .432.256.784.768 1.056s1.368.424 2.568.456c1.2.032 2.84-.088 4.92-.36a1.41 1.41 0 0 1 1.056.288c.32.224.504.536.552.936.048.384-.048.728-.288 1.032-.24.304-.552.488-.936.552Zm16.776.6a1.81 1.81 0 0 1-1.128-.024 1.305 1.305 0 0 1-.792-.696 1.527 1.527 0 0 1-.048-1.128c.128-.384.376-.648.744-.792 1.216-.464 2.16-.984 2.832-1.56.672-.576 1.144-1.24 1.416-1.992-.544.256-1.08.384-1.608.384-1.264 0-2.296-.32-3.096-.96-.8-.656-1.2-1.616-1.2-2.88 0-1.264.416-2.256 1.248-2.976.832-.72 1.88-1.08 3.144-1.08a1.9 1.9 0 0 1 .312.024c.096 0 .2.008.312.024a13.26 13.26 0 0 1-.12-.84l-.048-.912c-1.6.064-3.176.16-4.728.288a185.73 185.73 0 0 0-4.296.36 1.478 1.478 0 0 1-1.032-.288 1.366 1.366 0 0 1-.528-.936c-.032-.4.072-.752.312-1.056.24-.304.552-.464.936-.48 1.36-.112 2.84-.208 4.44-.288 1.6-.096 3.224-.176 4.872-.24v-2.064c0-.4.136-.736.408-1.008a1.37 1.37 0 0 1 1.008-.408c.416 0 .76.136 1.032.408.272.272.408.608.408 1.008v1.968c1.328-.032 2.6-.056 3.816-.072 1.216-.032 2.336-.056 3.36-.072.4 0 .728.144.984.432.272.288.4.624.384 1.008-.016.4-.168.728-.456.984-.272.256-.608.376-1.008.36-2.048-.08-4.408-.08-7.08 0 .016.56.04 1.12.072 1.68.048.56.088 1.096.12 1.608.768.912 1.152 2.152 1.152 3.72 0 2-.528 3.752-1.584 5.256-1.04 1.504-2.56 2.584-4.56 3.24Zm1.416-8.28c.464-.016.824-.136 1.08-.36.272-.24.408-.584.408-1.032 0-.128-.016-.272-.048-.432-.016-.16-.04-.32-.072-.48-.336-.4-.776-.6-1.32-.6a1.72 1.72 0 0 0-1.152.408c-.304.256-.456.616-.456 1.08 0 .464.144.824.432 1.08.304.24.68.352 1.128.336Zm25.416 7.632c-1.456-.032-2.608-.384-3.456-1.056-.832-.672-1.232-1.592-1.2-2.76.032-.688.224-1.288.576-1.8a3.353 3.353 0 0 1 1.488-1.152c.624-.272 1.336-.368 2.136-.288 1.28.112 2.176.552 2.688 1.32.512.752.664 1.616.456 2.592a3.475 3.475 0 0 0 1.368-1.176c.368-.528.552-1.208.552-2.04 0-.624-.184-1.184-.552-1.68-.352-.512-.856-.904-1.512-1.176-.64-.288-1.384-.408-2.232-.36-.848.048-1.76.304-2.736.768-.976.448-1.976 1.168-3 2.16-.288.272-.648.408-1.08.408a1.394 1.394 0 0 1-1.056-.504 1.46 1.46 0 0 1-.36-1.032c.032-.4.2-.712.504-.936a77.325 77.325 0 0 0 2.976-2.376c.992-.848 1.936-1.68 2.832-2.496a75.757 75.757 0 0 0 2.4-2.232c.432-.416.576-.76.432-1.032-.128-.272-.472-.368-1.032-.288-.544.064-1.168.144-1.872.24-.688.096-1.336.184-1.944.264a1.33 1.33 0 0 1-1.056-.264c-.32-.24-.504-.56-.552-.96a1.262 1.262 0 0 1 .264-1.032c.24-.32.56-.512.96-.576.352-.048.792-.096 1.32-.144a664.45 664.45 0 0 1 1.656-.144l1.464-.12c1.04-.08 1.888.056 2.544.408.656.352 1.104.832 1.344 1.44.24.592.248 1.24.024 1.944-.208.704-.664 1.368-1.368 1.992-.32.272-.728.624-1.224 1.056-.48.432-.976.872-1.488 1.32a7.112 7.112 0 0 1 2.664-.024 5.626 5.626 0 0 1 2.304.912 4.935 4.935 0 0 1 1.632 1.848c.4.752.6 1.64.6 2.664 0 1.456-.32 2.664-.96 3.624-.64.944-1.52 1.632-2.64 2.064-1.12.448-2.408.656-3.864.624Zm-.432-2.664h.144c.048 0 .104.008.168.024.08 0 .168-.008.264-.024.224-.528.264-.968.12-1.32-.144-.352-.432-.56-.864-.624-.384-.048-.704.008-.96.168-.24.144-.376.384-.408.72-.016.64.496.992 1.536 1.056Z"/><path fill="#135097" stroke="#135097" d="m349.286 58.676-5.371-5.035a.906.906 0 1 1 1.263-1.3l7.064 7.101c.583.585.583 1.53 0 2.116l-7.064 7.102a.907.907 0 1 1-1.263-1.301l5.371-5.035a2.5 2.5 0 0 0 0-3.648Z"/><path fill="#2A84BF" d="M8 .5h304a7.5 7.5 0 0 1 7.5 7.5v23a7.5 7.5 0 0 1-7.5 7.5H.5V8A7.5 7.5 0 0 1 8 .5Z"/><path stroke="#fff" d="M8 .5h304a7.5 7.5 0 0 1 7.5 7.5v23a7.5 7.5 0 0 1-7.5 7.5H.5V8A7.5 7.5 0 0 1 8 .5Z"/><path fill="#fff" d="M18.97 14.472c.63.072 1.476.108 2.07.108h8.964c.468 0 1.098-.018 1.44-.036-.018.414-.054 1.044-.054 1.512v9.306c0 .648.054 1.512.072 1.908H29.41c.018-.378.036-1.044.036-1.692v-9.18h-8.388c-.702 0-1.638.036-2.088.072v-1.998Zm-.234 9.864c.54.054 1.332.108 2.106.108h9.684v1.854h-9.63c-.72 0-1.62.036-2.16.09v-2.052Zm19.458-10.728c1.26.846 3.582 2.718 4.608 3.762l-1.44 1.458c-.918-.972-3.168-2.916-4.5-3.816l1.332-1.404ZM36.34 25.632a18.73 18.73 0 0 0 7.056-2.502c2.916-1.782 5.166-4.482 6.246-6.804l1.098 1.98c-1.278 2.322-3.51 4.788-6.3 6.516-1.818 1.116-4.104 2.178-6.912 2.682l-1.188-1.872Zm28.836-6.75c0 4.644-1.062 7.218-5.274 9.09l-1.512-1.44c3.366-1.224 4.95-2.772 4.95-7.56v-4.554c0-.702-.054-1.296-.108-1.548h2.052c-.036.252-.108.846-.108 1.548v4.464Zm-6.498-5.886c-.036.252-.09.792-.09 1.44v6.534c0 .72.054 1.494.072 1.746h-1.998c.036-.252.09-1.008.09-1.746v-6.534c0-.432-.036-.972-.09-1.44h2.016Zm-5.544 3.384c.216.036 1.044.144 1.854.144h11.88c.864 0 1.44-.054 1.8-.108v1.89a28.902 28.902 0 0 0-1.8-.054h-11.88c-.828 0-1.566.054-1.854.072V16.38Zm26.118 10.242a5.29 5.29 0 0 0 .144-1.152V14.814c0-.738-.108-1.332-.126-1.422h2.106c-.018.09-.108.702-.108 1.44v9.954c1.584-.702 3.6-2.25 4.914-4.158l1.08 1.566c-1.53 2.034-4.068 3.924-6.12 4.95-.342.18-.54.342-.684.468l-1.206-.99Zm-8.28-.162c1.548-1.098 2.574-2.718 3.096-4.374.522-1.602.54-5.112.54-7.2 0-.612-.054-1.044-.144-1.458h2.088c-.018.162-.108.81-.108 1.44 0 2.052-.054 5.886-.54 7.704a10.265 10.265 0 0 1-3.204 5.022l-1.728-1.134Zm24.606-7.776c2.268 1.314 5.382 3.474 7.11 4.878l-1.35 1.602c-1.62-1.512-4.842-3.852-7.02-5.202l1.26-1.278Zm8.334-3.186a6.16 6.16 0 0 0-.504 1.098c-.54 1.764-1.656 4.104-3.258 6.084-1.656 2.052-3.996 4.014-7.416 5.292l-1.638-1.422c3.528-1.08 5.85-2.988 7.452-4.86 1.314-1.548 2.43-3.744 2.808-5.292h-6.408l.684-1.62h5.454c.522 0 1.008-.072 1.35-.18l1.476.9ZM97.9 12.816c-.378.54-.756 1.242-.954 1.602-1.134 2.07-3.276 4.806-6.03 6.696l-1.512-1.17c3.114-1.944 4.878-4.536 5.742-6.156.234-.36.558-1.08.684-1.62l2.07.648Zm12.294.792c1.26.846 3.582 2.718 4.608 3.762l-1.44 1.458c-.918-.972-3.168-2.916-4.5-3.816l1.332-1.404Zm-1.854 12.024a18.73 18.73 0 0 0 7.056-2.502c2.916-1.782 5.166-4.482 6.246-6.804l1.098 1.98c-1.278 2.322-3.51 4.788-6.3 6.516-1.818 1.116-4.104 2.178-6.912 2.682l-1.188-1.872Zm21.528-.27V14.94c0-.558-.036-1.404-.144-1.998h2.214a17.99 17.99 0 0 0-.144 1.998c0 2.448.018 9.36.018 10.422 0 .54.054 1.638.126 2.304h-2.214c.108-.648.144-1.62.144-2.304Zm1.512-7.722c2.394.684 6.138 2.07 8.028 3.006l-.792 1.944c-2.052-1.08-5.274-2.304-7.236-2.934V17.64Zm19.098-4.95c-.144.684-.36 1.692-.846 2.952-.414.99-1.026 2.124-1.638 2.97.594-.324 1.602-.522 2.304-.522 1.44 0 2.538.846 2.538 2.412 0 .936.054 2.97.072 4.086h-1.728c.072-.9.09-2.628.072-3.564 0-1.098-.72-1.53-1.584-1.53-1.08 0-2.214.576-2.97 1.278-.54.522-1.044 1.17-1.656 1.926l-1.53-1.134c2.484-2.34 3.762-4.356 4.428-6.084.378-.99.612-2.07.666-2.952l1.872.162Zm-6.426 1.818c.936.126 2.232.198 3.096.198 2.394 0 5.58-.144 8.154-.594l-.018 1.656c-2.52.378-5.994.522-8.244.522-.756 0-1.998-.036-2.988-.108v-1.674Zm13.968 4.68c-.504.144-1.296.45-1.836.648-1.224.486-2.898 1.152-4.626 2.034-1.71.9-2.808 1.782-2.808 2.916 0 1.224 1.152 1.458 2.97 1.458 1.458 0 3.42-.18 5.004-.468l-.054 1.836a46.098 46.098 0 0 1-5.004.306c-2.682 0-4.752-.612-4.752-2.862 0-2.322 2.376-3.726 4.536-4.824 1.674-.882 2.988-1.386 4.14-1.908.612-.27 1.134-.504 1.71-.81l.72 1.674Zm9.558-6.66a13.61 13.61 0 0 0-.126 1.386 110.692 110.692 0 0 0-.144 5.4c0 1.908.09 4.86.09 5.94 0 1.908-.684 2.466-1.764 2.466-1.548 0-3.942-1.422-3.942-3.168 0-1.656 2.178-3.384 4.536-4.248 1.602-.612 3.402-.918 4.806-.918 2.7 0 4.716 1.422 4.716 3.726 0 2.16-1.26 3.636-3.906 4.284-.81.18-1.602.216-2.286.252l-.648-1.818c.738 0 1.512 0 2.16-.126 1.53-.288 2.844-1.08 2.844-2.592 0-1.404-1.26-2.178-2.898-2.178-1.566 0-3.096.342-4.572.936-1.692.648-2.988 1.746-2.988 2.61 0 .702 1.08 1.314 1.674 1.314.378 0 .63-.216.63-.828 0-.99-.108-3.492-.108-5.58 0-2.052.054-4.68.054-5.454 0-.36-.054-1.098-.108-1.404h1.98Zm5.4 1.98c1.314.666 3.33 1.872 4.248 2.574l-.882 1.458c-.882-.792-3.042-2.088-4.176-2.664l.81-1.368Zm-10.908 1.116c1.026.126 1.728.144 2.376.144 1.818 0 4.644-.36 6.462-.9l.054 1.764c-1.944.45-4.86.81-6.462.81-1.098 0-1.782-.018-2.394-.09l-.036-1.728Zm22.356 5.508h10.692v1.53h-10.692v-1.53Zm5.922-6.444h1.53v2.952c0 .396.072.45.468.45h1.206c.36 0 .432-.18.468-1.494.306.252.936.468 1.368.576-.162 1.818-.576 2.286-1.656 2.286h-1.62c-1.458 0-1.764-.432-1.764-1.818v-2.952Zm-5.688-1.962h10.368v3.366h-1.53v-1.89h-7.362v1.962h-1.476v-3.438Zm4.212 6.516h1.674v9.27h-1.674v-9.27Zm-1.404-4.518h1.548c-.162 2.772-.81 4.32-3.906 5.148-.144-.36-.54-.936-.846-1.206 2.628-.63 3.078-1.746 3.204-3.942Zm3.6 7.128c.936 1.818 2.772 3.636 4.572 4.554-.36.306-.882.9-1.152 1.332-1.872-1.134-3.69-3.24-4.734-5.4l1.314-.486Zm-2.646-.144 1.332.45c-1.098 2.43-3.06 4.572-5.274 5.688-.252-.396-.738-.99-1.098-1.296 2.106-.918 4.068-2.808 5.04-4.842Zm-9.99-.684c1.422-.36 3.546-.99 5.58-1.602l.234 1.548a262.758 262.758 0 0 1-5.4 1.692l-.414-1.638Zm.27-5.67h5.49v1.566h-5.49v-1.566Zm2.106-3.528h1.566V26.64c0 .864-.162 1.314-.666 1.566-.468.27-1.206.324-2.358.324a6.506 6.506 0 0 0-.468-1.584c.738.036 1.404.036 1.62.018.216 0 .306-.072.306-.324V11.826Zm21.546 1.044c-.09.666-.162 1.422-.198 2.07-.072 1.998-.216 6.156-.216 8.64 0 1.908 1.17 2.556 2.754 2.556 3.15 0 5.022-1.782 6.318-3.69l1.296 1.548c-1.206 1.728-3.636 4.05-7.65 4.05-2.754 0-4.59-1.17-4.59-4.176 0-2.556.18-7.182.18-8.928 0-.738-.054-1.476-.18-2.088l2.286.018Zm21.996 1.836c-.234 1.854-.594 3.96-1.188 5.958-1.098 3.672-2.574 5.724-4.374 5.724-1.782 0-3.402-1.998-3.402-5.004 0-4.014 3.528-7.488 8.046-7.488 4.32 0 7.056 3.024 7.056 6.804 0 3.78-2.412 6.372-6.804 6.984l-1.062-1.674c.63-.072 1.152-.162 1.602-.252 2.304-.54 4.374-2.232 4.374-5.13 0-2.862-1.89-5.076-5.202-5.076-3.906 0-6.21 3.186-6.21 5.67 0 2.07.9 3.024 1.656 3.024.81 0 1.656-1.188 2.502-3.96.522-1.71.918-3.762 1.098-5.634l1.908.054Zm16.56-1.26c-1.458 2.268-4.32 4.95-7.362 6.714-.216-.396-.702-1.008-1.08-1.368 3.132-1.692 6.102-4.626 7.488-7.038h1.746c1.908 2.844 4.986 5.472 7.866 6.822-.414.432-.828 1.008-1.152 1.512-2.808-1.602-5.904-4.302-7.506-6.642Zm.126 7.38h5.994v1.53h-5.994v-1.53Zm-7.704 5.652h15.372v1.548h-15.372v-1.548Zm6.858-9.72h1.8v10.53h-1.8v-10.53Zm-4.716 3.204h1.674v7.29h-1.674v-7.29Zm15.606 2.916h15.894V24.3H251.08v-1.422Zm.054-7.974h15.768v1.422h-15.768v-1.422Zm.738 3.15h14.364v1.368h-14.364v-1.368Zm.9 2.448h12.6v1.278h-12.6v-1.278Zm5.346-1.782h1.692v9.81h-1.692v-9.81Zm-1.62-6.93h1.602v3.798h-1.602V11.79Zm3.384 0h1.62v3.708h-1.62V11.79Zm-2.178 11.7 1.35.612c-1.692 1.872-4.662 3.42-7.38 4.158-.234-.414-.738-1.08-1.098-1.422 2.682-.576 5.616-1.872 7.128-3.348Zm2.538-.054c1.494 1.53 4.428 2.808 7.2 3.33-.396.36-.9 1.062-1.152 1.53-2.79-.738-5.688-2.34-7.38-4.302l1.332-.558Zm3.798-11.448 1.764.45c-.54.99-1.17 1.998-1.656 2.7l-1.386-.45c.45-.738 1.008-1.89 1.278-2.7Zm-2.394 3.834 1.782.432c-.468.828-.936 1.638-1.314 2.214l-1.44-.414c.342-.648.774-1.584.972-2.232Zm-9.126-3.366 1.458-.504c.576.792 1.206 1.89 1.458 2.61l-1.53.576c-.234-.72-.846-1.854-1.386-2.682Zm2.322 3.96 1.638-.288c.36.558.738 1.314.9 1.836l-1.71.324a8.781 8.781 0 0 0-.828-1.872Zm20.286-2.448h9.846v1.368h-9.846v-1.368Zm.504 2.394h8.946v1.314h-8.946v-1.314Zm-.864 2.43h10.494v1.422h-10.494v-1.422Zm7.452-7.002 1.692.432c-.468.81-.954 1.638-1.332 2.178l-1.332-.396c.342-.63.774-1.584.972-2.214Zm-5.832.522 1.35-.45c.432.63.882 1.494 1.062 2.052l-1.422.522c-.162-.558-.576-1.458-.99-2.124Zm7.416 8.406 1.296.918a25.264 25.264 0 0 1-2.466 2.394l-1.098-.846c.702-.63 1.71-1.692 2.268-2.466Zm-8.55.828 1.17-.756c.684.684 1.476 1.638 1.836 2.286l-1.224.864c-.342-.666-1.116-1.656-1.782-2.394Zm-1.188 4.5c1.116-.522 2.772-1.386 4.374-2.25l.45 1.368c-1.368.81-2.862 1.656-4.05 2.322l-.774-1.44Zm5.13-11.142h1.638V26.73c0 .846-.144 1.278-.666 1.53-.522.27-1.368.288-2.484.288-.054-.432-.252-1.116-.468-1.53.72.018 1.458.018 1.692.018.234 0 .288-.09.288-.306V14.904Zm1.548 5.742c.828 2.556 2.502 4.752 4.86 5.706-.36.324-.846.936-1.098 1.368-2.376-1.242-4.014-3.78-4.896-6.804l1.134-.27Zm-11.88-5.004h5.904v1.584h-5.904v-1.584Zm2.394-3.834h1.548v16.704h-1.548V11.808Zm-.036 4.86.99.324c-.54 2.862-1.656 6.372-2.934 8.19-.162-.45-.54-1.098-.792-1.476 1.17-1.602 2.268-4.608 2.736-7.038Zm1.494 1.422c.396.504 1.908 2.79 2.232 3.312l-.918 1.242c-.396-.972-1.584-3.078-2.052-3.852l.738-.702Zm14.13 3.798c.486-.378.9-.756 1.404-1.278.9-.936 2.358-2.898 3.438-4.176 1.152-1.314 2.178-1.476 3.42-.234 1.152 1.134 2.556 2.952 3.672 4.158 1.116 1.224 2.79 2.988 4.446 4.464l-1.458 1.692c-1.332-1.26-2.916-3.06-4.104-4.428-1.152-1.332-2.52-3.06-3.348-3.996-.72-.774-1.062-.666-1.638.054-.792.99-2.178 2.88-3.024 3.96a47.55 47.55 0 0 0-1.098 1.53l-1.71-1.746Z"/></g><defs><clipPath id="a"><path fill="#fff" d="M0 0h392v92H0z"/></clipPath><filter id="b" width="480" height="194" x="-44" y="-34" color-interpolation-filters="sRGB" filterUnits="userSpaceOnUse"><feFlood flood-opacity="0" result="BackgroundImageFix"/><feColorMatrix in="SourceAlpha" result="hardAlpha" values="0 0 0 0 0 0 0 0 0 0 0 0 0 0 0 0 0 0 127 0"/><feOffset dy="24"/><feGaussianBlur stdDeviation="22"/><feComposite in2="hardAlpha" operator="out"/><feColorMatrix values="0 0 0 0 0 0 0 0 0 0 0 0 0 0 0 0 0 0 0.05 0"/><feBlend in2="BackgroundImageFix" result="effect1_dropShadow_2082_4404"/><feColorMatrix in="SourceAlpha" result="hardAlpha" values="0 0 0 0 0 0 0 0 0 0 0 0 0 0 0 0 0 0 127 0"/><feOffset/><feGaussianBlur stdDeviation="17"/><feComposite in2="hardAlpha" operator="out"/><feColorMatrix values="0 0 0 0 0 0 0 0 0 0 0 0 0 0 0 0 0 0 0.05 0"/><feBlend in2="effect1_dropShadow_2082_4404" result="effect2_dropShadow_2082_4404"/><feBlend in="SourceGraphic" in2="effect2_dropShadow_2082_4404" result="shape"/></filter></defs></svg>