<svg width="152" height="51" viewBox="0 0 152 51" fill="none" xmlns="http://www.w3.org/2000/svg">
<path d="M0.5 8C0.5 3.85786 3.85786 0.5 8 0.5H144C148.142 0.5 151.5 3.85786 151.5 8V22.5H0.5V8Z" fill="#135097"/>
<path d="M0.5 8C0.5 3.85786 3.85786 0.5 8 0.5H144C148.142 0.5 151.5 3.85786 151.5 8V22.5H0.5V8Z" stroke="white"/>
<path d="M5.872 8.48C6.328 8.528 6.94 8.564 7.36 8.564H13.408C13.756 8.564 14.248 8.54 14.452 8.528C14.44 8.816 14.416 9.284 14.416 9.644V15.86C14.416 16.28 14.452 16.904 14.476 17.276H12.736C12.748 16.916 12.76 16.484 12.76 16.04V10.112H7.36C6.856 10.112 6.208 10.136 5.872 10.16V8.48ZM5.728 14.996C6.136 15.032 6.676 15.068 7.216 15.068H13.708V16.652H7.264C6.796 16.652 6.124 16.676 5.728 16.724V14.996ZM18.892 7.88C19.72 8.444 21.28 9.692 21.988 10.424L20.764 11.672C20.14 11 18.628 9.692 17.752 9.092L18.892 7.88ZM17.38 15.872C19.264 15.608 20.812 14.996 21.976 14.312C24.028 13.088 25.588 11.264 26.356 9.644L27.28 11.324C26.38 12.956 24.784 14.612 22.852 15.776C21.628 16.508 20.08 17.168 18.4 17.456L17.38 15.872ZM36.976 11.708C36.976 14.672 36.256 16.484 33.352 17.768L32.068 16.556C34.396 15.752 35.404 14.708 35.404 11.756V8.564C35.404 8.084 35.38 7.688 35.332 7.46H37.048C37.024 7.7 36.976 8.084 36.976 8.564V11.708ZM32.632 7.556C32.608 7.784 32.56 8.168 32.56 8.648V12.932C32.56 13.472 32.596 13.964 32.62 14.192H30.94C30.964 13.964 31 13.472 31 12.932V8.636C31 8.3 30.976 7.928 30.928 7.556H32.632ZM28.684 9.716C28.9 9.752 29.392 9.836 29.98 9.836H37.852C38.488 9.836 38.848 9.8 39.184 9.752V11.348C38.92 11.312 38.488 11.312 37.864 11.312H29.98C29.38 11.312 28.96 11.336 28.684 11.348V9.716ZM46.024 16.736C46.084 16.508 46.12 16.184 46.12 15.86C46.12 15.224 46.12 9.836 46.12 8.864C46.12 8.324 46.036 7.856 46.036 7.832H47.812C47.812 7.856 47.728 8.336 47.728 8.876C47.728 9.836 47.728 14.408 47.728 15.14C48.712 14.72 49.888 13.772 50.704 12.608L51.616 13.94C50.62 15.236 48.904 16.532 47.548 17.216C47.296 17.348 47.152 17.48 47.032 17.564L46.024 16.736ZM40.468 16.568C41.536 15.824 42.184 14.72 42.508 13.688C42.856 12.668 42.868 10.388 42.868 8.948C42.868 8.456 42.82 8.144 42.748 7.844H44.512C44.512 7.892 44.428 8.432 44.428 8.924C44.428 10.352 44.392 12.884 44.08 14.096C43.708 15.44 42.964 16.628 41.932 17.54L40.468 16.568ZM57.832 7.376C57.736 7.82 57.58 8.528 57.244 9.392C56.992 9.98 56.644 10.664 56.308 11.144C56.632 11 57.268 10.916 57.676 10.916C58.672 10.916 59.428 11.504 59.428 12.62C59.428 13.268 59.464 14.576 59.476 15.332H58.036C58.084 14.768 58.108 13.748 58.096 13.1C58.096 12.332 57.616 12.08 57.112 12.08C56.452 12.08 55.696 12.476 55.24 12.908C54.88 13.268 54.544 13.7 54.136 14.228L52.852 13.268C54.388 11.852 55.312 10.556 55.816 9.236C56.056 8.588 56.212 7.856 56.248 7.244L57.832 7.376ZM53.308 8.492C53.92 8.576 54.808 8.624 55.42 8.624C57.004 8.624 59.176 8.54 60.916 8.228L60.904 9.62C59.212 9.86 56.8 9.968 55.336 9.968C54.844 9.968 53.968 9.944 53.308 9.884V8.492ZM62.812 11.9C62.44 12.008 61.792 12.248 61.384 12.404C60.604 12.704 59.524 13.136 58.396 13.712C57.304 14.276 56.716 14.792 56.716 15.452C56.716 16.112 57.292 16.292 58.456 16.292C59.476 16.292 60.82 16.16 61.876 15.944L61.828 17.492C61.024 17.6 59.56 17.708 58.42 17.708C56.548 17.708 55.144 17.24 55.144 15.692C55.144 14.024 56.86 13.04 58.3 12.32C59.404 11.744 60.16 11.456 60.88 11.12C61.348 10.916 61.768 10.724 62.224 10.496L62.812 11.9ZM69.232 7.256C69.184 7.484 69.136 8 69.124 8.3C69.064 9.248 69.028 10.544 69.028 11.66C69.028 12.968 69.1 15.044 69.1 15.74C69.1 17.216 68.572 17.624 67.78 17.624C66.616 17.624 64.96 16.616 64.96 15.344C64.96 14.18 66.46 12.956 68.128 12.368C69.196 11.984 70.408 11.792 71.32 11.792C73.168 11.792 74.632 12.752 74.632 14.408C74.632 15.836 73.888 16.904 71.98 17.372C71.428 17.492 70.888 17.528 70.396 17.576L69.856 16.016C70.384 16.016 70.912 16.016 71.32 15.932C72.292 15.764 73.072 15.272 73.072 14.408C73.072 13.58 72.352 13.112 71.308 13.112C70.288 13.112 69.232 13.328 68.296 13.7C67.216 14.108 66.448 14.756 66.448 15.272C66.448 15.656 67.012 15.98 67.324 15.98C67.54 15.98 67.696 15.884 67.696 15.464C67.696 14.84 67.636 13.172 67.636 11.72C67.636 10.352 67.648 8.864 67.648 8.312C67.648 8.072 67.612 7.472 67.576 7.256H69.232ZM72.652 8.564C73.564 9.008 74.956 9.788 75.604 10.244L74.872 11.468C74.296 10.988 72.736 10.088 71.992 9.728L72.652 8.564ZM65.284 9.224C65.992 9.308 66.508 9.308 66.94 9.308C68.188 9.308 70.06 9.08 71.296 8.72L71.332 10.208C69.976 10.52 68.044 10.736 66.988 10.736C66.196 10.736 65.728 10.724 65.32 10.676L65.284 9.224ZM80.272 13.04H87.46V14.324H80.272V13.04ZM84.124 8.864H85.408V10.604C85.408 10.892 85.444 10.928 85.66 10.928C85.756 10.928 86.14 10.928 86.248 10.928C86.452 10.928 86.5 10.808 86.524 10.016C86.776 10.208 87.304 10.4 87.652 10.484C87.52 11.732 87.196 12.068 86.404 12.068C86.188 12.068 85.648 12.068 85.444 12.068C84.34 12.068 84.124 11.696 84.124 10.616V8.864ZM80.38 7.364H87.424V9.764H86.152V8.588H81.604V9.824H80.38V7.364ZM83.116 11.852H84.532V18.068H83.116V11.852ZM82.192 8.876H83.5C83.392 10.712 83.008 11.78 80.824 12.344C80.704 12.032 80.38 11.552 80.128 11.324C81.892 10.928 82.12 10.232 82.192 8.876ZM84.892 13.664C85.492 14.78 86.656 15.908 87.808 16.496C87.508 16.76 87.064 17.264 86.836 17.612C85.636 16.856 84.484 15.476 83.8 14.072L84.892 13.664ZM82.804 13.544L83.92 13.916C83.188 15.524 81.916 16.952 80.44 17.708C80.236 17.384 79.828 16.88 79.528 16.616C80.908 16.028 82.18 14.828 82.804 13.544ZM76.24 12.848C77.2 12.632 78.628 12.248 79.984 11.864L80.176 13.16C78.94 13.544 77.62 13.928 76.564 14.228L76.24 12.848ZM76.432 9.092H80.104V10.412H76.432V9.092ZM77.704 6.824H79.024V16.556C79.024 17.228 78.904 17.6 78.532 17.816C78.172 18.044 77.656 18.092 76.876 18.092C76.84 17.732 76.672 17.144 76.504 16.748C76.936 16.772 77.356 16.772 77.5 16.76C77.644 16.76 77.704 16.724 77.704 16.556V6.824ZM92.452 7.484C92.38 7.988 92.32 8.612 92.296 9.092C92.236 10.388 92.152 13.064 92.152 14.552C92.152 15.764 92.872 16.16 93.808 16.16C95.788 16.16 97.036 15.02 97.912 13.712L99.004 15.044C98.224 16.196 96.52 17.792 93.784 17.792C91.816 17.792 90.556 16.928 90.556 14.876C90.556 13.268 90.664 10.124 90.664 9.092C90.664 8.516 90.616 7.94 90.52 7.472L92.452 7.484ZM107.092 8.78C106.924 10.004 106.684 11.408 106.264 12.824C105.544 15.248 104.512 16.736 103.204 16.736C101.86 16.736 100.756 15.26 100.756 13.232C100.756 10.472 103.168 8.096 106.276 8.096C109.24 8.096 111.124 10.16 111.124 12.788C111.124 15.308 109.576 17.096 106.552 17.564L105.64 16.148C106.108 16.088 106.444 16.028 106.768 15.956C108.292 15.584 109.492 14.492 109.492 12.728C109.492 10.844 108.316 9.5 106.24 9.5C103.696 9.5 102.304 11.576 102.304 13.088C102.304 14.3 102.784 14.888 103.24 14.888C103.756 14.888 104.212 14.12 104.716 12.5C105.064 11.372 105.328 9.992 105.448 8.732L107.092 8.78ZM117.94 8.18C116.956 9.644 115.108 11.324 113.116 12.452C112.924 12.116 112.516 11.588 112.192 11.288C114.28 10.208 116.224 8.3 117.124 6.752H118.624C119.92 8.672 121.888 10.304 123.82 11.144C123.46 11.516 123.124 11.996 122.848 12.428C120.988 11.396 118.972 9.668 117.94 8.18ZM118.012 12.764H122.044V14.048H118.012V12.764ZM112.876 16.46H123.136V17.756H112.876V16.46ZM117.292 10.184H118.828V17.156H117.292V10.184ZM114.184 12.26H115.6V17.12H114.184V12.26ZM124.672 14.156H135.376V15.332H124.672V14.156ZM124.696 8.768H135.328V9.956H124.696V8.768ZM125.188 10.916H134.872V12.044H125.188V10.916ZM125.788 12.572H134.308V13.616H125.788V12.572ZM129.268 11.492H130.696V18.08H129.268V11.492ZM128.224 6.8H129.568V9.332H128.224V6.8ZM130.444 6.8H131.812V9.248H130.444V6.8ZM129.004 14.684L130.132 15.188C128.992 16.436 127.072 17.456 125.224 17.936C125.032 17.588 124.612 17.036 124.3 16.736C126.112 16.388 128.02 15.596 129.004 14.684ZM130.984 14.648C131.956 15.596 133.828 16.34 135.7 16.652C135.376 16.952 134.944 17.552 134.728 17.948C132.832 17.468 130.996 16.448 129.868 15.092L130.984 14.648ZM133.204 6.896L134.716 7.256C134.332 7.916 133.924 8.564 133.612 9.008L132.448 8.648C132.724 8.156 133.036 7.424 133.204 6.896ZM131.62 9.476L133.144 9.824C132.82 10.4 132.508 10.928 132.256 11.312L131.032 10.964C131.248 10.532 131.5 9.92 131.62 9.476ZM125.56 7.28L126.796 6.86C127.144 7.376 127.54 8.096 127.708 8.564L126.4 9.032C126.268 8.564 125.884 7.832 125.56 7.28ZM127.084 9.968L128.476 9.752C128.68 10.088 128.908 10.556 129.004 10.88L127.54 11.132C127.468 10.82 127.264 10.316 127.084 9.968ZM140.764 8.144H147.352V9.284H140.764V8.144ZM141.088 9.752H147.1V10.832H141.088V9.752ZM140.536 11.348H147.568V12.524H140.536V11.348ZM145.384 6.788L146.812 7.136C146.488 7.676 146.164 8.204 145.924 8.552L144.796 8.228C145.012 7.808 145.264 7.208 145.384 6.788ZM141.532 7.208L142.66 6.836C142.936 7.244 143.236 7.796 143.344 8.168L142.144 8.6C142.048 8.228 141.784 7.64 141.532 7.208ZM146.428 12.752L147.508 13.52C146.98 14.072 146.344 14.66 145.864 15.044L144.94 14.336C145.408 13.94 146.056 13.256 146.428 12.752ZM140.764 13.436L141.748 12.788C142.18 13.232 142.708 13.844 142.948 14.264L141.916 14.984C141.7 14.552 141.196 13.904 140.764 13.436ZM140.068 16.148C140.788 15.824 141.844 15.284 142.876 14.756L143.248 15.92C142.408 16.412 141.46 16.94 140.692 17.36L140.068 16.148ZM143.368 8.912H144.748V16.652C144.748 17.3 144.64 17.648 144.256 17.864C143.86 18.08 143.284 18.104 142.528 18.104C142.492 17.732 142.324 17.168 142.156 16.832C142.564 16.844 143.032 16.844 143.176 16.844C143.32 16.844 143.368 16.784 143.368 16.652V8.912ZM144.676 12.752C145.204 14.36 146.26 15.74 147.796 16.364C147.508 16.628 147.088 17.156 146.884 17.528C145.324 16.664 144.304 14.984 143.74 12.968L144.676 12.752ZM136.528 9.296H140.5V10.628H136.528V9.296ZM137.992 6.812H139.3V18.08H137.992V6.812ZM137.968 10.208L138.772 10.484C138.424 12.38 137.74 14.696 136.888 15.932C136.768 15.548 136.456 14.996 136.252 14.66C137.02 13.616 137.692 11.732 137.968 10.208ZM139.24 11.084C139.504 11.408 140.488 12.92 140.692 13.256L139.948 14.288C139.684 13.592 138.964 12.224 138.64 11.66L139.24 11.084Z" fill="white"/>
<path d="M0.5 23.5H151.5V43C151.5 47.1421 148.142 50.5 144 50.5H8C3.85786 50.5 0.5 47.1421 0.5 43V23.5Z" fill="white"/>
<path d="M0.5 23.5H151.5V43C151.5 47.1421 148.142 50.5 144 50.5H8C3.85786 50.5 0.5 47.1421 0.5 43V23.5Z" stroke="white"/>
<path d="M29.552 31.072C29.504 31.392 29.456 31.792 29.44 32.208C29.408 33.024 29.392 35.296 29.392 36.64C29.392 38.4 29.648 41.296 29.648 42.56C29.648 43.936 28.608 44.992 26.512 44.992C23.952 44.992 22.608 44.016 22.608 42.32C22.608 40.704 24.096 39.568 26.544 39.568C30.064 39.568 32.688 41.296 34.016 42.416L32.864 44.208C31.344 42.768 29.024 41.216 26.288 41.216C25.168 41.216 24.544 41.648 24.544 42.208C24.544 42.816 25.104 43.184 26.208 43.184C27.056 43.184 27.632 42.944 27.632 42.016C27.632 41.056 27.456 38.192 27.456 36.64C27.456 35.104 27.472 33.072 27.472 32.16C27.472 31.872 27.44 31.376 27.376 31.072H29.552ZM22.912 32.56C24.048 32.752 25.888 32.912 26.864 32.912C29.04 32.912 31.136 32.8 33.472 32.432L33.456 34.256C31.824 34.48 29.28 34.672 26.88 34.672C25.856 34.672 24 34.528 22.944 34.4L22.912 32.56ZM22.816 36.016C23.872 36.208 25.824 36.32 26.672 36.32C29.632 36.32 31.696 36.128 33.664 35.872L33.648 37.76C31.44 38.016 29.696 38.112 26.656 38.112C25.712 38.112 23.904 38.032 22.848 37.904L22.816 36.016ZM45.968 31.344C45.936 31.6 45.872 32.464 45.856 32.72C45.824 33.76 45.856 37.024 45.872 38.32L43.888 37.632C43.888 36.64 43.872 33.584 43.824 32.72C43.76 32.08 43.712 31.536 43.664 31.344H45.968ZM36.928 33.328C39.328 33.328 43.536 33.2 45.536 33.2C47.184 33.2 49.6 33.184 50.496 33.2L50.464 35.104C49.456 35.056 47.84 35.008 45.488 35.008C42.576 35.008 39.392 35.136 36.992 35.264L36.928 33.328ZM45.6 38.064C45.6 40.672 44.64 41.968 42.8 41.968C41.552 41.968 40.032 40.992 40.032 39.04C40.032 37.232 41.488 36.048 43.232 36.048C45.344 36.048 46.448 37.6 46.448 39.6C46.448 41.696 45.216 44.336 41.312 45.424L39.616 43.728C42.336 43.152 44.464 42.064 44.464 39.264C44.464 38.24 43.904 37.728 43.184 37.728C42.576 37.728 41.952 38.16 41.952 39.008C41.952 39.728 42.56 40.208 43.184 40.208C43.952 40.208 44.608 39.552 44.112 37.664L45.6 38.064ZM48.048 30.864C48.432 31.44 48.88 32.176 49.168 32.752L47.808 33.312C47.488 32.672 47.136 32 46.72 31.408L48.048 30.864ZM50.192 30.4C50.576 30.992 51.024 31.696 51.312 32.272L49.984 32.848C49.648 32.192 49.28 31.52 48.848 30.96L50.192 30.4ZM58.24 34.176C59.168 34.272 60.08 34.32 61.056 34.32C63.008 34.32 65.008 34.16 66.672 33.808V35.792C64.992 36.048 62.976 36.176 61.056 36.192C60.112 36.192 59.2 36.16 58.256 36.096L58.24 34.176ZM64.336 31.488C64.288 31.792 64.256 32.176 64.24 32.512C64.208 33.04 64.176 34.144 64.176 35.296C64.176 38.24 64.432 40.32 64.432 41.84C64.432 43.52 63.6 44.736 61.296 44.736C59.072 44.736 57.696 43.824 57.696 42.144C57.696 40.512 59.072 39.392 61.264 39.392C64.272 39.392 66.208 40.896 67.456 42.048L66.368 43.728C64.528 42.016 62.912 40.944 61.104 40.944C60.192 40.944 59.568 41.312 59.568 41.92C59.568 42.576 60.208 42.864 61.072 42.864C62.048 42.864 62.384 42.352 62.384 41.408C62.384 40.304 62.176 37.616 62.176 35.312C62.176 34.096 62.16 33.024 62.144 32.544C62.144 32.288 62.096 31.792 62.048 31.488H64.336ZM56.528 31.648C56.4 31.968 56.208 32.8 56.144 33.088C55.904 34.16 55.376 37.68 55.376 39.28C55.376 39.584 55.392 40 55.44 40.32C55.664 39.76 55.936 39.216 56.16 38.672L57.152 39.456C56.704 40.784 56.176 42.4 56 43.28C55.952 43.504 55.904 43.856 55.92 44.016C55.92 44.192 55.92 44.464 55.936 44.688L54.128 44.816C53.808 43.712 53.488 41.872 53.488 39.712C53.488 37.296 53.968 34.272 54.16 33.04C54.224 32.592 54.288 31.968 54.304 31.472L56.528 31.648ZM71.76 30.416L73.648 30.96C72.768 32.736 71.344 34.464 70 35.52C69.648 35.168 68.88 34.56 68.432 34.272C69.776 33.376 71.056 31.904 71.76 30.416ZM71.632 32.096H82.656V33.792H71.168L71.632 32.096ZM68.768 35.824H83.232V37.536H68.768V35.824ZM69.04 39.584H83.008V41.296H69.04V39.584ZM73.776 32.704H75.392V40.48H73.776V32.704ZM70.944 32.704H72.64V40.496H70.944V32.704ZM76.56 32.704H78.16V40.496H76.56V32.704ZM79.376 32.704H81.136V40.496H79.376V32.704ZM73.296 42.192L75.072 41.984C75.28 42.96 75.472 44.224 75.488 45.008L73.6 45.28C73.6 44.496 73.488 43.184 73.296 42.192ZM76.48 42.224L78.288 41.92C78.688 42.864 79.088 44.128 79.232 44.912L77.312 45.296C77.2 44.512 76.848 43.216 76.48 42.224ZM79.664 42.144L81.504 41.568C82.224 42.544 83.136 43.904 83.536 44.8L81.584 45.456C81.232 44.576 80.384 43.168 79.664 42.144ZM70.416 41.632L72.288 42.08C71.92 43.312 71.232 44.624 70.464 45.456L68.608 44.72C69.344 44.048 70.048 42.8 70.416 41.632ZM87.024 30.496H88.8V45.408H87.024V30.496ZM84.608 35.744H91.168V37.536H84.608V35.744ZM86.688 36.704L87.744 37.216C87.232 39.36 86.24 42.144 85.184 43.68C85.008 43.088 84.592 42.24 84.304 41.696C85.264 40.512 86.24 38.288 86.688 36.704ZM88.768 37.632C89.232 38.048 90.784 39.904 91.136 40.352L89.952 41.856C89.536 40.944 88.464 39.168 87.888 38.384L88.768 37.632ZM84.576 31.728L85.92 31.376C86.336 32.544 86.656 34.064 86.736 35.072L85.296 35.456C85.264 34.448 84.96 32.896 84.576 31.728ZM89.856 31.296L91.472 31.648C91.056 32.944 90.576 34.464 90.176 35.408L88.976 35.072C89.296 34.048 89.68 32.432 89.856 31.296ZM95.904 30.4H97.712V45.424H95.904V30.4ZM91.12 40.416L99.344 38.944L99.632 40.72L91.424 42.208L91.12 40.416ZM92.032 32.592L92.976 31.28C93.872 31.824 95.008 32.624 95.536 33.216L94.528 34.672C94.048 34.048 92.928 33.168 92.032 32.592ZM91.312 36.624L92.208 35.248C93.136 35.744 94.336 36.512 94.912 37.104L93.952 38.624C93.408 38.032 92.24 37.168 91.312 36.624ZM108.336 35.072H114.064V36.8H108.336V35.072ZM108.352 38.848H114.08V40.592H108.352V38.848ZM108.336 42.64H114.08V44.368H108.336V42.64ZM107.424 31.28H114.976V45.216H113.04V33.088H109.264V45.312H107.424V31.28ZM100.704 33.712H106.864V35.536H100.704V33.712ZM103.024 30.416H104.864V45.44H103.024V30.416ZM102.912 34.944L104.064 35.344C103.536 37.952 102.48 41.024 101.216 42.688C101.04 42.144 100.592 41.36 100.304 40.88C101.456 39.488 102.48 36.992 102.912 34.944ZM104.72 36.352C105.184 36.8 106.752 38.736 107.104 39.168L106.016 40.72C105.552 39.776 104.416 38.032 103.84 37.232L104.72 36.352ZM125.936 34.896L127.12 33.632C128.496 34.416 130.48 35.616 131.456 36.432L130.192 37.872C129.296 37.04 127.36 35.76 125.936 34.896ZM127.04 37.2H128V39.632C128 40.704 128.688 42.736 131.616 43.824C131.264 44.272 130.752 45.008 130.496 45.472C128.48 44.704 127.328 42.912 127.024 41.936C126.704 42.912 125.424 44.64 123.216 45.472C123.008 45.04 122.496 44.272 122.16 43.904C125.232 42.816 126.048 40.72 126.048 39.632V37.2H127.04ZM126.176 30.416H128.064C127.904 34.24 127.392 36.672 123.52 38C123.344 37.536 122.864 36.848 122.464 36.48C125.808 35.456 126.064 33.6 126.176 30.416ZM123.824 31.36L125.392 31.68C125.232 32.752 124.816 33.936 124.128 34.656L122.624 34.016C123.216 33.44 123.664 32.368 123.824 31.36ZM123.648 38.32L125.312 38.656C125.104 39.872 124.608 41.168 123.824 41.952L122.24 41.136C122.928 40.544 123.424 39.408 123.648 38.32ZM129.472 31.264L131.328 31.84C130.784 32.784 130.208 33.776 129.76 34.432L128.336 33.904C128.752 33.184 129.232 32.064 129.472 31.264ZM129.568 38.192L131.456 38.784C130.896 39.776 130.272 40.848 129.776 41.536L128.288 40.992C128.736 40.24 129.28 39.056 129.568 38.192ZM117.232 35.328H122.064V36.768H117.232V35.328ZM117.28 30.912H122.016V32.368H117.28V30.912ZM117.232 37.504H122.064V38.96H117.232V37.504ZM116.464 33.072H122.592V34.592H116.464V33.072ZM118.064 39.728H122.08V44.592H118.064V43.072H120.448V41.248H118.064V39.728ZM117.2 39.728H118.816V45.232H117.2V39.728Z" fill="#135097"/>
</svg>
