<svg width="144" height="51" viewBox="0 0 144 51" fill="none" xmlns="http://www.w3.org/2000/svg">
<path d="M0.5 8C0.5 3.85786 3.85786 0.5 8 0.5H136C140.142 0.5 143.5 3.85786 143.5 8V22.5H0.5V8Z" fill="white"/>
<path d="M0.5 8C0.5 3.85786 3.85786 0.5 8 0.5H136C140.142 0.5 143.5 3.85786 143.5 8V22.5H0.5V8Z" stroke="white"/>
<path d="M19.872 8.48C20.328 8.528 20.94 8.564 21.36 8.564H27.408C27.756 8.564 28.248 8.54 28.452 8.528C28.44 8.816 28.416 9.284 28.416 9.644V15.86C28.416 16.28 28.452 16.904 28.476 17.276H26.736C26.748 16.916 26.76 16.484 26.76 16.04V10.112H21.36C20.856 10.112 20.208 10.136 19.872 10.16V8.48ZM19.728 14.996C20.136 15.032 20.676 15.068 21.216 15.068H27.708V16.652H21.264C20.796 16.652 20.124 16.676 19.728 16.724V14.996ZM32.892 7.88C33.72 8.444 35.28 9.692 35.988 10.424L34.764 11.672C34.14 11 32.628 9.692 31.752 9.092L32.892 7.88ZM31.38 15.872C33.264 15.608 34.812 14.996 35.976 14.312C38.028 13.088 39.588 11.264 40.356 9.644L41.28 11.324C40.38 12.956 38.784 14.612 36.852 15.776C35.628 16.508 34.08 17.168 32.4 17.456L31.38 15.872ZM50.976 11.708C50.976 14.672 50.256 16.484 47.352 17.768L46.068 16.556C48.396 15.752 49.404 14.708 49.404 11.756V8.564C49.404 8.084 49.38 7.688 49.332 7.46H51.048C51.024 7.7 50.976 8.084 50.976 8.564V11.708ZM46.632 7.556C46.608 7.784 46.56 8.168 46.56 8.648V12.932C46.56 13.472 46.596 13.964 46.62 14.192H44.94C44.964 13.964 45 13.472 45 12.932V8.636C45 8.3 44.976 7.928 44.928 7.556H46.632ZM42.684 9.716C42.9 9.752 43.392 9.836 43.98 9.836H51.852C52.488 9.836 52.848 9.8 53.184 9.752V11.348C52.92 11.312 52.488 11.312 51.864 11.312H43.98C43.38 11.312 42.96 11.336 42.684 11.348V9.716ZM60.024 16.736C60.084 16.508 60.12 16.184 60.12 15.86C60.12 15.224 60.12 9.836 60.12 8.864C60.12 8.324 60.036 7.856 60.036 7.832H61.812C61.812 7.856 61.728 8.336 61.728 8.876C61.728 9.836 61.728 14.408 61.728 15.14C62.712 14.72 63.888 13.772 64.704 12.608L65.616 13.94C64.62 15.236 62.904 16.532 61.548 17.216C61.296 17.348 61.152 17.48 61.032 17.564L60.024 16.736ZM54.468 16.568C55.536 15.824 56.184 14.72 56.508 13.688C56.856 12.668 56.868 10.388 56.868 8.948C56.868 8.456 56.82 8.144 56.748 7.844H58.512C58.512 7.892 58.428 8.432 58.428 8.924C58.428 10.352 58.392 12.884 58.08 14.096C57.708 15.44 56.964 16.628 55.932 17.54L54.468 16.568ZM71.136 11.384C72.612 12.236 74.832 13.772 75.948 14.66L74.796 16.028C73.752 15.044 71.472 13.364 70.068 12.476L71.136 11.384ZM76.788 9.344C76.644 9.572 76.488 9.908 76.38 10.208C76.02 11.312 75.288 12.848 74.208 14.18C73.08 15.584 71.544 16.928 69.252 17.792L67.86 16.592C70.368 15.812 71.796 14.552 72.828 13.352C73.632 12.404 74.376 11.024 74.604 10.088H70.548L71.1 8.732H74.52C74.892 8.732 75.288 8.672 75.564 8.588L76.788 9.344ZM72.816 7.496C72.528 7.916 72.216 8.468 72.072 8.72C71.268 10.172 69.732 12.008 68.004 13.196L66.72 12.2C68.82 10.904 69.924 9.26 70.536 8.216C70.716 7.928 70.968 7.376 71.076 6.956L72.816 7.496ZM80.892 7.88C81.72 8.444 83.28 9.692 83.988 10.424L82.764 11.672C82.14 11 80.628 9.692 79.752 9.092L80.892 7.88ZM79.38 15.872C81.264 15.608 82.812 14.996 83.976 14.312C86.028 13.088 87.588 11.264 88.356 9.644L89.28 11.324C88.38 12.956 86.784 14.612 84.852 15.776C83.628 16.508 82.08 17.168 80.4 17.456L79.38 15.872ZM93.756 15.86C93.756 14.936 93.756 9.968 93.756 8.96C93.756 8.528 93.72 7.94 93.636 7.508H95.508C95.46 7.94 95.4 8.456 95.4 8.96C95.4 10.28 95.412 14.972 95.412 15.86C95.412 16.196 95.46 17.036 95.52 17.528H93.636C93.72 17.06 93.756 16.328 93.756 15.86ZM95.052 10.616C96.648 11.06 99.24 12.008 100.416 12.584L99.744 14.252C98.376 13.544 96.36 12.776 95.052 12.344V10.616ZM109.092 8.78C108.924 10.004 108.684 11.408 108.264 12.824C107.544 15.248 106.512 16.736 105.204 16.736C103.86 16.736 102.756 15.26 102.756 13.232C102.756 10.472 105.168 8.096 108.276 8.096C111.24 8.096 113.124 10.16 113.124 12.788C113.124 15.308 111.576 17.096 108.552 17.564L107.64 16.148C108.108 16.088 108.444 16.028 108.768 15.956C110.292 15.584 111.492 14.492 111.492 12.728C111.492 10.844 110.316 9.5 108.24 9.5C105.696 9.5 104.304 11.576 104.304 13.088C104.304 14.3 104.784 14.888 105.24 14.888C105.756 14.888 106.212 14.12 106.716 12.5C107.064 11.372 107.328 9.992 107.448 8.732L109.092 8.78ZM114.552 8.732H125.436V10.112H114.552V8.732ZM118.56 11.672H123.156V13.04H118.56V11.672ZM122.628 11.672H124.116C124.116 11.672 124.104 12.104 124.068 12.296C123.852 15.584 123.6 16.94 123.12 17.468C122.76 17.852 122.376 17.972 121.824 18.032C121.368 18.068 120.564 18.056 119.76 18.032C119.736 17.612 119.52 17.012 119.244 16.616C120.072 16.688 120.924 16.688 121.272 16.688C121.536 16.688 121.704 16.676 121.86 16.544C122.22 16.232 122.448 14.864 122.616 11.9L122.628 11.672ZM118.02 9.548H119.64C119.46 12.764 119.136 16.268 115.368 18.164C115.152 17.78 114.72 17.252 114.336 16.952C117.828 15.332 117.9 12.284 118.02 9.548ZM119.184 6.752H120.672V9.272H119.184V6.752Z" fill="#135097"/>
<path d="M0.5 23.5H143.5V43C143.5 47.1421 140.142 50.5 136 50.5H8C3.85787 50.5 0.5 47.1421 0.5 43V23.5Z" fill="#135097"/>
<path d="M0.5 23.5H143.5V43C143.5 47.1421 140.142 50.5 136 50.5H8C3.85787 50.5 0.5 47.1421 0.5 43V23.5Z" stroke="white"/>
<path d="M23.024 30.432H24.944V32.56H23.024V30.432ZM22.976 39.152H24.912V45.424H22.976V39.152ZM17.136 31.488H30.896V33.952H29.04V33.072H18.912V33.952H17.136V31.488ZM17.024 34.256H31.008V35.76H17.024V34.256ZM16.72 40.256H31.296V41.84H16.72V40.256ZM22.256 32.976L24.048 33.504C23.008 34.944 21.68 36.64 20.752 37.744L18.928 37.248C19.936 36.128 21.296 34.352 22.256 32.976ZM20.224 37.328L21.28 36.192C24.096 36.688 28.128 37.728 30.32 38.576L29.184 39.92C27.184 39.072 23.184 37.936 20.224 37.328ZM22.496 41.168L23.92 41.792C22.448 43.408 19.968 44.688 17.52 45.28C17.264 44.832 16.72 44.096 16.336 43.728C18.72 43.312 21.232 42.352 22.496 41.168ZM25.376 41.12C26.72 42.288 29.296 43.248 31.728 43.648C31.312 44.048 30.768 44.784 30.512 45.264C28.064 44.672 25.52 43.376 24 41.728L25.376 41.12ZM26.416 35.152H28.432C27.408 38.048 25.216 39.376 18.048 39.872C17.984 39.424 17.68 38.768 17.424 38.384C24.064 38.048 25.632 37.088 26.416 35.152ZM41.392 30.624H43.328V45.424H41.392V30.624ZM38.672 31.296L40.512 31.68C40.064 33.84 39.296 36.08 38.448 37.488C38.064 37.2 37.232 36.768 36.768 36.56C37.632 35.296 38.304 33.264 38.672 31.296ZM39.28 33.52H46.688V35.392H38.816L39.28 33.52ZM37.056 38.16H47.456V40.048H37.056V38.16ZM35.872 30.48L37.68 31.04C36.656 33.76 35.024 36.64 33.312 38.48C33.136 38.016 32.608 36.96 32.288 36.496C33.712 35.04 35.072 32.768 35.872 30.48ZM34.288 34.896L36.112 33.072V33.088V45.424H34.288V34.896ZM57.456 33.04C57.232 34.672 56.912 36.544 56.352 38.432C55.392 41.664 54.016 43.648 52.272 43.648C50.48 43.648 49.008 41.68 49.008 38.976C49.008 35.296 52.224 32.128 56.368 32.128C60.32 32.128 62.832 34.88 62.832 38.384C62.832 41.744 60.768 44.128 56.736 44.752L55.52 42.864C56.144 42.784 56.592 42.704 57.024 42.608C59.056 42.112 60.656 40.656 60.656 38.304C60.656 35.792 59.088 34 56.32 34C52.928 34 51.072 36.768 51.072 38.784C51.072 40.4 51.712 41.184 52.32 41.184C53.008 41.184 53.616 40.16 54.288 38C54.752 36.496 55.104 34.656 55.264 32.976L57.456 33.04ZM72.368 43.04H77.888V44.736H72.368V43.04ZM71.472 38.624H78.816V45.36H76.96V40.32H73.232V45.424H71.472V38.624ZM70.912 31.168H78.24V32.928H70.912V31.168ZM77.344 31.168H79.136C79.136 31.168 79.12 31.632 79.104 31.856C79.024 35.2 78.912 36.592 78.512 37.104C78.176 37.52 77.824 37.648 77.312 37.712C76.88 37.776 76.144 37.776 75.36 37.776C75.312 37.216 75.104 36.48 74.8 36C75.472 36.064 76.128 36.064 76.432 36.064C76.656 36.064 76.816 36.032 76.944 35.888C77.184 35.616 77.28 34.464 77.344 31.44V31.168ZM73.2 31.888H75.088C74.848 34.592 74.224 36.848 71.392 38.192C71.168 37.744 70.656 37.072 70.256 36.752C72.656 35.712 73.024 33.952 73.2 31.888ZM66.88 30.432L68.544 31.056C67.888 32.272 67.152 33.696 66.528 34.592L65.248 34.032C65.824 33.088 66.512 31.552 66.88 30.432ZM68.72 32.32L70.272 33.024C69.12 34.864 67.552 37.088 66.336 38.48L65.232 37.856C66.416 36.4 67.888 34.048 68.72 32.32ZM64.416 34.224L65.328 32.912C66.176 33.648 67.168 34.656 67.584 35.392L66.592 36.88C66.208 36.112 65.232 34.992 64.416 34.224ZM68.24 36.144L69.504 35.616C70.128 36.688 70.736 38.096 70.928 39.024L69.568 39.632C69.392 38.704 68.848 37.248 68.24 36.144ZM64.4 37.472C65.872 37.424 68.032 37.344 70.144 37.248L70.128 38.768C68.16 38.912 66.112 39.04 64.56 39.152L64.4 37.472ZM68.592 40.128L69.936 39.696C70.336 40.608 70.752 41.808 70.928 42.608L69.52 43.104C69.36 42.304 68.944 41.072 68.592 40.128ZM65.088 39.824L66.672 40.096C66.512 41.632 66.16 43.232 65.696 44.256C65.36 44.048 64.64 43.712 64.24 43.552C64.704 42.608 64.96 41.184 65.088 39.824ZM66.88 38.32H68.56V45.456H66.88V38.32ZM87.936 32.336C86.688 34.384 84.24 36.592 81.552 38.016C81.312 37.536 80.768 36.816 80.352 36.416C83.2 35.056 85.696 32.496 86.8 30.368H88.88C90.528 33.072 93.072 35.184 95.696 36.192C95.2 36.704 94.768 37.36 94.416 37.952C91.856 36.656 89.232 34.416 87.936 32.336ZM89.712 36.272H91.712V45.44H89.712V36.272ZM84.192 36.352H86.16V38.336C86.16 40.608 85.84 43.472 82.688 45.44C82.352 45.024 81.6 44.384 81.088 44.08C83.904 42.4 84.192 40.144 84.192 38.288V36.352ZM101.056 34.688H106.976V36.288H101.056V34.688ZM97.12 43.552H110.944V45.12H97.12V43.552ZM98.048 31.008H102.528V32.56H98.048V31.008ZM101.92 31.008H102.24L102.576 30.928L103.824 31.552C102.64 34.688 100.112 36.976 97.424 38.272C97.168 37.872 96.656 37.216 96.272 36.88C98.656 35.872 101.04 33.696 101.92 31.328V31.008ZM105.568 30.464C106.672 33.072 108.912 35.392 111.696 36.448C111.248 36.832 110.688 37.552 110.4 38.048C107.456 36.704 105.264 34.144 103.936 30.976L105.568 30.464ZM97.28 33.888L98.304 32.832C99.024 33.232 99.904 33.856 100.32 34.336L99.248 35.504C98.832 35.024 97.968 34.336 97.28 33.888ZM108.032 30.56L109.472 31.584C108.592 32.336 107.552 33.12 106.752 33.632L105.6 32.736C106.368 32.192 107.424 31.264 108.032 30.56ZM109.84 32.432L111.248 33.424C110.336 34.224 109.232 35.056 108.384 35.584L107.232 34.688C108.064 34.112 109.184 33.168 109.84 32.432ZM101.2 38.736V40.144H106.672V38.736H101.2ZM99.328 37.2H108.656V41.664H99.328V37.2ZM100.256 41.872L102.016 41.424C102.432 42 102.784 42.816 102.928 43.36L101.088 43.888C100.976 43.344 100.624 42.496 100.256 41.872ZM105.968 41.408L107.824 41.808C107.424 42.592 107.056 43.312 106.736 43.824L105.056 43.44C105.376 42.88 105.776 42.016 105.968 41.408ZM126.016 37.616L127.52 38.528C126.848 39.264 126.144 40.032 125.568 40.544L124.368 39.744C124.896 39.184 125.616 38.272 126.016 37.616ZM118.896 38.656L120.144 37.84C120.8 38.432 121.504 39.264 121.808 39.872L120.464 40.768C120.208 40.16 119.52 39.28 118.896 38.656ZM119.584 30.96H126.192V36.576H124.416V32.528H119.584V30.96ZM119.936 33.376H125.424V34.848H119.936V33.376ZM118.816 35.664H127.392V37.296H118.816V35.664ZM122.112 36.496H123.888V43.632C123.888 44.416 123.792 44.88 123.28 45.152C122.8 45.424 122.16 45.44 121.28 45.44C121.232 44.96 121.024 44.272 120.816 43.792C121.264 43.808 121.744 43.808 121.904 43.808C122.064 43.808 122.112 43.76 122.112 43.584V36.496ZM118.352 42.816C119.168 42.352 120.368 41.6 121.552 40.832L122.128 42.272C121.184 42.992 120.144 43.744 119.232 44.352L118.352 42.816ZM123.84 37.632C124.352 39.536 125.568 41.92 127.76 43.04C127.376 43.376 126.8 44.128 126.528 44.608C124.432 43.264 123.28 40.512 122.784 38.656L123.84 37.632ZM113.6 34.4H118.336V36H113.6V34.4ZM112.832 37.168H118.672V38.8H112.832V37.168ZM112.992 39.696L114.208 39.392C114.48 40.288 114.704 41.408 114.784 42.176L113.488 42.512C113.456 41.744 113.232 40.592 112.992 39.696ZM112.656 43.36C114.176 43.136 116.448 42.72 118.608 42.336L118.752 43.92C116.752 44.336 114.64 44.784 113.024 45.104L112.656 43.36ZM117.424 39.264L118.8 39.6C118.512 40.512 118.256 41.52 118.016 42.192L116.864 41.872C117.072 41.152 117.312 40.032 117.424 39.264ZM115.024 35.04H116.672V43.664L115.024 43.952V35.04ZM114.944 30.416H115.952V30.768H116.496V31.264C115.872 32.48 114.896 34.128 113.312 35.568C113.056 35.184 112.512 34.576 112.16 34.32C113.504 33.168 114.448 31.664 114.944 30.416ZM115.184 30.416H116.528C117.456 31.216 118.64 32.368 119.216 33.184L117.984 34.656C117.472 33.84 116.384 32.496 115.52 31.776H115.184V30.416Z" fill="white"/>
</svg>
