<svg fill="none" height="43" viewBox="0 0 207 43" width="207" xmlns="http://www.w3.org/2000/svg"><path d="m46.4811 42c-13.1303-12.6785-51.0323-36.62048-46.029094-40.0551 14.008594-9.61667 29.169794 18.4414 46.029094 40.0551z" fill="#135097"/><path d="m36.8783 39.8005c9.8157-9.4779 44.9883-21.017 40.7727-23.9108-13.2306-9.08189-28.1694 7.7533-40.7727 23.9108z" fill="#c93a3a"/><g fill="#332d2d"><path d="m189.508 37.3667c0 1.6263-.49 2.834-1.47 3.6232-.957.8131-2.464 1.2197-4.52 1.2197h-6.247c-.552 0-1-.4477-1-1v-.6905c0-.5523.448-1 1-1h6.605c.861 0 1.507-.1674 1.937-.5022.431-.3348.646-.7653.646-1.2915v-1.1479c0-.5501-.215-.9805-.646-1.2914-.43-.3349-1.076-.5023-1.937-.5023h-4.991c-.552 0-1-.4477-1-1v-3.3568c0-.366-.206-.6946-.5-.9122-.541-.4005-.961-.9161-1.257-1.5469-.383-.8131-.574-1.8654-.574-3.1568v-.8968c0-2.0089.49-3.4678 1.47-4.3766 1.005-.9088 2.547-1.3632 4.628-1.3632h6.318c.553 0 1 .4478 1 1v5.6366c0 1.7936-.49 3.2047-1.471 4.233-.98 1.0045-2.283 1.5067-3.91 1.5067h-1.883c-.426 0-.771.3453-.771.7713 0 .4259.345.7712.771.7712h1.812c2.056 0 3.563.4066 4.52 1.2197.98.7892 1.47 1.997 1.47 3.6232zm-5.919-9.5064c.742 0 1.304-.2391 1.686-.7175.383-.4783.598-.9805.646-1.5066v-3.7712c0-.5523-.448-1-1-1h-3.628c-.884 0-1.554.2033-2.008.6099-.455.4065-.682.9805-.682 1.7219v2.3318c0 .7413.227 1.3153.682 1.7219.454.4065 1.124.6098 2.008.6098z"/><path d="m151.708 36.1112c-.553 0-1-.4477-1-1v-17.3765c0-1.0503-1.412-1.3904-1.891-.4553l-1.325 2.5927c-.171.3343-.515.5447-.891.5447h-1.816c-.349 0-.672-.1815-.854-.4791l-2.024-3.3172c-.526-.8624-1.854-.4894-1.854.5209v17.9698c0 .5523-.447 1-1 1h-.869c-.553 0-1-.4477-1-1v-23.1112c0-.5523.447-1 1-1h3.479c.358 0 .689.1915.867.502l2.259 3.9329c.397.6923 1.406.6625 1.762-.0521l1.908-3.8288c.169-.3394.515-.554.895-.554h3.331c.552 0 1 .4477 1 1v23.1112c0 .5523-.448 1-1 1z"/><path d="m125.836 37.6896c-.287 1.0762-.586 1.9371-.897 2.5828-.311.6697-.753 1.1839-1.327 1.5426-.55.3826-1.292.574-2.224.574-.327 0-.729-.0304-1.207-.091-.485-.0615-.838-.4826-.838-.9714v-.6186c0-.6086.539-1.0713 1.146-1.0329.248.0156.487.0234.719.0234.67 0 1.148-.5381 1.435-1.6143l.485-1.6656c.058-.2.052-.4131-.017-.6097l-5.706-16.304c-.228-.6502.255-1.3304.944-1.3304h1.133c.448 0 .841.2982.963.7296l2.912 10.3684c.279.9936 1.697.9646 1.935-.0395l2.442-10.2893c.107-.4509.51-.7692.973-.7692h1.029c.657 0 1.135.6228.966 1.2576z"/><path d="m110.346 35c-.023.0242-.047.046-.073.0676-.815.6814-1.254 1.0435-2.149 1.0435h-2.475c-1.818 0-3.145-.3587-3.982-1.0761-.813-.7414-1.22-1.997-1.22-3.7667v-.7175c0-3.7069 1.746-5.5603 5.238-5.5603h2.731c.552 0 1-.4478 1-1v-.7937c0-.7414-.228-1.3154-.682-1.7219-.454-.4066-1.124-.6099-2.009-.6099h-3.843c-.552 0-1-.4477-1-1v-.6905c0-.5522.448-1 1-1h3.484c2.081 0 3.612.4544 4.592 1.3632 1.004.908 1.506 2.3652 1.507 4.3714v.0063c.001.1094.083 8.2165 0 8.6084-.077.3647-1.85 2.1997-2.119 2.4762zm-2.581-1.5793c.718 0 1.172-.1674 1.364-.5023.191-.3348.287-.7653.287-1.2914v-2.9461c0-.5522-.448-1-1-1h-2.767c-.622 0-1.136.2033-1.543.6099-.406.4066-.609.9207-.609 1.5425v1.7937c0 .6218.143 1.0762.43 1.3632s.741.4305 1.363.4305z"/><path d="m168.322 35c-.023.0242-.047.046-.073.0676-.816.6814-1.254 1.0435-2.149 1.0435h-2.475c-1.818 0-3.145-.3587-3.982-1.0761-.813-.7414-1.22-1.997-1.22-3.7667v-.7175c0-3.7069 1.746-5.5603 5.238-5.5603h2.731c.552 0 1-.4478 1-1v-.7937c0-.7414-.228-1.3154-.682-1.7219-.454-.4066-1.124-.6099-2.009-.6099h-3.843c-.552 0-1-.4477-1-1v-.6905c0-.5522.448-1 1-1h3.484c2.081 0 3.612.4544 4.592 1.3632 1.004.908 1.506 2.3652 1.507 4.3714v.0063c.001.1094.083 8.2165 0 8.6084-.078.3647-1.85 2.1997-2.119 2.4762zm-2.581-1.5793c.718 0 1.172-.1674 1.364-.5023.191-.3348.287-.7653.287-1.2914v-2.9461c0-.5522-.448-1-1-1h-2.767c-.622 0-1.136.2033-1.543.6099-.406.4066-.61.9207-.61 1.5425v1.7937c0 .6218.144 1.0762.431 1.3632s.741.4305 1.363.4305z"/><path d="m204.196 35c-.024.0242-.047.046-.073.0676-.816.6814-1.255 1.0435-2.15 1.0435h-2.475c-1.817 0-3.145-.3587-3.982-1.0761-.813-.7414-1.219-1.997-1.219-3.7667v-.7175c0-3.7069 1.745-5.5603 5.237-5.5603h2.731c.552 0 1-.4478 1-1v-.7937c0-.7414-.227-1.3154-.682-1.7219-.454-.4066-1.124-.6099-2.009-.6099h-3.842c-.553 0-1-.4477-1-1v-.6905c0-.5522.447-1 1-1h3.484c2.08 0 3.611.4544 4.591 1.3632 1.004.908 1.506 2.3652 1.507 4.3714v.0063c.001.1094.083 8.2165 0 8.6084-.077.3647-1.85 2.1997-2.118 2.4762zm-2.581-1.5793c.717 0 1.172-.1674 1.363-.5023.191-.3348.287-.7653.287-1.2914v-2.9461c0-.5522-.448-1-1-1h-2.767c-.622 0-1.136.2033-1.542.6099-.407.4066-.61.9207-.61 1.5425v1.7937c0 .6218.143 1.0762.43 1.3632s.742.4305 1.363.4305z"/><path d="m96.1296 30.4433c0 2.0567-.4783 3.5156-1.4349 4.3765-.9327.861-2.4872 1.2914-4.6635 1.2914h-6.0312c-.5523 0-1-.4477-1-1v-23.1112c0-.5523.4477-1 1-1h5.6007c2.1524 0 3.7786.4424 4.8787 1.3273 1.1001.861 1.6502 2.2839 1.6502 4.2689zm-3.121-14.1699c0-.7892-.2391-1.4111-.7174-1.8654-.4783-.4784-1.1121-.7175-1.9013-.7175h-3.2689c-.5523 0-1 .4477-1 1v17.7303c0 .5522.4477 1 1 1h3.233c.9088 0 1.5784-.2033 2.0089-.6099.4305-.4305.6457-1.1001.6457-2.0089z"/></g></svg>