<svg width="334" height="63" viewBox="0 0 334 63" fill="none" xmlns="http://www.w3.org/2000/svg">
<path d="M75.2343 62.4219C53.9815 43.5787 -7.36656 7.99524 0.731616 2.89058C23.4059 -11.4021 47.9459 30.2988 75.2343 62.4219Z" fill="white"/>
<path d="M59.6912 59.153C75.5789 45.0666 132.509 27.9167 125.686 23.6159C104.271 10.118 80.0909 35.1391 59.6912 59.153Z" fill="white"/>
<path d="M306.738 55.5358C306.738 57.9527 305.944 59.7477 304.357 60.9207C302.809 62.1292 300.37 62.7334 297.041 62.7334H286.931C286.037 62.7334 285.312 62.068 285.312 61.2472V60.221C285.312 59.4001 286.037 58.7347 286.931 58.7347H297.622C299.015 58.7347 300.061 58.4859 300.757 57.9883C301.454 57.4907 301.803 56.8509 301.803 56.0689V54.3628C301.803 53.5453 301.454 52.9055 300.757 52.4434C300.061 51.9458 299.015 51.697 297.622 51.697H289.544C288.65 51.697 287.925 51.0316 287.925 50.2108V45.2217C287.925 44.6778 287.591 44.1894 287.115 43.8659C286.239 43.2707 285.56 42.5044 285.08 41.5669C284.461 40.3584 284.151 38.7945 284.151 36.8751V35.5422C284.151 32.5565 284.945 30.3883 286.532 29.0377C288.157 27.687 290.654 27.0117 294.022 27.0117H304.248C305.142 27.0117 305.867 27.6771 305.867 28.4979V36.8751C305.867 39.5409 305.073 41.638 303.486 43.1664C301.899 44.6593 299.79 45.4057 297.157 45.4057H294.109C293.42 45.4057 292.861 45.9189 292.861 46.552C292.861 47.1851 293.42 47.6983 294.109 47.6983H297.041C300.37 47.6983 302.809 48.3025 304.357 49.511C305.944 50.684 306.738 52.479 306.738 54.896V55.5358ZM297.157 41.407C298.357 41.407 299.267 41.0516 299.886 40.3407C300.506 39.6298 300.854 38.8834 300.932 38.1014V32.4966C300.932 31.6758 300.207 31.0104 299.313 31.0104H293.441C292.009 31.0104 290.925 31.3125 290.19 31.9167C289.454 32.521 289.086 33.374 289.086 34.4759V37.9415C289.086 39.0433 289.454 39.8964 290.19 40.5006C290.925 41.1049 292.009 41.407 293.441 41.407H297.157Z" fill="white"/>
<path d="M245.554 53.6698C244.66 53.6698 243.935 53.0044 243.935 52.1836V26.358C243.935 24.797 241.65 24.2915 240.876 25.6813L238.73 29.5346C238.453 30.0315 237.896 30.3442 237.289 30.3442H234.349C233.784 30.3442 233.261 30.0744 232.967 29.6321L229.69 24.702C228.839 23.4202 226.69 23.9746 226.69 25.4761V52.1836C226.69 53.0044 225.966 53.6698 225.072 53.6698H223.664C222.77 53.6698 222.045 53.0044 222.045 52.1836V17.8348C222.045 17.014 222.77 16.3486 223.664 16.3486H229.295C229.875 16.3486 230.41 16.6332 230.699 17.0947L234.355 22.9399C234.998 23.9688 236.631 23.9245 237.207 22.8625L240.295 17.172C240.569 16.6675 241.13 16.3486 241.744 16.3486H247.136C248.03 16.3486 248.755 17.014 248.755 17.8348V52.1836C248.755 53.0044 248.03 53.6698 247.136 53.6698H245.554Z" fill="white"/>
<path d="M203.678 56.0156C203.213 57.6151 202.729 58.8947 202.226 59.8544C201.723 60.8496 201.007 61.6138 200.078 62.1469C199.187 62.7156 197.987 63 196.478 63C195.949 63 195.298 62.9549 194.524 62.8648C193.739 62.7734 193.168 62.1476 193.168 61.4211V60.5017C193.168 59.5972 194.041 58.9096 195.024 58.9665C195.424 58.9897 195.812 59.0013 196.187 59.0013C197.271 59.0013 198.045 58.2016 198.51 56.6021L199.294 54.1266C199.388 53.8294 199.379 53.5127 199.268 53.2205L190.031 28.9889C189.663 28.0226 190.444 27.0117 191.559 27.0117H193.393C194.118 27.0117 194.755 27.4548 194.951 28.096L199.665 43.5059C200.117 44.9826 202.412 44.9395 202.798 43.4471L206.75 28.1548C206.923 27.4847 207.575 27.0117 208.325 27.0117H209.99C211.054 27.0117 211.828 27.9372 211.554 28.8807L203.678 56.0156Z" fill="white"/>
<path d="M178.607 52.0183C178.569 52.0542 178.53 52.0866 178.488 52.1187C177.168 53.1315 176.458 53.6697 175.01 53.6697H171.003C168.061 53.6697 165.913 53.1365 164.558 52.0702C163.242 50.9683 162.584 49.1023 162.584 46.472V45.4057C162.584 39.8964 165.41 37.1417 171.061 37.1417H175.481C176.375 37.1417 177.1 36.4763 177.1 35.6555V34.4759C177.1 33.374 176.732 32.521 175.997 31.9167C175.261 31.3125 174.177 31.0104 172.745 31.0104H166.525C165.631 31.0104 164.907 30.345 164.907 29.5241V28.4979C164.907 27.6771 165.631 27.0117 166.525 27.0117H172.165C175.532 27.0117 178.01 27.687 179.597 29.0377C181.221 30.3872 182.034 32.5528 182.036 35.5346C182.036 35.5396 182.035 35.5388 182.036 35.5439C182.037 35.7065 182.17 47.7556 182.036 48.3381C181.91 48.88 179.042 51.6073 178.607 52.0183ZM174.429 49.671C175.59 49.671 176.326 49.4222 176.636 48.9246C176.945 48.4269 177.1 47.7872 177.1 47.0052V42.6267C177.1 41.8058 176.375 41.1404 175.481 41.1404H171.003C169.997 41.1404 169.165 41.4425 168.507 42.0468C167.848 42.651 167.519 43.4152 167.519 44.3394V47.0052C167.519 47.9293 167.752 48.6047 168.216 49.0312C168.681 49.4577 169.416 49.671 170.423 49.671H174.429Z" fill="white"/>
<path d="M272.446 52.0183C272.408 52.0542 272.37 52.0866 272.328 52.1187C271.008 53.1315 270.297 53.6697 268.849 53.6697H264.843C261.901 53.6697 259.753 53.1365 258.398 52.0702C257.082 50.9683 256.424 49.1023 256.424 46.472V45.4057C256.424 39.8964 259.249 37.1417 264.901 37.1417H269.321C270.215 37.1417 270.94 36.4763 270.94 35.6555V34.4759C270.94 33.374 270.572 32.521 269.837 31.9167C269.101 31.3125 268.017 31.0104 266.585 31.0104H260.365C259.471 31.0104 258.746 30.345 258.746 29.5241V28.4979C258.746 27.6771 259.471 27.0117 260.365 27.0117H266.004C269.372 27.0117 271.849 27.687 273.437 29.0377C275.061 30.3872 275.874 32.5528 275.875 35.5346C275.875 35.5396 275.875 35.5388 275.875 35.5439C275.877 35.7065 276.01 47.7556 275.875 48.3381C275.75 48.88 272.881 51.6073 272.446 52.0183ZM268.269 49.671C269.43 49.671 270.166 49.4222 270.475 48.9246C270.785 48.4269 270.94 47.7872 270.94 47.0052V42.6267C270.94 41.8058 270.215 41.1404 269.321 41.1404H264.843C263.837 41.1404 263.004 41.4425 262.346 42.0468C261.688 42.651 261.359 43.4152 261.359 44.3394V47.0052C261.359 47.9293 261.591 48.6047 262.056 49.0312C262.52 49.4577 263.256 49.671 264.262 49.671H268.269Z" fill="white"/>
<path d="M330.511 52.0183C330.473 52.0542 330.435 52.0866 330.393 52.1187C329.072 53.1315 328.362 53.6697 326.914 53.6697H322.908C319.966 53.6697 317.817 53.1365 316.462 52.0702C315.146 50.9683 314.488 49.1023 314.488 46.472V45.4057C314.488 39.8964 317.314 37.1417 322.966 37.1417H327.386C328.28 37.1417 329.004 36.4763 329.004 35.6555V34.4759C329.004 33.374 328.637 32.521 327.901 31.9167C327.166 31.3125 326.082 31.0104 324.65 31.0104H318.429C317.535 31.0104 316.811 30.345 316.811 29.5241V28.4979C316.811 27.6771 317.535 27.0117 318.429 27.0117H324.069C327.437 27.0117 329.914 27.687 331.501 29.0377C333.126 30.3872 333.938 32.5528 333.94 35.5346C333.94 35.5396 333.94 35.5388 333.94 35.5439C333.942 35.7065 334.074 47.7556 333.94 48.3381C333.815 48.88 330.946 51.6073 330.511 52.0183ZM326.333 49.671C327.495 49.671 328.23 49.4222 328.54 48.9246C328.849 48.4269 329.004 47.7872 329.004 47.0052V42.6267C329.004 41.8058 328.28 41.1404 327.386 41.1404H322.908C321.901 41.1404 321.069 41.4425 320.411 42.0468C319.753 42.651 319.424 43.4152 319.424 44.3394V47.0052C319.424 47.9293 319.656 48.6047 320.12 49.0312C320.585 49.4577 321.32 49.671 322.327 49.671H326.333Z" fill="white"/>
<path d="M155.595 45.2459C155.595 48.3027 154.821 50.4709 153.273 51.7505C151.763 53.03 149.247 53.6698 145.724 53.6698H135.962C135.068 53.6698 134.344 53.0044 134.344 52.1836V17.8348C134.344 17.014 135.068 16.3486 135.962 16.3486H145.028C148.511 16.3486 151.144 17.0062 152.924 18.3213C154.705 19.6009 155.595 21.7157 155.595 24.6659V45.2459ZM150.544 24.1861C150.544 23.0131 150.157 22.089 149.382 21.4136C148.608 20.7027 147.582 20.3473 146.305 20.3473H141.014C140.12 20.3473 139.395 21.0127 139.395 21.8335V48.1849C139.395 49.0057 140.12 49.6711 141.014 49.6711H146.247C147.718 49.6711 148.802 49.369 149.498 48.7648C150.195 48.125 150.544 47.1297 150.544 45.7791V24.1861Z" fill="white"/>
</svg>
